<svg width="21" height="28" viewBox="0 0 21 28" fill="none" xmlns="http://www.w3.org/2000/svg">
<g clip-path="url(#clip0_189_228)">
<path d="M10.5 0C9.67027 0 8.99996 0.782031 8.99996 1.75V2.8C5.57808 3.60938 2.99996 7.14219 2.99996 11.375V12.4031C2.99996 14.9734 2.18902 17.4562 0.72652 19.3813L0.379645 19.8352C-0.0141053 20.3492 -0.107855 21.0875 0.131207 21.7164C0.37027 22.3453 0.909332 22.75 1.49996 22.75H19.5C20.0906 22.75 20.625 22.3453 20.8687 21.7164C21.1125 21.0875 21.014 20.3492 20.6203 19.8352L20.2734 19.3813C18.8109 17.4562 18 14.9789 18 12.4031V11.375C18 7.14219 15.4218 3.60938 12 2.8V1.75C12 0.782031 11.3296 0 10.5 0ZM12.6234 26.9773C13.1859 26.3211 13.5 25.4297 13.5 24.5H10.5H7.49996C7.49996 25.4297 7.81402 26.3211 8.37652 26.9773C8.93902 27.6336 9.70308 28 10.5 28C11.2968 28 12.0609 27.6336 12.6234 26.9773Z" fill="white"/>
</g>
<defs>
<clipPath id="clip0_189_228">
<rect width="21" height="28" fill="white"/>
</clipPath>
</defs>
</svg>
