<svg width="43" height="48" viewBox="0 0 43 48" fill="none" xmlns="http://www.w3.org/2000/svg">
<g clip-path="url(#clip0_462_1315)">
<path fill-rule="evenodd" clip-rule="evenodd" d="M6 15C6 6.71572 12.7157 0 21 0C29.2842 0 36 6.71572 36 15C36 23.2842 29.2842 30 21 30C12.7157 30 6 23.2842 6 15ZM20.1436 21.4212L28.781 10.6246L27.2192 9.37524L19.8565 18.5786L14.6402 14.2317L13.3599 15.7682L20.1436 21.4212Z" fill="#5E2A96"/>
</g>
<path d="M5.90625 40.1875L8.25781 40.1562C8.20052 40.9635 7.98438 41.6719 7.60938 42.2812C7.23958 42.8854 6.74219 43.3542 6.11719 43.6875C5.49219 44.0208 4.77344 44.1771 3.96094 44.1562C3.26302 44.1406 2.6875 43.9896 2.23438 43.7031C1.78125 43.4115 1.43229 43.0286 1.1875 42.5547C0.947917 42.0755 0.794271 41.5469 0.726562 40.9688C0.664062 40.3854 0.671875 39.7943 0.75 39.1953L1.02344 37.4297C1.11719 36.7995 1.27604 36.1849 1.5 35.5859C1.72396 34.987 2.02344 34.4505 2.39844 33.9766C2.77865 33.4974 3.23958 33.1224 3.78125 32.8516C4.32292 32.5755 4.94792 32.4453 5.65625 32.4609C6.47917 32.4766 7.13802 32.6667 7.63281 33.0312C8.1276 33.3958 8.48698 33.8828 8.71094 34.4922C8.9349 35.0964 9.04688 35.776 9.04688 36.5312L6.625 36.5156C6.65625 36.1719 6.65885 35.849 6.63281 35.5469C6.61198 35.2396 6.51823 34.9896 6.35156 34.7969C6.1849 34.599 5.89323 34.4922 5.47656 34.4766C5.08073 34.4609 4.75781 34.5443 4.50781 34.7266C4.26302 34.9089 4.07031 35.1536 3.92969 35.4609C3.78906 35.763 3.6849 36.0885 3.61719 36.4375C3.54948 36.7812 3.49479 37.1068 3.45312 37.4141L3.20312 39.2031C3.16667 39.4479 3.1276 39.737 3.08594 40.0703C3.04427 40.3984 3.03385 40.7188 3.05469 41.0312C3.08073 41.3385 3.17188 41.599 3.32812 41.8125C3.48958 42.0208 3.75521 42.1354 4.125 42.1562C4.54688 42.1719 4.88021 42.0938 5.125 41.9219C5.375 41.7448 5.55729 41.5052 5.67188 41.2031C5.78646 40.8958 5.86458 40.5573 5.90625 40.1875ZM13.2188 32L11.1328 44H8.80469L10.8906 32H13.2188ZM11.6328 39.5L11.125 39.5234C11.1667 39.1068 11.2448 38.6589 11.3594 38.1797C11.4792 37.6953 11.6536 37.237 11.8828 36.8047C12.112 36.3724 12.4062 36.0234 12.7656 35.7578C13.1302 35.4922 13.5755 35.3672 14.1016 35.3828C14.5547 35.3932 14.9167 35.5026 15.1875 35.7109C15.4583 35.9193 15.6589 36.1875 15.7891 36.5156C15.9193 36.8438 15.9974 37.2005 16.0234 37.5859C16.0495 37.9661 16.0417 38.3411 16 38.7109L15.1172 44H12.7969L13.6797 38.6875C13.6953 38.4948 13.7031 38.2943 13.7031 38.0859C13.7031 37.8724 13.6562 37.6901 13.5625 37.5391C13.474 37.388 13.3021 37.3099 13.0469 37.3047C12.7656 37.2943 12.5365 37.362 12.3594 37.5078C12.1823 37.6536 12.0469 37.8438 11.9531 38.0781C11.8594 38.3073 11.7891 38.5495 11.7422 38.8047C11.7005 39.0547 11.6641 39.2865 11.6328 39.5ZM16.9922 40.1094L17.0703 39.4531C17.138 38.9115 17.2682 38.3958 17.4609 37.9062C17.6536 37.4115 17.9089 36.9714 18.2266 36.5859C18.5495 36.2005 18.9401 35.901 19.3984 35.6875C19.8568 35.474 20.3854 35.375 20.9844 35.3906C21.5573 35.401 22.0365 35.5234 22.4219 35.7578C22.8073 35.987 23.1094 36.2943 23.3281 36.6797C23.5469 37.0651 23.6927 37.4974 23.7656 37.9766C23.8385 38.4505 23.849 38.9401 23.7969 39.4453L23.7188 40.1172C23.651 40.6484 23.5208 41.1615 23.3281 41.6562C23.1406 42.151 22.8828 42.5885 22.5547 42.9688C22.2318 43.349 21.8438 43.6458 21.3906 43.8594C20.9375 44.0729 20.4115 44.1719 19.8125 44.1562C19.2396 44.1458 18.7604 44.026 18.375 43.7969C17.9948 43.5625 17.6927 43.2552 17.4688 42.875C17.25 42.4896 17.1016 42.0599 17.0234 41.5859C16.9505 41.1068 16.9401 40.6146 16.9922 40.1094ZM19.4062 39.4453L19.3281 40.1172C19.3177 40.2786 19.2995 40.4766 19.2734 40.7109C19.2526 40.9401 19.2526 41.1719 19.2734 41.4062C19.2943 41.6354 19.3594 41.8307 19.4688 41.9922C19.5833 42.1484 19.763 42.2318 20.0078 42.2422C20.2891 42.263 20.5156 42.2031 20.6875 42.0625C20.8646 41.9219 21 41.7396 21.0938 41.5156C21.1927 41.2865 21.263 41.0469 21.3047 40.7969C21.3464 40.5469 21.3802 40.3151 21.4062 40.1016L21.4844 39.4297C21.4948 39.2786 21.5104 39.0859 21.5312 38.8516C21.5521 38.6172 21.5495 38.3854 21.5234 38.1562C21.5026 37.9271 21.4375 37.7318 21.3281 37.5703C21.2188 37.4089 21.0391 37.3203 20.7891 37.3047C20.5182 37.2891 20.2969 37.3542 20.125 37.5C19.9583 37.6406 19.8255 37.8255 19.7266 38.0547C19.6276 38.2839 19.5547 38.5234 19.5078 38.7734C19.4609 39.0182 19.4271 39.2422 19.4062 39.4453ZM28.125 35.5469L26.6641 44H24.3359L25.8047 35.5469H28.125ZM26.0781 33.3984C26.0781 33.0339 26.1979 32.7318 26.4375 32.4922C26.6823 32.2526 26.9844 32.1302 27.3438 32.125C27.6927 32.1198 27.987 32.2292 28.2266 32.4531C28.4714 32.6771 28.5938 32.9688 28.5938 33.3281C28.5938 33.6875 28.474 33.987 28.2344 34.2266C27.9948 34.4661 27.6927 34.5885 27.3281 34.5938C26.9792 34.6042 26.6849 34.4974 26.4453 34.2734C26.2057 34.0495 26.0833 33.7578 26.0781 33.3984ZM31.5234 42.25C31.7682 42.2552 31.9557 42.2005 32.0859 42.0859C32.2214 41.9661 32.3177 41.8125 32.375 41.625C32.4375 41.4375 32.4818 41.2396 32.5078 41.0312L34.6719 41.0234C34.6354 41.6328 34.4766 42.1771 34.1953 42.6562C33.9141 43.1302 33.5365 43.5026 33.0625 43.7734C32.5885 44.0443 32.0391 44.1745 31.4141 44.1641C30.8255 44.1484 30.3385 44.0286 29.9531 43.8047C29.5729 43.5807 29.2786 43.2786 29.0703 42.8984C28.862 42.5182 28.7266 42.0911 28.6641 41.6172C28.6016 41.138 28.599 40.6406 28.6562 40.125L28.75 39.4219C28.8177 38.8802 28.9401 38.3646 29.1172 37.875C29.2995 37.3802 29.5417 36.9453 29.8438 36.5703C30.151 36.1901 30.5286 35.8958 30.9766 35.6875C31.4245 35.474 31.9531 35.375 32.5625 35.3906C33.2188 35.4062 33.7422 35.5703 34.1328 35.8828C34.5234 36.1901 34.7995 36.5964 34.9609 37.1016C35.1224 37.6016 35.1875 38.151 35.1562 38.75L32.9688 38.7422C32.9844 38.5443 32.9922 38.3385 32.9922 38.125C32.9974 37.9062 32.9531 37.7188 32.8594 37.5625C32.7656 37.401 32.5911 37.3151 32.3359 37.3047C32.0495 37.2943 31.8255 37.3594 31.6641 37.5C31.5026 37.6354 31.3828 37.8151 31.3047 38.0391C31.2266 38.2578 31.1745 38.4922 31.1484 38.7422C31.1224 38.987 31.0964 39.2135 31.0703 39.4219L31 40.1328C30.9792 40.2891 30.9479 40.4844 30.9062 40.7188C30.8698 40.9531 30.849 41.1849 30.8438 41.4141C30.8438 41.6432 30.8906 41.8385 30.9844 42C31.0833 42.1562 31.263 42.2396 31.5234 42.25ZM38.8906 44.1562C38.3281 44.1458 37.8411 44.0417 37.4297 43.8438C37.0234 43.6406 36.6927 43.362 36.4375 43.0078C36.1875 42.6536 36.013 42.2474 35.9141 41.7891C35.8151 41.3307 35.7891 40.8359 35.8359 40.3047L35.9375 39.5078C36.0052 38.9505 36.1302 38.4219 36.3125 37.9219C36.5 37.4219 36.7526 36.9792 37.0703 36.5938C37.388 36.2031 37.7734 35.901 38.2266 35.6875C38.6849 35.474 39.2266 35.3724 39.8516 35.3828C40.4245 35.3984 40.8932 35.5234 41.2578 35.7578C41.6276 35.9922 41.9089 36.3021 42.1016 36.6875C42.2995 37.0729 42.4245 37.5052 42.4766 37.9844C42.5339 38.4583 42.5312 38.9427 42.4688 39.4375L42.3047 40.5547H36.6953L36.9766 38.9531L40.2422 38.9609L40.2891 38.7031C40.3203 38.5 40.3333 38.2943 40.3281 38.0859C40.3281 37.8724 40.2786 37.6927 40.1797 37.5469C40.0859 37.401 39.9089 37.3177 39.6484 37.2969C39.3516 37.2865 39.1146 37.3516 38.9375 37.4922C38.7656 37.6328 38.6354 37.8203 38.5469 38.0547C38.4583 38.2839 38.3932 38.5286 38.3516 38.7891C38.3151 39.0443 38.2839 39.2839 38.2578 39.5078L38.1641 40.3125C38.138 40.5365 38.125 40.7578 38.125 40.9766C38.125 41.1953 38.1536 41.3984 38.2109 41.5859C38.2682 41.7682 38.3698 41.9193 38.5156 42.0391C38.6615 42.1536 38.875 42.2135 39.1562 42.2188C39.5 42.2292 39.8203 42.1693 40.1172 42.0391C40.4193 41.9089 40.6953 41.7292 40.9453 41.5L41.7656 42.9766C41.5521 43.263 41.2839 43.4948 40.9609 43.6719C40.6432 43.8438 40.3021 43.9688 39.9375 44.0469C39.5781 44.125 39.2292 44.1615 38.8906 44.1562Z" fill="#5E2A96"/>
<defs>
<clipPath id="clip0_462_1315">
<rect width="30" height="30" fill="white" transform="translate(6)"/>
</clipPath>
</defs>
</svg>
