<svg width="30" height="30" viewBox="0 0 30 30" fill="none" xmlns="http://www.w3.org/2000/svg">
<path d="M29.4415 16.4395H22.3004C21.6339 16.4395 21.0379 16.7068 20.6012 17.1426C20.1654 17.5793 19.8972 18.1753 19.8972 18.8418C19.8972 19.5065 20.1654 20.1034 20.6012 20.5401C21.0379 20.9768 21.6339 21.2432 22.3004 21.2441H29.4415C29.7492 21.2441 30 20.9933 30 20.6847V16.9979C30 16.6885 29.7492 16.4395 29.4415 16.4395ZM22.3407 19.642C21.8985 19.642 21.5405 19.2831 21.5405 18.8418C21.5405 18.3987 21.8985 18.0398 22.3407 18.0398C22.7829 18.0398 23.1418 18.3987 23.1418 18.8418C23.1418 19.2831 22.7829 19.642 22.3407 19.642Z" fill="#FFD429"/>
<path d="M18.4186 18.8416C18.4204 16.6974 20.1562 14.9607 22.3004 14.9597H28.7109V10.3473C28.7109 8.42654 27.2314 6.85184 25.3491 6.69709V6.68244H4.57213C4.02281 6.68244 3.57604 6.2366 3.57604 5.68729C3.57604 5.13615 4.02281 4.69119 4.57213 4.69119H25.3473C25.3198 2.69074 23.6902 1.07666 21.6834 1.07666H5.86488C2.71365 1.07666 0.150176 3.56414 0.012832 6.68244H0V6.94154V11.2079V23.0585C0 26.2976 2.62576 28.9234 5.86488 28.9234H25.0461C27.0703 28.9233 28.7109 27.2818 28.7109 25.2576V22.7216H22.3004C20.1562 22.7215 18.4204 20.9839 18.4186 18.8416ZM14.328 21.7703C14.1247 22.1512 13.8446 22.4689 13.4912 22.7298C13.136 22.9889 12.7121 23.183 12.2186 23.3102C12.0025 23.3643 11.7764 23.4027 11.5466 23.4338V24.8712H9.83092V23.4631C9.34201 23.421 8.87508 23.3441 8.43563 23.2242C7.76361 23.0401 6.88383 22.2976 6.88383 22.2976C6.80877 22.2537 6.75838 22.1759 6.74742 22.0898C6.73828 22.0037 6.76664 21.9176 6.82799 21.8554L7.68768 20.9967C7.78107 20.9042 7.92481 20.8868 8.03648 20.9545C8.03648 20.9545 8.6792 21.513 9.16811 21.6467C9.6552 21.7795 10.1386 21.8463 10.6211 21.8463C11.2299 21.8463 11.7334 21.7382 12.1326 21.524C12.5318 21.307 12.7314 20.9729 12.7314 20.5151C12.7314 20.1855 12.6343 19.9264 12.4356 19.735C12.2397 19.5464 11.9074 19.4265 11.4386 19.3743L9.89871 19.2425C8.98682 19.1528 8.28188 18.8992 7.78934 18.4808C7.29311 18.0633 7.04777 17.4288 7.04777 16.581C7.04777 16.1113 7.14205 15.6939 7.33248 15.3258C7.52291 14.9587 7.78201 14.6483 8.1116 14.3957C8.44119 14.1421 8.82481 13.9507 9.2615 13.8244C9.44461 13.7713 9.63686 13.7365 9.83098 13.7054V12.4666H11.5467V13.6797C11.9477 13.72 12.3285 13.7841 12.6837 13.8812C13.2853 14.046 13.9179 14.5403 13.9179 14.5403C13.9966 14.5806 14.0515 14.6585 14.0644 14.7463C14.0781 14.8352 14.0488 14.9231 13.9856 14.988L13.18 15.8065C13.0939 15.8935 12.9612 15.9155 12.8513 15.8596C12.8513 15.8596 12.3743 15.519 11.9614 15.4119C11.5485 15.3039 11.1163 15.2498 10.6586 15.2498C10.0635 15.2498 9.62221 15.3643 9.33844 15.5913C9.05279 15.8202 8.91088 16.1187 8.91088 16.4849C8.91088 16.8154 9.01066 17.069 9.21574 17.2448C9.41719 17.4233 9.75955 17.5378 10.2411 17.5872L11.5906 17.7026C12.5922 17.7905 13.3484 18.056 13.8621 18.5C14.3757 18.944 14.632 19.5904 14.632 20.4381C14.632 20.9473 14.5303 21.3904 14.328 21.7703Z" fill="#FFD429"/>
</svg>
