<svg width="40" height="40" viewBox="0 0 40 40" fill="none" xmlns="http://www.w3.org/2000/svg">
<path d="M25.7274 15.2732C25.7274 12.3634 29.1819 9.99984 29.1819 7.72711C29.1819 6.3193 28.1543 5.09383 26.6367 4.46039V0H25.3642V4.09297C25.0122 4.03242 24.6476 4.00008 24.2731 4.00008C22.4402 4.00008 20.8439 4.76305 20.0007 5.89211C19.1574 4.76312 17.5596 4.00008 15.7268 4.00008C15.3523 4.00008 14.9877 4.03242 14.6358 4.09297V0H13.3633V4.46031C11.8472 5.09375 10.8181 6.31922 10.8181 7.72703C10.8181 9.99977 14.2727 12.3634 14.2727 15.2731C14.2727 24.3636 7.36353 23.4549 7.36353 35.9998C7.36353 35.9998 8.6361 37.4548 13.1817 37.4548C16.097 37.4548 16.9093 39.9999 20.0007 39.9999C23.0907 39.9999 23.9029 37.4548 26.8183 37.4548C31.3639 37.4548 32.6365 35.9998 32.6365 35.9998C32.6365 23.455 25.7274 24.3636 25.7274 15.2732Z" fill="#A567C6"/>
</svg>
