<svg width="30" height="30" viewBox="0 0 30 30" fill="none" xmlns="http://www.w3.org/2000/svg">
<path d="M1.90796 14.0624H9.38502C9.46206 10.474 9.97875 7.21167 10.796 4.7598C11.1128 3.80962 11.4833 2.95456 11.9081 2.24121C6.44482 3.56045 2.31482 8.29749 1.90796 14.0624Z" fill="#3A52EE"/>
<path d="M1.90796 15.9375C2.31482 21.7025 6.44482 26.4395 11.9081 27.7587C11.4833 27.0454 11.1128 26.1904 10.796 25.2401C9.97875 22.7882 9.46206 19.526 9.38502 15.9375H1.90796Z" fill="#3A52EE"/>
<path d="M18.0919 27.7587C23.5552 26.4395 27.6852 21.7025 28.092 15.9375H20.615C20.5379 19.526 20.0213 22.7882 19.204 25.2401C18.8873 26.1904 18.5167 27.0454 18.0919 27.7587Z" fill="#3A52EE"/>
<path d="M28.092 14.0624C27.6852 8.29749 23.5552 3.56045 18.0919 2.24121C18.5167 2.95456 18.8873 3.80962 19.204 4.7598C20.0213 7.21167 20.5379 10.474 20.615 14.0624H28.092Z" fill="#3A52EE"/>
<path d="M15 1.875C14.7631 1.875 14.3884 2.01814 13.9118 2.62289C13.4435 3.21707 12.9808 4.13496 12.5749 5.35277C11.8331 7.57784 11.3375 10.6317 11.2605 14.0625H18.7395C18.6625 10.6317 18.1669 7.57784 17.4251 5.35277C17.0193 4.13496 16.5565 3.21707 16.0883 2.62289C15.6116 2.01814 15.2369 1.875 15 1.875Z" fill="#3A52EE"/>
<path d="M17.4251 24.6473C18.1669 22.4221 18.6625 19.3684 18.7395 15.9375H11.2605C11.3375 19.3684 11.8331 22.4221 12.5749 24.6473C12.9808 25.865 13.4435 26.7829 13.9118 27.3771C14.3884 27.9819 14.7631 28.125 15 28.125C15.2369 28.125 15.6116 27.9819 16.0883 27.3771C16.5565 26.7829 17.0193 25.865 17.4251 24.6473Z" fill="#3A52EE"/>
</svg>
