<svg width="58" height="32" viewBox="0 0 58 32" fill="none" xmlns="http://www.w3.org/2000/svg">
<path d="M3.23438 9.33594L6.42969 0.625H9.19531L4.28125 12H2.48438L3.23438 9.33594ZM3.01562 0.625L3.50781 9.55469L3.44531 12H1.71875L0.390625 0.625H3.01562ZM8.22656 8.10938L8.30469 7.45312C8.3724 6.91146 8.5026 6.39583 8.69531 5.90625C8.88802 5.41146 9.14323 4.97135 9.46094 4.58594C9.78385 4.20052 10.1745 3.90104 10.6328 3.6875C11.0911 3.47396 11.6198 3.375 12.2188 3.39062C12.7917 3.40104 13.2708 3.52344 13.6562 3.75781C14.0417 3.98698 14.3438 4.29427 14.5625 4.67969C14.7812 5.0651 14.9271 5.4974 15 5.97656C15.0729 6.45052 15.0833 6.9401 15.0312 7.44531L14.9531 8.11719C14.8854 8.64844 14.7552 9.16146 14.5625 9.65625C14.375 10.151 14.1172 10.5885 13.7891 10.9688C13.4661 11.349 13.0781 11.6458 12.625 11.8594C12.1719 12.0729 11.6458 12.1719 11.0469 12.1562C10.474 12.1458 9.99479 12.026 9.60938 11.7969C9.22917 11.5625 8.92708 11.2552 8.70312 10.875C8.48438 10.4896 8.33594 10.0599 8.25781 9.58594C8.1849 9.10677 8.17448 8.61458 8.22656 8.10938ZM10.6406 7.44531L10.5625 8.11719C10.5521 8.27865 10.5339 8.47656 10.5078 8.71094C10.487 8.9401 10.487 9.17188 10.5078 9.40625C10.5286 9.63542 10.5938 9.83073 10.7031 9.99219C10.8177 10.1484 10.9974 10.2318 11.2422 10.2422C11.5234 10.263 11.75 10.2031 11.9219 10.0625C12.099 9.92188 12.2344 9.73958 12.3281 9.51562C12.4271 9.28646 12.4974 9.04688 12.5391 8.79688C12.5807 8.54688 12.6146 8.3151 12.6406 8.10156L12.7188 7.42969C12.7292 7.27865 12.7448 7.08594 12.7656 6.85156C12.7865 6.61719 12.7839 6.38542 12.7578 6.15625C12.737 5.92708 12.6719 5.73177 12.5625 5.57031C12.4531 5.40885 12.2734 5.32031 12.0234 5.30469C11.7526 5.28906 11.5312 5.35417 11.3594 5.5C11.1927 5.64062 11.0599 5.82552 10.9609 6.05469C10.862 6.28385 10.7891 6.52344 10.7422 6.77344C10.6953 7.01823 10.6615 7.24219 10.6406 7.44531ZM19.7656 9.83594L20.8594 3.54688H23.1953L21.7266 12H19.5625L19.7656 9.83594ZM20.2344 8.1875L20.7812 8.17188C20.7396 8.58854 20.6641 9.03385 20.5547 9.50781C20.4453 9.97656 20.2839 10.4141 20.0703 10.8203C19.8568 11.2266 19.5729 11.5573 19.2188 11.8125C18.8698 12.0625 18.4297 12.1797 17.8984 12.1641C17.4609 12.1536 17.1068 12.0547 16.8359 11.8672C16.5703 11.6797 16.3672 11.4323 16.2266 11.125C16.0859 10.8125 15.9974 10.474 15.9609 10.1094C15.9297 9.73958 15.9349 9.375 15.9766 9.01562L16.8906 3.54688H19.2031L18.2891 9.04688C18.2734 9.14583 18.263 9.26302 18.2578 9.39844C18.2578 9.53385 18.2708 9.66406 18.2969 9.78906C18.3281 9.90885 18.3802 10.0104 18.4531 10.0938C18.5312 10.1771 18.6458 10.2214 18.7969 10.2266C19.1667 10.2474 19.4479 10.1484 19.6406 9.92969C19.8385 9.70573 19.9792 9.43229 20.0625 9.10938C20.1458 8.78125 20.2031 8.47396 20.2344 8.1875ZM26.4453 10.25C26.6901 10.2552 26.8776 10.2005 27.0078 10.0859C27.1432 9.96615 27.2396 9.8125 27.2969 9.625C27.3594 9.4375 27.4036 9.23958 27.4297 9.03125L29.5938 9.02344C29.5573 9.63281 29.3984 10.1771 29.1172 10.6562C28.8359 11.1302 28.4583 11.5026 27.9844 11.7734C27.5104 12.0443 26.9609 12.1745 26.3359 12.1641C25.7474 12.1484 25.2604 12.0286 24.875 11.8047C24.4948 11.5807 24.2005 11.2786 23.9922 10.8984C23.7839 10.5182 23.6484 10.0911 23.5859 9.61719C23.5234 9.13802 23.5208 8.64062 23.5781 8.125L23.6719 7.42188C23.7396 6.88021 23.862 6.36458 24.0391 5.875C24.2214 5.38021 24.4635 4.94531 24.7656 4.57031C25.0729 4.1901 25.4505 3.89583 25.8984 3.6875C26.3464 3.47396 26.875 3.375 27.4844 3.39062C28.1406 3.40625 28.6641 3.57031 29.0547 3.88281C29.4453 4.1901 29.7214 4.59635 29.8828 5.10156C30.0443 5.60156 30.1094 6.15104 30.0781 6.75L27.8906 6.74219C27.9062 6.54427 27.9141 6.33854 27.9141 6.125C27.9193 5.90625 27.875 5.71875 27.7812 5.5625C27.6875 5.40104 27.513 5.3151 27.2578 5.30469C26.9714 5.29427 26.7474 5.35938 26.5859 5.5C26.4245 5.63542 26.3047 5.8151 26.2266 6.03906C26.1484 6.25781 26.0964 6.49219 26.0703 6.74219C26.0443 6.98698 26.0182 7.21354 25.9922 7.42188L25.9219 8.13281C25.901 8.28906 25.8698 8.48438 25.8281 8.71875C25.7917 8.95312 25.7708 9.1849 25.7656 9.41406C25.7656 9.64323 25.8125 9.83854 25.9062 10C26.0052 10.1562 26.1849 10.2396 26.4453 10.25ZM34.625 0L32.5391 12H30.2109L32.2969 0H34.625ZM33.0391 7.5L32.5312 7.52344C32.5729 7.10677 32.651 6.65885 32.7656 6.17969C32.8854 5.69531 33.0599 5.23698 33.2891 4.80469C33.5182 4.3724 33.8125 4.02344 34.1719 3.75781C34.5365 3.49219 34.9818 3.36719 35.5078 3.38281C35.9609 3.39323 36.3229 3.5026 36.5938 3.71094C36.8646 3.91927 37.0651 4.1875 37.1953 4.51562C37.3255 4.84375 37.4036 5.20052 37.4297 5.58594C37.4557 5.96615 37.4479 6.34115 37.4062 6.71094L36.5234 12H34.2031L35.0859 6.6875C35.1016 6.49479 35.1094 6.29427 35.1094 6.08594C35.1094 5.8724 35.0625 5.6901 34.9688 5.53906C34.8802 5.38802 34.7083 5.3099 34.4531 5.30469C34.1719 5.29427 33.9427 5.36198 33.7656 5.50781C33.5885 5.65365 33.4531 5.84375 33.3594 6.07812C33.2656 6.30729 33.1953 6.54948 33.1484 6.80469C33.1068 7.05469 33.0703 7.28646 33.0391 7.5ZM41.4844 12.1562C40.9219 12.1458 40.4349 12.0417 40.0234 11.8438C39.6172 11.6406 39.2865 11.362 39.0312 11.0078C38.7812 10.6536 38.6068 10.2474 38.5078 9.78906C38.4089 9.33073 38.3828 8.83594 38.4297 8.30469L38.5312 7.50781C38.599 6.95052 38.724 6.42188 38.9062 5.92188C39.0938 5.42188 39.3464 4.97917 39.6641 4.59375C39.9818 4.20312 40.3672 3.90104 40.8203 3.6875C41.2786 3.47396 41.8203 3.3724 42.4453 3.38281C43.0182 3.39844 43.487 3.52344 43.8516 3.75781C44.2214 3.99219 44.5026 4.30208 44.6953 4.6875C44.8932 5.07292 45.0182 5.50521 45.0703 5.98438C45.1276 6.45833 45.125 6.94271 45.0625 7.4375L44.8984 8.55469H39.2891L39.5703 6.95312L42.8359 6.96094L42.8828 6.70312C42.9141 6.5 42.9271 6.29427 42.9219 6.08594C42.9219 5.8724 42.8724 5.69271 42.7734 5.54688C42.6797 5.40104 42.5026 5.31771 42.2422 5.29688C41.9453 5.28646 41.7083 5.35156 41.5312 5.49219C41.3594 5.63281 41.2292 5.82031 41.1406 6.05469C41.0521 6.28385 40.987 6.52865 40.9453 6.78906C40.9089 7.04427 40.8776 7.28385 40.8516 7.50781L40.7578 8.3125C40.7318 8.53646 40.7188 8.75781 40.7188 8.97656C40.7188 9.19531 40.7474 9.39844 40.8047 9.58594C40.862 9.76823 40.9635 9.91927 41.1094 10.0391C41.2552 10.1536 41.4688 10.2135 41.75 10.2188C42.0938 10.2292 42.4141 10.1693 42.7109 10.0391C43.013 9.90885 43.2891 9.72917 43.5391 9.5L44.3594 10.9766C44.1458 11.263 43.8776 11.4948 43.5547 11.6719C43.237 11.8438 42.8958 11.9688 42.5312 12.0469C42.1719 12.125 41.8229 12.1615 41.4844 12.1562ZM48.8438 5.66406L47.7422 12H45.4219L46.8906 3.54688H49.0547L48.8438 5.66406ZM51.1016 3.48438L50.7812 5.79688C50.6615 5.77604 50.5391 5.75781 50.4141 5.74219C50.2943 5.72656 50.1745 5.71615 50.0547 5.71094C49.7943 5.70573 49.5677 5.75 49.375 5.84375C49.1875 5.93229 49.0286 6.0599 48.8984 6.22656C48.7682 6.38802 48.6641 6.57292 48.5859 6.78125C48.5078 6.98958 48.4479 7.21094 48.4062 7.44531L48.0234 7.20312C48.0651 6.875 48.1302 6.49479 48.2188 6.0625C48.3073 5.625 48.4375 5.20052 48.6094 4.78906C48.7812 4.3724 49.0104 4.03125 49.2969 3.76562C49.5885 3.5 49.9609 3.36719 50.4141 3.36719C50.5339 3.3724 50.6484 3.38542 50.7578 3.40625C50.8724 3.42708 50.987 3.45312 51.1016 3.48438ZM54.6562 9.66406C54.6875 9.48177 54.6354 9.32812 54.5 9.20312C54.3698 9.07292 54.2135 8.96094 54.0312 8.86719C53.849 8.77344 53.6979 8.6901 53.5781 8.61719C53.3073 8.48177 53.0469 8.33333 52.7969 8.17188C52.5521 8.01042 52.3359 7.82812 52.1484 7.625C51.9609 7.42188 51.8151 7.1901 51.7109 6.92969C51.612 6.66406 51.5729 6.36198 51.5938 6.02344C51.6146 5.60677 51.7135 5.23438 51.8906 4.90625C52.0729 4.57812 52.3099 4.29948 52.6016 4.07031C52.8932 3.84115 53.2214 3.66927 53.5859 3.55469C53.9557 3.4349 54.3411 3.3776 54.7422 3.38281C55.2839 3.39323 55.7656 3.50521 56.1875 3.71875C56.6094 3.92708 56.9401 4.23177 57.1797 4.63281C57.4193 5.02865 57.5365 5.5026 57.5312 6.05469H55.2188C55.224 5.89323 55.2188 5.73958 55.2031 5.59375C55.1927 5.44271 55.1458 5.31771 55.0625 5.21875C54.9792 5.11979 54.8359 5.07292 54.6328 5.07812C54.4766 5.08333 54.3385 5.125 54.2188 5.20312C54.099 5.27604 54.0026 5.375 53.9297 5.5C53.8568 5.625 53.8047 5.75781 53.7734 5.89844C53.7474 6.02865 53.7604 6.14583 53.8125 6.25C53.8698 6.34896 53.9453 6.4401 54.0391 6.52344C54.138 6.60156 54.2448 6.67188 54.3594 6.73438C54.474 6.79688 54.5781 6.84896 54.6719 6.89062C55.0781 7.07292 55.4531 7.27604 55.7969 7.5C56.1406 7.72396 56.4141 8 56.6172 8.32812C56.8203 8.65104 56.9115 9.0651 56.8906 9.57031C56.8698 10.0078 56.7604 10.3906 56.5625 10.7188C56.3646 11.0417 56.1068 11.3125 55.7891 11.5312C55.4766 11.7448 55.1276 11.9036 54.7422 12.0078C54.3568 12.1172 53.9635 12.1667 53.5625 12.1562C53.0208 12.1406 52.5365 12.0156 52.1094 11.7812C51.6875 11.5469 51.3542 11.224 51.1094 10.8125C50.8698 10.401 50.7474 9.91927 50.7422 9.36719L52.9219 9.375C52.9167 9.57812 52.9297 9.76302 52.9609 9.92969C52.9974 10.0911 53.0729 10.2214 53.1875 10.3203C53.3073 10.4141 53.4844 10.4609 53.7188 10.4609C53.8854 10.4609 54.0339 10.4297 54.1641 10.3672C54.2943 10.2995 54.401 10.2083 54.4844 10.0938C54.5677 9.97396 54.625 9.83073 54.6562 9.66406ZM19.3984 28.9922L19.0469 31H14.2266L14.5781 28.9922H19.3984ZM17 19.625L15.0312 31H12.6172L14.5859 19.625H17ZM19.6016 24.1875L19.2578 26.125H15.0703L15.4141 24.1875H19.6016ZM21.0234 19.625L20.6719 21.6406H15.8438L16.1953 19.625H21.0234ZM23.5078 22.5469L23.9453 24.9453L25.1875 22.5469H27.7031L25.2109 26.7812L26.3672 31H24.0156L23.5078 28.4375L22.1875 31H19.6484L22.2578 26.5625L21.1484 22.5469H23.5078ZM32.3984 22.5469L32.0859 24.2891H27.8125L28.125 22.5469H32.3984ZM29.3594 20.4531H31.6797L30.3359 28.3516C30.3151 28.487 30.3047 28.6172 30.3047 28.7422C30.3047 28.862 30.3333 28.9635 30.3906 29.0469C30.4531 29.125 30.5677 29.1693 30.7344 29.1797C30.8229 29.1797 30.9115 29.1745 31 29.1641C31.0885 29.1536 31.1745 29.1406 31.2578 29.125L31.0703 30.9531C30.8828 31.0208 30.6901 31.0703 30.4922 31.1016C30.2943 31.1328 30.0911 31.1484 29.8828 31.1484C29.388 31.138 28.9948 31.0182 28.7031 30.7891C28.4115 30.5547 28.2083 30.2474 28.0938 29.8672C27.9844 29.4818 27.9505 29.0625 27.9922 28.6094L29.3594 20.4531ZM35.4297 24.6641L34.3281 31H32.0078L33.4766 22.5469H35.6406L35.4297 24.6641ZM37.6875 22.4844L37.3672 24.7969C37.2474 24.776 37.125 24.7578 37 24.7422C36.8802 24.7266 36.7604 24.7161 36.6406 24.7109C36.3802 24.7057 36.1536 24.75 35.9609 24.8438C35.7734 24.9323 35.6146 25.0599 35.4844 25.2266C35.3542 25.388 35.25 25.5729 35.1719 25.7812C35.0938 25.9896 35.0339 26.2109 34.9922 26.4453L34.6094 26.2031C34.651 25.875 34.7161 25.4948 34.8047 25.0625C34.8932 24.625 35.0234 24.2005 35.1953 23.7891C35.3672 23.3724 35.5964 23.0312 35.8828 22.7656C36.1745 22.5 36.5469 22.3672 37 22.3672C37.1198 22.3724 37.2344 22.3854 37.3438 22.4062C37.4583 22.4271 37.5729 22.4531 37.6875 22.4844ZM40.9062 28.9609L41.5156 25.1328C41.526 24.9922 41.5339 24.849 41.5391 24.7031C41.5443 24.5573 41.5156 24.4323 41.4531 24.3281C41.3906 24.224 41.2656 24.1719 41.0781 24.1719C40.8802 24.1667 40.7318 24.2109 40.6328 24.3047C40.5339 24.3932 40.4609 24.5104 40.4141 24.6562C40.3724 24.8021 40.3385 24.9531 40.3125 25.1094L37.9922 25.125C38.013 24.6823 38.1172 24.2917 38.3047 23.9531C38.4974 23.6094 38.7474 23.3203 39.0547 23.0859C39.362 22.8516 39.7083 22.6745 40.0938 22.5547C40.4792 22.4349 40.8802 22.3776 41.2969 22.3828C41.8542 22.3932 42.3333 22.513 42.7344 22.7422C43.1406 22.9714 43.4401 23.2943 43.6328 23.7109C43.8307 24.1224 43.901 24.612 43.8438 25.1797L43.25 28.9141C43.2031 29.2266 43.1667 29.5521 43.1406 29.8906C43.1146 30.224 43.1484 30.5443 43.2422 30.8516L43.2344 31L40.9688 31.0078C40.8698 30.6797 40.8229 30.3411 40.8281 29.9922C40.8333 29.6432 40.8594 29.2995 40.9062 28.9609ZM41.7266 25.8359L41.5 27.1953L40.8828 27.1875C40.6849 27.1927 40.5078 27.2344 40.3516 27.3125C40.2005 27.3854 40.0677 27.487 39.9531 27.6172C39.8438 27.7422 39.7552 27.888 39.6875 28.0547C39.625 28.2161 39.5807 28.3906 39.5547 28.5781C39.5391 28.7031 39.5339 28.8281 39.5391 28.9531C39.5443 29.0729 39.5755 29.1745 39.6328 29.2578C39.6953 29.3359 39.8073 29.3776 39.9688 29.3828C40.1354 29.3828 40.2943 29.3464 40.4453 29.2734C40.6016 29.1953 40.7318 29.0938 40.8359 28.9688C40.9401 28.8438 41.0026 28.6953 41.0234 28.5234L41.2969 29.4922C41.2031 29.7109 41.099 29.9219 40.9844 30.125C40.8698 30.3281 40.7344 30.5078 40.5781 30.6641C40.4219 30.8203 40.2422 30.9453 40.0391 31.0391C39.8411 31.1328 39.6016 31.1771 39.3203 31.1719C38.862 31.1667 38.4688 31.0521 38.1406 30.8281C37.8125 30.599 37.5651 30.2995 37.3984 29.9297C37.237 29.5599 37.1641 29.1536 37.1797 28.7109C37.2057 28.2005 37.3229 27.763 37.5312 27.3984C37.7396 27.0339 38.0156 26.737 38.3594 26.5078C38.7031 26.2734 39.0885 26.1016 39.5156 25.9922C39.9479 25.8828 40.3958 25.8281 40.8594 25.8281L41.7266 25.8359Z" fill="#4B8BE1"/>
</svg>
