<svg width="50" height="50" viewBox="0 0 50 50" fill="none" xmlns="http://www.w3.org/2000/svg">
<path d="M0 12C0 5.37258 5.37258 0 12 0H38C44.6274 0 50 5.37258 50 12V38C50 44.6274 44.6274 50 38 50H12C5.37258 50 0 44.6274 0 38V12Z" fill="white" fill-opacity="0.05"/>
<g clip-path="url(#clip0_158_303)">
<path d="M20.125 28.75C24.6133 28.75 28.25 25.6719 28.25 21.875C28.25 18.0781 24.6133 15 20.125 15C15.6367 15 12 18.0781 12 21.875C12 23.3828 12.5742 24.7773 13.5469 25.9141C13.4102 26.2812 13.207 26.6055 12.9922 26.8789C12.8047 27.1211 12.6133 27.3086 12.4727 27.4375C12.4023 27.5 12.3438 27.5508 12.3047 27.582C12.2852 27.5977 12.2695 27.6094 12.2617 27.6133L12.2539 27.6211C12.0391 27.7812 11.9453 28.0625 12.0313 28.3164C12.1172 28.5703 12.3555 28.75 12.625 28.75C13.4766 28.75 14.3359 28.5312 15.0508 28.2617C15.4102 28.125 15.7461 27.9727 16.0352 27.8164C17.2383 28.4102 18.6328 28.75 20.125 28.75ZM29.5 21.875C29.5 26.2617 25.6289 29.5664 21.043 29.9609C21.9922 32.8672 25.1406 35 28.875 35C30.3672 35 31.7617 34.6602 32.9648 34.0664C33.2578 34.2227 33.5898 34.375 33.9492 34.5117C34.6641 34.7812 35.5234 35 36.375 35C36.6445 35 36.8867 34.8242 36.9688 34.5664C37.0508 34.3086 36.9609 34.0273 36.7422 33.8672L36.7344 33.8594C36.7266 33.8516 36.7109 33.8438 36.6914 33.8281C36.6523 33.7969 36.5937 33.75 36.5234 33.6836C36.3828 33.5547 36.1914 33.3672 36.0039 33.125C35.7891 32.8516 35.5859 32.5234 35.4492 32.1602C36.4219 31.0273 36.9961 29.6328 36.9961 28.1211C36.9961 24.4961 33.6797 21.5234 29.4727 21.2656C29.4883 21.4648 29.4961 21.668 29.4961 21.8711L29.5 21.875Z" fill="#5E2A96"/>
</g>
<defs>
<clipPath id="clip0_158_303">
<rect width="25" height="20" fill="white" transform="translate(12 15)"/>
</clipPath>
</defs>
</svg>
