<svg width="50" height="50" viewBox="0 0 50 50" fill="none" xmlns="http://www.w3.org/2000/svg">
<path d="M0 12C0 5.37258 5.37258 0 12 0H38C44.6274 0 50 5.37258 50 12V38C50 44.6274 44.6274 50 38 50H12C5.37258 50 0 44.6274 0 38V12Z" fill="white" fill-opacity="0.05"/>
<path d="M15.125 14.5625C13.4014 14.5625 12 15.9639 12 17.6875V33.3125C12 35.0361 13.4014 36.4375 15.125 36.4375H33.875C35.5986 36.4375 37 35.0361 37 33.3125V22.375C37 20.6514 35.5986 19.25 33.875 19.25H15.9062C15.4766 19.25 15.125 18.8984 15.125 18.4688C15.125 18.0391 15.4766 17.6875 15.9062 17.6875H33.875C34.7393 17.6875 35.4375 16.9893 35.4375 16.125C35.4375 15.2607 34.7393 14.5625 33.875 14.5625H15.125ZM32.3125 26.2812C32.7269 26.2812 33.1243 26.4459 33.4174 26.7389C33.7104 27.0319 33.875 27.4293 33.875 27.8438C33.875 28.2582 33.7104 28.6556 33.4174 28.9486C33.1243 29.2416 32.7269 29.4062 32.3125 29.4062C31.8981 29.4062 31.5007 29.2416 31.2076 28.9486C30.9146 28.6556 30.75 28.2582 30.75 27.8438C30.75 27.4293 30.9146 27.0319 31.2076 26.7389C31.5007 26.4459 31.8981 26.2812 32.3125 26.2812Z" fill="#5E2A96"/>
</svg>
