<svg width="50" height="50" viewBox="0 0 50 50" fill="none" xmlns="http://www.w3.org/2000/svg">
<path d="M0 12C0 5.37258 5.37258 0 12 0H38C44.6274 0 50 5.37258 50 12V38C50 44.6274 44.6274 50 38 50H12C5.37258 50 0 44.6274 0 38V12Z" fill="white" fill-opacity="0.05"/>
<g clip-path="url(#clip0_158_292)">
<path d="M14 17.3438V24.6436C14 25.4736 14.3739 26.2695 15.0435 26.8555L24.865 35.4492C26.26 36.6699 28.5201 36.6699 29.9152 35.4492L37.365 28.9307C38.76 27.71 38.76 25.7324 37.365 24.5117L27.5435 15.918C26.8739 15.332 25.9643 15.0049 25.0156 15.0049L16.6786 15C15.1998 15 14 16.0498 14 17.3438ZM20.25 18.9062C20.7236 18.9062 21.1778 19.0709 21.5127 19.3639C21.8476 19.6569 22.0357 20.0543 22.0357 20.4688C22.0357 20.8832 21.8476 21.2806 21.5127 21.5736C21.1778 21.8666 20.7236 22.0312 20.25 22.0312C19.7764 22.0312 19.3222 21.8666 18.9873 21.5736C18.6524 21.2806 18.4643 20.8832 18.4643 20.4688C18.4643 20.0543 18.6524 19.6569 18.9873 19.3639C19.3222 19.0709 19.7764 18.9062 20.25 18.9062Z" fill="#5E2A96"/>
</g>
<defs>
<clipPath id="clip0_158_292">
<rect width="25" height="25" fill="white" transform="translate(13 11)"/>
</clipPath>
</defs>
</svg>
