<svg width="50" height="50" viewBox="0 0 50 50" fill="none" xmlns="http://www.w3.org/2000/svg">
<path d="M0 12C0 5.37258 5.37258 0 12 0H38C44.6274 0 50 5.37258 50 12V38C50 44.6274 44.6274 50 38 50H12C5.37258 50 0 44.6274 0 38V12Z" fill="#5E2A96"/>
<g clip-path="url(#clip0_192_240)">
<path d="M20.1249 28.75C24.6132 28.75 28.2499 25.6719 28.2499 21.875C28.2499 18.0781 24.6132 15 20.1249 15C15.6367 15 11.9999 18.0781 11.9999 21.875C11.9999 23.3828 12.5742 24.7773 13.5468 25.9141C13.4101 26.2812 13.207 26.6055 12.9921 26.8789C12.8046 27.1211 12.6132 27.3086 12.4726 27.4375C12.4023 27.5 12.3437 27.5508 12.3046 27.582C12.2851 27.5977 12.2695 27.6094 12.2617 27.6133L12.2538 27.6211C12.039 27.7812 11.9453 28.0625 12.0312 28.3164C12.1171 28.5703 12.3554 28.75 12.6249 28.75C13.4765 28.75 14.3359 28.5312 15.0507 28.2617C15.4101 28.125 15.746 27.9727 16.0351 27.8164C17.2382 28.4102 18.6328 28.75 20.1249 28.75ZM29.4999 21.875C29.4999 26.2617 25.6288 29.5664 21.0429 29.9609C21.9921 32.8672 25.1406 35 28.8749 35C30.3671 35 31.7617 34.6602 32.9648 34.0664C33.2578 34.2227 33.5898 34.375 33.9492 34.5117C34.664 34.7812 35.5234 35 36.3749 35C36.6445 35 36.8867 34.8242 36.9687 34.5664C37.0507 34.3086 36.9609 34.0273 36.7421 33.8672L36.7343 33.8594C36.7265 33.8516 36.7109 33.8438 36.6913 33.8281C36.6523 33.7969 36.5937 33.75 36.5234 33.6836C36.3828 33.5547 36.1913 33.3672 36.0038 33.125C35.789 32.8516 35.5859 32.5234 35.4492 32.1602C36.4218 31.0273 36.996 29.6328 36.996 28.1211C36.996 24.4961 33.6796 21.5234 29.4726 21.2656C29.4882 21.4648 29.496 21.668 29.496 21.8711L29.4999 21.875Z" fill="white"/>
</g>
<defs>
<clipPath id="clip0_192_240">
<rect width="25" height="20" fill="white" transform="translate(12 15)"/>
</clipPath>
</defs>
</svg>
