<svg width="50" height="50" viewBox="0 0 50 50" fill="none" xmlns="http://www.w3.org/2000/svg">
<path d="M0 12C0 5.37258 5.37258 0 12 0H38C44.6274 0 50 5.37258 50 12V38C50 44.6274 44.6274 50 38 50H12C5.37258 50 0 44.6274 0 38V12Z" fill="#5E2A96"/>
<g clip-path="url(#clip0_192_224)">
<path d="M22.9376 17.6875C22.9376 17.2731 23.1022 16.8757 23.3952 16.5826C23.6882 16.2896 24.0857 16.125 24.5001 16.125C24.9145 16.125 25.3119 16.2896 25.6049 16.5826C25.898 16.8757 26.0626 17.2731 26.0626 17.6875C26.0626 18.1019 25.898 18.4993 25.6049 18.7924C25.3119 19.0854 24.9145 19.25 24.5001 19.25C24.0857 19.25 23.6882 19.0854 23.3952 18.7924C23.1022 18.4993 22.9376 18.1019 22.9376 17.6875ZM28.919 19.25C29.0899 18.7617 29.1876 18.2344 29.1876 17.6875C29.1876 15.0996 27.088 13 24.5001 13C21.9122 13 19.8126 15.0996 19.8126 17.6875C19.8126 18.2344 19.9053 18.7617 20.0811 19.25H17.8595C16.7852 19.25 15.8477 19.9824 15.5841 21.0273L12.0684 35.0898C11.8927 35.7881 12.0489 36.5303 12.4932 37.1016C12.9376 37.6729 13.6212 38 14.3438 38H34.6563C35.379 38 36.0577 37.668 36.502 37.0967C36.9464 36.5254 37.1026 35.7881 36.9268 35.085L33.4112 21.0225C33.1524 19.9824 32.2149 19.25 31.1407 19.25H28.919Z" fill="white"/>
</g>
<defs>
<clipPath id="clip0_192_224">
<rect width="25" height="25" fill="white" transform="translate(12 13)"/>
</clipPath>
</defs>
</svg>
