<svg width="50" height="50" viewBox="0 0 50 50" fill="none" xmlns="http://www.w3.org/2000/svg">
<path d="M0 12C0 5.37258 5.37258 0 12 0H38C44.6274 0 50 5.37258 50 12V38C50 44.6274 44.6274 50 38 50H12C5.37258 50 0 44.6274 0 38V12Z" fill="white" fill-opacity="0.05"/>
<g clip-path="url(#clip0_158_229)">
<path d="M24.5 13C21.7786 13 19.4609 14.3037 18.6081 16.125H16.1667C13.8685 16.125 12 17.5264 12 19.25V34.875C12 36.5986 13.8685 38 16.1667 38H32.8333C35.1315 38 37 36.5986 37 34.875V19.25C37 17.5264 35.1315 16.125 32.8333 16.125H30.3919C29.5391 14.3037 27.2214 13 24.5 13ZM24.5 16.125C25.0525 16.125 25.5824 16.2896 25.9731 16.5826C26.3638 16.8757 26.5833 17.2731 26.5833 17.6875C26.5833 18.1019 26.3638 18.4993 25.9731 18.7924C25.5824 19.0854 25.0525 19.25 24.5 19.25C23.9475 19.25 23.4176 19.0854 23.0269 18.7924C22.6362 18.4993 22.4167 18.1019 22.4167 17.6875C22.4167 17.2731 22.6362 16.8757 23.0269 16.5826C23.4176 16.2896 23.9475 16.125 24.5 16.125ZM16.6875 26.2812C16.6875 25.9704 16.8521 25.6724 17.1451 25.4526C17.4382 25.2328 17.8356 25.1094 18.25 25.1094C18.6644 25.1094 19.0618 25.2328 19.3549 25.4526C19.6479 25.6724 19.8125 25.9704 19.8125 26.2812C19.8125 26.5921 19.6479 26.8901 19.3549 27.1099C19.0618 27.3297 18.6644 27.4531 18.25 27.4531C17.8356 27.4531 17.4382 27.3297 17.1451 27.1099C16.8521 26.8901 16.6875 26.5921 16.6875 26.2812ZM23.4583 25.5H31.7917C32.3646 25.5 32.8333 25.8516 32.8333 26.2812C32.8333 26.7109 32.3646 27.0625 31.7917 27.0625H23.4583C22.8854 27.0625 22.4167 26.7109 22.4167 26.2812C22.4167 25.8516 22.8854 25.5 23.4583 25.5ZM16.6875 30.9688C16.6875 30.6579 16.8521 30.3599 17.1451 30.1401C17.4382 29.9203 17.8356 29.7969 18.25 29.7969C18.6644 29.7969 19.0618 29.9203 19.3549 30.1401C19.6479 30.3599 19.8125 30.6579 19.8125 30.9688C19.8125 31.2796 19.6479 31.5776 19.3549 31.7974C19.0618 32.0172 18.6644 32.1406 18.25 32.1406C17.8356 32.1406 17.4382 32.0172 17.1451 31.7974C16.8521 31.5776 16.6875 31.2796 16.6875 30.9688ZM22.4167 30.9688C22.4167 30.5391 22.8854 30.1875 23.4583 30.1875H31.7917C32.3646 30.1875 32.8333 30.5391 32.8333 30.9688C32.8333 31.3984 32.3646 31.75 31.7917 31.75H23.4583C22.8854 31.75 22.4167 31.3984 22.4167 30.9688Z" fill="#5E2A96"/>
</g>
<defs>
<clipPath id="clip0_158_229">
<rect width="25" height="25" fill="white" transform="translate(12 13)"/>
</clipPath>
</defs>
</svg>
