<svg width="50" height="50" viewBox="0 0 50 50" fill="none" xmlns="http://www.w3.org/2000/svg">
<path d="M0 12C0 5.37258 5.37258 0 12 0H38C44.6274 0 50 5.37258 50 12V38C50 44.6274 44.6274 50 38 50H12C5.37258 50 0 44.6274 0 38V12Z" fill="white" fill-opacity="0.05"/>
<g clip-path="url(#clip0_159_222)">
<path d="M13.4375 22.5H35.5586C36.3516 22.5 36.9961 21.8555 36.9961 21.0625C36.9961 20.7773 36.9102 20.5 36.7539 20.2656L33.8047 15.8359C33.457 15.3125 32.875 15 32.2461 15H16.7539C16.1289 15 15.543 15.3125 15.1953 15.8359L12.2422 20.2617C12.0859 20.5 12 20.7773 12 21.0586C12 21.8555 12.6445 22.5 13.4375 22.5ZM14.5 23.75V30V33.125C14.5 34.1602 15.3398 35 16.375 35H25.125C26.1602 35 27 34.1602 27 33.125V30V23.75H24.5V30H17V23.75H14.5ZM32 23.75V33.75C32 34.4414 32.5586 35 33.25 35C33.9414 35 34.5 34.4414 34.5 33.75V23.75H32Z" fill="#5E2A96"/>
</g>
<defs>
<clipPath id="clip0_159_222">
<rect width="25" height="20" fill="white" transform="translate(12 15)"/>
</clipPath>
</defs>
</svg>
