<svg width="20" height="20" viewBox="0 0 20 20" fill="none" xmlns="http://www.w3.org/2000/svg">
<path fill-rule="evenodd" clip-rule="evenodd" d="M6.08982 1.04104C5.42236 1.04081 4.96435 1.04066 4.55728 1.15225C3.70261 1.38655 2.9876 1.97272 2.59023 2.76484C2.40097 3.14213 2.3113 3.59127 2.18061 4.24582L1.66428 6.82759C1.47128 7.79262 1.73574 8.7259 2.29229 9.42565V11.7131C2.29227 13.2446 2.29226 14.4576 2.4199 15.4069C2.55126 16.3839 2.82802 17.1747 3.45166 17.7983C4.07529 18.422 4.86608 18.6987 5.8431 18.8302C6.79245 18.9577 8.00547 18.9577 9.53698 18.9577H10.4643C11.9957 18.9577 13.2088 18.9577 14.1581 18.8302C15.1351 18.6987 15.926 18.422 16.5496 17.7983C17.1732 17.1747 17.45 16.3839 17.5813 15.4069C17.709 14.4576 17.709 13.2446 17.709 11.7131V9.42565C18.2655 8.7259 18.53 7.79263 18.337 6.82759L17.8206 4.24582C17.69 3.59127 17.6003 3.14213 17.4111 2.76484C17.0136 1.97272 16.2986 1.38655 15.444 1.15225C15.0369 1.04066 14.5789 1.04081 13.9114 1.04104H6.08982ZM15.2243 10.6244C15.6651 10.6244 16.0816 10.5357 16.459 10.3764V11.6661C16.459 13.2551 16.4576 14.384 16.3425 15.2403C16.2297 16.0787 16.0184 16.5618 15.6657 16.9145C15.3131 17.2672 14.83 17.4786 13.9916 17.5912C13.6203 17.6412 13.1979 17.6697 12.709 17.686V15.3892C12.709 15.0227 12.709 14.7066 12.6855 14.4472C12.6606 14.1729 12.6056 13.9012 12.4577 13.6452C12.2931 13.3602 12.0565 13.1235 11.7715 12.9589C11.5155 12.8112 11.2438 12.7561 10.9695 12.7312C10.7101 12.7077 10.394 12.7077 10.0275 12.7077H9.97373C9.60731 12.7077 9.29115 12.7077 9.03173 12.7312C8.7574 12.7561 8.48581 12.8112 8.22979 12.9589C7.94475 13.1235 7.70806 13.3602 7.54349 13.6452C7.39568 13.9012 7.34063 14.1729 7.31577 14.4472C7.29226 14.7066 7.29227 15.0227 7.29229 15.3892V17.686C6.80335 17.6697 6.3809 17.6412 6.00966 17.5912C5.17126 17.4786 4.68821 17.2672 4.33554 16.9145C3.98286 16.5618 3.77147 16.0787 3.65876 15.2403C3.54361 14.384 3.54229 13.2551 3.54229 11.6661V10.3763C3.91968 10.5357 4.33618 10.6244 4.77691 10.6244C5.83851 10.6244 6.78766 10.1007 7.36567 9.28757C7.95693 10.0943 8.91156 10.6244 10.0005 10.6244C11.0894 10.6244 12.0441 10.0942 12.6354 9.28732C13.2134 10.1007 14.1626 10.6244 15.2243 10.6244ZM8.54231 17.7061C8.86598 17.7077 9.2124 17.7077 9.58398 17.7077H10.4173C10.7889 17.7077 11.1353 17.7077 11.459 17.7061V15.4161C11.459 15.0152 11.4583 14.7562 11.4406 14.56C11.4236 14.3724 11.3949 14.3043 11.3752 14.2702C11.3204 14.1752 11.2415 14.0963 11.1465 14.0415C11.1124 14.0218 11.0443 13.9932 10.8566 13.9761C10.6605 13.9583 10.4016 13.9577 10.0006 13.9577C9.59973 13.9577 9.34081 13.9583 9.14456 13.9761C8.95698 13.9932 8.88881 14.0218 8.85481 14.0415C8.75981 14.0963 8.6809 14.1752 8.62598 14.2702C8.6064 14.3043 8.57765 14.3724 8.56065 14.56C8.5429 14.7562 8.54231 15.0152 8.54231 15.4161V17.7061ZM7.2265 2.29106H6.18205C5.38666 2.29106 5.1112 2.29652 4.88776 2.35778C4.37496 2.49835 3.94595 2.85005 3.70753 3.32534C3.60365 3.53242 3.54426 3.80147 3.38828 4.5814L2.89001 7.07274C2.65186 8.26346 3.56261 9.3744 4.77691 9.3744C5.76551 9.3744 6.59326 8.62532 6.69163 7.64159L6.74879 7.07002L6.75211 7.03501L7.2265 2.29106ZM7.99334 7.18689L8.4829 2.29106H11.5181L12.005 7.15939C12.1236 8.34532 11.1923 9.3744 10.0005 9.3744C8.81781 9.3744 7.89174 8.36115 7.99334 7.18689ZM15.1135 2.35778C14.8901 2.29652 14.6146 2.29106 13.8192 2.29106H12.7746L13.3096 7.64159C13.408 8.62532 14.2357 9.3744 15.2243 9.3744C16.4386 9.3744 17.3494 8.26346 17.1112 7.07274L16.613 4.5814C16.457 3.80147 16.3976 3.53242 16.2937 3.32534C16.0553 2.85005 15.6263 2.49835 15.1135 2.35778Z" fill="white"/>
</svg>
