<svg width="96" height="96" viewBox="0 0 96 96" fill="none" xmlns="http://www.w3.org/2000/svg">
<g clip-path="url(#clip0_12_179)">
<path d="M75.34 88H20.66C18.7925 87.9987 16.9843 87.3441 15.5488 86.1496C14.1132 84.9552 13.1408 83.2961 12.8 81.46L4 34H92L83.22 81.46C82.8786 83.2995 81.9032 84.9612 80.4635 86.156C79.0238 87.3509 77.2109 88.0034 75.34 88Z" fill="#A567C6"/>
<path d="M80.88 34.84C80.319 34.8432 79.7646 34.7189 79.2587 34.4764C78.7528 34.2338 78.3087 33.8794 77.96 33.44L56.64 6.53996C56.0679 5.86727 55.7538 5.01301 55.7538 4.12996C55.7538 3.2469 56.0679 2.39264 56.64 1.71996C57.011 1.32332 57.4639 1.01224 57.9673 0.808353C58.4707 0.604462 59.0124 0.512648 59.5549 0.539295C60.0973 0.565941 60.6275 0.710409 61.1084 0.962654C61.5894 1.2149 62.0097 1.56887 62.34 1.99996L83.68 28.84C84.1412 29.3683 84.4391 30.0192 84.5373 30.7136C84.6356 31.408 84.53 32.116 84.2334 32.7515C83.9368 33.3871 83.462 33.9228 82.8667 34.2935C82.2714 34.6643 81.5812 34.8541 80.88 34.84Z" fill="#C8C8C8"/>
<path d="M14.74 34.86C14.0422 34.8663 13.3575 34.6707 12.7683 34.2969C12.179 33.9231 11.7104 33.387 11.4188 32.753C11.1272 32.119 11.025 31.4143 11.1246 30.7236C11.2241 30.033 11.5212 29.3858 11.98 28.86L34 2.00003C34.5568 1.31701 35.3296 0.843878 36.1911 0.658491C37.0526 0.473103 37.9515 0.586504 38.74 0.980033C39.2087 1.22928 39.6162 1.57965 39.9328 2.00577C40.2494 2.43189 40.4673 2.92309 40.5707 3.4438C40.674 3.96451 40.6603 4.50169 40.5305 5.01645C40.4007 5.5312 40.158 6.01064 39.82 6.42003L17.62 33.5C17.2706 33.9258 16.831 34.2687 16.3329 34.5038C15.8349 34.739 15.2908 34.8607 14.74 34.86Z" fill="#C8C8C8"/>
<path d="M90.46 28.56H5.54002C4.08475 28.5493 2.68457 29.1158 1.64618 30.1355C0.607795 31.1551 0.0158522 32.5447 1.52588e-05 34L1.52588e-05 37.62C0.0158522 39.0752 0.607795 40.4648 1.64618 41.4845C2.68457 42.5041 4.08475 43.0706 5.54002 43.06H90.46C91.9153 43.0706 93.3155 42.5041 94.3539 41.4845C95.3922 40.4648 95.9842 39.0752 96 37.62V34C95.9842 32.5447 95.3922 31.1551 94.3539 30.1355C93.3155 29.1158 91.9153 28.5493 90.46 28.56Z" fill="#A567C6"/>
<path d="M92 28H4.00002C1.79088 28 1.52588e-05 29.7909 1.52588e-05 32V44C1.52588e-05 46.2091 1.79088 48 4.00002 48H92C94.2092 48 96 46.2091 96 44V32C96 29.7909 94.2092 28 92 28Z" fill="#5E2A96"/>
<path d="M32 74C30.9391 74 29.9217 73.5786 29.1716 72.8284C28.4214 72.0783 28 71.0609 28 70V58C28 56.9391 28.4214 55.9217 29.1716 55.1716C29.9217 54.4214 30.9391 54 32 54C33.0609 54 34.0783 54.4214 34.8284 55.1716C35.5786 55.9217 36 56.9391 36 58V70C36 71.0609 35.5786 72.0783 34.8284 72.8284C34.0783 73.5786 33.0609 74 32 74Z" fill="#5E2A96"/>
<path d="M48 74C46.9391 74 45.9217 73.5786 45.1716 72.8284C44.4214 72.0783 44 71.0609 44 70V58C44 56.9391 44.4214 55.9217 45.1716 55.1716C45.9217 54.4214 46.9391 54 48 54C49.0609 54 50.0783 54.4214 50.8284 55.1716C51.5786 55.9217 52 56.9391 52 58V70C52 71.0609 51.5786 72.0783 50.8284 72.8284C50.0783 73.5786 49.0609 74 48 74Z" fill="#5E2A96"/>
<path d="M64 74C62.9391 74 61.9217 73.5786 61.1716 72.8284C60.4214 72.0783 60 71.0609 60 70V58C60 56.9391 60.4214 55.9217 61.1716 55.1716C61.9217 54.4214 62.9391 54 64 54C65.0609 54 66.0783 54.4214 66.8284 55.1716C67.5786 55.9217 68 56.9391 68 58V70C68 71.0609 67.5786 72.0783 66.8284 72.8284C66.0783 73.5786 65.0609 74 64 74Z" fill="#5E2A96"/>
</g>
<defs>
<clipPath id="clip0_12_179">
<rect width="96" height="96" fill="white"/>
</clipPath>
</defs>
</svg>
