<svg width="96" height="96" viewBox="0 0 96 96" fill="none" xmlns="http://www.w3.org/2000/svg">
<g clip-path="url(#clip0_12_162)">
<path d="M20.9092 24H2.00087C0.896278 24 0 24.8965 0 26.0009C0 27.1055 0.896278 28.0004 2.00087 28.0004H20.9092V24Z" fill="#E6E9ED"/>
<path d="M24.9111 36H5.99996C4.89537 36 3.9989 36.895 3.9989 37.9996C3.9989 39.1055 4.89537 40.0004 5.99996 40.0004H24.9111V36Z" fill="#E6E9ED"/>
<path d="M28.9101 48H9.99899C8.89439 48 7.99792 48.895 7.99792 49.9996C7.99792 51.1053 8.89439 52.0019 9.99899 52.0019H28.9101V48Z" fill="#E6E9ED"/>
<path d="M13.9979 60C12.8933 60 12 60.8965 12 61.9981C12 63.1055 12.8935 63.9989 13.9979 63.9989H32.909V60H13.9979Z" fill="#E6E9ED"/>
<path d="M79.9423 32.0112L68.1124 32.0009H60.284L59.9941 67.9979H95.9589L96 48L79.9423 32.0112Z" fill="#E6E9ED"/>
<path d="M67.9922 63.9989C67.9922 66.2079 66.2021 67.9979 63.9931 67.9979H19.9978C17.789 67.9979 15.9989 66.2079 15.9989 63.9989L16.0019 24C16.0019 21.791 17.7948 20.0009 20.0008 20.0009H63.9961C66.2051 20.0009 67.9952 21.791 67.9952 24L67.9922 63.9989Z" fill="#5E2A96"/>
<path d="M24 66.0001C24 71.5225 28.4765 75.9992 33.9989 75.9992C39.5214 75.9992 43.9981 71.5225 43.9981 66.0001C43.9981 60.4746 39.5214 55.9979 33.9989 55.9979C28.4765 55.9979 24 60.4746 24 66.0001Z" fill="#434A54"/>
<path d="M31.9979 66C31.9979 67.1046 32.8944 67.9978 33.999 67.9978C35.1036 67.9978 36.0001 67.1044 36.0001 66C36.0001 64.8956 35.1036 63.9989 33.999 63.9989C32.8944 63.9989 31.9979 64.8954 31.9979 66Z" fill="#F5F7FA"/>
<path d="M69.9989 66.0001C69.9989 71.5225 74.4754 75.9992 79.998 75.9992C85.5203 75.9992 89.997 71.5225 89.997 66.0001C89.997 60.4746 85.5203 55.9979 79.998 55.9979C74.4754 55.9979 69.9989 60.4746 69.9989 66.0001Z" fill="#434A54"/>
<path d="M77.9969 66C77.9969 67.1046 78.8934 67.9978 79.998 67.9978C81.1026 67.9978 81.9961 67.1044 81.9961 66C81.9961 64.8956 81.1024 63.9989 79.998 63.9989C78.8936 63.9989 77.9969 64.8954 77.9969 66Z" fill="#F5F7FA"/>
<path d="M32.8047 37.625L30.8281 49H28.2344L30.1953 37.625H32.8047ZM35.375 42.3594L35.0078 44.4688H30.9062L31.2734 42.3594H35.375ZM36.5078 37.625L36.1406 39.7422H31.7109L32.0859 37.625H36.5078ZM38.9141 42.7734L37.8359 49H35.3281L36.7969 40.5469H39.1172L38.9141 42.7734ZM41.1953 40.4922L40.8438 42.9297C40.7188 42.9089 40.5938 42.8906 40.4688 42.875C40.3438 42.8594 40.2161 42.849 40.0859 42.8438C39.8307 42.8385 39.6094 42.8802 39.4219 42.9688C39.2344 43.0573 39.0781 43.1823 38.9531 43.3438C38.8333 43.5 38.7344 43.6797 38.6562 43.8828C38.5833 44.0859 38.5286 44.3047 38.4922 44.5391L38.1094 44.2266C38.151 43.8984 38.2135 43.5156 38.2969 43.0781C38.3854 42.6406 38.513 42.2135 38.6797 41.7969C38.8516 41.375 39.0807 41.0312 39.3672 40.7656C39.6589 40.4948 40.0312 40.362 40.4844 40.3672C40.6094 40.3724 40.7292 40.388 40.8438 40.4141C40.9583 40.4349 41.0755 40.4609 41.1953 40.4922ZM44.1562 49.1562C43.6042 49.1458 43.1172 49.0443 42.6953 48.8516C42.2786 48.6589 41.9349 48.3932 41.6641 48.0547C41.3984 47.7109 41.2109 47.3125 41.1016 46.8594C40.9922 46.401 40.9609 45.9036 41.0078 45.3672L41.125 44.4453C41.1979 43.8724 41.3281 43.3385 41.5156 42.8438C41.7031 42.349 41.9557 41.9141 42.2734 41.5391C42.5964 41.1641 42.9896 40.875 43.4531 40.6719C43.9167 40.4635 44.4635 40.3698 45.0938 40.3906C45.6615 40.4062 46.1302 40.526 46.5 40.75C46.875 40.974 47.1641 41.2734 47.3672 41.6484C47.5755 42.0234 47.7109 42.4453 47.7734 42.9141C47.8359 43.3828 47.8385 43.8698 47.7812 44.375L47.6016 45.6016H41.8828L42.1719 43.9531L45.3672 43.9609L45.4219 43.6484C45.4479 43.4609 45.4661 43.276 45.4766 43.0938C45.487 42.9062 45.4505 42.75 45.3672 42.625C45.2891 42.4948 45.1302 42.4193 44.8906 42.3984C44.599 42.388 44.375 42.4479 44.2188 42.5781C44.0625 42.7031 43.9453 42.8724 43.8672 43.0859C43.7943 43.2943 43.7422 43.5208 43.7109 43.7656C43.6797 44.0052 43.6536 44.2318 43.6328 44.4453L43.5156 45.375C43.4948 45.5833 43.4818 45.7891 43.4766 45.9922C43.4714 46.1901 43.4948 46.375 43.5469 46.5469C43.6042 46.7135 43.6979 46.849 43.8281 46.9531C43.9635 47.0521 44.1641 47.1068 44.4297 47.1172C44.7526 47.1276 45.0573 47.0755 45.3438 46.9609C45.6302 46.8411 45.888 46.6667 46.1172 46.4375L47.0391 48.0547C46.8255 48.3359 46.5547 48.5573 46.2266 48.7188C45.9036 48.875 45.5599 48.987 45.1953 49.0547C44.8359 49.1276 44.4896 49.1615 44.1562 49.1562ZM51.6719 49.1562C51.1198 49.1458 50.6328 49.0443 50.2109 48.8516C49.7943 48.6589 49.4505 48.3932 49.1797 48.0547C48.9141 47.7109 48.7266 47.3125 48.6172 46.8594C48.5078 46.401 48.4766 45.9036 48.5234 45.3672L48.6406 44.4453C48.7135 43.8724 48.8438 43.3385 49.0312 42.8438C49.2188 42.349 49.4714 41.9141 49.7891 41.5391C50.112 41.1641 50.5052 40.875 50.9688 40.6719C51.4323 40.4635 51.9792 40.3698 52.6094 40.3906C53.1771 40.4062 53.6458 40.526 54.0156 40.75C54.3906 40.974 54.6797 41.2734 54.8828 41.6484C55.0911 42.0234 55.2266 42.4453 55.2891 42.9141C55.3516 43.3828 55.3542 43.8698 55.2969 44.375L55.1172 45.6016H49.3984L49.6875 43.9531L52.8828 43.9609L52.9375 43.6484C52.9635 43.4609 52.9818 43.276 52.9922 43.0938C53.0026 42.9062 52.9661 42.75 52.8828 42.625C52.8047 42.4948 52.6458 42.4193 52.4062 42.3984C52.1146 42.388 51.8906 42.4479 51.7344 42.5781C51.5781 42.7031 51.4609 42.8724 51.3828 43.0859C51.3099 43.2943 51.2578 43.5208 51.2266 43.7656C51.1953 44.0052 51.1693 44.2318 51.1484 44.4453L51.0312 45.375C51.0104 45.5833 50.9974 45.7891 50.9922 45.9922C50.987 46.1901 51.0104 46.375 51.0625 46.5469C51.1198 46.7135 51.2135 46.849 51.3438 46.9531C51.4792 47.0521 51.6797 47.1068 51.9453 47.1172C52.2682 47.1276 52.5729 47.0755 52.8594 46.9609C53.1458 46.8411 53.4036 46.6667 53.6328 46.4375L54.5547 48.0547C54.3411 48.3359 54.0703 48.5573 53.7422 48.7188C53.4193 48.875 53.0755 48.987 52.7109 49.0547C52.3516 49.1276 52.0052 49.1615 51.6719 49.1562Z" fill="white"/>
</g>
<defs>
<clipPath id="clip0_12_162">
<rect width="96" height="96" fill="white"/>
</clipPath>
</defs>
</svg>
