<svg width="193" height="38" viewBox="0 0 193 38" fill="none" xmlns="http://www.w3.org/2000/svg">
<path d="M12.16 29.4C9.94667 29.4 7.82667 28.96 5.8 28.08C3.77333 27.1733 1.98667 25.88 0.44 24.2L2.48 22.08C3.92 23.6267 5.45333 24.7867 7.08 25.56C8.73333 26.3333 10.4667 26.72 12.28 26.72C13.7467 26.72 15.04 26.4933 16.16 26.04C17.3067 25.56 18.2 24.9067 18.84 24.08C19.48 23.2267 19.8 22.2667 19.8 21.2C19.8 19.76 19.2933 18.6533 18.28 17.88C17.2933 17.1067 15.6533 16.5333 13.36 16.16L9.32 15.52C6.62667 15.0667 4.64 14.2667 3.36 13.12C2.08 11.9733 1.44 10.4133 1.44 8.44C1.44 6.89333 1.85333 5.53333 2.68 4.36C3.50667 3.18667 4.65333 2.28 6.12 1.64C7.61333 0.973332 9.33333 0.639998 11.28 0.639998C13.2533 0.639998 15.1867 0.959998 17.08 1.6C19 2.24 20.7467 3.16 22.32 4.36L20.56 6.76C17.4933 4.44 14.36 3.28 11.16 3.28C9.82667 3.28 8.65333 3.49333 7.64 3.92C6.62667 4.32 5.84 4.89333 5.28 5.64C4.72 6.36 4.44 7.21333 4.44 8.2C4.44 9.50667 4.88 10.5067 5.76 11.2C6.64 11.8933 8.09333 12.4 10.12 12.72L14.12 13.36C17.1867 13.8667 19.4133 14.7333 20.8 15.96C22.1867 17.16 22.88 18.8533 22.88 21.04C22.88 22.6667 22.4267 24.12 21.52 25.4C20.6133 26.6533 19.3467 27.64 17.72 28.36C16.12 29.0533 14.2667 29.4 12.16 29.4ZM26.5044 29V0.999998L29.4644 0.32V11.32C31.0377 9.48 33.1444 8.56 35.7844 8.56C37.3044 8.56 38.6377 8.89333 39.7844 9.56C40.9577 10.2 41.8644 11.1067 42.5044 12.28C43.171 13.4267 43.5044 14.7733 43.5044 16.32V29H40.5844V16.92C40.5844 15.1333 40.0777 13.7333 39.0644 12.72C38.0777 11.68 36.7177 11.16 34.9844 11.16C33.7844 11.16 32.7177 11.4267 31.7844 11.96C30.851 12.4933 30.0777 13.2533 29.4644 14.24V29H26.5044ZM57.7775 29.4C55.8842 29.4 54.1508 28.9467 52.5775 28.04C51.0308 27.1067 49.8042 25.8533 48.8975 24.28C47.9908 22.7067 47.5375 20.9467 47.5375 19C47.5375 17.0533 47.9908 15.2933 48.8975 13.72C49.8042 12.1467 51.0308 10.9067 52.5775 10C54.1508 9.06667 55.8842 8.6 57.7775 8.6C59.6975 8.6 61.4308 9.06667 62.9775 10C64.5242 10.9067 65.7508 12.1467 66.6575 13.72C67.5642 15.2933 68.0175 17.0533 68.0175 19C68.0175 20.9467 67.5642 22.7067 66.6575 24.28C65.7508 25.8533 64.5242 27.1067 62.9775 28.04C61.4308 28.9467 59.6975 29.4 57.7775 29.4ZM57.7775 26.76C59.1375 26.76 60.3642 26.4133 61.4575 25.72C62.5775 25.0267 63.4575 24.0933 64.0975 22.92C64.7642 21.7467 65.0975 20.44 65.0975 19C65.0975 17.5333 64.7642 16.2267 64.0975 15.08C63.4575 13.9067 62.5775 12.9733 61.4575 12.28C60.3642 11.5867 59.1375 11.24 57.7775 11.24C56.4175 11.24 55.1775 11.5867 54.0575 12.28C52.9642 12.9733 52.0842 13.9067 51.4175 15.08C50.7775 16.2267 50.4575 17.5333 50.4575 19C50.4575 20.44 50.7775 21.7467 51.4175 22.92C52.0842 24.0933 52.9642 25.0267 54.0575 25.72C55.1775 26.4133 56.4175 26.76 57.7775 26.76ZM72.1294 37.16V8.96H75.0494V11.12C76.7827 9.46667 78.9427 8.64 81.5294 8.64C83.4227 8.64 85.1294 9.10667 86.6494 10.04C88.1694 10.9467 89.3694 12.1733 90.2494 13.72C91.156 15.2667 91.6094 17.0133 91.6094 18.96C91.6094 20.9067 91.156 22.6667 90.2494 24.24C89.3694 25.7867 88.1694 27.0267 86.6494 27.96C85.1294 28.8667 83.4094 29.32 81.4894 29.32C80.316 29.32 79.1827 29.12 78.0894 28.72C76.996 28.32 75.996 27.7467 75.0894 27V37.16H72.1294ZM81.2494 26.72C82.6627 26.72 83.9294 26.3867 85.0494 25.72C86.1694 25.0267 87.0494 24.1067 87.6894 22.96C88.356 21.7867 88.6894 20.4667 88.6894 19C88.6894 17.5333 88.356 16.2133 87.6894 15.04C87.0494 13.8667 86.1694 12.9467 85.0494 12.28C83.9294 11.5867 82.6627 11.24 81.2494 11.24C79.996 11.24 78.8227 11.4933 77.7294 12C76.6627 12.48 75.7827 13.16 75.0894 14.04V23.96C75.7827 24.8133 76.676 25.4933 77.7694 26C78.8627 26.48 80.0227 26.72 81.2494 26.72ZM95.7231 37.16V8.96H98.6431V11.12C100.376 9.46667 102.536 8.64 105.123 8.64C107.016 8.64 108.723 9.10667 110.243 10.04C111.763 10.9467 112.963 12.1733 113.843 13.72C114.75 15.2667 115.203 17.0133 115.203 18.96C115.203 20.9067 114.75 22.6667 113.843 24.24C112.963 25.7867 111.763 27.0267 110.243 27.96C108.723 28.8667 107.003 29.32 105.083 29.32C103.91 29.32 102.776 29.12 101.683 28.72C100.59 28.32 99.5898 27.7467 98.6831 27V37.16H95.7231ZM104.843 26.72C106.256 26.72 107.523 26.3867 108.643 25.72C109.763 25.0267 110.643 24.1067 111.283 22.96C111.95 21.7867 112.283 20.4667 112.283 19C112.283 17.5333 111.95 16.2133 111.283 15.04C110.643 13.8667 109.763 12.9467 108.643 12.28C107.523 11.5867 106.256 11.24 104.843 11.24C103.59 11.24 102.416 11.4933 101.323 12C100.256 12.48 99.3765 13.16 98.6831 14.04V23.96C99.3765 24.8133 100.27 25.4933 101.363 26C102.456 26.48 103.616 26.72 104.843 26.72ZM128.471 29V0.999998H132.791L142.351 20.88L151.871 0.999998H156.191V29H153.271V4.52L142.311 27L131.351 4.56V29H128.471ZM167.707 29.36C166.241 29.36 164.947 29.1067 163.827 28.6C162.734 28.0933 161.867 27.3867 161.227 26.48C160.614 25.5733 160.307 24.52 160.307 23.32C160.307 21.4267 161.027 19.9333 162.467 18.84C163.907 17.7467 165.854 17.2 168.307 17.2C170.467 17.2 172.427 17.6533 174.187 18.56V15.92C174.187 14.32 173.734 13.12 172.827 12.32C171.921 11.4933 170.601 11.08 168.867 11.08C167.881 11.08 166.881 11.2267 165.867 11.52C164.881 11.7867 163.787 12.2267 162.587 12.84L161.467 10.56C162.907 9.86667 164.241 9.36 165.467 9.04C166.694 8.72 167.921 8.56 169.147 8.56C171.681 8.56 173.627 9.16 174.987 10.36C176.374 11.56 177.067 13.28 177.067 15.52V29H174.187V27.04C173.281 27.8133 172.281 28.4 171.187 28.8C170.121 29.1733 168.961 29.36 167.707 29.36ZM163.147 23.24C163.147 24.36 163.614 25.28 164.547 26C165.507 26.6933 166.734 27.04 168.227 27.04C169.427 27.04 170.521 26.8533 171.507 26.48C172.494 26.1067 173.387 25.52 174.187 24.72V20.96C173.361 20.4 172.481 20 171.547 19.76C170.614 19.4933 169.561 19.36 168.387 19.36C166.787 19.36 165.507 19.72 164.547 20.44C163.614 21.1333 163.147 22.0667 163.147 23.24ZM182.012 29V0.999998L184.972 0.32V29H182.012ZM190.02 29V0.999998L192.98 0.32V29H190.02Z" fill="white"/>
</svg>
