<svg width="96" height="96" viewBox="0 0 96 96" fill="none" xmlns="http://www.w3.org/2000/svg">
<g clip-path="url(#clip0_13_135)">
<path d="M18.3645 90.366C14.8515 93.879 9.15002 93.879 5.63702 90.3645C2.12402 86.85 2.12252 81.1515 5.63852 77.637L17.328 65.9475L30.057 78.675L18.3645 90.366Z" fill="#A567C6"/>
<path d="M32.1765 76.5541L19.4475 63.8265L44.6565 38.6176C47.316 44.1826 51.816 48.6841 57.3825 51.3451L32.1765 76.5541Z" fill="#5E2A96"/>
<path d="M69 51C55.746 51 45 40.254 45 27C45 13.746 55.746 3 69 3C69.891 3 70.77 3.057 71.637 3.153L58.392 16.395C52.536 22.251 52.536 31.749 58.392 37.6095C64.251 43.4685 73.749 43.4655 79.6065 37.6095L92.8515 24.3675C92.9445 25.23 93 26.109 93 27C93 40.254 82.257 51 69 51Z" fill="#BDC3C7"/>
<path d="M12 79.5C9.516 79.5 7.5 81.516 7.5 84C7.5 86.484 9.516 88.5 12 88.5C14.484 88.5 16.5 86.484 16.5 84C16.5 81.516 14.4855 79.5 12 79.5ZM12 85.5C11.1705 85.5 10.5 84.8295 10.5 84C10.5 83.1705 11.1705 82.5 12 82.5C12.8295 82.5 13.5 83.1705 13.5 84C13.5 84.8295 12.8295 85.5 12 85.5Z" fill="#394240"/>
<path d="M95.4782 21.735C95.0627 19.359 93.5537 19.419 92.1647 20.808C90.7757 22.197 77.4842 35.487 77.4842 35.487C72.7997 40.1715 65.2007 40.1715 60.5162 35.4855C55.8287 30.7995 55.8287 23.2035 60.5162 18.516C60.5162 18.516 73.9607 5.0715 75.1967 3.837C76.4297 2.6025 76.5467 0.9855 74.2652 0.522C72.5627 0.1755 70.8017 0 69.0002 0C54.0887 0 42.0002 12.09 42.0002 27C42.0002 30.012 42.5162 32.8995 43.4237 35.604L3.51319 75.516C-1.17131 80.2005 -1.17131 87.7995 3.51469 92.4855C8.20069 97.1715 15.7997 97.1715 20.4842 92.487L60.3947 52.5765C63.1022 53.4855 65.9882 54 69.0002 54C83.9117 54 96.0002 41.91 96.0002 27C96.0002 25.1985 95.7782 23.4465 95.4782 21.735ZM18.3647 90.366C14.8517 93.879 9.15019 93.879 5.63719 90.3645C2.12419 86.85 2.12269 81.1515 5.63869 77.637L17.3282 65.9475L30.0572 78.675L18.3647 90.366ZM32.1767 76.554L19.4477 63.8265L44.6567 38.6175C47.3162 44.1825 51.8162 48.684 57.3827 51.345L32.1767 76.554ZM69.0002 51C55.7462 51 45.0002 40.254 45.0002 27C45.0002 13.746 55.7462 3 69.0002 3C69.8912 3 70.7702 3.057 71.6372 3.153L58.3922 16.395C52.5362 22.251 52.5362 31.749 58.3922 37.6095C64.2512 43.4685 73.7492 43.4655 79.6067 37.6095L92.8517 24.3675C92.9447 25.23 93.0002 26.109 93.0002 27C93.0002 40.254 82.2572 51 69.0002 51Z" fill="#394240"/>
<path d="M12 85.5C12.8284 85.5 13.5 84.8284 13.5 84C13.5 83.1716 12.8284 82.5 12 82.5C11.1716 82.5 10.5 83.1716 10.5 84C10.5 84.8284 11.1716 85.5 12 85.5Z" fill="#B4CCB9"/>
</g>
<defs>
<clipPath id="clip0_13_135">
<rect width="96" height="96" fill="white"/>
</clipPath>
</defs>
</svg>
