<svg width="80" height="48" viewBox="0 0 80 48" fill="none" xmlns="http://www.w3.org/2000/svg">
<path d="M32.4062 20.0938V28.4062C32.4062 31.6771 32.0208 34.5208 31.25 36.9375C30.5 39.3542 29.4167 41.3542 28 42.9375C26.6042 44.5208 24.9375 45.6979 23 46.4688C21.0625 47.2396 18.9271 47.625 16.5938 47.625C14.7188 47.625 12.9688 47.3854 11.3438 46.9062C9.71875 46.4062 8.25 45.6562 6.9375 44.6562C5.64583 43.6354 4.53125 42.3646 3.59375 40.8438C2.65625 39.3229 1.9375 37.5312 1.4375 35.4688C0.9375 33.3854 0.6875 31.0312 0.6875 28.4062V20.0938C0.6875 16.8021 1.0625 13.9583 1.8125 11.5625C2.58333 9.14583 3.67708 7.14583 5.09375 5.5625C6.51042 3.97917 8.1875 2.80208 10.125 2.03125C12.0625 1.26042 14.1979 0.875 16.5312 0.875C18.4062 0.875 20.1458 1.125 21.75 1.625C23.375 2.10417 24.8438 2.85417 26.1562 3.875C27.4688 4.875 28.5833 6.13542 29.5 7.65625C30.4375 9.17708 31.1562 10.9792 31.6562 13.0625C32.1562 15.125 32.4062 17.4688 32.4062 20.0938ZM21.875 29.6875V18.75C21.875 17.2917 21.7917 16.0208 21.625 14.9375C21.4792 13.8542 21.25 12.9375 20.9375 12.1875C20.6458 11.4375 20.2812 10.8333 19.8438 10.375C19.4062 9.89583 18.9062 9.55208 18.3438 9.34375C17.8021 9.11458 17.1979 9 16.5312 9C15.6979 9 14.9479 9.17708 14.2812 9.53125C13.6354 9.86458 13.0833 10.4062 12.625 11.1562C12.1667 11.9062 11.8125 12.9062 11.5625 14.1562C11.3333 15.4062 11.2188 16.9375 11.2188 18.75V29.6875C11.2188 31.1667 11.2917 32.4583 11.4375 33.5625C11.6042 34.6458 11.8333 35.5729 12.125 36.3438C12.4375 37.0938 12.8125 37.7083 13.25 38.1875C13.6875 38.6458 14.1875 38.9792 14.75 39.1875C15.3125 39.3958 15.9271 39.5 16.5938 39.5C17.4062 39.5 18.1354 39.3333 18.7812 39C19.4271 38.6667 19.9792 38.125 20.4375 37.375C20.9167 36.6042 21.2708 35.5938 21.5 34.3438C21.75 33.0729 21.875 31.5208 21.875 29.6875ZM37.9688 12.6562V10.25C37.9688 8.52083 38.3438 6.94792 39.0938 5.53125C39.8438 4.11458 40.9688 2.97917 42.4688 2.125C43.9688 1.27083 45.8333 0.84375 48.0625 0.84375C50.3542 0.84375 52.25 1.27083 53.75 2.125C55.25 2.97917 56.3646 4.11458 57.0938 5.53125C57.8438 6.94792 58.2188 8.52083 58.2188 10.25V12.6562C58.2188 14.3438 57.8438 15.8958 57.0938 17.3125C56.3646 18.7292 55.25 19.8646 53.75 20.7188C52.2708 21.5729 50.3958 22 48.125 22C45.875 22 44 21.5729 42.5 20.7188C41 19.8646 39.8646 18.7292 39.0938 17.3125C38.3438 15.8958 37.9688 14.3438 37.9688 12.6562ZM44.7188 10.25V12.6562C44.7188 13.2812 44.8438 13.875 45.0938 14.4375C45.3438 15 45.7188 15.4583 46.2188 15.8125C46.7396 16.1458 47.375 16.3125 48.125 16.3125C48.8958 16.3125 49.5208 16.1458 50 15.8125C50.4792 15.4583 50.8333 15 51.0625 14.4375C51.3125 13.875 51.4375 13.2812 51.4375 12.6562V10.25C51.4375 9.58333 51.3125 8.96875 51.0625 8.40625C50.8333 7.84375 50.4688 7.39583 49.9688 7.0625C49.4688 6.70833 48.8333 6.53125 48.0625 6.53125C47.3333 6.53125 46.7188 6.70833 46.2188 7.0625C45.7188 7.39583 45.3438 7.84375 45.0938 8.40625C44.8438 8.96875 44.7188 9.58333 44.7188 10.25ZM59.5625 38.25V35.8438C59.5625 34.1354 59.9375 32.5729 60.6875 31.1562C61.4583 29.7396 62.5938 28.6042 64.0938 27.75C65.6146 26.8958 67.4896 26.4688 69.7188 26.4688C72.0104 26.4688 73.8958 26.8958 75.375 27.75C76.875 28.6042 77.9896 29.7396 78.7188 31.1562C79.4688 32.5729 79.8438 34.1354 79.8438 35.8438V38.25C79.8438 39.9583 79.4688 41.5208 78.7188 42.9375C77.9896 44.3542 76.8854 45.4896 75.4062 46.3438C73.9271 47.1979 72.0521 47.625 69.7812 47.625C67.5312 47.625 65.6458 47.1979 64.125 46.3438C62.6042 45.4896 61.4583 44.3542 60.6875 42.9375C59.9375 41.5208 59.5625 39.9583 59.5625 38.25ZM66.3438 35.8438V38.25C66.3438 38.8958 66.5 39.5 66.8125 40.0625C67.125 40.625 67.5417 41.0833 68.0625 41.4375C68.5833 41.7708 69.1562 41.9375 69.7812 41.9375C70.7396 41.9375 71.4479 41.7708 71.9062 41.4375C72.3854 41.0833 72.6979 40.625 72.8438 40.0625C73.0104 39.5 73.0938 38.8958 73.0938 38.25V35.8438C73.0938 35.1979 72.9688 34.5938 72.7188 34.0312C72.4688 33.4688 72.0938 33.0208 71.5938 32.6875C71.0938 32.3333 70.4688 32.1562 69.7188 32.1562C68.9688 32.1562 68.3438 32.3333 67.8438 32.6875C67.3438 33.0208 66.9688 33.4688 66.7188 34.0312C66.4688 34.5938 66.3438 35.1979 66.3438 35.8438ZM72.3438 8.03125L50.125 43.5938L45.2188 41.125L67.4375 5.5625L72.3438 8.03125Z" fill="#5E2A96"/>
</svg>
