<svg width="60" height="60" viewBox="0 0 60 60" fill="none" xmlns="http://www.w3.org/2000/svg">
<path d="M17.5313 15.5625H5.15625V58.9688H17.5313V15.5625Z" fill="#8DD1D3"/>
<path d="M32.0625 1.03125H17.625V58.9688H32.0625V1.03125Z" fill="#D32436"/>
<path d="M54.8438 56.0625L42.75 58.9688L32.0625 16.9688L44.1562 14.0625L54.8438 56.0625Z" fill="#8DD1D3"/>
<path d="M14.7188 20.7188H8.0625C7.5 20.7188 7.03125 21.1875 7.03125 21.75C7.03125 22.3125 7.5 22.7812 8.0625 22.7812H14.7188C15.2812 22.7812 15.75 22.3125 15.75 21.75C15.75 21.1875 15.2812 20.7188 14.7188 20.7188Z" fill="#330D00"/>
<path d="M21.5625 8.25H28.125C28.6875 8.25 29.1563 7.78125 29.1563 7.21875C29.1563 6.65625 28.6875 6.1875 28.125 6.1875H21.5625C21 6.1875 20.5312 6.65625 20.5312 7.21875C20.5312 7.78125 20.9063 8.25 21.5625 8.25Z" fill="#330D00"/>
<path d="M21.5625 53.8125H28.125C28.6875 53.8125 29.1562 53.3437 29.1562 52.7812C29.1562 52.2187 28.6875 51.75 28.125 51.75H21.5625C21 51.75 20.5312 52.2187 20.5312 52.7812C20.4375 53.3437 20.9062 53.8125 21.5625 53.8125Z" fill="#330D00"/>
<path d="M14.7188 51.75H8.0625C7.5 51.75 7.03125 52.2187 7.03125 52.7812C7.03125 53.3437 7.5 53.8125 8.0625 53.8125H14.7188C15.2812 53.8125 15.75 53.3437 15.75 52.7812C15.75 52.2187 15.2812 51.75 14.7188 51.75Z" fill="#330D00"/>
<path d="M55.875 55.7812L45.0937 13.7812C45 13.2188 44.4375 12.9375 43.875 13.0312L33.0938 15.6563V1.03125C33.0938 0.46875 32.625 0 32.0625 0H17.625C17.0625 0 16.5938 0.46875 16.5938 1.03125V14.4375H5.15625C4.59375 14.4375 4.125 14.9062 4.125 15.4688V58.875C4.125 59.4375 4.59375 59.9062 5.15625 59.9062H17.5313H31.9687C32.5312 59.9062 33 59.4375 33 58.875V25.125L41.625 59.1562C41.7188 59.625 42.1875 59.9062 42.6562 59.9062C42.75 59.9062 42.8437 59.9062 42.9375 59.9062L55.0312 57C55.3125 56.9062 55.5 56.7188 55.6875 56.5312C55.875 56.3438 55.875 56.0625 55.875 55.7812ZM6.1875 16.5938H16.5V57.9375H6.1875V16.5938ZM31.0312 57.9375H18.6562V15.5625V2.0625H31.0312V57.9375ZM43.5 57.75L33.375 17.7188L43.4062 15.2812L53.5312 55.3125L43.5 57.75Z" fill="#330D00"/>
<path d="M42.4687 19.6874L35.9999 21.2812C35.4374 21.3749 35.0624 21.9374 35.2499 22.4999C35.3437 22.9687 35.8124 23.2499 36.2812 23.2499C36.3749 23.2499 36.4687 23.2499 36.5624 23.2499L43.0312 21.6562C43.5937 21.5624 43.9687 20.9999 43.7812 20.4374C43.5937 19.8749 43.0312 19.4999 42.4687 19.6874Z" fill="#330D00"/>
<path d="M42.9375 52.5002C43.0313 52.9689 43.5001 53.2502 43.9688 53.2502C44.0626 53.2502 44.1563 53.2502 44.25 53.2502L50.7188 51.6564C51.2813 51.5627 51.6563 51.0002 51.4688 50.4377C51.3751 49.8752 50.8125 49.5939 50.25 49.6877L43.7813 51.2814C43.125 51.4689 42.75 52.0314 42.9375 52.5002Z" fill="#330D00"/>
</svg>
