<svg width="60" height="60" viewBox="0 0 60 60" fill="none" xmlns="http://www.w3.org/2000/svg">
<path d="M49.5117 9.72656L46.6406 8.96484L49.5117 8.20312L50.2734 5.39062L51.0352 8.20312L53.8477 8.96484L51.0352 9.72656L50.2734 12.5977L49.5117 9.72656ZM52.2656 12.832L51.2109 12.5977L52.2656 12.3047L52.5586 11.1914L52.793 12.3047L53.9062 12.5977L52.793 12.832L52.5586 13.9453L52.2656 12.832Z" fill="#FDCD60"/>
<path d="M4.62891 41.6602L3.45703 41.3672L4.62891 41.0742L4.92188 39.9023L5.21484 41.0742L6.44531 41.3672L5.21484 41.6602L4.92188 42.8906L4.62891 41.6602ZM8.67188 50.5078L6.73828 50.0391L8.67188 49.6289L9.08203 47.6953L9.55078 49.6289L11.4844 50.0391L9.55078 50.5078L9.08203 52.4414L8.67188 50.5078Z" fill="#FDCD60"/>
<path d="M7.85156 9.90234C7.85156 10.0422 7.90712 10.1763 8.00602 10.2752C8.10491 10.3741 8.23905 10.4297 8.37891 10.4297C8.51877 10.4297 8.6529 10.3741 8.75179 10.2752C8.85069 10.1763 8.90625 10.0422 8.90625 9.90234C8.90625 9.76248 8.85069 9.62835 8.75179 9.52946C8.6529 9.43056 8.51877 9.375 8.37891 9.375C8.23905 9.375 8.10491 9.43056 8.00602 9.52946C7.90712 9.62835 7.85156 9.76248 7.85156 9.90234Z" fill="#5546CB"/>
<path d="M52.0898 50.0391C51.8001 50.0391 51.5169 49.9532 51.276 49.7922C51.0351 49.6312 50.8474 49.4025 50.7365 49.1348C50.6256 48.8671 50.5966 48.5726 50.6531 48.2884C50.7097 48.0043 50.8492 47.7433 51.054 47.5384C51.2589 47.3336 51.5199 47.194 51.8041 47.1375C52.0882 47.081 52.3828 47.11 52.6504 47.2209C52.9181 47.3318 53.1469 47.5195 53.3078 47.7604C53.4688 48.0013 53.5547 48.2845 53.5547 48.5742C53.5547 48.9627 53.4004 49.3353 53.1256 49.61C52.8509 49.8847 52.4783 50.0391 52.0898 50.0391ZM52.0898 47.9297C51.974 47.9297 51.8607 47.9641 51.7643 48.0284C51.668 48.0928 51.5929 48.1843 51.5485 48.2914C51.5042 48.3985 51.4926 48.5163 51.5152 48.6299C51.5378 48.7436 51.5936 48.848 51.6755 48.9299C51.7575 49.0119 51.8619 49.0677 51.9755 49.0903C52.0892 49.1129 52.207 49.1013 52.3141 49.057C52.4211 49.0126 52.5127 48.9375 52.577 48.8412C52.6414 48.7448 52.6758 48.6315 52.6758 48.5156C52.6758 48.3602 52.614 48.2112 52.5042 48.1013C52.3943 47.9914 52.2452 47.9297 52.0898 47.9297Z" fill="#5546CB"/>
<path d="M9.72656 23.4375V43.7695C9.72656 44.2513 9.91793 44.7133 10.2586 45.0539C10.5992 45.3946 11.0612 45.5859 11.543 45.5859H48.3984C48.8802 45.5859 49.3422 45.3946 49.6828 45.0539C50.0235 44.7133 50.2148 44.2513 50.2148 43.7695V23.4375H9.72656ZM30.9375 44.4141C25.5469 44.4141 21.0938 40.0195 21.0938 34.5703C21.0938 29.1211 25.4883 24.7266 30.9375 24.7266C36.3867 24.7266 40.7812 29.1211 40.7812 34.5703C40.7812 40.0195 36.3281 44.4141 30.9375 44.4141ZM50.2734 22.2656V18.5742C50.2734 18.0925 50.0821 17.6305 49.7414 17.2898C49.4008 16.9492 48.9388 16.7578 48.457 16.7578H11.6016C11.1198 16.7578 10.6578 16.9492 10.3172 17.2898C9.97653 17.6305 9.78516 18.0925 9.78516 18.5742V22.2656H50.2734ZM42.0703 18.8672H46.2305V20.0391H42.0703V18.8672Z" fill="#FDCD60"/>
<path d="M48.3984 15.5859H46.0547L45.1758 12.1289H38.2617L37.3828 15.5859H11.6016C10.809 15.5859 10.0489 15.9008 9.48853 16.4612C8.92812 17.0216 8.61328 17.7817 8.61328 18.5742V43.7695C8.61328 44.5621 8.92812 45.3222 9.48853 45.8826C10.0489 46.443 10.809 46.7578 11.6016 46.7578H48.3984C49.191 46.7578 49.9511 46.443 50.5115 45.8826C51.0719 45.3222 51.3867 44.5621 51.3867 43.7695V18.5742C51.3867 17.7817 51.0719 17.0216 50.5115 16.4612C49.9511 15.9008 49.191 15.5859 48.3984 15.5859ZM39.1992 13.3008H44.2383L44.8242 15.4688H38.6719L39.1992 13.3008ZM11.6016 16.7578H48.3984C48.8802 16.7578 49.3422 16.9492 49.6828 17.2898C50.0235 17.6305 50.2148 18.0925 50.2148 18.5742V22.2656H9.72656V18.5742C9.72644 18.3307 9.77529 18.0896 9.87021 17.8653C9.96514 17.641 10.1042 17.4381 10.2791 17.2687C10.454 17.0992 10.6613 16.9667 10.8884 16.8789C11.1156 16.7911 11.3581 16.75 11.6016 16.7578ZM48.3984 45.5859H11.6016C11.1198 45.5859 10.6578 45.3946 10.3172 45.0539C9.97653 44.7133 9.78516 44.2513 9.78516 43.7695V23.4375H50.2734V43.7695C50.2736 44.0131 50.2247 44.2542 50.1298 44.4784C50.0349 44.7027 49.8958 44.9056 49.7209 45.0751C49.546 45.2445 49.3387 45.3771 49.1116 45.4649C48.8844 45.5526 48.6419 45.5938 48.3984 45.5859Z" fill="#5546CB"/>
<path d="M30.9375 25.957C26.1914 25.957 22.2656 29.8242 22.2656 34.6289C22.2656 39.4336 26.1328 43.3008 30.9375 43.3008C35.7422 43.3008 39.6094 39.4336 39.6094 34.6289C39.6094 29.8242 35.6836 25.957 30.9375 25.957ZM30.9375 41.4258C29.5957 41.4257 28.284 41.0285 27.1675 40.2842C26.0511 39.54 25.1799 38.4819 24.6638 37.2433C24.1477 36.0048 24.0097 34.6411 24.2673 33.3243C24.5248 32.0075 25.1663 30.7963 26.1111 29.8435C27.0558 28.8906 28.2614 28.2387 29.5759 27.9699C30.8905 27.701 32.2553 27.8273 33.4982 28.3327C34.7411 28.8382 35.8067 29.7003 36.5605 30.8103C37.3144 31.9203 37.7228 33.2286 37.7344 34.5703C37.7344 36.373 37.0183 38.1018 35.7436 39.3764C34.469 40.6511 32.7401 41.3672 30.9375 41.3672V41.4258Z" fill="white"/>
<path d="M30.9375 24.7852C25.5469 24.7852 21.0938 29.1797 21.0938 34.6289C21.0938 40.0781 25.4883 44.4727 30.9375 44.4727C36.3867 44.4727 40.7812 40.0781 40.7812 34.6289C40.7812 29.1797 36.3281 24.7852 30.9375 24.7852ZM30.9375 43.2422C26.1914 43.2422 22.2656 39.375 22.2656 34.5703C22.2656 29.7656 26.1328 25.8984 30.9375 25.8984C35.7422 25.8984 39.6094 29.7656 39.6094 34.5703C39.6094 39.375 35.6836 43.2422 30.9375 43.2422Z" fill="#5546CB"/>
<path d="M30.9375 28.9453C29.825 28.9453 28.7374 29.2752 27.8124 29.8933C26.8874 30.5114 26.1664 31.3899 25.7407 32.4177C25.3149 33.4456 25.2035 34.5766 25.4206 35.6677C25.6376 36.7588 26.1734 37.7611 26.96 38.5478C27.7467 39.3345 28.749 39.8702 29.8401 40.0872C30.9313 40.3043 32.0623 40.1929 33.0901 39.7671C34.1179 39.3414 34.9964 38.6204 35.6145 37.6954C36.2326 36.7704 36.5625 35.6828 36.5625 34.5703C36.5625 33.0785 35.9699 31.6477 34.915 30.5928C33.8601 29.5379 32.4293 28.9453 30.9375 28.9453ZM33.457 33.6914C33.2484 33.6914 33.0445 33.6295 32.8711 33.5137C32.6976 33.3978 32.5625 33.233 32.4826 33.0403C32.4028 32.8476 32.3819 32.6356 32.4226 32.431C32.4633 32.2264 32.5638 32.0384 32.7113 31.8909C32.8588 31.7434 33.0467 31.643 33.2513 31.6023C33.4559 31.5616 33.6679 31.5825 33.8606 31.6623C34.0534 31.7421 34.2181 31.8773 34.334 32.0508C34.4499 32.2242 34.5117 32.4281 34.5117 32.6367C34.5117 32.9164 34.4006 33.1847 34.2028 33.3825C34.005 33.5803 33.7368 33.6914 33.457 33.6914Z" fill="#FF8859"/>
<path d="M30.9375 27.7734C29.5932 27.7734 28.2791 28.1721 27.1614 28.9189C26.0436 29.6658 25.1724 30.7273 24.658 31.9693C24.1436 33.2112 24.009 34.5779 24.2712 35.8963C24.5335 37.2148 25.1808 38.4259 26.1314 39.3764C27.0819 40.327 28.293 40.9743 29.6115 41.2366C30.93 41.4988 32.2966 41.3642 33.5386 40.8498C34.7805 40.3354 35.842 39.4642 36.5889 38.3465C37.3357 37.2287 37.7344 35.9146 37.7344 34.5703C37.7344 32.7677 37.0183 31.0389 35.7436 29.7642C34.469 28.4895 32.7401 27.7734 30.9375 27.7734ZM30.9375 40.1953C29.825 40.1953 28.7374 39.8654 27.8124 39.2473C26.8874 38.6292 26.1664 37.7507 25.7407 36.7229C25.3149 35.6951 25.2035 34.5641 25.4206 33.4729C25.6376 32.3818 26.1734 31.3795 26.96 30.5928C27.7467 29.8062 28.749 29.2704 29.8401 29.0534C30.9313 28.8364 32.0623 28.9477 33.0901 29.3735C34.1179 29.7992 34.9964 30.5202 35.6145 31.4452C36.2326 32.3703 36.5625 33.4578 36.5625 34.5703C36.5625 36.0622 35.9699 37.4929 34.915 38.5478C33.8601 39.6027 32.4293 40.1953 30.9375 40.1953Z" fill="#5546CB"/>
<path d="M32.4023 32.6953C32.4023 32.975 32.5135 33.2433 32.7113 33.4411C32.909 33.6389 33.1773 33.75 33.457 33.75C33.7368 33.75 34.005 33.6389 34.2028 33.4411C34.4006 33.2433 34.5117 32.975 34.5117 32.6953C34.5117 32.4156 34.4006 32.1473 34.2028 31.9495C34.005 31.7517 33.7368 31.6406 33.457 31.6406C33.1773 31.6406 32.909 31.7517 32.7113 31.9495C32.5135 32.1473 32.4023 32.4156 32.4023 32.6953Z" fill="white"/>
<path d="M44.2383 13.3008H39.1992L38.6719 15.4688H44.8242L44.2383 13.3008Z" fill="#AFBCF3"/>
<path d="M42.0703 18.8672H46.2305V20.0391H42.0703V18.8672Z" fill="#5546CB"/>
</svg>
