<svg width="60" height="63" viewBox="0 0 60 63" fill="none" xmlns="http://www.w3.org/2000/svg">
<g clip-path="url(#clip0_26_651)">
<path d="M59.0625 58.3027H0.9375C0.375 58.3027 0 58.7886 0 59.2744V61.2179C0 61.7037 0.375 62.1896 0.9375 62.1896H59.0625C59.5312 62.1896 60 61.7037 60 61.2179V59.2744C60 58.7886 59.5312 58.3027 59.0625 58.3027Z" fill="#B2C1C0"/>
<path d="M47.8125 27.208H12.1875C9.09375 27.208 6.5625 29.8316 6.5625 33.0383V58.3028H53.4375V33.0383C53.4375 29.8316 50.9062 27.208 47.8125 27.208Z" fill="#E8E8E8"/>
<path d="M30.9375 0H12.1875C9.09375 0 6.5625 2.62362 6.5625 5.83027V23.3211H36.5625V5.83027C36.5625 2.62362 34.0312 0 30.9375 0Z" fill="#FFE62E"/>
<path d="M27.1875 23.3213H30.9375V27.2081H27.1875V23.3213Z" fill="#B2C1C0"/>
<path d="M12.1875 23.3213H15.9375V27.2081H12.1875V23.3213Z" fill="#B2C1C0"/>
<path d="M47.8125 29.1514H12.1875C10.125 29.1514 8.4375 30.9004 8.4375 33.0382V40.8119H51.5625V33.0382C51.5625 30.9004 49.875 29.1514 47.8125 29.1514Z" fill="#FF717F"/>
<path d="M8.4375 33.0381H51.5625V36.9249H8.4375V33.0381Z" fill="#FFE62E"/>
<path d="M30.9375 0H12.1875C9.09375 0 6.5625 2.62362 6.5625 5.83027V23.3211H36.5625V5.83027C36.5625 2.62362 34.0312 0 30.9375 0ZM34.6875 21.3777H8.4375V5.83027C8.4375 3.6925 10.125 1.94342 12.1875 1.94342H30.9375C33 1.94342 34.6875 3.6925 34.6875 5.83027V21.3777Z" fill="#FF717F"/>
<path d="M22.5 40.812H37.5V58.3028H22.5V40.812Z" fill="#62727A"/>
<path d="M24.375 42.7554H35.625V58.3028H24.375V42.7554Z" fill="#D6EEF0"/>
<path d="M29.0625 42.7554H30.9375V58.3028H29.0625V42.7554Z" fill="#62727A"/>
<path d="M8.4375 43.7271H22.5V45.6705H8.4375V43.7271Z" fill="#62727A"/>
<path d="M37.5 43.7271H51.5625V45.6705H37.5V43.7271Z" fill="#62727A"/>
<path d="M8.4375 45.6704H22.5V55.3875H8.4375V45.6704Z" fill="#D6EEF0"/>
<path d="M37.5 45.6704H51.5625V55.3875H37.5V45.6704Z" fill="#D6EEF0"/>
<path d="M8.4375 53.4443H22.5V55.3878H8.4375V53.4443Z" fill="#62727A"/>
<path d="M37.5 53.4443H51.5625V55.3878H37.5V53.4443Z" fill="#62727A"/>
<path d="M8.4375 43.7271H10.3125V55.3876H8.4375V43.7271Z" fill="#62727A"/>
<path d="M49.6875 43.7271H51.5625V55.3876H49.6875V43.7271Z" fill="#62727A"/>
<path d="M28.7813 3.88672V10.1057H25.5937V3.88672H22.5V13.2151H28.7813V19.4341H31.875V3.88672H28.7813Z" fill="#FF717F"/>
<path d="M17.5313 13.2151C18.375 13.2151 19.125 12.9236 19.7813 12.3406C20.4375 11.7576 20.7188 10.9802 20.7188 10.1057V6.9962C20.7188 6.21883 20.4375 5.44146 19.7813 4.76126C19.125 4.17823 18.2813 3.88672 17.5313 3.88672H11.25V6.9962H17.5313V10.1057H14.4375C13.5937 10.1057 12.8438 10.3972 12.1875 10.9802C11.5313 11.5632 11.25 12.3406 11.25 13.2151V19.4341H20.625V16.3246H14.3438V13.2151H17.5313Z" fill="#FF717F"/>
<path d="M37.5 62.1896H22.5L24.375 58.3027H35.625L37.5 62.1896Z" fill="#E8E8E8"/>
</g>
<defs>
<clipPath id="clip0_26_651">
<rect width="60" height="62.1895" fill="white"/>
</clipPath>
</defs>
</svg>
