<svg width="60" height="60" viewBox="0 0 60 60" fill="none" xmlns="http://www.w3.org/2000/svg">
<path d="M44.0756 43.1221H15.5241C15.0802 43.1221 14.6744 43.4982 14.4759 44.0937L11.8978 51.828C11.5082 52.9968 12.0748 54.372 12.9459 54.372H46.6537C47.5249 54.372 48.0915 52.9969 47.7018 51.8281L45.1237 44.0938C44.9252 43.4982 44.5195 43.1221 44.0756 43.1221Z" fill="#2CC4FE"/>
<path d="M46.6537 54.6065H12.9459C12.572 54.6065 12.2228 54.4077 11.9627 54.0467C11.5326 53.4501 11.4172 52.5288 11.6755 51.7541L14.2536 44.0198C14.4864 43.3216 14.9732 42.8879 15.5242 42.8879H44.0756C44.6266 42.8879 45.1134 43.3216 45.3461 44.0198L47.9243 51.7541C48.1824 52.5288 48.0671 53.4502 47.637 54.0468C47.3768 54.4077 47.0276 54.6065 46.6537 54.6065ZM15.5241 43.3566C15.1867 43.3566 14.8626 43.6751 14.6983 44.168L12.1202 51.9023C11.9106 52.5309 12.0022 53.3 12.3429 53.7727C12.463 53.9392 12.665 54.1378 12.9459 54.1378H46.6537C46.9346 54.1378 47.1366 53.9392 47.2567 53.7727C47.5973 53.3 47.689 52.5309 47.4795 51.9023L44.9014 44.168C44.7371 43.6751 44.4129 43.3566 44.0755 43.3566H15.5241ZM43.8623 30.2388H34.3115C31.5976 30.2388 29.3896 28.0309 29.3896 25.317V19.6875C29.3896 16.9736 31.5976 14.7656 34.3115 14.7656H43.8623C46.5761 14.7656 48.7841 16.9736 48.7841 19.6875V25.3169C48.7841 28.0309 46.5762 30.2388 43.8623 30.2388ZM34.3115 15.2344C31.8561 15.2344 29.8584 17.232 29.8584 19.6875V25.3169C29.8584 27.7724 31.8561 29.77 34.3115 29.77H43.8623C46.3177 29.77 48.3154 27.7724 48.3154 25.3169V19.6875C48.3154 17.232 46.3177 15.2344 43.8623 15.2344H34.3115Z" fill="#515151"/>
<path d="M39.88 39.3722H19.7238C19.0765 39.3722 18.5519 38.8476 18.5519 38.2004V6.7998C18.5519 6.15258 19.0765 5.62793 19.7238 5.62793H39.88C40.5272 5.62793 41.0519 6.15258 41.0519 6.7998V38.2004C41.0519 38.8476 40.5272 39.3722 39.88 39.3722Z" fill="#A1E4FD"/>
<path d="M39.88 39.6066H19.7238C18.9484 39.6066 18.3175 38.9758 18.3175 38.2004V6.7998C18.3175 6.02437 18.9484 5.39355 19.7238 5.39355H39.88C40.6554 5.39355 41.2863 6.02437 41.2863 6.7998V38.2004C41.2863 38.9758 40.6554 39.6066 39.88 39.6066ZM19.7238 5.8623C19.2068 5.8623 18.7863 6.28289 18.7863 6.7998V38.2004C18.7863 38.7173 19.2068 39.1379 19.7238 39.1379H39.88C40.3969 39.1379 40.8175 38.7173 40.8175 38.2004V6.7998C40.8175 6.28289 40.3969 5.8623 39.88 5.8623H19.7238Z" fill="#515151"/>
<path d="M18.5519 8.26172H41.0441V18.7501H18.5519V8.26172Z" fill="white"/>
<path d="M41.2785 18.9844H18.3175V8.02734H41.2785V18.9844ZM18.7863 18.5157H40.8097V8.49609H18.7863V18.5157Z" fill="#515151"/>
<path d="M41.0441 8.26178H18.5519V6.7998C18.5519 6.15258 19.0765 5.62793 19.7238 5.62793H39.8723C40.5195 5.62793 41.0441 6.15258 41.0441 6.7998V8.26178Z" fill="#2CC4FE"/>
<path d="M41.2785 8.49615H18.3175V6.7998C18.3175 6.02437 18.9484 5.39355 19.7238 5.39355H39.8722C40.6476 5.39355 41.2785 6.02437 41.2785 6.7998V8.49615ZM18.7863 8.0274H40.8097V6.7998C40.8097 6.28289 40.3891 5.8623 39.8722 5.8623H19.7238C19.2068 5.8623 18.7863 6.28289 18.7863 6.7998V8.0274Z" fill="#515151"/>
<path d="M22.5041 25.8544C22.4577 25.8544 22.4124 25.8406 22.3738 25.8149C22.3353 25.7891 22.3052 25.7525 22.2875 25.7097C22.2697 25.6669 22.2651 25.6197 22.2742 25.5743C22.2832 25.5288 22.3056 25.4871 22.3384 25.4543L26.4985 21.2941C26.5202 21.272 26.546 21.2543 26.5746 21.2422C26.6031 21.2301 26.6338 21.2238 26.6648 21.2236C26.6958 21.2235 26.7265 21.2294 26.7552 21.2412C26.7838 21.253 26.8099 21.2704 26.8318 21.2923C26.8537 21.3142 26.8711 21.3403 26.8829 21.3689C26.8946 21.3976 26.9006 21.4283 26.9004 21.4593C26.9003 21.4903 26.8939 21.521 26.8818 21.5495C26.8697 21.5781 26.8521 21.6039 26.8299 21.6256L22.6698 25.7858C22.648 25.8075 22.6222 25.8248 22.5938 25.8366C22.5653 25.8484 22.5348 25.8544 22.5041 25.8544ZM23.2365 29.37C23.1901 29.37 23.1448 29.3563 23.1062 29.3305C23.0677 29.3048 23.0376 29.2682 23.0199 29.2253C23.0022 29.1825 22.9975 29.1354 23.0066 29.0899C23.0156 29.0444 23.038 29.0027 23.0708 28.9699L30.5708 21.4699C30.5925 21.4477 30.6183 21.4301 30.6469 21.418C30.6754 21.4059 30.7061 21.3996 30.737 21.3994C30.768 21.3992 30.7988 21.4052 30.8274 21.417C30.8561 21.4288 30.8822 21.4462 30.9041 21.4681C30.926 21.49 30.9434 21.516 30.9551 21.5447C30.9669 21.5734 30.9729 21.6041 30.9727 21.6351C30.9725 21.6661 30.9662 21.6968 30.9541 21.7253C30.942 21.7539 30.9244 21.7797 30.9022 21.8014L23.4022 29.3014C23.3804 29.3232 23.3546 29.3404 23.3262 29.3522C23.2977 29.364 23.2673 29.37 23.2365 29.37Z" fill="#D7F9FF"/>
<path d="M28.3292 48.8672C28.3292 49.2557 28.4836 49.6283 28.7583 49.903C29.033 50.1777 29.4056 50.332 29.7941 50.332C30.1826 50.332 30.5552 50.1777 30.8299 49.903C31.1046 49.6283 31.2589 49.2557 31.2589 48.8672C31.2589 48.4787 31.1046 48.1061 30.8299 47.8314C30.5552 47.5567 30.1826 47.4023 29.7941 47.4023C29.4056 47.4023 29.033 47.5567 28.7583 47.8314C28.4836 48.1061 28.3292 48.4787 28.3292 48.8672Z" fill="#F9F570"/>
<path d="M29.7941 50.5664C28.8572 50.5664 28.0948 49.8042 28.0948 48.8672C28.0948 47.9302 28.8572 47.168 29.7941 47.168C30.731 47.168 31.4933 47.9302 31.4933 48.8672C31.4933 49.8042 30.731 50.5664 29.7941 50.5664ZM29.7941 47.6367C29.1156 47.6367 28.5636 48.1887 28.5636 48.8672C28.5636 49.5457 29.1156 50.0977 29.7941 50.0977C30.4725 50.0977 31.0245 49.5457 31.0245 48.8672C31.0245 48.1887 30.4725 47.6367 29.7941 47.6367Z" fill="#515151"/>
</svg>
