<svg width="60" height="60" viewBox="0 0 60 60" fill="none" xmlns="http://www.w3.org/2000/svg">
<g clip-path="url(#clip0_26_558)">
<path d="M55.4972 41.8029L55.4932 41.6812C55.1867 37.0859 56.5636 29.2438 56.5775 29.1652L52.9759 28.5264C52.916 28.8639 51.5189 36.8179 51.8394 41.8624V49.4285H51.2853V53.0863H56.1319V49.4285H55.4971L55.4972 41.8029Z" fill="#664B33"/>
<path d="M60 19.43C60 22.5927 57.1249 28.7818 56.797 29.4767L56.4203 30.2753L55.5619 30.4777C55.5472 30.4813 53.9488 30.8617 48.9473 32.2907C47.7756 32.6248 45.7406 33.9428 42.6925 38.32C40.4917 41.4803 38.514 45.1649 37.207 47.6035L36.8425 48.2826C35.5232 50.732 33.3102 52.322 30.4438 52.8804C30.2073 52.9267 29.9743 52.9633 29.75 52.9926C29.1697 53.0706 28.6344 53.0962 28.1748 53.0962C27.4348 53.0962 26.8897 53.0278 26.6641 52.9937L1.42289 50.937L0.994922 50.609C0.103594 49.9251 0 48.5984 0 47.6596C0 45.4759 1.86797 44.1286 2.08125 43.9811L2.17641 43.9165L15.3884 37.1032L16.215 38.197C16.4101 38.3677 17.7403 39.4236 21.2701 40.1148C23.1404 40.4819 25.8362 40.1904 29.7502 35.595C31.5632 33.4662 33.6384 30.4144 36.0135 26.0751C43.0595 13.2045 51.926 7.97008 52.2991 7.75434L53.7683 6.90332L54.7254 8.3043C54.7778 8.38105 56.0202 10.2027 57.281 12.4096C59.7184 16.6732 60 18.4582 60 19.43Z" fill="#FF3D63"/>
<path d="M60 19.43C60 22.5927 57.1249 28.7818 56.7971 29.4767L56.4203 30.2753L55.5619 30.4777C55.5472 30.4813 53.9488 30.8617 48.9474 32.2907C47.7756 32.6248 45.7406 33.9428 42.6925 38.32C40.4917 41.4803 38.514 45.1649 37.2071 47.6035L36.8425 48.2826C35.5232 50.732 33.3102 52.322 30.4438 52.8804C30.2073 52.9267 29.9744 52.9633 29.7501 52.9926V35.5949C31.5631 33.4661 33.6383 30.4143 36.0134 26.075C43.0595 13.2045 51.926 7.97008 52.2992 7.75434L53.7683 6.90332L54.7254 8.3043C54.7778 8.38105 56.0202 10.2027 57.281 12.4096C59.7184 16.6732 60 18.4582 60 19.43Z" fill="#FF0335"/>
</g>
<defs>
<clipPath id="clip0_26_558">
<rect width="60" height="60" fill="white"/>
</clipPath>
</defs>
</svg>
