<svg width="60" height="60" viewBox="0 0 60 60" fill="none" xmlns="http://www.w3.org/2000/svg">
<path d="M50.1 47.775C50.1 48.825 49.125 49.65 47.85 49.65H13.275C12.075 49.65 11.025 48.825 11.025 47.775V21.75C11.025 20.7 12 19.875 13.275 19.875H47.85C49.05 19.875 50.1 20.7 50.1 21.75V47.775Z" fill="#E1E0A6"/>
<path d="M47.85 50.4H13.275C11.625 50.4 10.275 49.2 10.275 47.775V21.75C10.275 20.325 11.625 19.125 13.275 19.125H47.85C49.5 19.125 50.85 20.325 50.85 21.75V47.775C50.85 49.2 49.5 50.4 47.85 50.4ZM13.275 20.625C12.45 20.625 11.775 21.15 11.775 21.75V47.775C11.775 48.375 12.45 48.9 13.275 48.9H47.85C48.675 48.9 49.35 48.375 49.35 47.775V21.75C49.35 21.15 48.675 20.625 47.85 20.625H13.275Z" fill="#231C1C"/>
<path d="M53.775 26.3249C53.775 27.5999 52.95 28.6499 51.9 28.6499L30.525 19.2749L9.14999 28.6499C8.09999 28.6499 7.27499 27.5999 7.27499 26.3249V23.0249C7.27499 21.7499 8.09999 20.6999 9.14999 20.6999L30.525 9.8999L51.9 20.6999C52.95 20.6999 53.775 21.7499 53.775 23.0249V26.3249Z" fill="#6FB0BE"/>
<path d="M51.9 29.4002C51.825 29.4002 51.675 29.4002 51.6 29.3252L30.525 20.1002L9.44999 29.3252C9.37499 29.4002 9.22499 29.4002 9.14999 29.4002C7.72499 29.4002 6.52499 28.0502 6.52499 26.3252V23.0252C6.52499 21.3752 7.57499 20.0252 8.92499 19.9502L30.15 9.2252C30.375 9.1502 30.6 9.1502 30.825 9.2252L52.05 19.9502C53.4 20.1002 54.45 21.3752 54.45 23.0252V26.3252C54.525 27.9752 53.4 29.4002 51.9 29.4002ZM30.525 10.7252L9.52499 21.3752C9.44999 21.4502 9.29999 21.4502 9.22499 21.4502C8.62499 21.4502 8.09999 22.2002 8.09999 23.0252V26.3252C8.09999 27.1502 8.54999 27.8252 9.07499 27.9002L30.3 18.6002C30.525 18.5252 30.675 18.5252 30.9 18.6002L52.125 27.9002C52.65 27.8252 53.1 27.1502 53.1 26.3252V23.0252C53.1 22.1252 52.575 21.4502 51.975 21.4502C51.825 21.4502 51.75 21.4502 51.6 21.3752L30.525 10.7252Z" fill="#231C1C"/>
<path d="M36.525 49.7249H26.1V37.1999C26.1 36.1499 27 35.3999 28.05 35.3999H34.575C35.625 35.3999 36.525 36.1499 36.525 37.1999V49.7249Z" fill="#FDE8C2"/>
<path d="M36.525 50.4749H26.1C25.65 50.4749 25.35 50.1749 25.35 49.7249V37.1999C25.35 35.7749 26.475 34.6499 28.05 34.6499H34.575C36.075 34.6499 37.275 35.6999 37.275 37.1999V49.6499C37.275 50.0999 36.975 50.4749 36.525 50.4749ZM26.85 48.9749H35.775V37.1999C35.775 36.5249 35.175 36.1499 34.575 36.1499H28.05C27.45 36.1499 26.85 36.4499 26.85 37.1999V48.9749Z" fill="#231C1C"/>
</svg>
