<svg width="60" height="60" viewBox="0 0 60 60" fill="none" xmlns="http://www.w3.org/2000/svg">
<g clip-path="url(#clip0_26_347)">
<path d="M15.553 8.97898C17.5533 3.13249 23.1174 0.66695 29.264 0.569824C32.5284 0.688561 35.9796 1.62218 38.4116 3.47535C40.9369 5.39941 42.5071 7.36669 43.1202 10.4398C43.5546 12.6151 43.4359 13.8821 43.1994 15.5442L42.7623 17.5659C43.1087 17.4288 43.484 17.3816 43.8535 17.4284C44.1144 17.4554 44.3666 17.5373 44.5936 17.6686C44.8207 17.7999 45.0174 17.9777 45.1708 18.1904C45.3315 18.4669 45.4245 18.7775 45.442 19.0968C45.5634 20.3184 45.5406 21.5357 44.9042 22.6487C44.6102 23.2005 44.192 23.6763 43.6826 24.0388C43.124 24.3863 42.5026 24.6208 41.8537 24.7289L41.7253 24.7462C41.0012 27.5752 38.1627 30.9787 33.2192 32.3463C30.8661 33.0485 27.2006 33.1417 24.6127 32.4839C20.021 31.2213 17.0478 27.6825 16.5027 24.7425L16.3298 24.7284C15.681 24.6204 15.0597 24.3861 14.5011 24.0388C13.992 23.6761 13.574 23.2001 13.2803 22.6482C12.6438 21.5352 12.6205 20.3172 12.7424 19.0963C12.7599 18.777 12.8528 18.4664 13.0134 18.1899C13.1669 17.9773 13.3635 17.7995 13.5905 17.6682C13.8175 17.5369 14.0696 17.455 14.3304 17.428C14.8794 17.3541 15.4357 17.4956 15.8827 17.8228L15.5006 15.6423C14.8476 14.0992 14.7906 11.7658 15.2633 9.94441C15.3493 9.61305 15.4458 9.29124 15.553 8.97898Z" fill="white"/>
<path d="M12.9401 50.8699C13.8084 50.0701 14.749 49.2311 15.7409 48.8647L15.9393 48.8021C14.9645 48.0623 14.117 47.1684 13.4303 46.1554C13.1258 45.712 12.2284 43.5753 12.3192 43.0474C12.2174 41.7051 12.3522 40.3553 12.7172 39.0596C13.3983 36.8694 14.5495 34.4362 16.8438 32.5558C17.968 31.6373 19.0867 30.8576 20.402 30.4341C21.6634 31.3752 23.0902 32.0712 24.6083 32.4861C27.2006 33.1439 30.8661 33.0507 33.2238 32.3485C34.8373 31.9127 36.3595 31.191 37.7181 30.2178C39.4066 30.548 40.7533 31.4479 42.1058 32.5558C44.4001 34.4362 45.5513 36.8694 46.2336 39.0596C46.6008 40.3549 46.7364 41.7049 46.6343 43.0474C46.61 44.3027 45.9104 45.5421 45.5953 45.9747C44.9333 46.8758 44.171 47.6986 43.323 48.4272C44.041 48.5928 46.3417 50.437 47.4768 51.7494L47.7303 51.9492C47.9368 51.489 48.2352 51.0759 48.6071 50.7351C48.9781 50.4135 49.415 50.177 49.8871 50.0421C50.3592 49.9073 50.8551 49.8775 51.34 49.9547C51.8187 50.0323 52.2738 50.2166 52.6716 50.494C53.0694 50.7714 53.3996 51.1349 53.6378 51.5573C53.884 52.0414 54.0262 52.5716 54.0552 53.114C54.1418 54.2608 53.7266 55.3632 53.113 56.3655C52.5723 57.227 51.8273 57.9419 50.9442 58.4466C50.0611 58.9514 49.0671 59.2305 48.0504 59.2591C47.6944 59.2537 47.3447 59.1652 47.029 59.0008C46.7133 58.8364 46.4403 58.6006 46.2317 58.3122C44.0949 58.7869 42.4846 58.7451 40.2584 58.4069C40.2584 58.4069 34.3204 57.5009 31.2367 57.0619C29.4543 56.7836 27.631 56.9474 25.9268 57.5388C20.9806 59.4813 18.207 59.7574 12.9148 59.1317L12.731 59.1098C12.4815 59.2112 12.2143 59.2618 11.945 59.2587C10.9281 59.2301 9.93386 58.951 9.05057 58.4462C8.16727 57.9414 7.42218 57.2265 6.88136 56.3648C6.26777 55.362 5.85256 54.2601 5.93924 53.1133C5.96797 52.5709 6.11016 52.0406 6.35664 51.5566C6.59473 51.1341 6.92492 50.7706 7.3227 50.4932C7.72048 50.2157 8.17565 50.0314 8.6544 49.954C9.13927 49.8768 9.63518 49.9066 10.1073 50.0414C10.5794 50.1762 11.0163 50.4128 11.3873 50.7344C11.6731 50.9927 11.9144 51.2962 12.1016 51.6328C12.3729 51.3953 12.6526 51.1346 12.9401 50.8699Z" fill="#79C6E0"/>
<path d="M20.605 36.2898C20.5768 34.9765 20.9345 33.7354 21.12 32.982C21.2689 32.4028 21.4729 31.8393 21.7292 31.299C22.6366 31.8111 23.6035 32.2094 24.6083 32.4849C27.2006 33.1427 30.8661 33.0495 33.2238 32.3473C34.7358 31.9376 36.1687 31.2783 37.4634 30.3965C37.6784 30.6779 37.8688 30.9772 38.0326 31.2913C38.9006 33.1663 39.3119 38.4895 36.5448 40.0173C34.4909 41.1498 32.7387 41.4169 30.863 41.5878C28.9117 41.7417 26.9485 41.624 25.0296 41.2379C21.5258 40.3196 20.6465 38.2263 20.605 36.2898Z" fill="white"/>
<path d="M22.9963 46.7662C23.3442 46.6862 23.7028 46.6621 24.0583 46.6948C24.2885 46.7188 24.5071 46.8078 24.6885 46.9514C24.87 47.095 25.0068 47.2873 25.083 47.5058C25.2022 47.9516 24.8688 48.498 24.4075 48.4926C25.1862 48.6956 25.6063 49.6295 25.4496 50.4186C25.293 51.2078 24.6986 51.8444 24.0353 52.3C23.6949 52.5665 23.2818 52.7238 22.8503 52.7511C22.5556 52.7369 22.2675 52.6593 22.0056 52.5236C21 52.0495 20.1843 51.2492 19.6913 50.2528" fill="white"/>
<path d="M36.2277 46.6483C35.8872 46.5413 35.5318 46.489 35.1749 46.4934C34.9435 46.4992 34.7185 46.5708 34.5263 46.6998C34.3342 46.8288 34.1827 47.0099 34.0897 47.2219C33.9358 47.6568 34.225 48.2274 34.6851 48.2587C33.893 48.3993 33.4006 49.2967 33.4953 50.0958C33.59 50.8949 34.1312 51.5758 34.7565 52.0821C35.0747 52.3747 35.474 52.5641 35.9019 52.6255C36.1966 52.6345 36.4898 52.5798 36.7614 52.4652C37.8008 52.0719 38.6765 51.3385 39.2461 50.3843" fill="white"/>
<path d="M46.0755 57.7496C44.6732 58.0578 43.2318 58.1478 41.802 58.0167C41.1445 57.9577 40.493 57.8577 39.8405 57.7584C37.9476 57.4705 36.0541 57.186 34.1601 56.9046C33.0918 56.7461 32.0214 56.5693 30.9479 56.4421C29.6521 56.2915 28.3405 56.3493 27.0629 56.6132C26.4791 56.7412 25.9068 56.9173 25.352 57.1397C24.0757 57.6431 22.766 58.0575 21.4323 58.3797C18.6188 59.0297 15.7604 58.8836 12.9136 58.5497C12.7593 58.5505 12.6116 58.6122 12.5025 58.7213C12.3933 58.8304 12.3317 58.9782 12.3309 59.1325C12.3344 59.2859 12.397 59.432 12.5055 59.5406C12.614 59.6491 12.7602 59.7116 12.9136 59.7152C15.5295 60.0224 18.1538 60.1683 20.7604 59.705C22.0192 59.47 23.2572 59.1352 24.4629 58.7036C25.2226 58.439 25.9615 58.1017 26.7385 57.8888C27.7888 57.6081 28.8756 57.488 29.9619 57.5325C31.0803 57.6087 32.1936 57.7471 33.2967 57.947C35.2763 58.2384 37.2551 58.5352 39.2333 58.8374C39.9826 58.9513 40.7314 59.0717 41.4854 59.1516C43.1229 59.3242 44.7775 59.2303 46.3849 58.8734C47.1172 58.7131 46.8074 57.5891 46.0751 57.7496H46.0755Z" fill="#211715"/>
<path d="M12.8233 51.7679C13.3363 51.3007 13.8375 50.8209 14.3741 50.3795C14.4407 50.3251 14.5077 50.2713 14.5752 50.218C14.5995 50.1981 14.6415 50.1675 14.5922 50.2049C14.6298 50.1765 14.6675 50.1481 14.7053 50.1201C14.8399 50.0213 14.977 49.9259 15.1181 49.8363C15.2546 49.7489 15.3942 49.6663 15.5375 49.5915C15.6074 49.5549 15.6783 49.5187 15.7499 49.4866C15.7813 49.4721 15.8131 49.4578 15.8449 49.4442C15.7286 49.4927 15.8852 49.4308 15.8963 49.4267C16.0435 49.3826 16.168 49.2834 16.2438 49.1499C16.3197 49.0163 16.3411 48.8586 16.3035 48.7096C16.2609 48.5616 16.1619 48.4361 16.0279 48.3601C15.8939 48.284 15.7355 48.2634 15.5865 48.3027C14.1738 48.8347 13.095 49.9468 11.9992 50.9423C11.891 51.0522 11.8304 51.2002 11.8304 51.3544C11.8304 51.5086 11.891 51.6566 11.9992 51.7664C12.1101 51.8726 12.2577 51.9319 12.4112 51.9319C12.5648 51.9319 12.7124 51.8726 12.8233 51.7664V51.7679Z" fill="#211715"/>
<path d="M43.1669 48.9877C43.1846 48.9921 43.3213 49.046 43.3274 49.0411C43.305 49.0581 43.1875 48.9744 43.2963 49.031C43.3257 49.046 43.3555 49.0601 43.3847 49.0754C43.5376 49.155 43.6848 49.2454 43.8295 49.3396C44.0075 49.4554 44.1816 49.5775 44.353 49.7038C44.4552 49.7789 44.5565 49.8551 44.657 49.9323C44.5737 49.8679 44.7158 49.9787 44.7175 49.9808C44.7704 50.0226 44.8231 50.0646 44.8756 50.1069C45.6639 50.7261 46.3961 51.4136 47.0636 52.1616C47.1735 52.2696 47.3215 52.3301 47.4756 52.3301C47.6297 52.3301 47.7777 52.2696 47.8877 52.1616C47.9942 52.0508 48.0537 51.9032 48.0537 51.7495C48.0537 51.5959 47.9942 51.4482 47.8877 51.3374C47.1943 50.5607 46.4316 49.8488 45.6091 49.2104C45.2179 48.8991 44.8192 48.5939 44.3989 48.3224C44.118 48.1213 43.8064 47.9669 43.4762 47.8652C43.3272 47.8241 43.1679 47.8439 43.0335 47.9203C42.899 47.9966 42.8004 48.1232 42.7593 48.2723C42.7182 48.4213 42.738 48.5806 42.8144 48.715C42.8907 48.8495 43.0173 48.9481 43.1664 48.9892L43.1669 48.9877Z" fill="#211715"/>
<path d="M36.9579 30.6878C37.1817 30.9815 37.3788 31.2946 37.5469 31.6234C37.6103 31.7555 37.5018 31.5042 37.5564 31.646C37.5676 31.6749 37.579 31.7035 37.5897 31.7322C37.6302 31.8402 37.6671 31.9507 37.7011 32.0597C37.8364 32.509 37.9365 32.9682 38.0005 33.4331C38.1411 34.4528 38.135 35.4874 37.9823 36.5054C37.8104 37.4995 37.4823 38.4579 36.7864 39.1232C36.6276 39.2785 36.4472 39.4101 36.2508 39.5139C35.863 39.7326 35.4618 39.9267 35.0496 40.095C34.2973 40.3968 33.5162 40.6215 32.7186 40.7656C31.1177 41.0545 29.4871 41.143 27.8644 41.0291C26.9655 40.9853 26.0716 40.8676 25.192 40.677C24.1049 40.4497 23.1026 39.924 22.2977 39.1587C21.9943 38.847 21.7465 38.4856 21.5651 38.0903C21.5612 38.0823 21.4891 37.9159 21.5357 38.0284C21.5148 37.9781 21.4954 37.9271 21.4767 37.8761C21.4458 37.7916 21.4173 37.7063 21.3912 37.6202C21.3259 37.3992 21.2749 37.1742 21.2385 36.9466C21.2193 36.8323 21.2337 36.9223 21.2368 36.9454C21.2276 36.8762 21.2203 36.8065 21.214 36.7371C21.2028 36.6163 21.1952 36.4949 21.1912 36.3729C21.1836 36.1514 21.1875 35.9295 21.2002 35.7083C21.2125 35.4939 21.2337 35.28 21.2618 35.067C21.2424 35.2149 21.2643 35.0546 21.2679 35.0313C21.2779 34.9689 21.2873 34.9065 21.2978 34.8443C21.3157 34.7385 21.3351 34.6328 21.3558 34.5272C21.5324 33.5181 21.827 32.5332 22.2336 31.5928C22.3071 31.4583 22.3264 31.3008 22.2876 31.1525C22.2487 31.0043 22.1546 30.8765 22.0245 30.7954C21.8907 30.7186 21.7322 30.6975 21.583 30.7366C21.4338 30.7758 21.306 30.872 21.2271 31.0045C20.7976 31.9713 20.4773 32.9831 20.2721 34.021C20.077 34.8592 19.9976 35.7202 20.0361 36.58C20.0785 37.5643 20.3913 38.5179 20.9403 39.3359C21.6942 40.3398 22.7334 41.093 23.9221 41.497C24.8408 41.8126 25.795 42.013 26.763 42.0936C28.4935 42.2917 30.2416 42.2771 31.9685 42.0501C33.699 41.8253 35.4437 41.3702 36.9494 40.4555C37.9651 39.8388 38.5842 38.7728 38.9125 37.6571C39.2331 36.4897 39.3415 35.2742 39.2325 34.0685C39.1837 33.0326 38.957 32.0127 38.5624 31.0535C38.3962 30.7156 38.196 30.3955 37.9648 30.0983C37.8838 29.9681 37.756 29.8739 37.6077 29.835C37.4594 29.7962 37.3019 29.8155 37.1674 29.8892C37.0348 29.9681 36.9386 30.0959 36.8995 30.2451C36.8604 30.3943 36.8815 30.5529 36.9583 30.6866L36.9579 30.6878Z" fill="#211715"/>
<path d="M27.3543 37.6927C26.7935 37.6263 26.2563 37.4284 25.7864 37.1153C25.7084 37.0574 25.6345 36.9942 25.5652 36.9261C25.5246 36.8868 25.4854 36.8463 25.4477 36.8047C25.429 36.7843 25.4111 36.7632 25.3924 36.7425C25.3236 36.6658 25.4009 36.7593 25.3647 36.7107C25.2954 36.6179 25.2324 36.5206 25.1763 36.4193C25.1505 36.3735 25.1277 36.3263 25.1034 36.2792C25.0915 36.255 25.0811 36.2319 25.0699 36.2081C25.0298 36.1219 25.1151 36.3334 25.058 36.1787C24.9806 35.9678 24.9217 35.7506 24.882 35.5294C24.8756 35.4957 24.8705 35.4614 24.8657 35.4274C24.8669 35.4357 24.8773 35.5246 24.8698 35.4546C24.8642 35.4037 24.8589 35.3524 24.8548 35.3012C24.8453 35.1822 24.8404 35.0632 24.8395 34.944C24.8383 34.7199 24.8496 34.4959 24.8735 34.2731C24.8783 34.2245 24.8841 34.1777 24.8897 34.1298C24.873 34.2721 24.8931 34.1085 24.8982 34.0755C24.914 33.9715 24.9322 33.8683 24.9519 33.7651C25.0184 33.4194 25.1083 33.0797 25.201 32.7402C25.3989 32.0157 24.2749 31.7066 24.077 32.4304C23.5812 34.2447 23.2799 36.5825 24.9371 37.9226C25.548 38.4023 26.2755 38.7108 27.045 38.8167C27.1938 38.853 27.3509 38.8312 27.4842 38.7555C27.6174 38.6799 27.7167 38.5562 27.7617 38.4097C27.8017 38.2607 27.7813 38.102 27.7052 37.9679C27.629 37.8338 27.5032 37.735 27.3548 37.6929L27.3543 37.6927Z" fill="#211715"/>
<path d="M34.4736 32.5373C34.4979 32.5859 34.519 32.6385 34.545 32.6871C34.5807 32.7541 34.5067 32.5839 34.5334 32.6594C34.5453 32.6929 34.5596 32.7257 34.5722 32.759C34.6191 32.8843 34.6601 33.0115 34.6963 33.1402C34.7395 33.2927 34.7759 33.4465 34.8056 33.6015C34.8217 33.6844 34.8358 33.7675 34.8478 33.8507C34.8386 33.7871 34.8454 33.8264 34.8495 33.8672C34.8544 33.9158 34.8599 33.9643 34.8641 34.0129C34.8789 34.1828 34.8859 34.3528 34.884 34.5228C34.883 34.6149 34.8793 34.7068 34.8728 34.7984C34.8701 34.8394 34.8665 34.8805 34.8626 34.9215C34.8599 34.9487 34.8456 35.0609 34.857 34.9822C34.8314 35.1579 34.7933 35.3316 34.7429 35.5018C34.6978 35.6684 34.6335 35.8291 34.5513 35.9809C34.4768 36.1152 34.457 36.273 34.4959 36.4215C34.5348 36.5701 34.6296 36.6979 34.7604 36.7783C34.8942 36.8547 35.0527 36.8757 35.2018 36.8366C35.3509 36.7975 35.4787 36.7015 35.5578 36.5692C36.2824 35.1694 36.1845 33.3425 35.4801 31.9482C35.402 31.8148 35.274 31.7178 35.1244 31.6787C34.9748 31.6395 34.8158 31.6614 34.6823 31.7395C34.5489 31.8176 34.4519 31.9456 34.4128 32.0952C34.3736 32.2448 34.3955 32.4038 34.4736 32.5373Z" fill="#211715"/>
<path d="M29.4231 22.0772C29.4026 22.0888 29.3815 22.0992 29.3599 22.1085L29.4991 22.0498C29.4657 22.0636 29.4307 22.0731 29.3949 22.0782L29.5498 22.0575C29.5152 22.0614 29.4802 22.0609 29.4457 22.0561L29.6006 22.077C29.5804 22.074 29.5605 22.0702 29.5406 22.0663C29.4724 22.0529 29.4034 22.0454 29.3344 22.0367C29.2565 22.0332 29.1789 22.0506 29.1098 22.0869C29.0057 22.1324 28.9167 22.2067 28.8533 22.301C28.7898 22.3953 28.7546 22.5058 28.7517 22.6194L28.7723 22.7743C28.7991 22.8716 28.8509 22.9603 28.9224 23.0315L29.0402 23.1225C29.1294 23.1749 29.231 23.2024 29.3344 23.2022H29.3378L29.1829 23.1813C29.2072 23.1847 29.2337 23.1905 29.2589 23.1951C29.3228 23.207 29.3876 23.2143 29.4532 23.2221C29.4682 23.2238 29.4833 23.225 29.4986 23.2255C29.5148 23.2257 29.531 23.2249 29.5472 23.223C29.6062 23.2167 29.6664 23.2094 29.7249 23.1988C29.7339 23.1971 29.7426 23.1951 29.7514 23.1929C29.7718 23.1877 29.7919 23.1809 29.8113 23.1728C29.8807 23.1472 29.9484 23.1171 30.0138 23.0827C30.1404 23.0009 30.2347 22.8779 30.2809 22.7345C30.3051 22.6594 30.3087 22.5791 30.2914 22.5021C30.2879 22.4251 30.264 22.3503 30.2222 22.2855L30.1311 22.1675C30.0596 22.0964 29.9708 22.0451 29.8735 22.0184L29.7186 21.9976C29.6151 21.9974 29.5135 22.0249 29.4243 22.0772H29.4231Z" fill="#211715"/>
<path d="M27.0481 26.2688C27.6675 26.8758 28.6429 27.056 29.4763 27.0555C30.3096 27.055 31.284 26.8754 31.9044 26.2688C32.0122 26.1592 32.0724 26.0115 32.0717 25.8577C32.0711 25.704 32.0098 25.5567 31.9011 25.448C31.7924 25.3393 31.6451 25.278 31.4914 25.2773C31.3376 25.2767 31.1899 25.3369 31.0803 25.4447C31.056 25.4675 30.9455 25.5557 31.0317 25.4932C31.1179 25.4308 30.9705 25.5328 30.9399 25.5518C30.8877 25.5838 30.8338 25.6134 30.7792 25.6409C30.7423 25.6593 30.7047 25.6763 30.6673 25.6936C30.7382 25.661 30.725 25.671 30.6607 25.6936C30.2827 25.8347 29.8809 25.9015 29.4775 25.89C29.3561 25.89 29.2371 25.8859 29.1174 25.8767C29.0511 25.8716 28.9846 25.866 28.9188 25.857C28.9943 25.8672 28.884 25.8499 28.8585 25.8453C28.6738 25.813 28.4922 25.765 28.3156 25.7018C28.2913 25.6931 28.1524 25.629 28.2874 25.6936C28.2561 25.6785 28.2245 25.6649 28.1937 25.6496C28.1328 25.6198 28.0723 25.5872 28.015 25.5525C27.9982 25.5421 27.9009 25.4607 27.8861 25.4651C27.922 25.4546 27.9985 25.5622 27.9227 25.4906C27.9069 25.4753 27.8902 25.461 27.8742 25.4454C27.7646 25.3376 27.6168 25.2775 27.4631 25.2781C27.3094 25.2787 27.1621 25.3401 27.0534 25.4488C26.9447 25.5575 26.8833 25.7047 26.8827 25.8585C26.8821 26.0122 26.9422 26.1599 27.05 26.2695L27.0481 26.2688Z" fill="#211715"/>
<path d="M22.6757 18.6288C22.4587 19.3315 22.5951 20.9465 23.9209 21.0813C25.6738 21.066 25.7719 19.1128 25.1835 18.1961C24.7028 17.4449 23.283 17.136 22.6757 18.6288Z" fill="#211715"/>
<path d="M35.8953 18.6288C36.1124 19.3318 35.9762 20.9467 34.6504 21.0813C32.8975 21.066 32.7994 19.1128 33.3877 18.1961C33.8688 17.4449 35.2883 17.136 35.8953 18.6288Z" fill="#211715"/>
<path d="M42.595 18.3265C43.1749 17.897 44.1809 17.8227 44.659 18.4661C44.8884 18.7755 44.8802 19.2536 44.9018 19.6195C44.9357 20.067 44.9244 20.5168 44.868 20.962C44.7507 21.8152 44.3613 22.6078 43.7576 23.2222C43.1866 23.7441 42.4667 24.0745 41.6986 24.1672C41.5501 24.2091 41.4241 24.3078 41.3479 24.442C41.2717 24.5762 41.2515 24.735 41.2916 24.884C41.3359 25.0309 41.4351 25.1551 41.5686 25.2309C41.702 25.3067 41.8595 25.3282 42.0084 25.2909C42.8401 25.1639 43.6228 24.817 44.2755 24.2861C44.9283 23.7552 45.4274 23.0597 45.7213 22.2713C46.0367 21.3888 46.1522 20.4474 46.0595 19.5149C45.9966 18.5844 45.8089 17.7277 44.9588 17.2081C44.5079 16.9417 43.9898 16.8106 43.4663 16.8306C42.9429 16.8506 42.4363 17.0207 42.0069 17.3208C41.877 17.402 41.7829 17.5297 41.7441 17.678C41.7052 17.8262 41.7244 17.9837 41.7979 18.1182C41.8766 18.2508 42.0044 18.3471 42.1536 18.3862C42.3028 18.4253 42.4614 18.4041 42.595 18.3273V18.3265Z" fill="#211715"/>
<path d="M16.1768 17.3202C15.7973 17.0549 15.3565 16.8908 14.8959 16.8434C14.4353 16.796 13.9702 16.8668 13.5447 17.0492C13.1363 17.2164 12.7852 17.4986 12.5341 17.8615C12.3027 18.2522 12.1722 18.6945 12.1546 19.1484C11.9734 20.9515 12.3085 22.8671 13.7049 24.1431C14.3994 24.7574 15.2577 25.1562 16.1751 25.2906C16.3239 25.3267 16.4809 25.3048 16.6141 25.2291C16.7473 25.1535 16.8466 25.03 16.8919 24.8837C16.9319 24.7347 16.9116 24.5759 16.8354 24.4418C16.7593 24.3077 16.6333 24.2089 16.4849 24.1669C15.733 24.0756 15.0268 23.7574 14.4603 23.2546C13.8381 22.6364 13.4363 21.8307 13.3169 20.9617C13.2605 20.5165 13.2492 20.0667 13.2832 19.6192C13.3043 19.255 13.2965 18.7851 13.5211 18.4748C13.9934 17.8226 15.0064 17.8955 15.5887 18.3267C15.7224 18.4036 15.881 18.4247 16.0301 18.3856C16.1793 18.3465 16.3071 18.2502 16.3859 18.1176C16.4604 17.9834 16.4802 17.8255 16.4413 17.677C16.4023 17.5284 16.3076 17.4007 16.1768 17.3202Z" fill="#211715"/>
<path d="M15.8308 23.9716C15.9398 26.4726 17.5256 28.7715 19.3739 30.352C20.5439 31.3495 21.8782 32.1361 23.3175 32.6767C23.7133 32.8305 24.1189 32.9576 24.5316 33.0572C24.7035 33.0973 24.5678 33.0754 24.5425 33.0679C24.584 33.08 24.6275 33.0883 24.6697 33.0982C24.7557 33.1185 24.842 33.1376 24.9286 33.1556C25.121 33.196 25.3145 33.2323 25.5089 33.2643C26.3377 33.4001 27.1747 33.48 28.0143 33.5035C29.823 33.586 31.6336 33.3854 33.3805 32.9091C33.513 32.8683 33.6267 32.7817 33.7014 32.6649C33.776 32.5481 33.8068 32.4085 33.7882 32.2711C33.7696 32.1337 33.7028 32.0074 33.5998 31.9146C33.4968 31.8218 33.3641 31.7686 33.2256 31.7645H33.2209L33.3759 32.9091C36.8321 31.9405 40.1781 29.7207 41.7408 26.391C42.0756 25.7041 42.3068 24.9714 42.4268 24.2168C42.4627 24.068 42.4407 23.9111 42.3651 23.7779C42.2895 23.6448 42.166 23.5454 42.0198 23.5C41.8708 23.46 41.712 23.4803 41.5779 23.5565C41.4437 23.6326 41.3449 23.7585 41.3028 23.907C40.89 26.7676 38.6248 29.1438 36.1323 30.5375C35.1632 31.0734 34.1339 31.4923 33.066 31.7854C32.9335 31.8262 32.8198 31.9127 32.7451 32.0296C32.6705 32.1464 32.6397 32.2859 32.6583 32.4233C32.6769 32.5607 32.7437 32.6871 32.8467 32.7799C32.9497 32.8726 33.0824 32.9258 33.2209 32.93H33.2256L33.0706 31.7854C31.6498 32.1755 30.1813 32.3645 28.708 32.3467C27.908 32.3523 27.1084 32.3074 26.3141 32.2125C25.9984 32.1739 25.6828 32.1212 25.37 32.0588C25.1966 32.0243 25.0252 31.9808 24.8523 31.9439C24.8142 31.9359 24.4976 31.8468 24.6705 31.8968C24.5469 31.8611 24.4235 31.8252 24.3011 31.7863C21.7938 30.9935 19.481 29.354 18.0829 27.1053C17.4656 26.1674 17.0921 25.0903 16.9963 23.9716C16.9635 23.2244 15.7978 23.2203 15.8308 23.9716Z" fill="#211715"/>
<path d="M19.3725 41.9342C20.4407 42.9498 21.3115 44.1545 21.9407 45.4873C21.9971 45.6061 22.0422 45.7059 22.0876 45.8231C22.1119 45.8851 22.134 45.9472 22.1551 46.0101C22.2239 46.215 22.1241 46.142 22.1925 45.8401C22.1683 45.9453 22.2722 45.7355 22.2202 45.7797C22.1868 45.8242 22.1589 45.8727 22.1372 45.9239C21.9502 46.2252 21.7305 46.5067 21.5158 46.7895C21.4357 46.8949 21.3247 47.0367 21.1851 47.2125C21.0203 47.4215 20.8534 47.6289 20.6844 47.8346C20.3838 48.2014 20.0778 48.5638 19.7663 48.9217C19.5383 49.1818 19.3096 49.4447 19.0593 49.6839C19.0185 49.7165 18.9799 49.7517 18.9437 49.7893C18.9111 49.8298 19.0857 49.7077 18.968 49.7665C19.0838 49.7092 19.3443 49.7016 19.1013 49.6851C19.2996 49.6987 19.0121 49.6664 18.9556 49.654C18.0073 49.42 17.1196 48.9872 16.3511 48.3844C15.7889 47.9679 15.2716 47.4939 14.8076 46.9702C14.3728 46.5162 14.0028 46.0041 13.7083 45.4487C13.4801 44.9818 13.2833 44.5001 13.1193 44.0069C13.0394 43.7709 12.9736 43.5332 12.9156 43.2913C12.9088 43.2634 12.8913 43.1 12.9051 43.2583C12.9011 43.2315 12.8987 43.2045 12.8981 43.1774C12.8996 43.0491 12.8946 42.9207 12.8833 42.7928C12.8027 41.3026 13.0291 39.8116 13.5483 38.4124C14.0821 36.8602 14.9092 35.425 15.9845 34.1848C16.6117 33.4962 17.3105 32.8763 18.0691 32.3358C18.8248 31.7622 19.6649 31.3092 20.5594 30.993C21.2684 30.7589 20.9646 29.6332 20.2495 29.8692C18.5066 30.4452 16.9079 31.5932 15.6149 32.8801C13.2874 35.2989 11.9015 38.4702 11.7076 41.8213C11.6621 42.4422 11.6958 43.0664 11.8081 43.6788C11.9653 44.2893 12.1765 44.8845 12.4394 45.4575C13.0291 46.7552 13.9098 47.8998 15.0132 48.8022C15.9648 49.6486 17.0807 50.2895 18.2912 50.685C18.6555 50.795 19.1896 50.9735 19.5466 50.7771C19.7865 50.619 20.0007 50.4249 20.1815 50.2016C20.8641 49.4671 21.5005 48.6857 22.1204 47.898C22.4118 47.5279 22.7032 47.1557 22.9725 46.7696C23.1517 46.5137 23.3658 46.2311 23.3289 45.9023C23.2641 45.5878 23.1522 45.2849 22.997 45.0039C22.8433 44.6721 22.6722 44.3487 22.4846 44.0348C22.0482 43.2988 21.55 42.6012 20.9955 41.9495C20.7458 41.6539 20.4793 41.373 20.1973 41.1082C19.65 40.5963 18.824 41.4187 19.3732 41.9323L19.3725 41.9342Z" fill="#211715"/>
<path d="M37.5598 30.7763C39.0983 31.0893 40.4092 31.9212 41.6126 32.9C42.8064 33.8728 43.7955 35.0726 44.5227 36.43C45.172 37.5999 45.6377 38.8625 45.9036 40.1738C46.1673 41.5894 46.253 43.2204 45.6967 44.5753C45.1924 45.8037 44.2212 46.8211 43.2543 47.7032C42.7601 48.1574 42.2305 48.5714 41.6706 48.9416C41.4499 49.0872 41.2241 49.2239 40.9922 49.3502C40.8988 49.4012 40.8042 49.4498 40.7084 49.4959C40.6549 49.5221 40.601 49.5471 40.5469 49.5719C40.4821 49.6001 40.4771 49.6027 40.5318 49.5797C40.4991 49.5933 40.4663 49.6064 40.4333 49.619C40.279 49.6764 40.1207 49.7225 39.9598 49.7569C40.1278 49.7215 40.0163 49.7569 39.9743 49.7528C40.0596 49.7683 40.1436 49.7897 40.2259 49.8169C40.1096 49.7557 40.3315 49.925 40.2426 49.831C40.0336 49.61 39.8131 49.4012 39.6094 49.1737C39.0057 48.4989 38.4293 47.7981 37.8701 47.0855C37.729 46.906 37.6652 46.8245 37.4986 46.5999C37.3869 46.4503 37.2762 46.2995 37.171 46.1448C37.1189 46.0359 37.055 45.933 36.9807 45.8379C36.9214 45.7876 37.0331 45.988 37.0144 45.9197C36.978 45.7884 36.9343 46.3454 37.0258 46.1271C37.0771 46.0057 37.1101 45.8714 37.1565 45.7468C37.6669 44.3088 38.4942 43.0039 39.5771 41.9288C40.1254 41.4145 39.2998 40.5914 38.753 41.1047C37.6382 42.151 36.8224 43.5482 36.2304 44.9463C36.0361 45.4052 35.7268 45.9389 35.9742 46.4262C36.1168 46.6803 36.2803 46.9221 36.463 47.1491C37.07 47.9647 37.7123 48.7553 38.3744 49.5263C38.6427 49.8388 38.9132 50.1508 39.2017 50.4448C39.4122 50.6595 39.6516 50.9125 39.9743 50.9164C40.4357 50.922 40.924 50.6845 41.3244 50.4868C41.875 50.2072 42.3987 49.8776 42.8891 49.5022C44.1885 48.5677 45.3143 47.413 46.2156 46.0904C47.978 43.3605 47.284 39.7403 46.0651 36.9412C45.4252 35.443 44.5119 34.077 43.372 32.9131C42.1571 31.6564 40.6955 30.6644 39.0791 29.9993C38.6865 29.8493 38.2821 29.7323 37.8701 29.6497C37.7212 29.6125 37.5637 29.6339 37.4303 29.7097C37.2968 29.7855 37.1976 29.9097 37.1533 30.0566C37.1137 30.2056 37.1341 30.3642 37.2102 30.4983C37.2863 30.6323 37.412 30.7311 37.5603 30.7734L37.5598 30.7763Z" fill="#211715"/>
<path d="M23.1512 47.3271C23.5523 47.2574 24.0455 47.1595 24.3835 47.4528C24.4995 47.5534 24.6044 47.8982 24.4077 47.9088C24.2692 47.9132 24.1367 47.9664 24.0338 48.0593C23.9309 48.1521 23.8642 48.2784 23.8456 48.4157C23.827 48.553 23.8577 48.6925 23.9323 48.8093C24.0069 48.9261 24.1204 49.0127 24.2528 49.0537C24.7428 49.1982 24.9601 49.7906 24.8892 50.2629C24.7875 50.9387 24.2052 51.495 23.6589 51.8512C23.5232 51.9627 23.3668 52.0464 23.1986 52.0974C23.0305 52.1484 22.854 52.1657 22.6791 52.1484C22.3048 52.05 21.9532 51.8796 21.644 51.6467C21.0243 51.2171 20.5252 50.6355 20.1947 49.9577C19.8574 49.2875 18.8517 49.8771 19.1884 50.546C19.6625 51.4831 20.393 52.2662 21.2949 52.8042C21.7839 53.1354 22.3586 53.3177 22.9491 53.3289C23.511 53.2711 24.0436 53.05 24.4813 52.693C25.3134 52.0797 26.0492 51.1897 26.0649 50.1061C26.0831 49.6296 25.9466 49.1601 25.6758 48.7677C25.4051 48.3753 25.0145 48.081 24.5627 47.929L24.4077 49.0736C24.6397 49.0552 24.8632 48.9786 25.0578 48.8511C25.2524 48.7236 25.4118 48.5491 25.5212 48.3439C25.6307 48.1386 25.6868 47.909 25.6843 47.6764C25.6818 47.4438 25.6208 47.2155 25.507 47.0126C24.9728 46.0205 23.7988 46.0365 22.8416 46.2023C22.6932 46.2445 22.5674 46.3434 22.4912 46.4775C22.4151 46.6116 22.3948 46.7704 22.4346 46.9194C22.4787 47.0665 22.5778 47.1909 22.7113 47.2667C22.8449 47.3425 23.0025 47.3639 23.1514 47.3263L23.1512 47.3271Z" fill="#211715"/>
<path d="M36.3826 46.0862C35.4218 45.84 34.2354 45.7839 33.6585 46.7717C33.543 46.9694 33.4784 47.1928 33.4706 47.4217C33.4628 47.6505 33.512 47.8778 33.6138 48.0829C33.7156 48.288 33.8668 48.4646 34.0538 48.5968C34.2408 48.729 34.4578 48.8127 34.6851 48.8402L34.5302 47.6954C33.5453 47.904 32.9247 48.8869 32.9009 49.8528C32.8752 50.8867 33.5412 51.8312 34.3075 52.4633C34.7225 52.8501 35.2428 53.1052 35.8028 53.1961C36.3923 53.2184 36.9762 53.0743 37.4877 52.7802C38.4255 52.3078 39.2098 51.5787 39.7492 50.6779C40.1394 50.0349 39.1318 49.4485 38.743 50.0898C38.3708 50.7081 37.8515 51.2249 37.2313 51.594C36.9107 51.801 36.5555 51.9483 36.1825 52.0289C36.0017 52.0449 35.8195 52.0225 35.6479 51.9631C35.4763 51.9038 35.3192 51.8087 35.187 51.6843C34.6715 51.2888 34.1373 50.699 34.0701 50.0228C34.0174 49.4975 34.3041 48.933 34.8407 48.8194C34.9761 48.7816 35.0931 48.696 35.1699 48.5783C35.2467 48.4607 35.278 48.3191 35.2581 48.18C35.2371 48.0421 35.1682 47.9159 35.0636 47.8236C34.959 47.7312 34.8253 47.6785 34.6858 47.6747C34.7344 47.681 34.6392 47.5638 34.6305 47.497C34.6336 47.4413 34.6499 47.387 34.678 47.3388C34.7061 47.2906 34.7452 47.2497 34.7922 47.2195C35.1564 46.9414 35.6789 47.109 36.0735 47.21C36.8005 47.3962 37.1106 46.2725 36.3833 46.0862H36.3826Z" fill="#211715"/>
<path d="M47.9566 52.9733C48.1846 52.2679 48.4967 51.5623 49.0884 51.0849C49.621 50.6699 50.2855 50.4612 50.9598 50.4971C51.6099 50.5321 52.2247 50.8034 52.6889 51.26C53.1893 51.7895 53.4711 52.4885 53.4778 53.2171C53.4984 53.9825 53.3234 54.7405 52.9693 55.4194C52.833 55.6978 52.6789 55.9672 52.508 56.2258C52.4082 56.3831 52.2951 56.5316 52.17 56.6696C51.4397 57.5394 50.4665 58.1714 49.3749 58.4847C48.6754 58.677 47.8481 58.8261 47.1971 58.4254C46.8803 58.2364 46.6371 57.9453 46.5075 57.5999C46.3778 57.2545 46.3695 56.8752 46.4837 56.5244C46.7081 55.8069 45.5834 55.5 45.36 56.2146C45.2158 56.6831 45.1982 57.1814 45.3091 57.6589C45.42 58.1364 45.6554 58.5759 45.9913 58.9329C46.3165 59.2694 46.7164 59.5244 47.1586 59.6773C47.6009 59.8302 48.0729 59.8767 48.5365 59.8129C50.103 59.657 51.566 58.9592 52.6731 57.84C53.7806 56.7284 54.5816 55.1591 54.6433 53.5793C54.7023 52.5742 54.4064 51.5803 53.8073 50.7712C53.2498 50.0688 52.4621 49.5859 51.5833 49.4075C51.0644 49.3036 50.53 49.3049 50.0116 49.4113C49.4932 49.5177 49.0014 49.7271 48.5654 50.027C47.6616 50.6741 47.1665 51.6274 46.8314 52.6634C46.6003 53.3788 47.7252 53.6852 47.9554 52.9733H47.9566Z" fill="#211715"/>
<path d="M13.1603 52.6637C12.8716 51.7703 12.4629 50.878 11.7289 50.2598C11.0014 49.6483 10.0789 49.3176 9.12861 49.3279C8.21515 49.3473 7.33717 49.6852 6.64632 50.2831C5.91658 50.946 5.46537 51.8609 5.38368 52.8433C5.17583 54.5275 5.92467 56.2585 7.01758 57.5158C7.98502 58.6371 9.29496 59.4084 10.7448 59.7104C11.8336 59.9226 12.8772 59.8867 13.7649 59.1519C14.1823 58.8017 14.4872 58.3362 14.6415 57.8136C14.7957 57.291 14.7924 56.7346 14.632 56.2139C14.4089 55.5005 13.2834 55.805 13.508 56.5237C13.6132 56.8441 13.616 57.1893 13.5159 57.5113C13.4158 57.8334 13.2178 58.1162 12.9495 58.3205C12.3954 58.753 11.7095 58.7129 11.0556 58.5857C9.91682 58.3585 8.87593 57.7853 8.07504 56.9445C7.78385 56.6574 7.53322 56.332 7.33008 55.9771C6.91495 55.3276 6.64303 54.5971 6.53244 53.8343C6.42383 53.0498 6.59759 52.2523 7.02268 51.5841C7.4124 51.053 7.98429 50.6843 8.6289 50.5485C9.00286 50.4716 9.38863 50.4724 9.76227 50.5508C10.1359 50.6293 10.4894 50.7837 10.8009 51.0045C11.4582 51.4707 11.7964 52.2288 12.0373 52.9713C12.2672 53.682 13.3929 53.378 13.161 52.6615L13.1603 52.6637Z" fill="#211715"/>
<path d="M16.0627 15.4878C15.4581 14.0244 15.4017 12.3004 15.6815 10.7561C15.944 9.33876 16.476 7.98496 17.2486 6.76809C18.6312 4.58519 20.8005 3.04113 23.2141 2.1801C25.9964 1.18131 28.9908 0.923666 31.9029 1.43248C33.5831 1.71164 35.2063 2.2632 36.7087 3.06541C38.0686 3.83044 39.2893 4.81985 40.3194 5.99181C42.318 8.24999 43.0508 11.3709 42.7677 14.331C42.7337 14.6851 42.6876 15.0379 42.6375 15.39C42.6015 15.5388 42.6236 15.6957 42.6992 15.8289C42.7748 15.962 42.8982 16.0614 43.0445 16.1067C43.1935 16.1467 43.3522 16.1264 43.4864 16.0502C43.6206 15.9741 43.7194 15.8482 43.7615 15.6998C43.8878 14.9104 43.9651 14.1139 43.9929 13.3149C43.9992 12.4152 43.9173 11.5171 43.7484 10.6335C43.4859 9.04216 42.876 7.52826 41.962 6.19942C39.9629 3.37961 36.8855 1.45676 33.5674 0.602781C31.8344 0.135862 30.0395 -0.0593355 28.2466 0.0241532C26.7447 0.104504 25.2565 0.352418 23.8097 0.763281C21.0749 1.56044 18.5666 3.06638 16.8237 5.34762C14.8433 7.94113 13.9062 11.434 14.5878 14.6508C14.6695 15.043 14.787 15.4269 14.9387 15.7976C14.984 15.9439 15.0833 16.0675 15.2165 16.1431C15.3496 16.2188 15.5066 16.2408 15.6555 16.2048C15.804 16.1629 15.9301 16.0642 16.0063 15.9299C16.0825 15.7957 16.1028 15.6369 16.0627 15.4878Z" fill="#211715"/>
<path d="M27.6617 10.2321C27.6131 10.4145 27.5568 10.5922 27.4956 10.7707C27.4796 10.8112 27.4861 10.7964 27.5153 10.7267C27.5073 10.7457 27.4988 10.7644 27.491 10.7831C27.4767 10.8141 27.4621 10.8452 27.4468 10.8758C27.4101 10.9487 27.3703 11.0215 27.3276 11.0914C27.2848 11.1614 27.2397 11.2303 27.1916 11.2969C27.1804 11.3124 27.1047 11.4022 27.1627 11.3364C27.2207 11.2706 27.1287 11.3755 27.1173 11.3889C27.0144 11.5086 26.903 11.6208 26.7839 11.7245C26.7528 11.7514 26.7208 11.7774 26.6892 11.8039C26.6062 11.8735 26.7521 11.7604 26.6931 11.8007C26.6341 11.841 26.57 11.8881 26.5061 11.9287C26.4367 11.9729 26.3655 12.0146 26.2929 12.0532C26.2244 12.0996 26.1497 12.1359 26.071 12.1613C26.1315 12.1513 26.1545 12.1273 26.0771 12.1572C26.0389 12.172 26.0003 12.1861 25.9613 12.1994C25.8901 12.2237 25.818 12.2455 25.7452 12.2645C25.6655 12.285 25.5852 12.3024 25.5043 12.3167L25.4637 12.3235C25.399 12.3332 25.4098 12.3319 25.4963 12.3196C25.4563 12.3307 25.4147 12.3346 25.3734 12.3313C25.2188 12.3313 25.0706 12.3927 24.9613 12.5019C24.852 12.6112 24.7906 12.7595 24.7906 12.914C24.7906 13.0686 24.852 13.2168 24.9613 13.3261C25.0706 13.4354 25.2188 13.4968 25.3734 13.4968C26.1871 13.4315 26.9589 13.1088 27.5769 12.5755C28.1802 12.0387 28.6026 11.3283 28.7862 10.542C28.8065 10.4682 28.8121 10.3911 28.8027 10.3151C28.7932 10.2392 28.7689 10.1658 28.7311 10.0993C28.6933 10.0327 28.6428 9.97425 28.5824 9.92722C28.5221 9.88019 28.453 9.84551 28.3792 9.82516C28.3054 9.80482 28.2284 9.79921 28.1524 9.80865C28.0764 9.81809 28.0031 9.8424 27.9365 9.88019C27.87 9.91798 27.8115 9.96851 27.7645 10.0289C27.7174 10.0893 27.6828 10.1583 27.6624 10.2321H27.6617Z" fill="#211715"/>
<path d="M31.5441 10.727C31.5441 10.7928 31.5441 10.8584 31.5404 10.924C31.5382 10.9633 31.5343 11.0024 31.5312 11.0417C31.5222 11.152 31.5477 10.9492 31.5348 11.0233C31.5124 11.159 31.4817 11.2932 31.4428 11.4251C31.4236 11.4878 31.402 11.5497 31.3787 11.6109C31.3704 11.6327 31.3165 11.726 31.3634 11.6507C31.4103 11.5754 31.3534 11.6692 31.3442 11.6888C31.2847 11.8133 31.2167 11.9335 31.1407 12.0487C31.1228 12.0761 31.1041 12.1033 31.0851 12.13C31.0742 12.1458 31.0094 12.2415 31.0609 12.1662C31.1123 12.0909 31.0456 12.1844 31.0329 12.1997C31.0118 12.224 30.9904 12.25 30.9686 12.2745C30.8771 12.3775 30.7785 12.474 30.6736 12.5632C30.6585 12.5758 30.5747 12.6538 30.6408 12.5919C30.7068 12.5299 30.6226 12.6052 30.6056 12.6161C30.5524 12.6543 30.4978 12.6907 30.4419 12.7247C30.3804 12.7624 30.3175 12.7976 30.2533 12.8303C30.2241 12.8451 30.1945 12.859 30.1649 12.8733C30.0595 12.9245 30.2771 12.8291 30.159 12.8764C30.0121 12.9208 29.8879 13.0199 29.8121 13.1534C29.7363 13.2868 29.7149 13.4443 29.7521 13.5932C29.7945 13.7414 29.8934 13.867 30.0274 13.943C30.1614 14.0191 30.3199 14.0396 30.4689 14.0002C31.1436 13.7351 31.7215 13.2707 32.1256 12.6688C32.5117 12.095 32.7154 11.4179 32.7101 10.7263C32.7101 10.5718 32.6487 10.4235 32.5394 10.3142C32.4301 10.205 32.2819 10.1436 32.1273 10.1436C31.9727 10.1436 31.8245 10.205 31.7152 10.3142C31.6059 10.4235 31.5445 10.5718 31.5445 10.7263L31.5441 10.727Z" fill="#211715"/>
</g>
<defs>
<clipPath id="clip0_26_347">
<rect width="60" height="60" fill="white"/>
</clipPath>
</defs>
</svg>
