<svg width="60" height="60" viewBox="0 0 60 60" fill="none" xmlns="http://www.w3.org/2000/svg">
<path d="M58.4341 21.4639C58.4341 19.8052 57.4241 17.8756 56.1802 17.1574L27.653 0.687092C26.4089 -0.0311085 25.399 0.732445 25.399 2.39099V26.4328C25.399 28.0915 26.4089 30.0213 27.653 30.7395L56.1802 47.2097C57.4241 47.9279 58.4341 47.1643 58.4341 45.5058V21.4639Z" fill="#5D7BC1"/>
<path d="M26.8952 0.249657C26.3725 -0.0521418 25.5806 -0.084904 25.1278 0.176423L24.3076 0.649999C24.0522 0.797493 24.0843 1.05535 24.3792 1.22559L56.6661 19.8666C57.8269 19.1963 57.6811 18.0239 56.3407 17.2501L26.8952 0.249657Z" fill="#5D7BC1"/>
<path d="M58.1771 20.8827C58.1771 19.4489 57.3041 18.7889 56.2287 19.4098C56.131 19.4662 56.0517 19.6178 56.0517 19.7482V47.5255C56.0517 47.9166 56.2898 48.0966 56.583 47.9273L57.6032 47.3382C57.92 47.1554 58.1771 46.664 58.1771 46.2417V20.8827Z" fill="#5D7BC1"/>
<path d="M57.3487 21.1079C57.3487 19.996 56.6716 18.7026 55.8378 18.2212L25.6629 0.799664C24.4717 0.111913 23.5046 0.84309 23.5046 2.43135V25.4531C23.5046 27.0413 24.4717 28.8891 25.6629 29.5769L55.1904 46.6246C56.3815 47.3123 57.3487 46.5812 57.3487 44.9929V21.1079Z" fill="#4762AF"/>
<path d="M56.4371 20.5284C56.4371 20.0902 56.1703 19.5804 55.8415 19.3906L24.9305 1.54403C24.6018 1.35426 24.335 1.55598 24.335 1.99422V26.8735C24.335 27.3118 24.6018 27.8217 24.9305 28.0114L55.8415 45.8579C56.1703 46.0477 56.4371 45.8459 56.4371 45.4077V20.5284Z" fill="white"/>
<path d="M24.0476 27.4074C23.2885 26.9693 22.1385 26.9216 21.4812 27.301L3.1392 37.8908C0.772731 39.2571 1.07003 41.6472 3.80253 43.2249L31.5315 59.2341C33.0496 60.1106 35.3494 60.2059 36.6641 59.4468L56.9117 47.7569C57.5692 47.3774 57.4865 46.7135 56.7275 46.2753L24.0476 27.4074Z" fill="#5D7BC1"/>
<path d="M25.2613 26.6783C24.5159 26.2479 23.3865 26.201 22.7409 26.5737L3.79174 37.5142C1.98417 38.5578 2.21119 40.3835 4.29847 41.5885L32.0818 57.6292C33.5727 58.49 35.8313 58.5836 37.1224 57.8382L57.0074 46.3575C57.6531 45.9848 57.572 45.3328 56.8265 44.9024L25.2613 26.6783ZM43.8718 12.4798L37.4954 8.79834V9.30648C37.4954 9.72712 37.7514 10.2165 38.067 10.3987L43.3002 13.4201C43.6158 13.6022 43.8718 13.4086 43.8718 12.9879V12.4798Z" fill="#4762AF"/>
<path d="M20.9808 50.4304L14.6042 46.7488V47.7461C14.6042 48.5717 15.1069 49.5321 15.7261 49.8896L19.8589 52.2756C20.478 52.6332 20.9808 52.2531 20.9808 51.4275V50.4304ZM24.169 29.9321L22.0435 31.1594L24.169 32.3865L26.2945 31.1594L24.169 29.9321Z" fill="#4762AF"/>
<path d="M24.169 30.0806L22.3005 31.1594L24.169 32.2381L26.0376 31.1594L24.169 30.0806Z" fill="#5D7BC1"/>
<path d="M22.0435 31.1592L19.918 32.3863L22.0435 33.6135L24.169 32.3863L22.0435 31.1592Z" fill="#4762AF"/>
<path d="M22.0435 31.3076L20.1749 32.3865L22.0435 33.4653L23.912 32.3865L22.0435 31.3076Z" fill="#5D7BC1"/>
<path d="M22.0435 33.6133L19.918 34.8404L22.0435 36.0675L24.169 34.8404L22.0435 33.6133Z" fill="#4762AF"/>
<path d="M22.0435 33.7617L20.1749 34.8406L22.0435 35.9194L23.912 34.8406L22.0435 33.7617Z" fill="#5D7BC1"/>
<path d="M22.0435 36.0679L19.918 37.2951L22.0435 38.5222L24.169 37.2951L22.0435 36.0679Z" fill="#4762AF"/>
<path d="M22.0435 36.2163L20.1749 37.2952L22.0435 38.374L23.912 37.2952L22.0435 36.2163Z" fill="#5D7BC1"/>
<path d="M22.0435 38.522L19.918 39.7492L22.0435 40.9763L24.169 39.7492L22.0435 38.522Z" fill="#4762AF"/>
<path d="M22.0435 38.6704L20.1749 39.7493L22.0435 40.828L23.912 39.7493L22.0435 38.6704Z" fill="#5D7BC1"/>
<path d="M26.2945 31.1592L24.169 32.3863L26.2945 33.6135L28.42 32.3863L26.2945 31.1592Z" fill="#4762AF"/>
<path d="M26.2945 31.3076L24.4259 32.3865L26.2945 33.4653L28.163 32.3865L26.2945 31.3076Z" fill="#5D7BC1"/>
<path d="M24.169 32.3862L22.0435 33.6135L24.169 34.8406L26.2945 33.6135L24.169 32.3862Z" fill="#4762AF"/>
<path d="M24.169 32.5347L22.3005 33.6135L24.169 34.6922L26.0376 33.6135L24.169 32.5347Z" fill="#5D7BC1"/>
<path d="M24.169 34.8408L22.0435 36.0679L24.169 37.2952L26.2945 36.0679L24.169 34.8408Z" fill="#4762AF"/>
<path d="M24.169 34.9893L22.3005 36.068L24.169 37.1468L26.0376 36.068L24.169 34.9893Z" fill="#5D7BC1"/>
<path d="M24.169 37.2949L22.0435 38.522L24.169 39.7493L26.2945 38.522L24.169 37.2949Z" fill="#4762AF"/>
<path d="M24.169 37.4434L22.3005 38.5222L24.169 39.601L26.0376 38.5222L24.169 37.4434Z" fill="#5D7BC1"/>
<path d="M24.169 39.7495L22.0435 40.9766L24.169 42.2037L26.2945 40.9766L24.169 39.7495Z" fill="#4762AF"/>
<path d="M24.169 39.8975L22.3005 40.9763L24.169 42.0551L26.0376 40.9763L24.169 39.8975Z" fill="#5D7BC1"/>
<path d="M28.42 32.3862L26.2946 33.6135L28.42 34.8406L30.5456 33.6135L28.42 32.3862Z" fill="#4762AF"/>
<path d="M28.42 32.5347L26.5515 33.6135L28.42 34.6922L30.2886 33.6135L28.42 32.5347Z" fill="#5D7BC1"/>
<path d="M26.2945 33.6133L24.169 34.8404L26.2945 36.0675L28.42 34.8404L26.2945 33.6133Z" fill="#4762AF"/>
<path d="M26.2945 33.7617L24.4259 34.8406L26.2945 35.9194L28.163 34.8406L26.2945 33.7617Z" fill="#5D7BC1"/>
<path d="M26.2945 36.0679L24.169 37.2951L26.2945 38.5222L28.42 37.2951L26.2945 36.0679Z" fill="#4762AF"/>
<path d="M26.2945 36.2163L24.4259 37.2952L26.2945 38.374L28.163 37.2952L26.2945 36.2163Z" fill="#5D7BC1"/>
<path d="M26.2945 38.522L24.169 39.7492L26.2945 40.9763L28.42 39.7492L26.2945 38.522Z" fill="#4762AF"/>
<path d="M26.2945 38.6704L24.4259 39.7493L26.2945 40.828L28.163 39.7493L26.2945 38.6704Z" fill="#5D7BC1"/>
<path d="M26.2945 40.9766L24.169 42.2037L26.2945 43.4309L28.42 42.2037L26.2945 40.9766Z" fill="#4762AF"/>
<path d="M26.2945 41.125L24.4259 42.2037L26.2945 43.2826L28.163 42.2037L26.2945 41.125Z" fill="#5D7BC1"/>
<path d="M30.5455 33.6133L28.42 34.8404L30.5455 36.0675L32.671 34.8404L30.5455 33.6133Z" fill="#4762AF"/>
<path d="M30.5455 33.7617L28.6769 34.8406L30.5455 35.9194L32.414 34.8406L30.5455 33.7617Z" fill="#5D7BC1"/>
<path d="M28.42 34.8408L26.2946 36.0679L28.42 37.2952L30.5456 36.0679L28.42 34.8408Z" fill="#4762AF"/>
<path d="M28.42 34.9893L26.5515 36.068L28.42 37.1468L30.2886 36.068L28.42 34.9893Z" fill="#5D7BC1"/>
<path d="M28.42 37.2949L26.2946 38.522L28.42 39.7493L30.5456 38.522L28.42 37.2949Z" fill="#4762AF"/>
<path d="M28.42 37.4434L26.5515 38.5222L28.42 39.601L30.2886 38.5222L28.42 37.4434Z" fill="#5D7BC1"/>
<path d="M28.42 39.7495L26.2946 40.9766L28.42 42.2037L30.5456 40.9766L28.42 39.7495Z" fill="#4762AF"/>
<path d="M28.42 39.8975L26.5515 40.9763L28.42 42.0551L30.2886 40.9763L28.42 39.8975Z" fill="#5D7BC1"/>
<path d="M28.42 42.2036L26.2946 43.4308L28.42 44.658L30.5456 43.4308L28.42 42.2036Z" fill="#4762AF"/>
<path d="M28.42 42.3521L26.5515 43.4309L28.42 44.5097L30.2886 43.4309L28.42 42.3521Z" fill="#5D7BC1"/>
<path d="M32.671 34.8408L30.5456 36.0679L32.671 37.2952L34.7966 36.0679L32.671 34.8408Z" fill="#4762AF"/>
<path d="M32.671 34.9893L30.8025 36.068L32.671 37.1468L34.5396 36.068L32.671 34.9893Z" fill="#5D7BC1"/>
<path d="M30.5455 36.0679L28.42 37.2951L30.5455 38.5222L32.671 37.2951L30.5455 36.0679Z" fill="#4762AF"/>
<path d="M30.5455 36.2163L28.6769 37.2952L30.5455 38.374L32.414 37.2952L30.5455 36.2163Z" fill="#5D7BC1"/>
<path d="M30.5455 38.522L28.42 39.7492L30.5455 40.9763L32.671 39.7492L30.5455 38.522Z" fill="#4762AF"/>
<path d="M30.5455 38.6704L28.6769 39.7493L30.5455 40.828L32.414 39.7493L30.5455 38.6704Z" fill="#5D7BC1"/>
<path d="M30.5455 40.9766L28.42 42.2037L30.5455 43.4309L32.671 42.2037L30.5455 40.9766Z" fill="#4762AF"/>
<path d="M30.5455 41.125L28.6769 42.2037L30.5455 43.2826L32.414 42.2037L30.5455 41.125Z" fill="#5D7BC1"/>
<path d="M30.5455 43.4307L28.42 44.6578L30.5455 45.885L32.671 44.6578L30.5455 43.4307Z" fill="#4762AF"/>
<path d="M30.5455 43.5791L28.6769 44.6578L30.5455 45.7367L32.414 44.6578L30.5455 43.5791Z" fill="#5D7BC1"/>
<path d="M34.7966 36.0679L32.671 37.2951L34.7966 38.5222L36.9221 37.2951L34.7966 36.0679Z" fill="#4762AF"/>
<path d="M34.7966 36.2163L32.9279 37.2952L34.7966 38.374L36.6652 37.2952L34.7966 36.2163Z" fill="#5D7BC1"/>
<path d="M32.671 37.2949L30.5456 38.522L32.671 39.7493L34.7966 38.522L32.671 37.2949Z" fill="#4762AF"/>
<path d="M32.671 37.4434L30.8025 38.5222L32.671 39.601L34.5396 38.5222L32.671 37.4434Z" fill="#5D7BC1"/>
<path d="M32.671 39.7495L30.5456 40.9766L32.671 42.2037L34.7966 40.9766L32.671 39.7495Z" fill="#4762AF"/>
<path d="M32.671 39.8975L30.8025 40.9763L32.671 42.0551L34.5396 40.9763L32.671 39.8975Z" fill="#5D7BC1"/>
<path d="M32.671 42.2036L30.5456 43.4308L32.671 44.658L34.7966 43.4308L32.671 42.2036Z" fill="#4762AF"/>
<path d="M32.671 42.3521L30.8025 43.4309L32.671 44.5097L34.5396 43.4309L32.671 42.3521Z" fill="#5D7BC1"/>
<path d="M32.671 44.6577L30.5456 45.885L32.671 47.1121L34.7966 45.885L32.671 44.6577Z" fill="#4762AF"/>
<path d="M32.671 44.8062L30.8025 45.885L32.671 46.9638L34.5396 45.885L32.671 44.8062Z" fill="#5D7BC1"/>
<path d="M36.9221 37.2949L34.7965 38.522L36.9221 39.7493L39.0475 38.522L36.9221 37.2949Z" fill="#4762AF"/>
<path d="M36.9221 37.4434L35.0535 38.5222L36.9221 39.601L38.7906 38.5222L36.9221 37.4434Z" fill="#5D7BC1"/>
<path d="M34.7966 38.522L32.671 39.7492L34.7966 40.9763L36.9221 39.7492L34.7966 38.522Z" fill="#4762AF"/>
<path d="M34.7966 38.6704L32.9279 39.7493L34.7966 40.828L36.6652 39.7493L34.7966 38.6704Z" fill="#5D7BC1"/>
<path d="M34.7966 40.9766L32.671 42.2037L34.7966 43.4309L36.9221 42.2037L34.7966 40.9766Z" fill="#4762AF"/>
<path d="M34.7966 41.125L32.9279 42.2037L34.7966 43.2826L36.6652 42.2037L34.7966 41.125Z" fill="#5D7BC1"/>
<path d="M34.7966 43.4307L32.671 44.6578L34.7966 45.885L36.9221 44.6578L34.7966 43.4307Z" fill="#4762AF"/>
<path d="M34.7966 43.5791L32.9279 44.6578L34.7966 45.7367L36.6652 44.6578L34.7966 43.5791Z" fill="#5D7BC1"/>
<path d="M39.0476 38.522L36.9221 39.7492L39.0476 40.9763L41.1731 39.7492L39.0476 38.522Z" fill="#4762AF"/>
<path d="M39.0476 38.6704L37.1791 39.7493L39.0476 40.828L40.9162 39.7493L39.0476 38.6704Z" fill="#5D7BC1"/>
<path d="M36.9221 39.7495L34.7965 40.9766L36.9221 42.2037L39.0475 40.9766L36.9221 39.7495Z" fill="#4762AF"/>
<path d="M36.9221 39.8975L35.0535 40.9763L36.9221 42.0551L38.7906 40.9763L36.9221 39.8975Z" fill="#5D7BC1"/>
<path d="M36.9221 42.2036L34.7965 43.4308L36.9221 44.658L39.0475 43.4308L36.9221 42.2036Z" fill="#4762AF"/>
<path d="M36.9221 42.3521L35.0535 43.4309L36.9221 44.5097L38.7906 43.4309L36.9221 42.3521Z" fill="#5D7BC1"/>
<path d="M36.9221 44.6577L34.7965 45.885L36.9221 47.1121L39.0475 45.885L36.9221 44.6577Z" fill="#4762AF"/>
<path d="M36.9221 44.8062L35.0535 45.885L36.9221 46.9638L38.7906 45.885L36.9221 44.8062Z" fill="#5D7BC1"/>
<path d="M41.1731 39.7495L39.0475 40.9766L41.1731 42.2037L43.2986 40.9766L41.1731 39.7495Z" fill="#4762AF"/>
<path d="M41.1731 39.8975L39.3045 40.9763L41.1731 42.0551L43.0416 40.9763L41.1731 39.8975Z" fill="#5D7BC1"/>
<path d="M39.0476 40.9766L36.9221 42.2037L39.0476 43.4309L41.1731 42.2037L39.0476 40.9766Z" fill="#4762AF"/>
<path d="M39.0476 41.125L37.1791 42.2037L39.0476 43.2826L40.9162 42.2037L39.0476 41.125Z" fill="#5D7BC1"/>
<path d="M39.0476 43.4307L36.9221 44.6578L39.0476 45.885L41.1731 44.6578L39.0476 43.4307Z" fill="#4762AF"/>
<path d="M39.0476 43.5791L37.1791 44.6578L39.0476 45.7367L40.9162 44.6578L39.0476 43.5791Z" fill="#5D7BC1"/>
<path d="M43.2985 40.9766L41.1731 42.2037L43.2985 43.4309L45.4241 42.2037L43.2985 40.9766Z" fill="#4762AF"/>
<path d="M43.2985 41.125L41.4301 42.2037L43.2985 43.2826L45.1671 42.2037L43.2985 41.125Z" fill="#5D7BC1"/>
<path d="M41.1731 42.2036L39.0475 43.4308L41.1731 44.658L43.2986 43.4308L41.1731 42.2036Z" fill="#4762AF"/>
<path d="M41.1731 42.3521L39.3045 43.4309L41.1731 44.5097L43.0416 43.4309L41.1731 42.3521Z" fill="#5D7BC1"/>
<path d="M41.1731 44.6577L39.0475 45.885L41.1731 47.1121L43.2986 45.885L41.1731 44.6577Z" fill="#4762AF"/>
<path d="M41.1731 44.8062L39.3045 45.885L41.1731 46.9638L43.0416 45.885L41.1731 44.8062Z" fill="#5D7BC1"/>
<path d="M45.4241 42.2036L43.2986 43.4308L45.4241 44.658L47.5496 43.4308L45.4241 42.2036Z" fill="#4762AF"/>
<path d="M45.4241 42.3521L43.5555 43.4309L45.4241 44.5097L47.2926 43.4309L45.4241 42.3521Z" fill="#5D7BC1"/>
<path d="M43.2985 43.4307L41.1731 44.6578L43.2985 45.885L45.4241 44.6578L43.2985 43.4307Z" fill="#4762AF"/>
<path d="M43.2985 43.5791L41.4301 44.6578L43.2985 45.7367L45.1671 44.6578L43.2985 43.5791Z" fill="#5D7BC1"/>
<path d="M47.5496 43.4307L45.4241 44.6578L47.5496 45.885L49.6751 44.6578L47.5496 43.4307Z" fill="#4762AF"/>
<path d="M47.5496 43.5791L45.6811 44.6578L47.5496 45.7367L49.4182 44.6578L47.5496 43.5791Z" fill="#5D7BC1"/>
<path d="M49.6751 44.6577L47.5496 45.885L49.6751 47.1121L51.8006 45.885L49.6751 44.6577Z" fill="#4762AF"/>
<path d="M49.6751 44.8062L47.8065 45.885L49.6751 46.9638L51.5436 45.885L49.6751 44.8062Z" fill="#5D7BC1"/>
<path d="M45.4241 44.6577L43.2986 45.885L45.4241 47.1121L47.5496 45.885L45.4241 44.6577Z" fill="#4762AF"/>
<path d="M45.4241 44.8062L43.5555 45.885L45.4241 46.9638L47.2926 45.885L45.4241 44.8062Z" fill="#5D7BC1"/>
<path d="M19.6959 42.0752C19.2266 41.8044 18.5158 41.7748 18.1094 42.0094L11.4832 45.8351L24.2362 53.198L30.8625 49.3724C31.2689 49.1378 31.2178 48.7275 30.7486 48.4565L19.6959 42.0752Z" fill="#5D7BC1"/>
</svg>
