<svg width="60" height="60" viewBox="0 0 60 60" fill="none" xmlns="http://www.w3.org/2000/svg">
<path fill-rule="evenodd" clip-rule="evenodd" d="M21.5625 28.5938V0C21.5625 4.65984 25.3402 8.4375 30 8.4375C34.6598 8.4375 38.4375 4.65984 38.4375 0V28.5938H21.5625Z" fill="#A83DEC"/>
<path fill-rule="evenodd" clip-rule="evenodd" d="M49.4531 0V16.4062C49.4531 22.2567 52.6655 27.4104 57.1875 30.4376V56.25C57.1875 58.3209 55.5084 60 53.4375 60H6.5625C4.49133 60 2.8125 58.3209 2.8125 56.25V30.4376C7.3343 27.4104 10.5469 22.2567 10.5469 16.4062V0H21.3281V20.1562C21.3281 24.8161 25.3402 28.5938 30 28.5938C34.6598 28.5938 38.6719 24.8161 38.6719 20.1562V0H49.4531Z" fill="url(#paint0_linear_26_303)"/>
<path fill-rule="evenodd" clip-rule="evenodd" d="M12.1875 0V16.1719C12.1875 23.1105 8.415 29.1633 2.8125 32.4056V30.2032C7.3343 27.176 10.3125 22.0223 10.3125 16.1719V0H12.1875ZM40.3125 0V19.9219C40.3125 25.6172 35.6953 30.2344 30 30.2344C24.3045 30.2344 19.6875 25.6172 19.6875 19.9219V0H21.5625V19.9219C21.5625 24.5817 25.3402 28.3594 30 28.3594C34.6598 28.3594 38.4375 24.5817 38.4375 19.9219V0H40.3125ZM47.8125 16.1719V0H49.6875V16.1719C49.6875 22.0223 52.6655 27.176 57.1875 30.2032V32.4056C51.585 29.1633 47.8125 23.1105 47.8125 16.1719Z" fill="#FCE202"/>
<path fill-rule="evenodd" clip-rule="evenodd" d="M26.0156 60V48.75H24.1406C23.1052 48.75 22.2656 47.9105 22.2656 46.875V43.5938C22.2656 42.5583 23.1052 41.7188 24.1406 41.7188H32.1094C33.1448 41.7188 33.9844 42.5583 33.9844 43.5938V60H26.0156Z" fill="#FCE202"/>
<defs>
<linearGradient id="paint0_linear_26_303" x1="30" y1="60" x2="30" y2="0" gradientUnits="userSpaceOnUse">
<stop stop-color="#A83DEC"/>
<stop offset="1" stop-color="#B858F5"/>
</linearGradient>
</defs>
</svg>
