<svg width="70" height="71" viewBox="0 0 70 71" fill="none" xmlns="http://www.w3.org/2000/svg">
<path d="M28.9349 27.0819C28.0708 28.001 12.0809 34.0901 6.6988 26.0972C5.78539 24.7513 5.01183 23.5038 4.34519 22.3714C1.87632 18.1861 0.987515 15.527 0.699585 14.4933C0.732534 14.4276 0.773687 14.3783 0.814839 14.3289C0.897144 14.2144 0.987651 14.1157 1.08636 14.0336C1.09457 14.0336 1.09457 14.0336 1.09457 14.0336C1.63775 14.132 2.56771 14.3783 3.76919 14.6406C3.76919 14.6406 3.7774 14.6406 3.78574 14.6406C3.79394 14.6406 3.81035 14.6575 3.82689 14.6575C6.92111 15.3302 11.7847 16.1509 16.5167 15.2974C19.7427 14.7063 22.4831 13.8528 24.5816 13.0323C27.5442 11.8999 29.2313 10.8662 29.2313 10.8662C29.2313 10.8662 29.7907 26.1627 28.9349 27.0819Z" fill="#955252"/>
<path d="M69.9999 47.7296C69.9999 47.7296 66.9962 47.5821 56.6435 40.9842C56.2649 40.7383 55.8863 40.4918 55.5077 40.2292C54.1087 39.2936 52.7509 38.276 51.4424 37.2254C50.4137 36.3883 49.4179 35.5185 48.4469 34.6489C47.0974 33.4011 45.8052 32.1212 44.5708 30.808C43.3775 29.5442 42.2336 28.2476 41.1473 26.9508C40.7606 26.4747 40.3738 26.0152 40.0034 25.5391C40.0034 25.5391 40.0034 25.5391 39.9952 25.5391C39.9952 25.5391 39.9952 25.5391 39.987 25.523C39.8883 25.408 39.7895 25.2932 39.699 25.1615C39.4438 24.8498 39.1887 24.5215 38.9418 24.1935H38.9336C38.8349 24.0621 38.7444 23.9475 38.6455 23.8161C38.2506 23.3073 37.8638 22.7819 37.4934 22.2733C37.3617 22.0925 37.2301 21.9287 37.0984 21.7479C36.3249 20.6809 35.5925 19.6142 34.8929 18.5802H34.8847C34.7201 18.3337 34.5637 18.0878 34.4074 17.8576C34.2593 17.628 34.1111 17.4148 33.9631 17.1849C33.4776 16.4465 33.0167 15.7079 32.564 14.9856C32.4653 14.8217 32.3582 14.6573 32.2595 14.4931C31.988 14.05 31.7246 13.6236 31.4778 13.1968C30.1694 10.9974 29.0419 8.96219 28.1202 7.18954C29.5191 4.74392 30.6221 2.43001 31.3051 0.903584C31.7578 -0.114308 32.5148 -0.294545 33.0827 0.476849C34.1525 1.92093 35.1978 3.44736 36.2428 4.97406C37.181 6.35243 38.1108 7.76406 39.0408 9.15906C40.0449 10.6694 41.0488 12.1792 42.0692 13.6399C42.3903 14.1326 42.7193 14.5921 43.0404 15.0515C43.5506 15.7741 44.0608 16.4795 44.5711 17.1525C44.6945 17.3169 44.8262 17.4972 44.9496 17.6449C45.6656 18.6135 46.3816 19.5158 47.114 20.3859C47.4021 20.7305 47.6902 21.0755 47.9781 21.3871C48.1757 21.6167 48.3731 21.8302 48.5706 22.0271C48.9492 22.4702 49.336 22.8642 49.731 23.2582C50.3153 23.8491 50.916 24.407 51.525 24.9324C51.5579 24.9488 51.5825 24.9652 51.6073 24.9981C51.6896 25.0639 51.7801 25.1293 51.8624 25.195H51.8706C52.068 25.3594 52.2574 25.5236 52.4632 25.6711C52.7512 25.901 53.0393 26.1142 53.3354 26.328C53.352 26.3443 53.3766 26.3443 53.393 26.3604C53.6728 26.5576 53.9526 26.7384 54.2406 26.9186C54.5945 27.1321 54.9566 27.3453 55.3187 27.5261C55.4421 27.5916 55.5738 27.657 55.7054 27.723C55.8783 27.8214 56.0511 27.8874 56.2239 27.9695C56.265 27.9858 56.298 28.0019 56.3391 28.0188C56.6601 28.1663 56.981 28.2814 57.3019 28.3962C57.6393 28.5107 57.9767 28.6258 58.3224 28.7079C58.6598 28.8066 59.0136 28.8881 59.3592 28.9375C59.5403 28.9702 59.7296 29.0032 59.9106 29.0195C60.0834 29.0523 60.2481 29.0689 60.4209 29.0853C60.783 29.118 61.1451 29.1346 61.5071 29.1346C62.4946 29.1346 63.3752 29.4299 64.157 29.9717C66.6998 31.6947 68.2059 35.798 69.0454 39.7209C69.7612 43.0688 69.9999 46.2528 69.9999 47.7296Z" fill="#D9AFAF"/>
<path d="M70 47.7298C70 51.4392 62.4453 54.3279 62.4453 54.3279L24.4252 52.1942L4.34533 51.0618L0.263457 50.8483L0 47.7298V17.3165C0 17.1687 0.00820312 17.0212 0.016543 16.8898C0.0330859 16.5945 0.0658984 16.3153 0.115254 16.0527C0.14 15.9545 0.156406 15.8558 0.181152 15.7574C0.238711 15.4945 0.321016 15.2486 0.411523 15.0353C0.452676 14.9369 0.502031 14.8382 0.551523 14.7561C0.600879 14.6579 0.650234 14.5592 0.69959 14.4935C0.732539 14.4278 0.773691 14.3784 0.814844 14.3291C0.897148 14.2146 0.987656 14.1159 1.08637 14.0338C1.09457 14.0338 1.09457 14.0338 1.09457 14.0338C1.14393 13.9844 1.20162 13.9517 1.25098 13.9187C1.30854 13.8857 1.36623 13.853 1.42379 13.8203C1.68711 13.7221 1.95863 13.7221 2.23029 13.8699C2.46887 13.9844 2.71578 14.1159 2.98744 14.2473C3.1191 14.313 3.25076 14.3784 3.39076 14.4442C3.52242 14.5099 3.65408 14.5756 3.78574 14.641C3.79395 14.641 3.81035 14.6579 3.82689 14.6579C3.9915 14.7397 4.16432 14.8218 4.34533 14.9039C7.65365 16.4137 12.3938 18.6954 16.7718 17.9892C20.4915 17.3822 22.7546 15.5111 24.5816 13.0325C25.8654 11.3095 26.927 9.29062 28.1203 7.18994C29.0421 8.96232 30.1695 10.9978 31.4779 13.197C31.8235 13.7881 32.1938 14.3787 32.5642 14.9862C33.0169 15.7083 33.4778 16.447 33.9633 17.1856C34.2677 17.6448 34.5722 18.1045 34.885 18.5806C35.5846 19.6149 36.3252 20.6816 37.0988 21.7483C37.2304 21.9291 37.3621 22.0929 37.4937 22.2737C37.864 22.7825 38.2509 23.308 38.6459 23.8165C39.4442 24.8671 40.2835 25.9175 41.1477 26.9512C42.2339 28.2477 43.3779 29.5446 44.5711 30.8084C45.8056 32.1216 47.0976 33.4018 48.4472 34.6493C49.4184 35.5191 50.4141 36.3887 51.4428 37.2264C52.7513 38.2767 54.109 39.294 55.5081 40.2296C55.8867 40.4922 56.2652 40.7384 56.6438 40.9849C66.9962 47.582 70 47.7298 70 47.7298Z" fill="#D6877B"/>
<path opacity="0.1" d="M4.34519 14.9039V51.0619L0.26332 50.8484L0 47.7298V17.3165C0 17.1688 0.00820312 17.0212 0.016543 16.8898C0.0330859 16.5945 0.0658984 16.3153 0.115254 16.0527C0.14 15.9545 0.156406 15.8558 0.181152 15.7574C0.238711 15.4945 0.321016 15.2486 0.411523 15.0354C0.452676 14.9369 0.502031 14.8382 0.551523 14.7561C0.600879 14.658 0.650234 14.5593 0.69959 14.4935C0.732539 14.4278 0.773691 14.3785 0.814844 14.3291C0.897148 14.2146 0.987656 14.1159 1.08637 14.0338C1.09457 14.0338 1.09457 14.0338 1.09457 14.0338C1.14393 13.9845 1.20162 13.9517 1.25098 13.9188C1.30853 13.8858 1.36623 13.853 1.42379 13.8203C1.68711 13.7222 1.95863 13.7222 2.23029 13.8699C2.46887 13.9845 2.71578 14.1159 2.98744 14.2473C3.1191 14.313 3.25076 14.3785 3.39076 14.4442C3.51422 14.5099 3.63768 14.5756 3.76934 14.6411C3.76934 14.6411 3.77754 14.6411 3.78588 14.6411C3.79408 14.6411 3.81049 14.658 3.82703 14.658C3.99137 14.7395 4.16418 14.8218 4.34519 14.9039Z" fill="#040000"/>
<path d="M70 47.73V62.1899H1.22623L1.02867 59.8427L0.806504 57.2332L0.609082 54.9517L0.26332 50.8483L0 47.73H70Z" fill="#FFFCF3"/>
<path d="M69.9999 54.9517V57.2331H0.806431L0.609009 54.9517H69.9999Z" fill="#A99D7F"/>
<path d="M33.1704 20.2558C34.3715 20.2558 35.3451 18.314 35.3451 15.9187C35.3451 13.5234 34.3715 11.5815 33.1704 11.5815C31.9694 11.5815 30.9958 13.5234 30.9958 15.9187C30.9958 18.314 31.9694 20.2558 33.1704 20.2558Z" fill="#5E5454"/>
<path d="M39.3494 28.8624C40.5505 28.8624 41.5242 26.9204 41.5242 24.5249C41.5242 22.1294 40.5505 20.1875 39.3494 20.1875C38.1483 20.1875 37.1746 22.1294 37.1746 24.5249C37.1746 26.9204 38.1483 28.8624 39.3494 28.8624Z" fill="#5E5454"/>
<path d="M46.5985 36.7095C47.7997 36.7095 48.7733 34.7676 48.7733 32.3721C48.7733 29.9766 47.7997 28.0347 46.5985 28.0347C45.3974 28.0347 44.4238 29.9766 44.4238 32.3721C44.4238 34.7676 45.3974 36.7095 46.5985 36.7095Z" fill="#5E5454"/>
<path d="M53.4679 43.1128C54.669 43.1128 55.6427 41.1709 55.6427 38.7754C55.6427 36.3799 54.669 34.438 53.4679 34.438C52.2668 34.438 51.2931 36.3799 51.2931 38.7754C51.2931 41.1709 52.2668 43.1128 53.4679 43.1128Z" fill="#5E5454"/>
<path opacity="0.06" d="M70.0001 47.7293V62.1893H19.4135L23.0427 54.9514L24.4252 52.1941L26.6636 47.7293L37.3784 26.3435L38.6458 23.8158L38.7611 23.6023L40.267 20.5991L43.0404 15.0513C43.5506 15.7739 44.0608 16.4793 44.5711 17.1522C44.6945 17.3166 44.8262 17.4969 44.9496 17.6447C45.6656 18.6132 46.3816 19.5155 47.114 20.3856C47.4021 20.7303 47.6902 21.0752 47.9781 21.3869C48.1757 21.6164 48.3731 21.8299 48.5706 22.0268C48.9492 22.4699 49.336 22.8639 49.731 23.2579C50.3153 23.8488 50.916 24.4067 51.525 24.9322C51.5579 24.9485 51.5826 24.9649 51.6073 24.9979C51.6896 25.0636 51.7719 25.1457 51.8624 25.2114C52.06 25.3753 52.2574 25.5391 52.4632 25.6706C52.7512 25.9171 53.0475 26.1137 53.3354 26.3274C53.352 26.3438 53.3766 26.3438 53.393 26.3599C53.6728 26.557 53.9526 26.7378 54.2406 26.918C54.5945 27.1315 54.9566 27.3448 55.3187 27.5256C55.4421 27.591 55.5738 27.6564 55.7054 27.7224C55.8783 27.8209 56.0511 27.8869 56.2239 27.9689C56.265 27.9853 56.298 28.0014 56.3391 28.0183C56.6601 28.1658 56.981 28.2809 57.3019 28.3957C57.6393 28.5102 57.9767 28.6253 58.3224 28.7073C58.6598 28.806 59.0136 28.8876 59.3593 28.9369C59.5403 28.9696 59.7296 29.0026 59.9106 29.019C60.0835 29.0517 60.2481 29.0684 60.4209 29.0847C60.783 29.1174 61.1451 29.1341 61.5071 29.1341C62.4946 29.1341 63.3752 29.4294 64.157 29.9712C66.6998 31.6942 68.2059 35.7974 69.0454 39.7204C69.7614 43.0685 70.0001 46.2525 70.0001 47.7293Z" fill="#040000"/>
<path d="M39.3493 40.9995L35.613 48.6316V48.648L35.5471 48.7794C35.3167 49.2555 35.0205 49.5671 34.7159 49.6983C34.5842 49.7804 34.4443 49.8134 34.3043 49.8134C33.8682 49.8134 33.4321 49.4853 33.0946 48.8285C32.7408 48.1558 32.5679 47.2363 32.5679 46.3338C32.5679 45.4642 32.7325 44.6107 33.0616 43.9539L33.3085 43.4453L36.5509 36.8145C37.4893 38.1928 38.4193 39.6045 39.3493 40.9995Z" fill="#FCF7F4"/>
<path d="M45.258 49.4853L41.884 56.3951L41.8346 56.4938C41.5054 57.1174 41.0693 57.4455 40.6413 57.4455C40.5343 57.4455 40.4274 57.4294 40.3121 57.3797C40.3121 57.3797 40.3121 57.3797 40.3039 57.3797C40.3039 57.3797 40.3039 57.3797 40.2957 57.3637C39.983 57.2486 39.6786 56.9369 39.4316 56.4608C39.3657 56.3294 39.3 56.1816 39.2506 56.0341H39.2424C39.1767 55.8533 39.119 55.6401 39.0696 55.4429C38.8227 54.3926 38.8556 53.1288 39.1767 52.1439C39.2342 51.9306 39.3083 51.7501 39.3988 51.5696L42.3779 45.48C42.6989 45.973 43.028 46.4322 43.349 46.8916C43.8593 47.6142 44.3695 48.3196 44.8797 48.9926C45.0029 49.1573 45.1346 49.3375 45.258 49.4853Z" fill="#FCF7F4"/>
<path d="M52.1708 57.0346V57.0515L49.0518 63.4359L48.879 63.7805C48.5416 64.4698 48.0889 64.8309 47.6364 64.8309C47.2003 64.8309 46.764 64.5028 46.4267 63.8462C45.9411 62.8941 45.793 61.4993 45.9988 60.2843C46.0647 59.7921 46.2045 59.349 46.3938 58.9553L48.879 53.8672C49.2576 54.3103 49.6444 54.7043 50.0394 55.098C50.6237 55.6892 51.2244 56.2468 51.8334 56.7723C51.8663 56.7886 51.8909 56.805 51.9157 56.838C51.998 56.9037 52.0885 56.9689 52.1708 57.0346Z" fill="#FCF7F4"/>
<path d="M60.2191 60.8591L56.1786 69.1148C56.0881 69.2956 55.9893 69.4595 55.8905 69.5909C55.6024 69.9683 55.265 70.1652 54.9358 70.1652C54.4997 70.1652 54.0635 69.8369 53.7261 69.1805C53.3475 68.4421 53.1747 67.4242 53.2241 66.4233C53.2405 65.6516 53.4051 64.8966 53.7014 64.2896L56.0138 59.5625C56.1866 59.6612 56.3594 59.7269 56.5323 59.809C56.5734 59.8254 56.6064 59.8414 56.6475 59.8584C56.9685 60.0059 57.2894 60.1209 57.6103 60.2357C57.9477 60.3503 58.2851 60.4653 58.6307 60.5474C58.9682 60.6458 59.322 60.7276 59.6676 60.777C59.8489 60.81 60.0381 60.8427 60.2191 60.8591Z" fill="#FCF7F4"/>
</svg>
