<svg width="60" height="60" viewBox="0 0 60 60" fill="none" xmlns="http://www.w3.org/2000/svg">
<path d="M48.9999 32.7499C45.1099 34.2799 42.4899 37.9798 41.4699 42.1198C30.4099 45.8098 19.5399 45.7798 6.22988 42.0298C2.71988 41.1799 1.99988 39.8098 1.99988 37.9999C1.99988 32.1099 4.10984 27.9999 5.99984 27.9999H21.9998C22.5198 27.9999 22.9398 28.3899 22.9998 28.8999L21.0297 36.7599C20.9598 37.0399 21.0198 37.3399 21.1897 37.5799C21.3597 37.8199 21.6196 37.9699 21.9097 37.9999C31.2297 38.8198 36.8097 37.4899 39.4696 33.8098C42.4796 29.6299 41.6696 22.5799 36.9196 11.5999C36.9097 11.5899 36.8996 11.5798 36.8896 11.5599L37.3597 11.3599C37.8496 12.2899 38.8297 13.0899 40.1697 13.7098C40.9597 16.3699 42.2397 17.6599 43.9797 19.3898L44.2897 19.7098C47.9799 23.3998 48.9699 26.1199 48.9999 32.7499Z" fill="#3949AB"/>
<path d="M58 48C58 50.76 55.7599 53.0001 52.9999 53.0001C50.2399 53.0001 47.9999 50.76 47.9999 48C47.9999 46.8501 48.4099 45.8001 49.0699 44.95L52.24 48.65C52.44 48.88 52.72 49 52.9999 49C53.23 49 53.4599 48.92 53.65 48.76C54.07 48.4 54.12 47.77 53.76 47.35L50.59 43.65C51.31 43.2501 52.12 43 52.9999 43C55.76 43 58 45.24 58 48Z" fill="white"/>
<path d="M15 47.9999C15 50.7599 12.7599 52.9999 9.99992 52.9999C7.23992 52.9999 5 50.7599 5 47.9999C5 46.5799 5.60996 45.2199 6.67004 44.2699L6.72008 44.23C8.05004 44.59 9.37004 44.92 10.66 45.21L9.17 47.4501C8.86004 47.9001 8.99 48.5301 9.44996 48.8301C9.62 48.9501 9.80996 49.0001 9.99992 49.0001C10.32 49.0001 10.6399 48.8401 10.83 48.5501L12.77 45.6401C13.38 45.7601 13.99 45.8701 14.59 45.9701L14.71 46.3301C14.9 46.8699 15 47.4299 15 47.9999Z" fill="white"/>
<path d="M53 41C51.62 41 50.34 41.41 49.26 42.1L47.76 40.3501C50.28 38.44 53.47 37.9101 58.8 38.98C59.1 39.04 59.4 38.96 59.63 38.77C59.87 38.5801 60 38.3 60 38C60 35.28 56.88 32 53 32C52.3001 32 51.6401 32.08 50.99 32.2C50.91 25.3801 49.71 22.2901 45.71 18.29L45.39 17.98C44.1 16.69 43.23 15.82 42.61 14.5201C43.92 14.83 45.4 15.0001 46.9999 15.0001C47.5499 15.0001 47.9999 14.5501 47.9999 14.0001V5.99996C47.9999 5.45 47.5499 5 46.9999 5C41.7799 5 37.7399 6.8 37.0999 9.29996L30.61 12.08C30.1 12.3 29.86 12.89 30.0799 13.39C30.2399 13.7701 30.61 14 31 14C31.1299 14 31.27 13.97 31.39 13.92L35.07 12.3399C35.08 12.36 35.07 12.3799 35.08 12.3999C39.4699 22.5199 40.3699 29.1399 37.84 32.64C35.7499 35.55 31.0999 36.66 23.26 36.0999L24.97 29.2399C24.99 29.1598 25 29.0799 25 28.9999C25 28.2999 24.75 27.6699 24.3499 27.1599C24.7499 26.7199 25 26.1399 25 25.5V24.5C25 23.12 23.88 22 22.5 22H6.50004C5.12004 22 4.00008 23.12 4.00008 24.5V25.5C4.00008 25.86 4.08012 26.1999 4.21008 26.4999C1.71996 27.95 0 32.4099 0 38C0 41.47 2.34996 42.91 4.55004 43.63C3.56004 44.8599 3 46.4 3 48C3 51.86 6.14004 54.9999 9.99996 54.9999C13.8599 54.9999 16.9999 51.8599 16.9999 48C16.9999 47.42 16.9099 46.86 16.7699 46.2999C19.5299 46.6699 22.2098 46.8699 24.8399 46.8699C30.4099 46.8699 35.7398 46.02 41.0999 44.3299C41.0399 44.8899 40.9999 45.4399 40.9999 45.9999C40.9999 46.4499 41.2999 46.8399 41.7299 46.9599C41.8199 46.9899 41.9099 46.9999 41.9999 46.9999C42.3398 46.9999 42.6698 46.8199 42.8599 46.5199C44.0299 44.5798 45.1099 42.9699 46.2799 41.6998L47.74 43.3999C46.66 44.6299 46 46.2399 46 47.9998C46 51.8599 49.14 54.9998 52.9999 54.9998C56.8598 54.9998 60 51.86 60 48C60 44.1399 56.86 41 53 41ZM46 7.02992V8.99996H43.9999C43.45 8.99996 43 9.44996 43 9.99992C43 10.5499 43.45 10.9999 43.9999 10.9999H46V12.9699C41.7 12.75 39 11.1399 39 9.99992C39 8.85992 41.7 7.25 46 7.02992ZM6 24.5C6 24.23 6.23004 24 6.50004 24H22.5C22.77 24 23 24.23 23 24.5V25.5C23 25.77 22.77 26 22.5 26H6.50004C6.23004 26 6 25.77 6 25.5V24.5ZM9.99996 53C7.23996 53 4.99992 50.76 4.99992 48C4.99992 46.58 5.60988 45.2199 6.66996 44.27L6.72 44.23C8.04996 44.59 9.36996 44.92 10.66 45.2101L9.16992 47.4501C8.85996 47.9001 8.98992 48.5301 9.44988 48.8301C9.61992 48.9501 9.80988 49.0002 9.99984 49.0002C10.3199 49.0002 10.6398 48.8402 10.8299 48.5502L12.7699 45.6402C13.3799 45.7602 13.99 45.8702 14.59 45.9702L14.71 46.3302C14.8999 46.8702 15 47.4302 15 48.0002C15 50.76 12.76 53 9.99996 53ZM41.47 42.12C30.4099 45.81 19.54 45.78 6.22992 42.03C2.71992 41.18 1.99992 39.81 1.99992 38C1.99992 32.11 4.10988 28 5.99988 28H21.9998C22.5198 28 22.9398 28.39 22.9998 28.9L21.0298 36.76C20.9598 37.04 21.0198 37.34 21.1897 37.58C21.3598 37.82 21.6197 37.97 21.9097 38C31.2298 38.82 36.8098 37.49 39.4697 33.81C42.4796 29.63 41.6696 22.58 36.9197 11.6C36.9097 11.59 36.8996 11.58 36.8897 11.56L37.3597 11.36C37.8497 12.29 38.8297 13.09 40.1698 13.71C40.9597 16.37 42.2398 17.66 43.9798 19.3899L44.2897 19.71C47.9797 23.4 48.9697 26.12 48.9997 32.75C45.11 34.28 42.49 37.98 41.47 42.12ZM43.66 41.7C44.9899 37.47 48.28 33.9999 52.9999 33.9999C55.1599 33.9999 56.9099 35.3899 57.64 36.7399C50.3 35.64 46.62 37.8699 43.66 41.7ZM53 53C50.24 53 48 50.76 48 48C48 46.85 48.41 45.8 49.07 44.9499L52.2401 48.6499C52.4401 48.8799 52.7201 48.9999 53 48.9999C53.2301 48.9999 53.46 48.9199 53.6501 48.7599C54.0701 48.3999 54.1201 47.7699 53.7601 47.3499L50.5901 43.65C51.3101 43.25 52.1201 42.9999 53 42.9999C55.76 42.9999 58.0001 45.24 58.0001 48C58 50.76 55.76 53 53 53Z" fill="black"/>
<path d="M43 9.99979C43 10.5497 43.45 10.9997 43.9999 10.9997H46V12.9698C41.7 12.7498 39 11.1398 39 9.99979C39 8.85979 41.7 7.24975 46 7.02979V8.99982H43.9999C43.45 8.99982 43 9.44982 43 9.99979Z" fill="#3949AB"/>
<path d="M57.6399 36.7401C50.2999 35.64 46.62 37.8701 43.6599 41.7C44.9899 37.47 48.2799 34 52.9999 34C55.16 34 56.91 35.3901 57.6399 36.7401Z" fill="#283593"/>
<path d="M23 24.5V25.5C23 25.77 22.77 26 22.5 26H6.50004C6.23004 26 6 25.77 6 25.5V24.5C6 24.23 6.23004 24 6.50004 24H22.5C22.77 24 23 24.23 23 24.5Z" fill="#717272"/>
<path d="M55.9871 44.0132C56.6151 44.8481 57.0001 45.8752 57.0001 47.0002C57.0001 49.7602 54.7601 52.0002 52.0001 52.0002C50.8751 52.0002 49.848 51.6153 49.0131 50.9872C49.925 52.2022 51.365 53.0003 53 53.0003C55.76 53.0003 58.0001 50.7603 58.0001 48.0003C58.0001 46.3651 57.2021 44.9251 55.9871 44.0132Z" fill="#F4F4F4"/>
<path d="M14.71 46.33L14.59 45.97C14.344 45.929 14.092 45.879 13.842 45.834C13.935 46.217 14 46.605 14 47C14 49.76 11.7599 52 8.99993 52C7.87493 52 6.8479 51.6151 6.01294 50.9871C6.92489 52.2021 8.36489 53.0001 9.99989 53.0001C12.7599 53.0001 14.9999 50.7601 14.9999 48.0001C15 47.4301 14.9001 46.87 14.71 46.33Z" fill="#F4F4F4"/>
<path d="M40.426 14.4618C40.3371 14.2208 40.2491 13.9768 40.17 13.7098C40.0749 13.6659 39.996 13.6148 39.905 13.5688C40.066 13.8858 40.2419 14.1799 40.426 14.4618Z" fill="#3949AB"/>
<path d="M46.931 22.9111C47.706 24.9271 47.985 27.3112 48 30.7502C44.11 32.2802 41.49 35.9801 40.47 40.1201C29.41 43.8101 18.54 43.7801 5.22995 40.0301C3.67792 39.6541 2.67292 39.1762 2.03296 38.6041C2.203 40.116 3.12198 41.2771 6.22991 42.03C19.54 45.78 30.4099 45.81 41.47 42.12C42.49 37.98 45.1099 34.2801 49 32.7501C48.979 28.1152 48.485 25.3912 46.931 22.9111Z" fill="#283593"/>
</svg>
