<svg width="40" height="63" viewBox="0 0 40 63" fill="none" xmlns="http://www.w3.org/2000/svg">
<path d="M40 2.75104V59.4385C40 60.9485 38.4821 62.1895 36.6222 62.1895H3.37777C3.16397 62.1895 2.9608 62.1722 2.75778 62.1374C1.40021 61.9379 0.320616 61.0526 0.0640335 59.9505C0.0213944 59.7856 0 59.6121 0 59.4385V2.75104C0 1.241 1.51795 0 3.37777 0H36.6221C36.8573 0 37.0817 0.0173693 37.3061 0.060732C38.6103 0.277667 39.6578 1.12816 39.925 2.18696C39.925 2.1957 39.925 2.1957 39.925 2.1957C39.9786 2.3779 40 2.5601 40 2.75104Z" fill="#2D2D33"/>
<path d="M25.1414 5.19515H14.8585C14.4331 5.19515 14.0851 4.91262 14.0851 4.5673C14.0851 4.22198 14.4331 3.93945 14.8585 3.93945H25.1414C25.5667 3.93945 25.9147 4.22198 25.9147 4.5673C25.9147 4.91262 25.5667 5.19515 25.1414 5.19515Z" fill="#1E1F21"/>
<path d="M25.8874 4.31915C25.7585 4.234 25.5952 4.18287 25.4168 4.18287H15.0883C14.6761 4.18287 14.3375 4.45665 14.3375 4.79237V4.82893C14.3375 4.91044 14.3585 4.98829 14.396 5.06008C14.2237 4.94943 14.1128 4.77658 14.1128 4.58552V4.54908C14.1128 4.21323 14.4515 3.93945 14.8636 3.93945H25.1921C25.5053 3.93945 25.775 4.09651 25.8874 4.31915Z" fill="#121313"/>
<path d="M20 60.0325C21.6964 60.0325 23.0717 58.916 23.0717 57.5387C23.0717 56.1614 21.6964 55.0449 20 55.0449C18.3036 55.0449 16.9283 56.1614 16.9283 57.5387C16.9283 58.916 18.3036 60.0325 20 60.0325Z" fill="#1E1F21"/>
<path d="M22.6922 55.9891C22.1812 55.6643 21.5383 55.4708 20.8399 55.4708C19.1794 55.4708 17.8321 56.5646 17.8321 57.9139C17.8321 58.4797 18.069 59.0004 18.4675 59.4141C17.7617 58.9676 17.3076 58.2704 17.3076 57.488C17.3076 56.1387 18.6548 55.0449 20.3169 55.0449C21.282 55.0449 22.1423 55.4148 22.6922 55.9891Z" fill="#121313"/>
<path opacity="0.3" d="M2.60742 8.02148V46.2763V46.3372V52.7653H37.3924V46.3372V46.2763V8.02148H2.60742Z" fill="#F4F4F5"/>
<path d="M37.3924 8.02148H2.60742V52.7653H37.3924V8.02148Z" fill="url(#paint0_linear_26_314)"/>
<path opacity="0.2" d="M37.3924 46.3369H2.60742V52.765H37.3924V46.3369Z" fill="#F4F4F5"/>
<path opacity="0.2" d="M37.3924 46.2764H2.60742V46.3381H37.3924V46.2764Z" fill="#F4F4F5"/>
<path opacity="0.2" d="M37.3924 46.2764H2.60742V46.3381H37.3924V46.2764Z" fill="#F4F4F5"/>
<g opacity="0.4">
<path d="M33.064 15.4258H7.33093V25.0214H33.064V15.4258Z" fill="#F4F4F5"/>
<path d="M19.1524 27.5714H7.33093V26.7212H22.1496L19.1524 27.5714Z" fill="#F4F4F5"/>
<path d="M22.5992 12.8747H13.7642V12.0244H25.5965L22.5992 12.8747Z" fill="#F4F4F5"/>
<path d="M30.8417 31.0944H7.33093V30.2441H33.8389L30.8417 31.0944Z" fill="#F4F4F5"/>
<path d="M30.8417 34.6174H7.33093V32.7954H33.8389L30.8417 34.6174Z" fill="#F4F4F5"/>
<path d="M30.8417 37.1676H7.33093V36.3174H33.8389L30.8417 37.1676Z" fill="#F4F4F5"/>
<path d="M30.8417 40.6905H7.33093V39.7188H33.8389L30.8417 40.6905Z" fill="#F4F4F5"/>
<path d="M27.5447 43.2409H7.33093V42.3906H30.542L27.5447 43.2409Z" fill="#F4F4F5"/>
<path d="M9.45035 10.2774L11.6229 11.9142C11.7524 12.0119 11.7524 12.1784 11.6229 12.2761L9.45035 13.9129C9.3338 14.0007 9.15337 14.0007 9.03682 13.9129L6.86432 12.2761C6.73476 12.1784 6.73476 12.0119 6.86432 11.9142L9.03682 10.2774C9.15337 10.1894 9.3338 10.1894 9.45035 10.2774Z" fill="#F4F4F5"/>
<path d="M30.2371 9.50439L30.7609 9.89903L30.2371 10.2937L29.7133 9.89903L30.2371 9.50439Z" fill="#F4F4F5"/>
<path d="M31.9327 9.50439L32.4565 9.89903L31.9327 10.2937L31.4088 9.89903L31.9327 9.50439Z" fill="#F4F4F5"/>
<path d="M28.5416 9.50439L29.0654 9.89903L28.5416 10.2937L28.0178 9.89903L28.5416 9.50439Z" fill="#F4F4F5"/>
</g>
<path opacity="0.3" d="M7.05563 51.9751C5.51015 51.9751 4.24579 50.9485 4.24579 49.6939C4.24579 48.4392 5.5103 47.4126 7.05563 47.4126C8.60112 47.4126 9.86548 48.4392 9.86548 49.6939C9.86548 50.9485 8.60112 51.9751 7.05563 51.9751Z" fill="#F4F4F5"/>
<path opacity="0.3" d="M15.6852 51.9751C14.1397 51.9751 12.8754 50.9485 12.8754 49.6939C12.8754 48.4392 14.1399 47.4126 15.6852 47.4126C17.2307 47.4126 18.4952 48.4392 18.4952 49.6939C18.4951 50.9485 17.2307 51.9751 15.6852 51.9751Z" fill="#F4F4F5"/>
<path opacity="0.3" d="M24.3148 51.9751C22.7693 51.9751 21.5048 50.9485 21.5048 49.6939C21.5048 48.4392 22.7693 47.4126 24.3146 47.4126C25.8601 47.4126 27.1245 48.4392 27.1245 49.6939C27.1246 50.9485 25.8603 51.9751 24.3148 51.9751Z" fill="#F4F4F5"/>
<path opacity="0.3" d="M32.9443 51.9751C31.3989 51.9751 30.1344 50.9485 30.1344 49.6939C30.1344 48.4392 31.3989 47.4126 32.9443 47.4126C34.4898 47.4126 35.7542 48.4392 35.7542 49.6939C35.7542 50.9485 34.4898 51.9751 32.9443 51.9751Z" fill="#F4F4F5"/>
<path opacity="0.1" d="M0.0748055 2.1957C0.0748055 2.1957 0.0748055 2.1957 0.0748055 2.18696C0.342011 1.12816 1.38959 0.277667 2.69375 0.060732C2.91816 0.0173693 3.14273 0 3.37777 0H20V62.1895H3.37777C1.51795 62.1895 0 60.9485 0 59.4385V2.75104C0 2.5601 0.0213944 2.3779 0.0748055 2.1957Z" fill="#F4F4F5"/>
<defs>
<linearGradient id="paint0_linear_26_314" x1="20" y1="52.7653" x2="20" y2="8.0215" gradientUnits="userSpaceOnUse">
<stop offset="0.1304" stop-color="#C7D38D"/>
<stop offset="1" stop-color="#C7D38D"/>
</linearGradient>
</defs>
</svg>
