<svg width="60" height="60" viewBox="0 0 60 60" fill="none" xmlns="http://www.w3.org/2000/svg">
<g clip-path="url(#clip0_26_600)">
<path d="M33.9111 2.62158C32.403 2.62158 31.0403 3.20928 29.9999 4.14748C28.9595 3.20928 27.5967 2.62158 26.0886 2.62158C22.8535 2.62158 20.2217 5.25326 20.2217 8.48846C20.2217 11.7237 22.8535 14.3553 26.0886 14.3553C27.5967 14.3553 28.9595 13.7676 29.9999 12.8294C31.0403 13.7676 32.403 14.3553 33.9111 14.3553C37.1462 14.3553 39.778 11.7237 39.778 8.48846C39.778 5.25326 37.1463 2.62158 33.9111 2.62158ZM26.0886 10.444C25.0103 10.444 24.133 9.5667 24.133 8.48834C24.133 7.40998 25.0103 6.53271 26.0886 6.53271C27.167 6.53271 28.0442 7.40998 28.0442 8.48834C28.0442 9.5667 27.1671 10.444 26.0886 10.444ZM33.9111 10.444C32.8328 10.444 31.9555 9.5667 31.9555 8.48834C31.9555 7.40998 32.8328 6.53271 33.9111 6.53271C34.9895 6.53271 35.8667 7.40998 35.8667 8.48834C35.8667 9.5667 34.9896 10.444 33.9111 10.444Z" fill="#FF9F19"/>
<path d="M33.9111 14.3552C37.1462 14.3552 39.778 11.7235 39.778 8.48834C39.778 5.25314 37.1462 2.62158 33.9111 2.62158C32.403 2.62158 31.0403 3.20928 29.9999 4.14748V12.8293C31.0403 13.7675 32.403 14.3552 33.9111 14.3552ZM33.9111 6.53283C34.9895 6.53283 35.8668 7.4101 35.8668 8.48846C35.8668 9.56682 34.9895 10.4441 33.9111 10.4441C32.8328 10.4441 31.9555 9.56682 31.9555 8.48846C31.9555 7.4101 32.8328 6.53283 33.9111 6.53283Z" fill="#F28618"/>
<path d="M50.2079 22.1776H9.79181C8.71216 22.1776 7.83618 21.3016 7.83618 20.222V16.3107C7.83618 13.0756 10.468 10.4438 13.7031 10.4438H46.2966C49.5317 10.4438 52.1635 13.0755 52.1635 16.3107V20.222C52.1635 21.3016 51.2877 22.1776 50.2079 22.1776Z" fill="#FFE14D"/>
<path d="M46.2967 10.4438H29.9999V22.1776H50.2079C51.2876 22.1776 52.1635 21.3016 52.1635 20.222V16.3107C52.1635 13.0755 49.5319 10.4438 46.2967 10.4438Z" fill="#FFCC33"/>
<path d="M52.1117 57.3789H7.88798C3.66912 57.3789 0.197085 54.0316 0.0523583 49.8152C-0.334478 38.5414 1.33978 29.3409 7.84169 18.2688C7.84251 18.2675 52.1697 18.2666 52.1697 18.2666C58.6726 29.3381 60.3342 38.539 59.9474 49.815C59.8027 54.0314 56.3308 57.3789 52.1117 57.3789Z" fill="#E6563A"/>
<path d="M29.9999 57.3788H52.1118C56.3306 57.3788 59.8027 54.0314 59.9474 49.815C60.3342 38.5391 58.6725 29.338 52.1698 18.2666C52.1698 18.2666 41.0839 18.2668 29.9999 18.2673V57.3788Z" fill="#D9472B"/>
</g>
<defs>
<clipPath id="clip0_26_600">
<rect width="60" height="60" fill="white"/>
</clipPath>
</defs>
</svg>
