<svg width="60" height="60" viewBox="0 0 60 60" fill="none" xmlns="http://www.w3.org/2000/svg">
<g clip-path="url(#clip0_26_642)">
<path d="M55.6211 11.6738C55.2254 11.2783 54.5843 11.2783 54.1886 11.6738L52.6785 13.184L50.4634 10.9689L53.6081 7.82421C54.0036 7.42871 54.0036 6.78734 53.6081 6.39195C53.2124 5.99645 52.5712 5.99645 52.1756 6.39195L49.0309 9.53667L46.8158 7.3216L48.326 5.81141C48.7215 5.4159 48.7215 4.77454 48.326 4.37915C47.9303 3.98364 47.2891 3.98364 46.8935 4.37915L45.3833 5.88934L44.3942 4.90016C43.9984 4.50466 43.3573 4.50466 42.9617 4.90016C42.5662 5.29567 42.5662 5.93703 42.9617 6.33242L43.9508 7.3216L41.2971 9.97518L38.7487 7.42672C38.3529 7.03121 37.7118 7.03121 37.3162 7.42672C36.9207 7.82222 36.9207 8.46359 37.3162 8.85898L39.8648 11.4076L37.2111 14.0613L34.2078 11.0578C33.812 10.6623 33.1709 10.6623 32.7753 11.0578C32.3797 11.4533 32.3798 12.0946 32.7753 12.49L35.7789 15.4936L33.1252 18.1473L30.5766 15.5988C30.1809 15.2032 29.5398 15.2032 29.1441 15.5988C28.7485 15.9943 28.7486 16.6356 29.1441 17.031L31.6927 19.5796L29.039 22.2333L28.0498 21.2441C27.6541 20.8486 27.013 20.8486 26.6173 21.2441C26.2217 21.6396 26.2218 22.281 26.6173 22.6764L27.6065 23.6656L26.0968 25.1753C25.7013 25.5708 25.7013 26.2122 26.0968 26.6075C26.2946 26.8052 26.5539 26.9043 26.813 26.9043C27.0721 26.9043 27.3315 26.8054 27.5293 26.6075L29.0389 25.0979L31.254 27.313L28.1139 30.453C27.7184 30.8485 27.7184 31.4899 28.1139 31.8853C28.3118 32.083 28.571 32.182 28.8302 32.182C29.0893 32.182 29.3486 32.0831 29.5464 31.8853L32.6865 28.7453L34.9015 30.9603L33.3918 32.4701C32.9963 32.8656 32.9963 33.5069 33.3918 33.9023C33.5896 34.1 33.849 34.199 34.1081 34.199C34.3672 34.199 34.6265 34.1001 34.8243 33.9023L36.3339 32.3927L37.3228 33.3817C37.5207 33.5793 37.78 33.6784 38.0391 33.6784C38.2982 33.6784 38.5575 33.5795 38.7553 33.3817C39.1509 32.9861 39.1509 32.3448 38.7553 31.9494L37.7664 30.9605L40.42 28.3069L42.9685 30.8553C43.1663 31.053 43.4256 31.1521 43.6847 31.1521C43.9438 31.1521 44.2031 31.0531 44.4009 30.8553C44.7965 30.4598 44.7965 29.8185 44.4009 29.4231L41.8525 26.8746L44.5062 24.2209L47.5098 27.2245C47.7076 27.4222 47.967 27.5212 48.2261 27.5212C48.4852 27.5212 48.7445 27.4223 48.9423 27.2245C49.3378 26.829 49.3378 26.1877 48.9423 25.7923L45.9387 22.7886L48.5924 20.1349L51.1408 22.6834C51.3387 22.8811 51.598 22.9801 51.8571 22.9801C52.1162 22.9801 52.3755 22.8812 52.5733 22.6834C52.9688 22.2879 52.9688 21.6465 52.5733 21.2512L50.0248 18.7026L52.6785 16.0489L53.6674 17.0378C53.8652 17.2355 54.1245 17.3345 54.3836 17.3345C54.6427 17.3345 54.9021 17.2356 55.0999 17.0378C55.4954 16.6423 55.4954 16.0009 55.0999 15.6056L54.1109 14.6166L55.6211 13.1064C56.0166 12.7107 56.0166 12.0693 55.6211 11.6738ZM45.3833 8.75398L47.5984 10.969L44.9447 13.6227L42.7296 11.4077L45.3833 8.75398ZM41.2974 12.8399L43.5124 15.055L40.8587 17.7087L38.6437 15.4936L41.2974 12.8399ZM37.2112 16.926L39.4262 19.1411L36.7725 21.7948L34.5575 19.5797L37.2112 16.926ZM30.4714 23.6659L33.1251 21.0122L35.3402 23.2273L32.6865 25.881L30.4714 23.6659ZM36.334 29.5284L34.119 27.3134L36.7727 24.6597L38.9877 26.8747L36.334 29.5284ZM40.4202 25.4422L38.2052 23.2272L40.8589 20.5735L43.0739 22.7885L40.4202 25.4422ZM44.5062 21.3563L42.2911 19.1412L44.9448 16.4875L47.1599 18.7026L44.5062 21.3563ZM48.5923 17.2702L46.3772 15.0551L49.0309 12.4014L51.246 14.6165L48.5923 17.2702Z" fill="#C9CFF2"/>
<path d="M21.0086 42.8332C21.0086 42.8332 13.2101 54.1287 3.84209 59.9997L0 56.1577C5.87072 46.7897 17.1665 38.9912 17.1665 38.9912L21.0086 42.8332Z" fill="#C9CFF2"/>
<path opacity="0.1" d="M19.0763 40.901L17.1665 38.9912C17.1665 38.9912 5.87084 46.7897 0 56.1577L1.9098 58.0675C7.78075 48.6995 19.0763 40.901 19.0763 40.901Z" fill="black"/>
<path d="M36.3756 38.1619C36.9303 38.098 37.4937 38.0087 38.0652 37.8928C42.8925 36.9134 47.7778 34.1472 51.8213 30.1036C55.8649 26.0601 58.6311 21.1747 59.6105 16.3475C60.6667 11.1415 59.5576 6.58349 56.487 3.51295C53.4166 0.442419 48.8585 -0.666874 43.6525 0.38945C38.8252 1.36878 33.9399 4.1351 29.8963 8.17852C25.8528 12.2221 23.0866 17.1072 22.1073 21.9346C22.0134 22.3971 21.9371 22.8543 21.8776 23.3057L21.8751 23.332L26.899 24.1741C27.3687 20.1983 29.6821 15.5831 33.4916 11.7736C40.0143 5.25095 48.8985 3.1144 52.892 7.1079C56.8855 11.1014 54.7489 19.9857 48.2263 26.5082C44.3193 30.4152 39.565 32.7484 35.522 33.1333L36.3648 38.1615L36.3756 38.1619Z" fill="#B9E578"/>
<path d="M41.7426 2.29937C46.9485 1.24304 51.5066 2.35234 54.577 5.42275C57.6475 8.49329 58.7567 13.0513 57.7005 18.2573C56.7985 22.7027 54.3802 27.1967 50.8457 31.0379C51.1755 30.7342 51.5013 30.4234 51.8211 30.1034C55.8647 26.0599 58.6309 21.1744 59.6103 16.3473C60.6665 11.1412 59.5573 6.58326 56.4868 3.51272C53.4165 0.442422 48.8584 -0.666871 43.6524 0.389453C38.8251 1.36879 33.9398 4.1351 29.8962 8.17864C29.5764 8.49845 29.2655 8.82411 28.9618 9.15411C32.8029 5.61951 37.2971 3.20136 41.7426 2.29937Z" fill="#CFFF86"/>
<path opacity="0.1" d="M21.0085 42.8333L17.1664 38.9912C17.1664 38.9912 15.3207 40.2656 12.7343 42.4022C12.9253 42.6719 13.1398 42.9301 13.3812 43.1715L16.8278 46.6181C17.0694 46.8596 17.3275 47.0743 17.5973 47.2652C19.7342 44.679 21.0085 42.8333 21.0085 42.8333Z" fill="black"/>
<path d="M35.5219 33.1333C32.927 33.3803 30.625 32.8246 29.0282 31.3671C29.0239 31.3633 29.0196 31.3597 29.0155 31.3558C28.9511 31.2966 28.8879 31.2362 28.8258 31.1741C28.7637 31.112 28.7032 31.0488 28.644 30.9843C28.6402 30.98 28.6364 30.9757 28.6325 30.9713C27.1185 29.3126 26.5777 26.8928 26.8988 24.1741L21.8748 23.332C21.8491 23.5296 21.8254 23.7265 21.8059 23.922C21.5622 24.8868 20.984 31.9738 15.7687 37.1892C14.776 38.1819 14.776 39.7915 15.7687 40.7842L19.2154 44.2309C20.2081 45.2236 21.8178 45.2236 22.8105 44.2309C28.0331 39.0083 35.1297 38.4325 36.0756 38.1938C36.1714 38.1843 36.2681 38.1725 36.3644 38.1613L35.5219 33.1333ZM22.1827 40.008L19.9916 37.8169C21.4775 36.0783 22.6586 34.3277 23.592 32.6986C24.0549 33.4462 24.6007 34.1394 25.2305 34.7691C25.8602 35.3989 26.5534 35.9446 27.3011 36.4075C25.6719 37.3412 23.9213 38.5224 22.1827 40.008Z" fill="#4D4E5C"/>
</g>
<defs>
<clipPath id="clip0_26_642">
<rect width="60" height="60" fill="white"/>
</clipPath>
</defs>
</svg>
