<svg width="60" height="60" viewBox="0 0 60 60" fill="none" xmlns="http://www.w3.org/2000/svg">
<path d="M21 20.4001C21 21.872 21.9561 23.2837 23.658 24.3245C25.3599 25.3654 27.6682 25.9501 30.075 25.9501C32.4818 25.9501 34.7901 25.3654 36.492 24.3245C38.1939 23.2837 39.15 21.872 39.15 20.4001C39.15 18.9281 38.1939 17.5165 36.492 16.4757C34.7901 15.4348 32.4818 14.8501 30.075 14.8501C27.6682 14.8501 25.3599 15.4348 23.658 16.4757C21.9561 17.5165 21 18.9281 21 20.4001Z" fill="#486068"/>
<path d="M30.075 26.7001C24.6 26.7001 20.25 23.9251 20.25 20.4001C20.25 16.8751 24.525 14.1001 30.075 14.1001C35.625 14.1001 39.9 16.8751 39.9 20.4001C39.9 23.9251 35.625 26.7001 30.075 26.7001ZM30.075 15.5251C25.575 15.5251 21.75 17.7001 21.75 20.3251C21.75 22.9501 25.575 25.1251 30.075 25.1251C34.575 25.1251 38.4 22.9501 38.4 20.3251C38.4 17.7001 34.575 15.5251 30.075 15.5251Z" fill="#231C1C"/>
<path d="M54.45 52.3501C54.45 53.1001 53.85 53.7751 53.025 53.7751H7.87501C7.12501 53.7751 6.45001 53.1751 6.45001 52.3501V20.4001C6.45001 19.6501 7.05001 18.9751 7.87501 18.9751H53.1C53.85 18.9751 54.525 19.5751 54.525 20.4001V52.3501H54.45Z" fill="#D3AC51"/>
<path d="M53.025 54.5251H7.87501C6.67501 54.5251 5.70001 53.5501 5.70001 52.3501V20.4001C5.70001 19.2001 6.67501 18.2251 7.87501 18.2251H53.1C54.3 18.2251 55.275 19.2001 55.275 20.4001V52.4251C55.2 53.5501 54.225 54.5251 53.025 54.5251ZM7.87501 19.7251C7.50001 19.7251 7.20001 20.0251 7.20001 20.4001V52.4251C7.20001 52.8001 7.50001 53.1001 7.87501 53.1001H53.1C53.475 53.1001 53.775 52.8001 53.775 52.4251V20.4001C53.775 20.0251 53.475 19.7251 53.1 19.7251H7.87501Z" fill="#231C1C"/>
<path d="M40.5 49.575C40.5 50.325 39.9 51 39.075 51H10.575C9.82499 51 9.14999 50.4 9.14999 49.575V23.175C9.14999 22.425 9.74999 21.75 10.575 21.75H39.075C39.825 21.75 40.5 22.35 40.5 23.175V49.575Z" fill="#F8F4BC"/>
<path d="M39.15 51.75H10.65C9.45001 51.75 8.47501 50.775 8.47501 49.575V23.175C8.47501 21.975 9.45001 21 10.65 21H39.15C40.35 21 41.325 21.975 41.325 23.175V49.575C41.25 50.775 40.35 51.75 39.15 51.75ZM10.65 22.5C10.275 22.5 9.97501 22.8 9.97501 23.175V49.575C9.97501 49.95 10.275 50.25 10.65 50.25H39.15C39.525 50.25 39.825 49.95 39.825 49.575V23.175C39.825 22.8 39.525 22.5 39.15 22.5H10.65Z" fill="#231C1C"/>
<path d="M18.975 42.5248L15.075 37.1248H12V35.6248H15.9L18.975 39.9748L22.05 35.6248H25.65L30.75 30.4498L36.825 35.7748L35.85 36.9748L30.825 32.5498L26.25 37.1248H22.8L18.975 42.5248ZM43.35 25.1998H51.675V26.6998H43.35V25.1998ZM43.35 27.9748H51.675V29.4748H43.35V27.9748ZM43.35 22.4248H51.675V23.9248H43.35V22.4248Z" fill="#231C1C"/>
<path d="M44.025 46.1248C44.025 47.0398 44.3885 47.9173 45.0355 48.5643C45.6825 49.2113 46.56 49.5748 47.475 49.5748C48.39 49.5748 49.2675 49.2113 49.9145 48.5643C50.5615 47.9173 50.925 47.0398 50.925 46.1248C50.925 45.2098 50.5615 44.3323 49.9145 43.6853C49.2675 43.0383 48.39 42.6748 47.475 42.6748C46.56 42.6748 45.6825 43.0383 45.0355 43.6853C44.3885 44.3323 44.025 45.2098 44.025 46.1248Z" fill="#B8CA43"/>
<path d="M47.475 50.3248C45.15 50.3248 43.275 48.4498 43.275 46.1248C43.275 43.7998 45.15 41.9248 47.475 41.9248C49.8 41.9248 51.675 43.7998 51.675 46.1248C51.675 48.4498 49.8 50.3248 47.475 50.3248ZM47.475 43.3498C45.975 43.3498 44.775 44.5498 44.775 46.0498C44.775 47.5498 45.975 48.7498 47.475 48.7498C48.975 48.7498 50.175 47.5498 50.175 46.0498C50.175 44.5498 48.975 43.3498 47.475 43.3498Z" fill="#231C1C"/>
<path d="M44.8882 47.6714L49.0777 43.4819L50.1382 44.5424L45.9487 48.7319L44.8882 47.6714Z" fill="#231C1C"/>
<path d="M19.848 6.2895L20.9085 5.229L29.9767 14.298L28.9162 15.3585L19.848 6.2895Z" fill="#231C1C"/>
<path d="M30.2752 14.2516L39.345 5.18262L40.4055 6.24387L31.3365 15.3114L30.2752 14.2516Z" fill="#231C1C"/>
</svg>
