<svg width="40" height="63" viewBox="0 0 40 63" fill="none" xmlns="http://www.w3.org/2000/svg">
<path d="M11.299 1.56006H28.6873V60.6168H11.299V1.56006Z" fill="#F7BE29"/>
<path d="M37.3883 31.0945C37.3883 39.6821 29.6083 46.6357 20 46.6357C10.3918 46.6357 2.61169 39.6821 2.61169 31.0945C2.61169 22.5069 10.3918 15.5532 20 15.5532C29.6083 15.541 37.3883 22.5069 37.3883 31.0945Z" fill="#FAE274"/>
<path d="M20 30.7626V22.5313C20 22.1013 19.6151 21.7573 19.134 21.7573C18.6529 21.7573 18.2681 22.1013 18.2681 22.5313V31.0821C18.2681 31.1804 18.2956 31.2786 18.3368 31.3769C18.378 31.4752 18.4468 31.5612 18.5292 31.6349L26.0619 38.3674C26.2268 38.5148 26.4605 38.6008 26.6804 38.6008C26.9004 38.6008 27.1203 38.5271 27.299 38.3674C27.6426 38.0603 27.6426 37.5688 27.299 37.274L20 30.7626Z" fill="#211F1E"/>
<path d="M37.512 26.3525C36.2062 22.3229 33.2921 18.8952 29.4296 16.6838V1.56026C29.4296 0.700275 28.646 0 27.6838 0H10.2955C9.33333 0 8.54983 0.700275 8.54983 1.56026V16.8558C3.39519 19.9272 0 25.1608 0 31.0948C0 37.0287 3.39519 42.2623 8.54983 45.3337V60.6293C8.54983 61.4893 9.33333 62.1895 10.2955 62.1895H27.6838C28.646 62.1895 29.4296 61.4893 29.4296 60.6293V45.4934C33.2921 43.282 36.2199 39.8544 37.512 35.8247C38.9278 35.5421 40 34.4119 40 33.0605V29.1168C40 27.7654 38.9278 26.6351 37.512 26.3525ZM12.0275 3.10825H25.9381V4.66851H12.0275V3.10825ZM12.0275 6.21649H25.9381V7.77676H12.0275V6.21649ZM12.0275 9.32474H25.9381V10.885H12.0275V9.32474ZM12.0275 12.433H25.9381V15.1112C23.8213 14.3864 21.5258 13.9933 19.134 13.9933C16.6186 13.9933 14.2268 14.4355 12.0275 15.2218V12.433ZM25.9381 59.069H12.0275V57.521H25.9381V59.069ZM25.9381 55.9608H12.0275V54.4005H25.9381V55.9608ZM25.9381 52.8525H12.0275V51.2922H25.9381V52.8525ZM25.9381 49.7443H12.0275V46.9554C14.2268 47.7417 16.6186 48.184 19.134 48.184C21.5395 48.184 23.8213 47.7786 25.9381 47.066V49.7443ZM32.1787 31.8688H34.7354C34.2955 38.9575 27.9313 44.6457 19.9862 45.0389V42.7538C19.9862 42.3238 19.6014 41.9798 19.1203 41.9798C18.6392 41.9798 18.2543 42.3238 18.2543 42.7538V45.0389C10.323 44.6457 3.95876 38.9575 3.5189 31.8688H6.0756C6.5567 31.8688 6.94158 31.5248 6.94158 31.0948C6.94158 30.6648 6.5567 30.3208 6.0756 30.3208H3.5189C3.95876 23.232 10.323 17.5438 18.2543 17.1506V19.4358C18.2543 19.8658 18.6392 20.2098 19.1203 20.2098C19.6014 20.2098 19.9862 19.8658 19.9862 19.4358V17.1506C27.9175 17.5438 34.2955 23.232 34.7354 30.3208H32.1787C31.6976 30.3208 31.3127 30.6648 31.3127 31.0948C31.3127 31.5125 31.6976 31.8688 32.1787 31.8688Z" fill="#211F1E"/>
</svg>
