<svg width="60" height="60" viewBox="0 0 60 60" fill="none" xmlns="http://www.w3.org/2000/svg">
<path d="M37.3667 19.745L43.3333 3.33333C43.3333 3.33333 42.67 3.33667 41.6667 3.39V0H38.3333V3.69833C34.5483 4.20167 30 5.41167 30 8.33333C30 5.41167 25.4517 4.20167 21.6667 3.69833V0H18.3333V3.39C17.33 3.33667 16.6667 3.33333 16.6667 3.33333L22.635 19.745L1.66667 42.7383C1.66667 42.7383 11.6667 60 30 60C48.3333 60 58.3333 42.7383 58.3333 42.7383L37.3667 19.745Z" fill="#55ACEE"/>
<path d="M21.6667 18.3335H38.3333V21.6668H21.6667V18.3335Z" fill="#BBDDF5"/>
<path d="M25 21.6665C25 21.6665 13.7767 35.1765 16.5817 36.6765C19.3883 38.1782 25 21.6665 25 21.6665ZM35.16 21.6665C35.16 21.6665 46.3833 35.1748 43.5783 36.6782C40.7717 38.1782 35.16 21.6665 35.16 21.6665ZM30 21.6665C30 21.6665 26.6667 39.9998 30 39.9998C33.3333 39.9998 30 21.6665 30 21.6665Z" fill="#3B88C3"/>
</svg>
