<svg width="60" height="60" viewBox="0 0 60 60" fill="none" xmlns="http://www.w3.org/2000/svg">
<path d="M29.9995 51.9814L31.4615 41.9506C32.761 33.0288 41.0474 24.7434 49.9681 23.4439L59.999 21.9819L58.537 32.0128C57.2375 40.9345 48.9511 49.22 40.0304 50.5195L29.9995 51.9814Z" fill="#556080"/>
<path d="M29.9995 51.9815L19.9686 50.5195C11.0469 49.22 2.76146 40.9336 1.46195 32.0129L0 21.981L10.0309 23.4429C18.9526 24.7424 27.238 33.0289 28.5375 41.9496L29.9995 51.9815Z" fill="#7D6599"/>
<path d="M29.9995 50.9718L29.8174 50.7256L29.9208 51.4405L29.9974 51.4736L29.9995 51.4529L30.0026 51.4736L30.0791 51.4405L30.1826 50.7256L29.9995 50.9718Z" fill="#8697CB"/>
<path d="M21.6437 20.7725C20.5253 19.9654 19.3396 19.2743 18.0949 18.7394L8.52031 14.2749L7.74744 23.1097L10.0309 23.4429C13.5797 23.9602 17.0199 25.5949 19.9676 27.9229C20.1507 25.4428 20.7167 23.0094 21.6437 20.7725Z" fill="#8697CB"/>
<path d="M51.4787 14.2749L41.9041 18.7394C40.6594 19.2753 39.4737 19.9654 38.3553 20.7725C39.2834 23.0094 39.8483 25.4428 40.0314 27.9229C42.9791 25.5949 46.4193 23.9592 49.9681 23.4429L52.2516 23.1097L51.4787 14.2749Z" fill="#894B9D"/>
<path d="M28.5386 41.9507L29.8174 50.7266L30.0005 50.9718L30.1837 50.7266L31.4625 41.9507C32.2457 36.5788 35.57 31.4491 40.0324 27.9241C39.7293 23.8165 38.406 19.8187 36.0604 16.6723L29.9995 8.01855L23.9396 16.6723C21.593 19.8187 20.2707 23.8165 19.9676 27.9241C24.431 31.4481 27.7554 36.5778 28.5386 41.9507Z" fill="#ED7161"/>
</svg>
