<svg width="162" height="163" viewBox="0 0 162 163" fill="none" xmlns="http://www.w3.org/2000/svg">
<circle cx="10" cy="10" r="10" fill="#A567C6"/>
<circle cx="10" cy="80" r="10" fill="#A567C6"/>
<line x1="10" y1="20" x2="10" y2="70" stroke="#A567C6" stroke-width="2"/>
<circle cx="10" cy="150" r="10" fill="#A567C6"/>
<line x1="10" y1="90" x2="10" y2="140" stroke="#A567C6" stroke-width="2"/>
<path d="M35.3828 13.125C35.3828 12.8594 35.3411 12.625 35.2578 12.4219C35.1797 12.2135 35.0391 12.026 34.8359 11.8594C34.638 11.6927 34.362 11.5339 34.0078 11.3828C33.6589 11.2318 33.2161 11.0781 32.6797 10.9219C32.1172 10.7552 31.6094 10.5703 31.1562 10.3672C30.7031 10.1589 30.3151 9.92188 29.9922 9.65625C29.6693 9.39062 29.4219 9.08594 29.25 8.74219C29.0781 8.39844 28.9922 8.00521 28.9922 7.5625C28.9922 7.11979 29.0833 6.71094 29.2656 6.33594C29.4479 5.96094 29.7083 5.63542 30.0469 5.35938C30.3906 5.07812 30.7995 4.85938 31.2734 4.70312C31.7474 4.54688 32.276 4.46875 32.8594 4.46875C33.7135 4.46875 34.4375 4.63281 35.0312 4.96094C35.6302 5.28385 36.0859 5.70833 36.3984 6.23438C36.7109 6.75521 36.8672 7.3125 36.8672 7.90625H35.3672C35.3672 7.47917 35.276 7.10156 35.0938 6.77344C34.9115 6.4401 34.6354 6.17969 34.2656 5.99219C33.8958 5.79948 33.4271 5.70312 32.8594 5.70312C32.3229 5.70312 31.8802 5.78385 31.5312 5.94531C31.1823 6.10677 30.9219 6.32552 30.75 6.60156C30.5833 6.8776 30.5 7.19271 30.5 7.54688C30.5 7.78646 30.5495 8.00521 30.6484 8.20312C30.7526 8.39583 30.9115 8.57552 31.125 8.74219C31.3438 8.90885 31.6198 9.0625 31.9531 9.20312C32.2917 9.34375 32.6953 9.47917 33.1641 9.60938C33.8099 9.79167 34.3672 9.99479 34.8359 10.2188C35.3047 10.4427 35.6901 10.6953 35.9922 10.9766C36.2995 11.2526 36.526 11.5677 36.6719 11.9219C36.8229 12.2708 36.8984 12.6667 36.8984 13.1094C36.8984 13.5729 36.8047 13.9922 36.6172 14.3672C36.4297 14.7422 36.1615 15.0625 35.8125 15.3281C35.4635 15.5938 35.0443 15.7995 34.5547 15.9453C34.0703 16.0859 33.5286 16.1562 32.9297 16.1562C32.4036 16.1562 31.8854 16.0833 31.375 15.9375C30.8698 15.7917 30.4089 15.5729 29.9922 15.2812C29.5807 14.9896 29.25 14.6302 29 14.2031C28.7552 13.7708 28.6328 13.2708 28.6328 12.7031H30.1328C30.1328 13.0938 30.2083 13.4297 30.3594 13.7109C30.5104 13.987 30.7161 14.2161 30.9766 14.3984C31.2422 14.5807 31.5417 14.7161 31.875 14.8047C32.2135 14.888 32.5651 14.9297 32.9297 14.9297C33.4557 14.9297 33.901 14.8568 34.2656 14.7109C34.6302 14.5651 34.9062 14.3568 35.0938 14.0859C35.2865 13.8151 35.3828 13.4948 35.3828 13.125ZM40.0469 4V16H38.6016V4H40.0469ZM39.7031 11.4531L39.1016 11.4297C39.1068 10.8516 39.1927 10.3177 39.3594 9.82812C39.526 9.33333 39.7604 8.90365 40.0625 8.53906C40.3646 8.17448 40.724 7.89323 41.1406 7.69531C41.5625 7.49219 42.0286 7.39062 42.5391 7.39062C42.9557 7.39062 43.3307 7.44792 43.6641 7.5625C43.9974 7.67188 44.2812 7.84896 44.5156 8.09375C44.7552 8.33854 44.9375 8.65625 45.0625 9.04688C45.1875 9.43229 45.25 9.90365 45.25 10.4609V16H43.7969V10.4453C43.7969 10.0026 43.7318 9.64844 43.6016 9.38281C43.4714 9.11198 43.2812 8.91667 43.0312 8.79688C42.7812 8.67188 42.474 8.60938 42.1094 8.60938C41.75 8.60938 41.4219 8.6849 41.125 8.83594C40.8333 8.98698 40.5807 9.19531 40.3672 9.46094C40.1589 9.72656 39.9948 10.0312 39.875 10.375C39.7604 10.7135 39.7031 11.0729 39.7031 11.4531ZM47.0312 11.8672V11.6875C47.0312 11.0781 47.1198 10.513 47.2969 9.99219C47.474 9.46615 47.7292 9.01042 48.0625 8.625C48.3958 8.23438 48.7995 7.93229 49.2734 7.71875C49.7474 7.5 50.2786 7.39062 50.8672 7.39062C51.4609 7.39062 51.9948 7.5 52.4688 7.71875C52.9479 7.93229 53.3542 8.23438 53.6875 8.625C54.026 9.01042 54.2839 9.46615 54.4609 9.99219C54.638 10.513 54.7266 11.0781 54.7266 11.6875V11.8672C54.7266 12.4766 54.638 13.0417 54.4609 13.5625C54.2839 14.0833 54.026 14.5391 53.6875 14.9297C53.3542 15.3151 52.9505 15.6172 52.4766 15.8359C52.0078 16.0495 51.4766 16.1562 50.8828 16.1562C50.2891 16.1562 49.7552 16.0495 49.2812 15.8359C48.8073 15.6172 48.401 15.3151 48.0625 14.9297C47.7292 14.5391 47.474 14.0833 47.2969 13.5625C47.1198 13.0417 47.0312 12.4766 47.0312 11.8672ZM48.4766 11.6875V11.8672C48.4766 12.2891 48.526 12.6875 48.625 13.0625C48.724 13.4323 48.8724 13.7604 49.0703 14.0469C49.2734 14.3333 49.526 14.5599 49.8281 14.7266C50.1302 14.888 50.4818 14.9688 50.8828 14.9688C51.2786 14.9688 51.625 14.888 51.9219 14.7266C52.224 14.5599 52.474 14.3333 52.6719 14.0469C52.8698 13.7604 53.0182 13.4323 53.1172 13.0625C53.2214 12.6875 53.2734 12.2891 53.2734 11.8672V11.6875C53.2734 11.2708 53.2214 10.8776 53.1172 10.5078C53.0182 10.1328 52.8672 9.80208 52.6641 9.51562C52.4661 9.22396 52.2161 8.99479 51.9141 8.82812C51.6172 8.66146 51.2682 8.57812 50.8672 8.57812C50.4714 8.57812 50.1224 8.66146 49.8203 8.82812C49.5234 8.99479 49.2734 9.22396 49.0703 9.51562C48.8724 9.80208 48.724 10.1328 48.625 10.5078C48.526 10.8776 48.4766 11.2708 48.4766 11.6875ZM57.9844 9.17188V19.25H56.5312V7.54688H57.8594L57.9844 9.17188ZM63.6797 11.7031V11.8672C63.6797 12.4818 63.6068 13.0521 63.4609 13.5781C63.3151 14.099 63.1016 14.5521 62.8203 14.9375C62.5443 15.3229 62.2031 15.6224 61.7969 15.8359C61.3906 16.0495 60.9245 16.1562 60.3984 16.1562C59.862 16.1562 59.388 16.0677 58.9766 15.8906C58.5651 15.7135 58.2161 15.4557 57.9297 15.1172C57.6432 14.7786 57.4141 14.3724 57.2422 13.8984C57.0755 13.4245 56.9609 12.8906 56.8984 12.2969V11.4219C56.9609 10.7969 57.0781 10.237 57.25 9.74219C57.4219 9.2474 57.6484 8.82552 57.9297 8.47656C58.2161 8.1224 58.5625 7.85417 58.9688 7.67188C59.375 7.48438 59.8438 7.39062 60.375 7.39062C60.9062 7.39062 61.3776 7.49479 61.7891 7.70312C62.2005 7.90625 62.5469 8.19792 62.8281 8.57812C63.1094 8.95833 63.3203 9.41406 63.4609 9.94531C63.6068 10.4714 63.6797 11.0573 63.6797 11.7031ZM62.2266 11.8672V11.7031C62.2266 11.2812 62.1823 10.8854 62.0938 10.5156C62.0052 10.1406 61.8672 9.8125 61.6797 9.53125C61.4974 9.24479 61.263 9.02083 60.9766 8.85938C60.6901 8.69271 60.349 8.60938 59.9531 8.60938C59.5885 8.60938 59.2708 8.67188 59 8.79688C58.7344 8.92188 58.5078 9.09115 58.3203 9.30469C58.1328 9.51302 57.9792 9.7526 57.8594 10.0234C57.7448 10.2891 57.6589 10.5651 57.6016 10.8516V12.875C57.7057 13.2396 57.8516 13.5833 58.0391 13.9062C58.2266 14.224 58.4766 14.4818 58.7891 14.6797C59.1016 14.8724 59.4948 14.9688 59.9688 14.9688C60.3594 14.9688 60.6953 14.888 60.9766 14.7266C61.263 14.5599 61.4974 14.3333 61.6797 14.0469C61.8672 13.7604 62.0052 13.4323 62.0938 13.0625C62.1823 12.6875 62.2266 12.2891 62.2266 11.8672ZM66.75 4V5C66.75 5.3125 66.6953 5.64323 66.5859 5.99219C66.4818 6.33594 66.3281 6.66927 66.125 6.99219C65.9219 7.3099 65.6771 7.58854 65.3906 7.82812L64.5625 7.25781C64.8073 6.91406 64.9922 6.5625 65.1172 6.20312C65.2474 5.83854 65.3125 5.44531 65.3125 5.02344V4H66.75ZM72.5391 13.7578C72.5391 13.5495 72.4922 13.3568 72.3984 13.1797C72.3099 12.9974 72.125 12.8333 71.8438 12.6875C71.5677 12.5365 71.151 12.4062 70.5938 12.2969C70.125 12.1979 69.7005 12.0807 69.3203 11.9453C68.9453 11.8099 68.625 11.6458 68.3594 11.4531C68.099 11.2604 67.8984 11.0339 67.7578 10.7734C67.6172 10.513 67.5469 10.2083 67.5469 9.85938C67.5469 9.52604 67.6198 9.21094 67.7656 8.91406C67.9167 8.61719 68.1276 8.35417 68.3984 8.125C68.6745 7.89583 69.0052 7.71615 69.3906 7.58594C69.776 7.45573 70.2057 7.39062 70.6797 7.39062C71.3568 7.39062 71.9349 7.51042 72.4141 7.75C72.8932 7.98958 73.2604 8.3099 73.5156 8.71094C73.7708 9.10677 73.8984 9.54688 73.8984 10.0312H72.4531C72.4531 9.79688 72.3828 9.57031 72.2422 9.35156C72.1068 9.1276 71.9062 8.94271 71.6406 8.79688C71.3802 8.65104 71.0599 8.57812 70.6797 8.57812C70.2786 8.57812 69.9531 8.64062 69.7031 8.76562C69.4583 8.88542 69.2786 9.03906 69.1641 9.22656C69.0547 9.41406 69 9.61198 69 9.82031C69 9.97656 69.026 10.1172 69.0781 10.2422C69.1354 10.362 69.2344 10.474 69.375 10.5781C69.5156 10.6771 69.7135 10.7708 69.9688 10.8594C70.224 10.9479 70.5495 11.0365 70.9453 11.125C71.638 11.2812 72.2083 11.4688 72.6562 11.6875C73.1042 11.9062 73.4375 12.1745 73.6562 12.4922C73.875 12.8099 73.9844 13.1953 73.9844 13.6484C73.9844 14.0182 73.9062 14.3568 73.75 14.6641C73.599 14.9714 73.3776 15.237 73.0859 15.4609C72.7995 15.6797 72.4557 15.8516 72.0547 15.9766C71.6589 16.0964 71.2135 16.1562 70.7188 16.1562C69.974 16.1562 69.3438 16.0234 68.8281 15.7578C68.3125 15.4922 67.9219 15.1484 67.6562 14.7266C67.3906 14.3047 67.2578 13.8594 67.2578 13.3906H68.7109C68.7318 13.7865 68.8464 14.1016 69.0547 14.3359C69.263 14.5651 69.5182 14.7292 69.8203 14.8281C70.1224 14.9219 70.4219 14.9688 70.7188 14.9688C71.1146 14.9688 71.4453 14.9167 71.7109 14.8125C71.9818 14.7083 72.1875 14.5651 72.3281 14.3828C72.4688 14.2005 72.5391 13.9922 72.5391 13.7578ZM81.4219 7.54688V16H79.9688V7.54688H81.4219ZM79.8594 5.30469C79.8594 5.07031 79.9297 4.8724 80.0703 4.71094C80.2161 4.54948 80.4297 4.46875 80.7109 4.46875C80.987 4.46875 81.1979 4.54948 81.3438 4.71094C81.4948 4.8724 81.5703 5.07031 81.5703 5.30469C81.5703 5.52865 81.4948 5.72135 81.3438 5.88281C81.1979 6.03906 80.987 6.11719 80.7109 6.11719C80.4297 6.11719 80.2161 6.03906 80.0703 5.88281C79.9297 5.72135 79.8594 5.52865 79.8594 5.30469ZM85.1875 9.35156V16H83.7422V7.54688H85.1094L85.1875 9.35156ZM84.8438 11.4531L84.2422 11.4297C84.2474 10.8516 84.3333 10.3177 84.5 9.82812C84.6667 9.33333 84.901 8.90365 85.2031 8.53906C85.5052 8.17448 85.8646 7.89323 86.2812 7.69531C86.7031 7.49219 87.1693 7.39062 87.6797 7.39062C88.0964 7.39062 88.4714 7.44792 88.8047 7.5625C89.138 7.67188 89.4219 7.84896 89.6562 8.09375C89.8958 8.33854 90.0781 8.65625 90.2031 9.04688C90.3281 9.43229 90.3906 9.90365 90.3906 10.4609V16H88.9375V10.4453C88.9375 10.0026 88.8724 9.64844 88.7422 9.38281C88.612 9.11198 88.4219 8.91667 88.1719 8.79688C87.9219 8.67188 87.6146 8.60938 87.25 8.60938C86.8906 8.60938 86.5625 8.6849 86.2656 8.83594C85.974 8.98698 85.7214 9.19531 85.5078 9.46094C85.2995 9.72656 85.1354 10.0312 85.0156 10.375C84.901 10.7135 84.8438 11.0729 84.8438 11.4531ZM94.7422 16H93.2969V6.65625C93.2969 6.04688 93.4062 5.53385 93.625 5.11719C93.849 4.69531 94.1693 4.3776 94.5859 4.16406C95.0026 3.94531 95.4974 3.83594 96.0703 3.83594C96.237 3.83594 96.4036 3.84635 96.5703 3.86719C96.7422 3.88802 96.9089 3.91927 97.0703 3.96094L96.9922 5.14062C96.8828 5.11458 96.7578 5.09635 96.6172 5.08594C96.4818 5.07552 96.3464 5.07031 96.2109 5.07031C95.9036 5.07031 95.638 5.13281 95.4141 5.25781C95.1953 5.3776 95.0286 5.55469 94.9141 5.78906C94.7995 6.02344 94.7422 6.3125 94.7422 6.65625V16ZM96.5391 7.54688V8.65625H91.9609V7.54688H96.5391ZM97.7656 11.8672V11.6875C97.7656 11.0781 97.8542 10.513 98.0312 9.99219C98.2083 9.46615 98.4635 9.01042 98.7969 8.625C99.1302 8.23438 99.5339 7.93229 100.008 7.71875C100.482 7.5 101.013 7.39062 101.602 7.39062C102.195 7.39062 102.729 7.5 103.203 7.71875C103.682 7.93229 104.089 8.23438 104.422 8.625C104.76 9.01042 105.018 9.46615 105.195 9.99219C105.372 10.513 105.461 11.0781 105.461 11.6875V11.8672C105.461 12.4766 105.372 13.0417 105.195 13.5625C105.018 14.0833 104.76 14.5391 104.422 14.9297C104.089 15.3151 103.685 15.6172 103.211 15.8359C102.742 16.0495 102.211 16.1562 101.617 16.1562C101.023 16.1562 100.49 16.0495 100.016 15.8359C99.5417 15.6172 99.1354 15.3151 98.7969 14.9297C98.4635 14.5391 98.2083 14.0833 98.0312 13.5625C97.8542 13.0417 97.7656 12.4766 97.7656 11.8672ZM99.2109 11.6875V11.8672C99.2109 12.2891 99.2604 12.6875 99.3594 13.0625C99.4583 13.4323 99.6068 13.7604 99.8047 14.0469C100.008 14.3333 100.26 14.5599 100.562 14.7266C100.865 14.888 101.216 14.9688 101.617 14.9688C102.013 14.9688 102.359 14.888 102.656 14.7266C102.958 14.5599 103.208 14.3333 103.406 14.0469C103.604 13.7604 103.753 13.4323 103.852 13.0625C103.956 12.6875 104.008 12.2891 104.008 11.8672V11.6875C104.008 11.2708 103.956 10.8776 103.852 10.5078C103.753 10.1328 103.602 9.80208 103.398 9.51562C103.201 9.22396 102.951 8.99479 102.648 8.82812C102.352 8.66146 102.003 8.57812 101.602 8.57812C101.206 8.57812 100.857 8.66146 100.555 8.82812C100.258 8.99479 100.008 9.22396 99.8047 9.51562C99.6068 9.80208 99.4583 10.1328 99.3594 10.5078C99.2604 10.8776 99.2109 11.2708 99.2109 11.6875ZM108.719 8.875V16H107.273V7.54688H108.68L108.719 8.875ZM111.359 7.5L111.352 8.84375C111.232 8.81771 111.117 8.80208 111.008 8.79688C110.904 8.78646 110.784 8.78125 110.648 8.78125C110.315 8.78125 110.021 8.83333 109.766 8.9375C109.51 9.04167 109.294 9.1875 109.117 9.375C108.94 9.5625 108.799 9.78646 108.695 10.0469C108.596 10.3021 108.531 10.5833 108.5 10.8906L108.094 11.125C108.094 10.6146 108.143 10.1354 108.242 9.6875C108.346 9.23958 108.505 8.84375 108.719 8.5C108.932 8.15104 109.203 7.88021 109.531 7.6875C109.865 7.48958 110.26 7.39062 110.719 7.39062C110.823 7.39062 110.943 7.40365 111.078 7.42969C111.214 7.45052 111.307 7.47396 111.359 7.5ZM114.133 9.22656V16H112.68V7.54688H114.055L114.133 9.22656ZM113.836 11.4531L113.164 11.4297C113.169 10.8516 113.245 10.3177 113.391 9.82812C113.536 9.33333 113.753 8.90365 114.039 8.53906C114.326 8.17448 114.682 7.89323 115.109 7.69531C115.536 7.49219 116.031 7.39062 116.594 7.39062C116.99 7.39062 117.354 7.44792 117.688 7.5625C118.021 7.67188 118.31 7.84635 118.555 8.08594C118.799 8.32552 118.99 8.63281 119.125 9.00781C119.26 9.38281 119.328 9.83594 119.328 10.3672V16H117.883V10.4375C117.883 9.99479 117.807 9.64062 117.656 9.375C117.51 9.10938 117.302 8.91667 117.031 8.79688C116.76 8.67188 116.443 8.60938 116.078 8.60938C115.651 8.60938 115.294 8.6849 115.008 8.83594C114.721 8.98698 114.492 9.19531 114.32 9.46094C114.148 9.72656 114.023 10.0312 113.945 10.375C113.872 10.7135 113.836 11.0729 113.836 11.4531ZM119.312 10.6562L118.344 10.9531C118.349 10.4896 118.424 10.0443 118.57 9.61719C118.721 9.1901 118.938 8.8099 119.219 8.47656C119.505 8.14323 119.857 7.88021 120.273 7.6875C120.69 7.48958 121.167 7.39062 121.703 7.39062C122.156 7.39062 122.557 7.45052 122.906 7.57031C123.26 7.6901 123.557 7.875 123.797 8.125C124.042 8.36979 124.227 8.6849 124.352 9.07031C124.477 9.45573 124.539 9.91406 124.539 10.4453V16H123.086V10.4297C123.086 9.95573 123.01 9.58854 122.859 9.32812C122.714 9.0625 122.505 8.8776 122.234 8.77344C121.969 8.66406 121.651 8.60938 121.281 8.60938C120.964 8.60938 120.682 8.66406 120.438 8.77344C120.193 8.88281 119.987 9.03385 119.82 9.22656C119.654 9.41406 119.526 9.63021 119.438 9.875C119.354 10.1198 119.312 10.3802 119.312 10.6562ZM131.711 14.5547V10.2031C131.711 9.86979 131.643 9.58073 131.508 9.33594C131.378 9.08594 131.18 8.89323 130.914 8.75781C130.648 8.6224 130.32 8.55469 129.93 8.55469C129.565 8.55469 129.245 8.61719 128.969 8.74219C128.698 8.86719 128.484 9.03125 128.328 9.23438C128.177 9.4375 128.102 9.65625 128.102 9.89062H126.656C126.656 9.58854 126.734 9.28906 126.891 8.99219C127.047 8.69531 127.271 8.42708 127.562 8.1875C127.859 7.94271 128.214 7.75 128.625 7.60938C129.042 7.46354 129.505 7.39062 130.016 7.39062C130.63 7.39062 131.172 7.49479 131.641 7.70312C132.115 7.91146 132.484 8.22656 132.75 8.64844C133.021 9.0651 133.156 9.58854 133.156 10.2188V14.1562C133.156 14.4375 133.18 14.737 133.227 15.0547C133.279 15.3724 133.354 15.6458 133.453 15.875V16H131.945C131.872 15.8333 131.815 15.612 131.773 15.3359C131.732 15.0547 131.711 14.7943 131.711 14.5547ZM131.961 10.875L131.977 11.8906H130.516C130.104 11.8906 129.737 11.9245 129.414 11.9922C129.091 12.0547 128.82 12.151 128.602 12.2812C128.383 12.4115 128.216 12.5755 128.102 12.7734C127.987 12.9661 127.93 13.1927 127.93 13.4531C127.93 13.7188 127.99 13.9609 128.109 14.1797C128.229 14.3984 128.409 14.5729 128.648 14.7031C128.893 14.8281 129.193 14.8906 129.547 14.8906C129.99 14.8906 130.38 14.7969 130.719 14.6094C131.057 14.4219 131.326 14.1927 131.523 13.9219C131.727 13.651 131.836 13.388 131.852 13.1328L132.469 13.8281C132.432 14.0469 132.333 14.2891 132.172 14.5547C132.01 14.8203 131.794 15.0755 131.523 15.3203C131.258 15.5599 130.94 15.7604 130.57 15.9219C130.206 16.0781 129.794 16.1562 129.336 16.1562C128.763 16.1562 128.26 16.0443 127.828 15.8203C127.401 15.5964 127.068 15.2969 126.828 14.9219C126.594 14.5417 126.477 14.1172 126.477 13.6484C126.477 13.1953 126.565 12.7969 126.742 12.4531C126.919 12.1042 127.174 11.8151 127.508 11.5859C127.841 11.3516 128.242 11.1745 128.711 11.0547C129.18 10.9349 129.703 10.875 130.281 10.875H131.961ZM138.969 7.54688V8.65625H134.398V7.54688H138.969ZM135.945 5.49219H137.391V13.9062C137.391 14.1927 137.435 14.4089 137.523 14.5547C137.612 14.7005 137.727 14.7969 137.867 14.8438C138.008 14.8906 138.159 14.9141 138.32 14.9141C138.44 14.9141 138.565 14.9036 138.695 14.8828C138.831 14.8568 138.932 14.8359 139 14.8203L139.008 16C138.893 16.0365 138.742 16.0703 138.555 16.1016C138.372 16.138 138.151 16.1562 137.891 16.1562C137.536 16.1562 137.211 16.0859 136.914 15.9453C136.617 15.8047 136.38 15.5703 136.203 15.2422C136.031 14.9089 135.945 14.4609 135.945 13.8984V5.49219ZM142.234 7.54688V16H140.781V7.54688H142.234ZM140.672 5.30469C140.672 5.07031 140.742 4.8724 140.883 4.71094C141.029 4.54948 141.242 4.46875 141.523 4.46875C141.799 4.46875 142.01 4.54948 142.156 4.71094C142.307 4.8724 142.383 5.07031 142.383 5.30469C142.383 5.52865 142.307 5.72135 142.156 5.88281C142.01 6.03906 141.799 6.11719 141.523 6.11719C141.242 6.11719 141.029 6.03906 140.883 5.88281C140.742 5.72135 140.672 5.52865 140.672 5.30469ZM144.172 11.8672V11.6875C144.172 11.0781 144.26 10.513 144.438 9.99219C144.615 9.46615 144.87 9.01042 145.203 8.625C145.536 8.23438 145.94 7.93229 146.414 7.71875C146.888 7.5 147.419 7.39062 148.008 7.39062C148.602 7.39062 149.135 7.5 149.609 7.71875C150.089 7.93229 150.495 8.23438 150.828 8.625C151.167 9.01042 151.424 9.46615 151.602 9.99219C151.779 10.513 151.867 11.0781 151.867 11.6875V11.8672C151.867 12.4766 151.779 13.0417 151.602 13.5625C151.424 14.0833 151.167 14.5391 150.828 14.9297C150.495 15.3151 150.091 15.6172 149.617 15.8359C149.148 16.0495 148.617 16.1562 148.023 16.1562C147.43 16.1562 146.896 16.0495 146.422 15.8359C145.948 15.6172 145.542 15.3151 145.203 14.9297C144.87 14.5391 144.615 14.0833 144.438 13.5625C144.26 13.0417 144.172 12.4766 144.172 11.8672ZM145.617 11.6875V11.8672C145.617 12.2891 145.667 12.6875 145.766 13.0625C145.865 13.4323 146.013 13.7604 146.211 14.0469C146.414 14.3333 146.667 14.5599 146.969 14.7266C147.271 14.888 147.622 14.9688 148.023 14.9688C148.419 14.9688 148.766 14.888 149.062 14.7266C149.365 14.5599 149.615 14.3333 149.812 14.0469C150.01 13.7604 150.159 13.4323 150.258 13.0625C150.362 12.6875 150.414 12.2891 150.414 11.8672V11.6875C150.414 11.2708 150.362 10.8776 150.258 10.5078C150.159 10.1328 150.008 9.80208 149.805 9.51562C149.607 9.22396 149.357 8.99479 149.055 8.82812C148.758 8.66146 148.409 8.57812 148.008 8.57812C147.612 8.57812 147.263 8.66146 146.961 8.82812C146.664 8.99479 146.414 9.22396 146.211 9.51562C146.013 9.80208 145.865 10.1328 145.766 10.5078C145.667 10.8776 145.617 11.2708 145.617 11.6875ZM155.125 9.35156V16H153.68V7.54688H155.047L155.125 9.35156ZM154.781 11.4531L154.18 11.4297C154.185 10.8516 154.271 10.3177 154.438 9.82812C154.604 9.33333 154.839 8.90365 155.141 8.53906C155.443 8.17448 155.802 7.89323 156.219 7.69531C156.641 7.49219 157.107 7.39062 157.617 7.39062C158.034 7.39062 158.409 7.44792 158.742 7.5625C159.076 7.67188 159.359 7.84896 159.594 8.09375C159.833 8.33854 160.016 8.65625 160.141 9.04688C160.266 9.43229 160.328 9.90365 160.328 10.4609V16H158.875V10.4453C158.875 10.0026 158.81 9.64844 158.68 9.38281C158.549 9.11198 158.359 8.91667 158.109 8.79688C157.859 8.67188 157.552 8.60938 157.188 8.60938C156.828 8.60938 156.5 8.6849 156.203 8.83594C155.911 8.98698 155.659 9.19531 155.445 9.46094C155.237 9.72656 155.073 10.0312 154.953 10.375C154.839 10.7135 154.781 11.0729 154.781 11.4531Z" fill="black"/>
<path d="M35.3828 81.125C35.3828 80.8594 35.3411 80.625 35.2578 80.4219C35.1797 80.2135 35.0391 80.026 34.8359 79.8594C34.638 79.6927 34.362 79.5339 34.0078 79.3828C33.6589 79.2318 33.2161 79.0781 32.6797 78.9219C32.1172 78.7552 31.6094 78.5703 31.1562 78.3672C30.7031 78.1589 30.3151 77.9219 29.9922 77.6562C29.6693 77.3906 29.4219 77.0859 29.25 76.7422C29.0781 76.3984 28.9922 76.0052 28.9922 75.5625C28.9922 75.1198 29.0833 74.7109 29.2656 74.3359C29.4479 73.9609 29.7083 73.6354 30.0469 73.3594C30.3906 73.0781 30.7995 72.8594 31.2734 72.7031C31.7474 72.5469 32.276 72.4688 32.8594 72.4688C33.7135 72.4688 34.4375 72.6328 35.0312 72.9609C35.6302 73.2839 36.0859 73.7083 36.3984 74.2344C36.7109 74.7552 36.8672 75.3125 36.8672 75.9062H35.3672C35.3672 75.4792 35.276 75.1016 35.0938 74.7734C34.9115 74.4401 34.6354 74.1797 34.2656 73.9922C33.8958 73.7995 33.4271 73.7031 32.8594 73.7031C32.3229 73.7031 31.8802 73.7839 31.5312 73.9453C31.1823 74.1068 30.9219 74.3255 30.75 74.6016C30.5833 74.8776 30.5 75.1927 30.5 75.5469C30.5 75.7865 30.5495 76.0052 30.6484 76.2031C30.7526 76.3958 30.9115 76.5755 31.125 76.7422C31.3438 76.9089 31.6198 77.0625 31.9531 77.2031C32.2917 77.3438 32.6953 77.4792 33.1641 77.6094C33.8099 77.7917 34.3672 77.9948 34.8359 78.2188C35.3047 78.4427 35.6901 78.6953 35.9922 78.9766C36.2995 79.2526 36.526 79.5677 36.6719 79.9219C36.8229 80.2708 36.8984 80.6667 36.8984 81.1094C36.8984 81.5729 36.8047 81.9922 36.6172 82.3672C36.4297 82.7422 36.1615 83.0625 35.8125 83.3281C35.4635 83.5938 35.0443 83.7995 34.5547 83.9453C34.0703 84.0859 33.5286 84.1562 32.9297 84.1562C32.4036 84.1562 31.8854 84.0833 31.375 83.9375C30.8698 83.7917 30.4089 83.5729 29.9922 83.2812C29.5807 82.9896 29.25 82.6302 29 82.2031C28.7552 81.7708 28.6328 81.2708 28.6328 80.7031H30.1328C30.1328 81.0938 30.2083 81.4297 30.3594 81.7109C30.5104 81.987 30.7161 82.2161 30.9766 82.3984C31.2422 82.5807 31.5417 82.7161 31.875 82.8047C32.2135 82.888 32.5651 82.9297 32.9297 82.9297C33.4557 82.9297 33.901 82.8568 34.2656 82.7109C34.6302 82.5651 34.9062 82.3568 35.0938 82.0859C35.2865 81.8151 35.3828 81.4948 35.3828 81.125ZM40.0469 72V84H38.6016V72H40.0469ZM39.7031 79.4531L39.1016 79.4297C39.1068 78.8516 39.1927 78.3177 39.3594 77.8281C39.526 77.3333 39.7604 76.9036 40.0625 76.5391C40.3646 76.1745 40.724 75.8932 41.1406 75.6953C41.5625 75.4922 42.0286 75.3906 42.5391 75.3906C42.9557 75.3906 43.3307 75.4479 43.6641 75.5625C43.9974 75.6719 44.2812 75.849 44.5156 76.0938C44.7552 76.3385 44.9375 76.6562 45.0625 77.0469C45.1875 77.4323 45.25 77.9036 45.25 78.4609V84H43.7969V78.4453C43.7969 78.0026 43.7318 77.6484 43.6016 77.3828C43.4714 77.112 43.2812 76.9167 43.0312 76.7969C42.7812 76.6719 42.474 76.6094 42.1094 76.6094C41.75 76.6094 41.4219 76.6849 41.125 76.8359C40.8333 76.987 40.5807 77.1953 40.3672 77.4609C40.1589 77.7266 39.9948 78.0312 39.875 78.375C39.7604 78.7135 39.7031 79.0729 39.7031 79.4531ZM48.9844 75.5469V84H47.5312V75.5469H48.9844ZM47.4219 73.3047C47.4219 73.0703 47.4922 72.8724 47.6328 72.7109C47.7786 72.5495 47.9922 72.4688 48.2734 72.4688C48.5495 72.4688 48.7604 72.5495 48.9062 72.7109C49.0573 72.8724 49.1328 73.0703 49.1328 73.3047C49.1328 73.5286 49.0573 73.7214 48.9062 73.8828C48.7604 74.0391 48.5495 74.1172 48.2734 74.1172C47.9922 74.1172 47.7786 74.0391 47.6328 73.8828C47.4922 73.7214 47.4219 73.5286 47.4219 73.3047ZM52.75 77.1719V87.25H51.2969V75.5469H52.625L52.75 77.1719ZM58.4453 79.7031V79.8672C58.4453 80.4818 58.3724 81.0521 58.2266 81.5781C58.0807 82.099 57.8672 82.5521 57.5859 82.9375C57.3099 83.3229 56.9688 83.6224 56.5625 83.8359C56.1562 84.0495 55.6901 84.1562 55.1641 84.1562C54.6276 84.1562 54.1536 84.0677 53.7422 83.8906C53.3307 83.7135 52.9818 83.4557 52.6953 83.1172C52.4089 82.7786 52.1797 82.3724 52.0078 81.8984C51.8411 81.4245 51.7266 80.8906 51.6641 80.2969V79.4219C51.7266 78.7969 51.8438 78.237 52.0156 77.7422C52.1875 77.2474 52.4141 76.8255 52.6953 76.4766C52.9818 76.1224 53.3281 75.8542 53.7344 75.6719C54.1406 75.4844 54.6094 75.3906 55.1406 75.3906C55.6719 75.3906 56.1432 75.4948 56.5547 75.7031C56.9661 75.9062 57.3125 76.1979 57.5938 76.5781C57.875 76.9583 58.0859 77.4141 58.2266 77.9453C58.3724 78.4714 58.4453 79.0573 58.4453 79.7031ZM56.9922 79.8672V79.7031C56.9922 79.2812 56.9479 78.8854 56.8594 78.5156C56.7708 78.1406 56.6328 77.8125 56.4453 77.5312C56.263 77.2448 56.0286 77.0208 55.7422 76.8594C55.4557 76.6927 55.1146 76.6094 54.7188 76.6094C54.3542 76.6094 54.0365 76.6719 53.7656 76.7969C53.5 76.9219 53.2734 77.0911 53.0859 77.3047C52.8984 77.513 52.7448 77.7526 52.625 78.0234C52.5104 78.2891 52.4245 78.5651 52.3672 78.8516V80.875C52.4714 81.2396 52.6172 81.5833 52.8047 81.9062C52.9922 82.224 53.2422 82.4818 53.5547 82.6797C53.8672 82.8724 54.2604 82.9688 54.7344 82.9688C55.125 82.9688 55.4609 82.888 55.7422 82.7266C56.0286 82.5599 56.263 82.3333 56.4453 82.0469C56.6328 81.7604 56.7708 81.4323 56.8594 81.0625C56.9479 80.6875 56.9922 80.2891 56.9922 79.8672ZM61.7344 77.1719V87.25H60.2812V75.5469H61.6094L61.7344 77.1719ZM67.4297 79.7031V79.8672C67.4297 80.4818 67.3568 81.0521 67.2109 81.5781C67.0651 82.099 66.8516 82.5521 66.5703 82.9375C66.2943 83.3229 65.9531 83.6224 65.5469 83.8359C65.1406 84.0495 64.6745 84.1562 64.1484 84.1562C63.612 84.1562 63.138 84.0677 62.7266 83.8906C62.3151 83.7135 61.9661 83.4557 61.6797 83.1172C61.3932 82.7786 61.1641 82.3724 60.9922 81.8984C60.8255 81.4245 60.7109 80.8906 60.6484 80.2969V79.4219C60.7109 78.7969 60.8281 78.237 61 77.7422C61.1719 77.2474 61.3984 76.8255 61.6797 76.4766C61.9661 76.1224 62.3125 75.8542 62.7188 75.6719C63.125 75.4844 63.5938 75.3906 64.125 75.3906C64.6562 75.3906 65.1276 75.4948 65.5391 75.7031C65.9505 75.9062 66.2969 76.1979 66.5781 76.5781C66.8594 76.9583 67.0703 77.4141 67.2109 77.9453C67.3568 78.4714 67.4297 79.0573 67.4297 79.7031ZM65.9766 79.8672V79.7031C65.9766 79.2812 65.9323 78.8854 65.8438 78.5156C65.7552 78.1406 65.6172 77.8125 65.4297 77.5312C65.2474 77.2448 65.013 77.0208 64.7266 76.8594C64.4401 76.6927 64.099 76.6094 63.7031 76.6094C63.3385 76.6094 63.0208 76.6719 62.75 76.7969C62.4844 76.9219 62.2578 77.0911 62.0703 77.3047C61.8828 77.513 61.7292 77.7526 61.6094 78.0234C61.4948 78.2891 61.4089 78.5651 61.3516 78.8516V80.875C61.4557 81.2396 61.6016 81.5833 61.7891 81.9062C61.9766 82.224 62.2266 82.4818 62.5391 82.6797C62.8516 82.8724 63.2448 82.9688 63.7188 82.9688C64.1094 82.9688 64.4453 82.888 64.7266 82.7266C65.013 82.5599 65.2474 82.3333 65.4297 82.0469C65.6172 81.7604 65.7552 81.4323 65.8438 81.0625C65.9323 80.6875 65.9766 80.2891 65.9766 79.8672ZM70.8438 75.5469V84H69.3906V75.5469H70.8438ZM69.2812 73.3047C69.2812 73.0703 69.3516 72.8724 69.4922 72.7109C69.638 72.5495 69.8516 72.4688 70.1328 72.4688C70.4089 72.4688 70.6198 72.5495 70.7656 72.7109C70.9167 72.8724 70.9922 73.0703 70.9922 73.3047C70.9922 73.5286 70.9167 73.7214 70.7656 73.8828C70.6198 74.0391 70.4089 74.1172 70.1328 74.1172C69.8516 74.1172 69.638 74.0391 69.4922 73.8828C69.3516 73.7214 69.2812 73.5286 69.2812 73.3047ZM74.6094 77.3516V84H73.1641V75.5469H74.5312L74.6094 77.3516ZM74.2656 79.4531L73.6641 79.4297C73.6693 78.8516 73.7552 78.3177 73.9219 77.8281C74.0885 77.3333 74.3229 76.9036 74.625 76.5391C74.9271 76.1745 75.2865 75.8932 75.7031 75.6953C76.125 75.4922 76.5911 75.3906 77.1016 75.3906C77.5182 75.3906 77.8932 75.4479 78.2266 75.5625C78.5599 75.6719 78.8438 75.849 79.0781 76.0938C79.3177 76.3385 79.5 76.6562 79.625 77.0469C79.75 77.4323 79.8125 77.9036 79.8125 78.4609V84H78.3594V78.4453C78.3594 78.0026 78.2943 77.6484 78.1641 77.3828C78.0339 77.112 77.8438 76.9167 77.5938 76.7969C77.3438 76.6719 77.0365 76.6094 76.6719 76.6094C76.3125 76.6094 75.9844 76.6849 75.6875 76.8359C75.3958 76.987 75.1432 77.1953 74.9297 77.4609C74.7214 77.7266 74.5573 78.0312 74.4375 78.375C74.3229 78.7135 74.2656 79.0729 74.2656 79.4531ZM87.4844 75.5469H88.7969V83.8203C88.7969 84.5651 88.6458 85.2005 88.3438 85.7266C88.0417 86.2526 87.6198 86.651 87.0781 86.9219C86.5417 87.1979 85.9219 87.3359 85.2188 87.3359C84.9271 87.3359 84.5833 87.2891 84.1875 87.1953C83.7969 87.1068 83.4115 86.9531 83.0312 86.7344C82.6562 86.5208 82.3411 86.2318 82.0859 85.8672L82.8438 85.0078C83.1979 85.4349 83.5677 85.7318 83.9531 85.8984C84.3438 86.0651 84.7292 86.1484 85.1094 86.1484C85.5677 86.1484 85.9635 86.0625 86.2969 85.8906C86.6302 85.7188 86.888 85.4635 87.0703 85.125C87.2578 84.7917 87.3516 84.3802 87.3516 83.8906V77.4062L87.4844 75.5469ZM81.6641 79.8672V79.7031C81.6641 79.0573 81.7396 78.4714 81.8906 77.9453C82.0469 77.4141 82.2682 76.9583 82.5547 76.5781C82.8464 76.1979 83.1979 75.9062 83.6094 75.7031C84.0208 75.4948 84.4844 75.3906 85 75.3906C85.5312 75.3906 85.9948 75.4844 86.3906 75.6719C86.7917 75.8542 87.1302 76.1224 87.4062 76.4766C87.6875 76.8255 87.9089 77.2474 88.0703 77.7422C88.2318 78.237 88.3438 78.7969 88.4062 79.4219V80.1406C88.349 80.7604 88.237 81.3177 88.0703 81.8125C87.9089 82.3073 87.6875 82.7292 87.4062 83.0781C87.1302 83.4271 86.7917 83.6953 86.3906 83.8828C85.9896 84.0651 85.5208 84.1562 84.9844 84.1562C84.4792 84.1562 84.0208 84.0495 83.6094 83.8359C83.2031 83.6224 82.8542 83.3229 82.5625 82.9375C82.2708 82.5521 82.0469 82.099 81.8906 81.5781C81.7396 81.0521 81.6641 80.4818 81.6641 79.8672ZM83.1094 79.7031V79.8672C83.1094 80.2891 83.151 80.6849 83.2344 81.0547C83.3229 81.4245 83.4557 81.75 83.6328 82.0312C83.8151 82.3125 84.0469 82.5339 84.3281 82.6953C84.6094 82.8516 84.9453 82.9297 85.3359 82.9297C85.8151 82.9297 86.2109 82.8281 86.5234 82.625C86.8359 82.4219 87.0833 82.1536 87.2656 81.8203C87.4531 81.487 87.599 81.125 87.7031 80.7344V78.8516C87.6458 78.5651 87.5573 78.2891 87.4375 78.0234C87.3229 77.7526 87.1719 77.513 86.9844 77.3047C86.8021 77.0911 86.5755 76.9219 86.3047 76.7969C86.0339 76.6719 85.7161 76.6094 85.3516 76.6094C84.9557 76.6094 84.6146 76.6927 84.3281 76.8594C84.0469 77.0208 83.8151 77.2448 83.6328 77.5312C83.4557 77.8125 83.3229 78.1406 83.2344 78.5156C83.151 78.8854 83.1094 79.2812 83.1094 79.7031ZM101.242 81.125C101.242 80.8594 101.201 80.625 101.117 80.4219C101.039 80.2135 100.898 80.026 100.695 79.8594C100.497 79.6927 100.221 79.5339 99.8672 79.3828C99.5182 79.2318 99.0755 79.0781 98.5391 78.9219C97.9766 78.7552 97.4688 78.5703 97.0156 78.3672C96.5625 78.1589 96.1745 77.9219 95.8516 77.6562C95.5286 77.3906 95.2812 77.0859 95.1094 76.7422C94.9375 76.3984 94.8516 76.0052 94.8516 75.5625C94.8516 75.1198 94.9427 74.7109 95.125 74.3359C95.3073 73.9609 95.5677 73.6354 95.9062 73.3594C96.25 73.0781 96.6589 72.8594 97.1328 72.7031C97.6068 72.5469 98.1354 72.4688 98.7188 72.4688C99.5729 72.4688 100.297 72.6328 100.891 72.9609C101.49 73.2839 101.945 73.7083 102.258 74.2344C102.57 74.7552 102.727 75.3125 102.727 75.9062H101.227C101.227 75.4792 101.135 75.1016 100.953 74.7734C100.771 74.4401 100.495 74.1797 100.125 73.9922C99.7552 73.7995 99.2865 73.7031 98.7188 73.7031C98.1823 73.7031 97.7396 73.7839 97.3906 73.9453C97.0417 74.1068 96.7812 74.3255 96.6094 74.6016C96.4427 74.8776 96.3594 75.1927 96.3594 75.5469C96.3594 75.7865 96.4089 76.0052 96.5078 76.2031C96.612 76.3958 96.7708 76.5755 96.9844 76.7422C97.2031 76.9089 97.4792 77.0625 97.8125 77.2031C98.151 77.3438 98.5547 77.4792 99.0234 77.6094C99.6693 77.7917 100.227 77.9948 100.695 78.2188C101.164 78.4427 101.549 78.6953 101.852 78.9766C102.159 79.2526 102.385 79.5677 102.531 79.9219C102.682 80.2708 102.758 80.6667 102.758 81.1094C102.758 81.5729 102.664 81.9922 102.477 82.3672C102.289 82.7422 102.021 83.0625 101.672 83.3281C101.323 83.5938 100.904 83.7995 100.414 83.9453C99.9297 84.0859 99.388 84.1562 98.7891 84.1562C98.263 84.1562 97.7448 84.0833 97.2344 83.9375C96.7292 83.7917 96.2682 83.5729 95.8516 83.2812C95.4401 82.9896 95.1094 82.6302 94.8594 82.2031C94.6146 81.7708 94.4922 81.2708 94.4922 80.7031H95.9922C95.9922 81.0938 96.0677 81.4297 96.2188 81.7109C96.3698 81.987 96.5755 82.2161 96.8359 82.3984C97.1016 82.5807 97.401 82.7161 97.7344 82.8047C98.0729 82.888 98.4245 82.9297 98.7891 82.9297C99.3151 82.9297 99.7604 82.8568 100.125 82.7109C100.49 82.5651 100.766 82.3568 100.953 82.0859C101.146 81.8151 101.242 81.4948 101.242 81.125ZM107.969 84.1562C107.38 84.1562 106.846 84.0573 106.367 83.8594C105.893 83.6562 105.484 83.3724 105.141 83.0078C104.802 82.6432 104.542 82.2109 104.359 81.7109C104.177 81.2109 104.086 80.6641 104.086 80.0703V79.7422C104.086 79.0547 104.188 78.4427 104.391 77.9062C104.594 77.3646 104.87 76.9062 105.219 76.5312C105.568 76.1562 105.964 75.8724 106.406 75.6797C106.849 75.487 107.307 75.3906 107.781 75.3906C108.385 75.3906 108.906 75.4948 109.344 75.7031C109.786 75.9115 110.148 76.2031 110.43 76.5781C110.711 76.9479 110.919 77.3854 111.055 77.8906C111.19 78.3906 111.258 78.9375 111.258 79.5312V80.1797H104.945V79H109.812V78.8906C109.792 78.5156 109.714 78.151 109.578 77.7969C109.448 77.4427 109.24 77.151 108.953 76.9219C108.667 76.6927 108.276 76.5781 107.781 76.5781C107.453 76.5781 107.151 76.6484 106.875 76.7891C106.599 76.9245 106.362 77.1276 106.164 77.3984C105.966 77.6693 105.812 78 105.703 78.3906C105.594 78.7812 105.539 79.2318 105.539 79.7422V80.0703C105.539 80.4714 105.594 80.849 105.703 81.2031C105.818 81.5521 105.982 81.8594 106.195 82.125C106.414 82.3906 106.677 82.599 106.984 82.75C107.297 82.901 107.651 82.9766 108.047 82.9766C108.557 82.9766 108.99 82.8724 109.344 82.6641C109.698 82.4557 110.008 82.1771 110.273 81.8281L111.148 82.5234C110.966 82.7995 110.734 83.0625 110.453 83.3125C110.172 83.5625 109.826 83.7656 109.414 83.9219C109.008 84.0781 108.526 84.1562 107.969 84.1562ZM116.484 75.5469V76.6562H111.914V75.5469H116.484ZM113.461 73.4922H114.906V81.9062C114.906 82.1927 114.951 82.4089 115.039 82.5547C115.128 82.7005 115.242 82.7969 115.383 82.8438C115.523 82.8906 115.674 82.9141 115.836 82.9141C115.956 82.9141 116.081 82.9036 116.211 82.8828C116.346 82.8568 116.448 82.8359 116.516 82.8203L116.523 84C116.409 84.0365 116.258 84.0703 116.07 84.1016C115.888 84.138 115.667 84.1562 115.406 84.1562C115.052 84.1562 114.727 84.0859 114.43 83.9453C114.133 83.8047 113.896 83.5703 113.719 83.2422C113.547 82.9089 113.461 82.4609 113.461 81.8984V73.4922ZM121.719 75.5469V76.6562H117.148V75.5469H121.719ZM118.695 73.4922H120.141V81.9062C120.141 82.1927 120.185 82.4089 120.273 82.5547C120.362 82.7005 120.477 82.7969 120.617 82.8438C120.758 82.8906 120.909 82.9141 121.07 82.9141C121.19 82.9141 121.315 82.9036 121.445 82.8828C121.581 82.8568 121.682 82.8359 121.75 82.8203L121.758 84C121.643 84.0365 121.492 84.0703 121.305 84.1016C121.122 84.138 120.901 84.1562 120.641 84.1562C120.286 84.1562 119.961 84.0859 119.664 83.9453C119.367 83.8047 119.13 83.5703 118.953 83.2422C118.781 82.9089 118.695 82.4609 118.695 81.8984V73.4922ZM124.984 75.5469V84H123.531V75.5469H124.984ZM123.422 73.3047C123.422 73.0703 123.492 72.8724 123.633 72.7109C123.779 72.5495 123.992 72.4688 124.273 72.4688C124.549 72.4688 124.76 72.5495 124.906 72.7109C125.057 72.8724 125.133 73.0703 125.133 73.3047C125.133 73.5286 125.057 73.7214 124.906 73.8828C124.76 74.0391 124.549 74.1172 124.273 74.1172C123.992 74.1172 123.779 74.0391 123.633 73.8828C123.492 73.7214 123.422 73.5286 123.422 73.3047ZM128.75 77.3516V84H127.305V75.5469H128.672L128.75 77.3516ZM128.406 79.4531L127.805 79.4297C127.81 78.8516 127.896 78.3177 128.062 77.8281C128.229 77.3333 128.464 76.9036 128.766 76.5391C129.068 76.1745 129.427 75.8932 129.844 75.6953C130.266 75.4922 130.732 75.3906 131.242 75.3906C131.659 75.3906 132.034 75.4479 132.367 75.5625C132.701 75.6719 132.984 75.849 133.219 76.0938C133.458 76.3385 133.641 76.6562 133.766 77.0469C133.891 77.4323 133.953 77.9036 133.953 78.4609V84H132.5V78.4453C132.5 78.0026 132.435 77.6484 132.305 77.3828C132.174 77.112 131.984 76.9167 131.734 76.7969C131.484 76.6719 131.177 76.6094 130.812 76.6094C130.453 76.6094 130.125 76.6849 129.828 76.8359C129.536 76.987 129.284 77.1953 129.07 77.4609C128.862 77.7266 128.698 78.0312 128.578 78.375C128.464 78.7135 128.406 79.0729 128.406 79.4531ZM141.625 75.5469H142.938V83.8203C142.938 84.5651 142.786 85.2005 142.484 85.7266C142.182 86.2526 141.76 86.651 141.219 86.9219C140.682 87.1979 140.062 87.3359 139.359 87.3359C139.068 87.3359 138.724 87.2891 138.328 87.1953C137.938 87.1068 137.552 86.9531 137.172 86.7344C136.797 86.5208 136.482 86.2318 136.227 85.8672L136.984 85.0078C137.339 85.4349 137.708 85.7318 138.094 85.8984C138.484 86.0651 138.87 86.1484 139.25 86.1484C139.708 86.1484 140.104 86.0625 140.438 85.8906C140.771 85.7188 141.029 85.4635 141.211 85.125C141.398 84.7917 141.492 84.3802 141.492 83.8906V77.4062L141.625 75.5469ZM135.805 79.8672V79.7031C135.805 79.0573 135.88 78.4714 136.031 77.9453C136.188 77.4141 136.409 76.9583 136.695 76.5781C136.987 76.1979 137.339 75.9062 137.75 75.7031C138.161 75.4948 138.625 75.3906 139.141 75.3906C139.672 75.3906 140.135 75.4844 140.531 75.6719C140.932 75.8542 141.271 76.1224 141.547 76.4766C141.828 76.8255 142.049 77.2474 142.211 77.7422C142.372 78.237 142.484 78.7969 142.547 79.4219V80.1406C142.49 80.7604 142.378 81.3177 142.211 81.8125C142.049 82.3073 141.828 82.7292 141.547 83.0781C141.271 83.4271 140.932 83.6953 140.531 83.8828C140.13 84.0651 139.661 84.1562 139.125 84.1562C138.62 84.1562 138.161 84.0495 137.75 83.8359C137.344 83.6224 136.995 83.3229 136.703 82.9375C136.411 82.5521 136.188 82.099 136.031 81.5781C135.88 81.0521 135.805 80.4818 135.805 79.8672ZM137.25 79.7031V79.8672C137.25 80.2891 137.292 80.6849 137.375 81.0547C137.464 81.4245 137.596 81.75 137.773 82.0312C137.956 82.3125 138.188 82.5339 138.469 82.6953C138.75 82.8516 139.086 82.9297 139.477 82.9297C139.956 82.9297 140.352 82.8281 140.664 82.625C140.977 82.4219 141.224 82.1536 141.406 81.8203C141.594 81.487 141.74 81.125 141.844 80.7344V78.8516C141.786 78.5651 141.698 78.2891 141.578 78.0234C141.464 77.7526 141.312 77.513 141.125 77.3047C140.943 77.0911 140.716 76.9219 140.445 76.7969C140.174 76.6719 139.857 76.6094 139.492 76.6094C139.096 76.6094 138.755 76.6927 138.469 76.8594C138.188 77.0208 137.956 77.2448 137.773 77.5312C137.596 77.8125 137.464 78.1406 137.375 78.5156C137.292 78.8854 137.25 79.2812 137.25 79.7031ZM150.055 81.7578C150.055 81.5495 150.008 81.3568 149.914 81.1797C149.826 80.9974 149.641 80.8333 149.359 80.6875C149.083 80.5365 148.667 80.4062 148.109 80.2969C147.641 80.1979 147.216 80.0807 146.836 79.9453C146.461 79.8099 146.141 79.6458 145.875 79.4531C145.615 79.2604 145.414 79.0339 145.273 78.7734C145.133 78.513 145.062 78.2083 145.062 77.8594C145.062 77.526 145.135 77.2109 145.281 76.9141C145.432 76.6172 145.643 76.3542 145.914 76.125C146.19 75.8958 146.521 75.7161 146.906 75.5859C147.292 75.4557 147.721 75.3906 148.195 75.3906C148.872 75.3906 149.451 75.5104 149.93 75.75C150.409 75.9896 150.776 76.3099 151.031 76.7109C151.286 77.1068 151.414 77.5469 151.414 78.0312H149.969C149.969 77.7969 149.898 77.5703 149.758 77.3516C149.622 77.1276 149.422 76.9427 149.156 76.7969C148.896 76.651 148.576 76.5781 148.195 76.5781C147.794 76.5781 147.469 76.6406 147.219 76.7656C146.974 76.8854 146.794 77.0391 146.68 77.2266C146.57 77.4141 146.516 77.612 146.516 77.8203C146.516 77.9766 146.542 78.1172 146.594 78.2422C146.651 78.362 146.75 78.474 146.891 78.5781C147.031 78.6771 147.229 78.7708 147.484 78.8594C147.74 78.9479 148.065 79.0365 148.461 79.125C149.154 79.2812 149.724 79.4688 150.172 79.6875C150.62 79.9062 150.953 80.1745 151.172 80.4922C151.391 80.8099 151.5 81.1953 151.5 81.6484C151.5 82.0182 151.422 82.3568 151.266 82.6641C151.115 82.9714 150.893 83.237 150.602 83.4609C150.315 83.6797 149.971 83.8516 149.57 83.9766C149.174 84.0964 148.729 84.1562 148.234 84.1562C147.49 84.1562 146.859 84.0234 146.344 83.7578C145.828 83.4922 145.438 83.1484 145.172 82.7266C144.906 82.3047 144.773 81.8594 144.773 81.3906H146.227C146.247 81.7865 146.362 82.1016 146.57 82.3359C146.779 82.5651 147.034 82.7292 147.336 82.8281C147.638 82.9219 147.938 82.9688 148.234 82.9688C148.63 82.9688 148.961 82.9167 149.227 82.8125C149.497 82.7083 149.703 82.5651 149.844 82.3828C149.984 82.2005 150.055 81.9922 150.055 81.7578Z" fill="black"/>
<path d="M37.5117 153.283H40.4316C40.373 154.24 40.1094 155.09 39.6406 155.832C39.1784 156.574 38.5306 157.154 37.6973 157.57C36.8704 157.987 35.8743 158.195 34.709 158.195C33.7975 158.195 32.9805 158.039 32.2578 157.727C31.5352 157.408 30.9167 156.952 30.4023 156.359C29.8945 155.767 29.5072 155.051 29.2402 154.211C28.9733 153.371 28.8398 152.43 28.8398 151.389V150.402C28.8398 149.361 28.9766 148.42 29.25 147.58C29.5299 146.734 29.9271 146.014 30.4414 145.422C30.9622 144.829 31.584 144.374 32.3066 144.055C33.0293 143.736 33.8366 143.576 34.7285 143.576C35.9134 143.576 36.9128 143.791 37.7266 144.221C38.5469 144.65 39.1816 145.243 39.6309 145.998C40.0866 146.753 40.36 147.613 40.4512 148.576H37.5215C37.4889 148.003 37.375 147.518 37.1797 147.121C36.9844 146.717 36.6882 146.415 36.291 146.213C35.9004 146.005 35.3796 145.9 34.7285 145.9C34.2402 145.9 33.8138 145.992 33.4492 146.174C33.0846 146.356 32.7786 146.633 32.5312 147.004C32.2839 147.375 32.0983 147.844 31.9746 148.41C31.8574 148.97 31.7988 149.628 31.7988 150.383V151.389C31.7988 152.124 31.8542 152.772 31.9648 153.332C32.0755 153.885 32.2448 154.354 32.4727 154.738C32.707 155.116 33.0065 155.402 33.3711 155.598C33.7422 155.786 34.1882 155.881 34.709 155.881C35.321 155.881 35.8255 155.783 36.2227 155.588C36.6198 155.393 36.9225 155.103 37.1309 154.719C37.3457 154.335 37.4727 153.856 37.5117 153.283ZM41.7305 152.824V152.619C41.7305 151.844 41.8411 151.132 42.0625 150.48C42.2839 149.823 42.6061 149.253 43.0293 148.771C43.4525 148.29 43.9733 147.915 44.5918 147.648C45.2103 147.375 45.9199 147.238 46.7207 147.238C47.5215 147.238 48.2344 147.375 48.8594 147.648C49.4844 147.915 50.0085 148.29 50.4316 148.771C50.8613 149.253 51.1868 149.823 51.4082 150.48C51.6296 151.132 51.7402 151.844 51.7402 152.619V152.824C51.7402 153.592 51.6296 154.305 51.4082 154.963C51.1868 155.614 50.8613 156.184 50.4316 156.672C50.0085 157.154 49.4876 157.528 48.8691 157.795C48.2507 158.062 47.541 158.195 46.7402 158.195C45.9395 158.195 45.2266 158.062 44.6016 157.795C43.9831 157.528 43.459 157.154 43.0293 156.672C42.6061 156.184 42.2839 155.614 42.0625 154.963C41.8411 154.305 41.7305 153.592 41.7305 152.824ZM44.543 152.619V152.824C44.543 153.267 44.582 153.68 44.6602 154.064C44.7383 154.449 44.862 154.787 45.0312 155.08C45.207 155.367 45.4349 155.591 45.7148 155.754C45.9948 155.917 46.3366 155.998 46.7402 155.998C47.1309 155.998 47.4661 155.917 47.7461 155.754C48.026 155.591 48.2507 155.367 48.4199 155.08C48.5892 154.787 48.7129 154.449 48.791 154.064C48.8757 153.68 48.918 153.267 48.918 152.824V152.619C48.918 152.189 48.8757 151.786 48.791 151.408C48.7129 151.024 48.5859 150.686 48.4102 150.393C48.2409 150.093 48.0163 149.859 47.7363 149.689C47.4564 149.52 47.1178 149.436 46.7207 149.436C46.3236 149.436 45.985 149.52 45.7051 149.689C45.4316 149.859 45.207 150.093 45.0312 150.393C44.862 150.686 44.7383 151.024 44.6602 151.408C44.582 151.786 44.543 152.189 44.543 152.619ZM56.2812 149.621V158H53.459V147.434H56.1055L56.2812 149.621ZM55.8906 152.346H55.1094C55.1094 151.61 55.1973 150.933 55.373 150.314C55.5553 149.689 55.819 149.149 56.1641 148.693C56.5156 148.231 56.9486 147.873 57.4629 147.619C57.9772 147.365 58.5729 147.238 59.25 147.238C59.7188 147.238 60.1484 147.31 60.5391 147.453C60.9297 147.59 61.265 147.808 61.5449 148.107C61.8314 148.4 62.0527 148.785 62.209 149.26C62.3652 149.729 62.4434 150.292 62.4434 150.949V158H59.6309V151.262C59.6309 150.78 59.5658 150.409 59.4355 150.148C59.3053 149.888 59.1198 149.706 58.8789 149.602C58.6445 149.497 58.3613 149.445 58.0293 149.445C57.6647 149.445 57.3457 149.52 57.0723 149.67C56.8053 149.82 56.584 150.028 56.4082 150.295C56.2324 150.555 56.1022 150.861 56.0176 151.213C55.9329 151.564 55.8906 151.942 55.8906 152.346ZM62.1797 152.023L61.1738 152.15C61.1738 151.46 61.2585 150.819 61.4277 150.227C61.6035 149.634 61.8607 149.113 62.1992 148.664C62.5443 148.215 62.9707 147.867 63.4785 147.619C63.9863 147.365 64.5723 147.238 65.2363 147.238C65.7441 147.238 66.2064 147.313 66.623 147.463C67.0397 147.606 67.3945 147.837 67.6875 148.156C67.987 148.469 68.2148 148.879 68.3711 149.387C68.5339 149.895 68.6152 150.516 68.6152 151.252V158H65.793V151.252C65.793 150.764 65.7279 150.393 65.5977 150.139C65.474 149.878 65.2917 149.699 65.0508 149.602C64.8164 149.497 64.5365 149.445 64.2109 149.445C63.8724 149.445 63.5762 149.514 63.3223 149.65C63.0684 149.781 62.8568 149.963 62.6875 150.197C62.5182 150.432 62.3913 150.705 62.3066 151.018C62.222 151.324 62.1797 151.659 62.1797 152.023ZM73.6055 149.465V162.062H70.793V147.434H73.4004L73.6055 149.465ZM80.2949 152.6V152.805C80.2949 153.573 80.2038 154.286 80.0215 154.943C79.8457 155.601 79.5853 156.174 79.2402 156.662C78.8952 157.144 78.4655 157.521 77.9512 157.795C77.4434 158.062 76.8574 158.195 76.1934 158.195C75.5488 158.195 74.9889 158.065 74.5137 157.805C74.0384 157.544 73.638 157.18 73.3125 156.711C72.9935 156.236 72.7363 155.686 72.541 155.061C72.3457 154.436 72.196 153.765 72.0918 153.049V152.512C72.196 151.743 72.3457 151.04 72.541 150.402C72.7363 149.758 72.9935 149.201 73.3125 148.732C73.638 148.257 74.0352 147.889 74.5039 147.629C74.9792 147.368 75.5358 147.238 76.1738 147.238C76.8444 147.238 77.4336 147.365 77.9414 147.619C78.4557 147.873 78.8854 148.238 79.2305 148.713C79.582 149.188 79.8457 149.755 80.0215 150.412C80.2038 151.07 80.2949 151.799 80.2949 152.6ZM77.4727 152.805V152.6C77.4727 152.15 77.4336 151.737 77.3555 151.359C77.2839 150.975 77.1667 150.64 77.0039 150.354C76.8477 150.067 76.6393 149.846 76.3789 149.689C76.125 149.527 75.8158 149.445 75.4512 149.445C75.0671 149.445 74.7383 149.507 74.4648 149.631C74.1979 149.755 73.9798 149.934 73.8105 150.168C73.6413 150.402 73.5143 150.682 73.4297 151.008C73.3451 151.333 73.293 151.701 73.2734 152.111V153.469C73.306 153.951 73.3971 154.383 73.5469 154.768C73.6966 155.145 73.9277 155.445 74.2402 155.666C74.5527 155.887 74.9629 155.998 75.4707 155.998C75.8418 155.998 76.1543 155.917 76.4082 155.754C76.6621 155.585 76.8672 155.354 77.0234 155.061C77.1862 154.768 77.3001 154.429 77.3652 154.045C77.4368 153.661 77.4727 153.247 77.4727 152.805ZM85.0117 143V158H82.1895V143H85.0117ZM92.1992 158.195C91.3789 158.195 90.6432 158.065 89.9922 157.805C89.3411 157.538 88.7878 157.17 88.332 156.701C87.8828 156.232 87.5378 155.689 87.2969 155.07C87.056 154.445 86.9355 153.781 86.9355 153.078V152.688C86.9355 151.887 87.0495 151.154 87.2773 150.49C87.5052 149.826 87.8307 149.25 88.2539 148.762C88.6836 148.273 89.2044 147.899 89.8164 147.639C90.4284 147.372 91.1185 147.238 91.8867 147.238C92.6354 147.238 93.2995 147.362 93.8789 147.609C94.4583 147.857 94.9434 148.208 95.334 148.664C95.7311 149.12 96.0306 149.667 96.2324 150.305C96.4342 150.936 96.5352 151.639 96.5352 152.414V153.586H88.1367V151.711H93.7715V151.496C93.7715 151.105 93.6999 150.757 93.5566 150.451C93.4199 150.139 93.2116 149.891 92.9316 149.709C92.6517 149.527 92.2936 149.436 91.8574 149.436C91.4863 149.436 91.1673 149.517 90.9004 149.68C90.6335 149.842 90.4154 150.07 90.2461 150.363C90.0833 150.656 89.9596 151.001 89.875 151.398C89.7969 151.789 89.7578 152.219 89.7578 152.688V153.078C89.7578 153.501 89.8164 153.892 89.9336 154.25C90.0573 154.608 90.2298 154.917 90.4512 155.178C90.679 155.438 90.9525 155.64 91.2715 155.783C91.597 155.926 91.9648 155.998 92.375 155.998C92.8828 155.998 93.3548 155.9 93.791 155.705C94.2337 155.503 94.6146 155.201 94.9336 154.797L96.3008 156.281C96.0794 156.6 95.7767 156.906 95.3926 157.199C95.015 157.492 94.5592 157.733 94.0254 157.922C93.4915 158.104 92.8828 158.195 92.1992 158.195ZM103.312 147.434V149.426H97.1602V147.434H103.312ZM98.6836 144.826H101.496V154.816C101.496 155.122 101.535 155.357 101.613 155.52C101.698 155.682 101.822 155.796 101.984 155.861C102.147 155.92 102.352 155.949 102.6 155.949C102.775 155.949 102.932 155.943 103.068 155.93C103.212 155.91 103.332 155.891 103.43 155.871L103.439 157.941C103.199 158.02 102.938 158.081 102.658 158.127C102.378 158.173 102.069 158.195 101.73 158.195C101.112 158.195 100.572 158.094 100.109 157.893C99.6536 157.684 99.3021 157.352 99.0547 156.896C98.8073 156.441 98.6836 155.842 98.6836 155.1V144.826ZM109.777 158.195C108.957 158.195 108.221 158.065 107.57 157.805C106.919 157.538 106.366 157.17 105.91 156.701C105.461 156.232 105.116 155.689 104.875 155.07C104.634 154.445 104.514 153.781 104.514 153.078V152.688C104.514 151.887 104.628 151.154 104.855 150.49C105.083 149.826 105.409 149.25 105.832 148.762C106.262 148.273 106.783 147.899 107.395 147.639C108.007 147.372 108.697 147.238 109.465 147.238C110.214 147.238 110.878 147.362 111.457 147.609C112.036 147.857 112.521 148.208 112.912 148.664C113.309 149.12 113.609 149.667 113.811 150.305C114.012 150.936 114.113 151.639 114.113 152.414V153.586H105.715V151.711H111.35V151.496C111.35 151.105 111.278 150.757 111.135 150.451C110.998 150.139 110.79 149.891 110.51 149.709C110.23 149.527 109.872 149.436 109.436 149.436C109.064 149.436 108.745 149.517 108.479 149.68C108.212 149.842 107.993 150.07 107.824 150.363C107.661 150.656 107.538 151.001 107.453 151.398C107.375 151.789 107.336 152.219 107.336 152.688V153.078C107.336 153.501 107.395 153.892 107.512 154.25C107.635 154.608 107.808 154.917 108.029 155.178C108.257 155.438 108.531 155.64 108.85 155.783C109.175 155.926 109.543 155.998 109.953 155.998C110.461 155.998 110.933 155.9 111.369 155.705C111.812 155.503 112.193 155.201 112.512 154.797L113.879 156.281C113.658 156.6 113.355 156.906 112.971 157.199C112.593 157.492 112.137 157.733 111.604 157.922C111.07 158.104 110.461 158.195 109.777 158.195Z" fill="#5E2A96"/>
</svg>
