<svg width="133" height="166" viewBox="0 0 133 166" fill="none" xmlns="http://www.w3.org/2000/svg">
<path d="M108 38.0833V8H24.6667V38.0833C24.6933 54.7143 30.935 70.7347 42.1667 83C30.935 95.2653 24.6933 111.286 24.6667 127.917V158H108V127.917C107.973 111.286 101.732 95.2653 90.5 83C101.732 70.7347 107.973 54.7143 108 38.0833Z" fill="#A567C6"/>
<path d="M90.5 83C101.732 95.2653 107.973 111.286 108 127.917V158H24.6667V127.917C24.6933 111.286 30.935 95.2653 42.1667 83C30.935 70.7347 24.6933 54.7143 24.6667 38.0833V8H108V38.0833C107.973 54.7143 101.732 70.7347 90.5 83ZM8 8H124.667H8ZM8 158H124.667H8Z" fill="#A567C6"/>
<path d="M8 8H124.667M8 158H124.667M108 38.0833V8H24.6667V38.0833C24.6933 54.7143 30.935 70.7347 42.1667 83C30.935 95.2653 24.6933 111.286 24.6667 127.917V158H108V127.917C107.973 111.286 101.732 95.2653 90.5 83C101.732 70.7347 107.973 54.7143 108 38.0833Z" stroke="#5E2A96" stroke-width="15" stroke-linecap="round"/>
</svg>
