<svg width="136" height="46" viewBox="0 0 136 46" fill="none" xmlns="http://www.w3.org/2000/svg">
<path d="M19.5078 27C19.5078 26.4219 19.4219 25.9062 19.25 25.4531C19.0781 24.9844 18.7656 24.5547 18.3125 24.1641C17.8594 23.7734 17.2188 23.3828 16.3906 22.9922C15.5625 22.5859 14.4766 22.1719 13.1328 21.75C11.6016 21.25 10.1406 20.6875 8.75 20.0625C7.375 19.4219 6.14844 18.6797 5.07031 17.8359C3.99219 16.9922 3.14062 16.0078 2.51562 14.8828C1.90625 13.7578 1.60156 12.4453 1.60156 10.9453C1.60156 9.49219 1.92188 8.17969 2.5625 7.00781C3.20312 5.83594 4.10156 4.83594 5.25781 4.00781C6.41406 3.16406 7.77344 2.52344 9.33594 2.08594C10.8984 1.63281 12.6172 1.40625 14.4922 1.40625C16.9922 1.40625 19.1875 1.85156 21.0781 2.74219C22.9844 3.61719 24.4688 4.85156 25.5312 6.44531C26.5938 8.02344 27.125 9.85938 27.125 11.9531H19.5312C19.5312 11.0312 19.3359 10.2188 18.9453 9.51562C18.5703 8.79688 17.9922 8.23438 17.2109 7.82812C16.4453 7.42188 15.4844 7.21875 14.3281 7.21875C13.2031 7.21875 12.2578 7.39062 11.4922 7.73438C10.7422 8.0625 10.1719 8.51562 9.78125 9.09375C9.40625 9.67188 9.21875 10.3047 9.21875 10.9922C9.21875 11.5391 9.35938 12.0391 9.64062 12.4922C9.9375 12.9297 10.3594 13.3438 10.9062 13.7344C11.4688 14.1094 12.1562 14.4688 12.9688 14.8125C13.7812 15.1562 14.7109 15.4844 15.7578 15.7969C17.5859 16.375 19.2031 17.0156 20.6094 17.7188C22.0312 18.4219 23.2266 19.2188 24.1953 20.1094C25.1641 21 25.8906 22.0078 26.375 23.1328C26.875 24.2578 27.125 25.5312 27.125 26.9531C27.125 28.4688 26.8281 29.8125 26.2344 30.9844C25.6562 32.1562 24.8125 33.1562 23.7031 33.9844C22.6094 34.7969 21.2969 35.4141 19.7656 35.8359C18.2344 36.2578 16.5234 36.4688 14.6328 36.4688C12.9141 36.4688 11.2188 36.25 9.54688 35.8125C7.875 35.3594 6.35938 34.6719 5 33.75C3.65625 32.8281 2.57812 31.6562 1.76562 30.2344C0.96875 28.7969 0.570312 27.0938 0.570312 25.125H8.21094C8.21094 26.1562 8.35938 27.0312 8.65625 27.75C8.95312 28.4531 9.375 29.0234 9.92188 29.4609C10.4844 29.8984 11.1641 30.2109 11.9609 30.3984C12.7578 30.5859 13.6484 30.6797 14.6328 30.6797C15.7734 30.6797 16.6953 30.5234 17.3984 30.2109C18.1172 29.8828 18.6484 29.4375 18.9922 28.875C19.3359 28.3125 19.5078 27.6875 19.5078 27ZM38.3984 0V36H31.0859V0H38.3984ZM37.4375 22.4297L35.6094 22.4766C35.6094 20.6953 35.8281 19.0625 36.2656 17.5781C36.7188 16.0781 37.3594 14.7734 38.1875 13.6641C39.0156 12.5547 40.0078 11.6953 41.1641 11.0859C42.3359 10.4766 43.625 10.1719 45.0312 10.1719C46.2812 10.1719 47.4219 10.3516 48.4531 10.7109C49.4844 11.0703 50.375 11.6406 51.125 12.4219C51.875 13.2031 52.4531 14.2266 52.8594 15.4922C53.2656 16.7578 53.4688 18.2969 53.4688 20.1094V36H46.1094V20.0625C46.1094 18.9844 45.9531 18.1406 45.6406 17.5312C45.3438 16.9219 44.9062 16.4922 44.3281 16.2422C43.7656 15.9922 43.0781 15.8672 42.2656 15.8672C41.3125 15.8672 40.5234 16.0391 39.8984 16.3828C39.2734 16.7109 38.7812 17.1719 38.4219 17.7656C38.0625 18.3594 37.8047 19.0547 37.6484 19.8516C37.5078 20.6484 37.4375 21.5078 37.4375 22.4297ZM57.1953 23.5781V23.0859C57.1953 21.2266 57.4609 19.5156 57.9922 17.9531C58.5234 16.375 59.3047 15.0078 60.3359 13.8516C61.3672 12.6953 62.6328 11.7969 64.1328 11.1562C65.6328 10.5 67.3516 10.1719 69.2891 10.1719C71.2578 10.1719 72.9922 10.5 74.4922 11.1562C76.0078 11.7969 77.2812 12.6953 78.3125 13.8516C79.3438 15.0078 80.125 16.375 80.6562 17.9531C81.1875 19.5156 81.4531 21.2266 81.4531 23.0859V23.5781C81.4531 25.4219 81.1875 27.1328 80.6562 28.7109C80.125 30.2734 79.3438 31.6406 78.3125 32.8125C77.2812 33.9688 76.0156 34.8672 74.5156 35.5078C73.0156 36.1484 71.2891 36.4688 69.3359 36.4688C67.3984 36.4688 65.6719 36.1484 64.1562 35.5078C62.6406 34.8672 61.3672 33.9688 60.3359 32.8125C59.3047 31.6406 58.5234 30.2734 57.9922 28.7109C57.4609 27.1328 57.1953 25.4219 57.1953 23.5781ZM64.5312 23.0859V23.5781C64.5312 24.5781 64.6094 25.5156 64.7656 26.3906C64.9375 27.2656 65.2109 28.0312 65.5859 28.6875C65.9609 29.3438 66.4531 29.8594 67.0625 30.2344C67.6875 30.5938 68.4453 30.7734 69.3359 30.7734C70.2266 30.7734 70.9766 30.5938 71.5859 30.2344C72.1953 29.8594 72.6875 29.3438 73.0625 28.6875C73.4375 28.0312 73.7031 27.2656 73.8594 26.3906C74.0312 25.5156 74.1172 24.5781 74.1172 23.5781V23.0859C74.1172 22.1016 74.0312 21.1797 73.8594 20.3203C73.7031 19.4453 73.4375 18.6719 73.0625 18C72.6875 17.3281 72.1875 16.8047 71.5625 16.4297C70.9531 16.0547 70.1953 15.8672 69.2891 15.8672C68.4141 15.8672 67.6719 16.0547 67.0625 16.4297C66.4531 16.8047 65.9609 17.3281 65.5859 18C65.2109 18.6719 64.9375 19.4453 64.7656 20.3203C64.6094 21.1797 64.5312 22.1016 64.5312 23.0859ZM92.6328 15.5156V45.75H85.3203V10.6406H92.1406L92.6328 15.5156ZM108.453 23.0391V23.5312C108.453 25.375 108.242 27.0859 107.82 28.6641C107.398 30.2266 106.766 31.5938 105.922 32.7656C105.094 33.9375 104.07 34.8516 102.852 35.5078C101.633 36.1484 100.219 36.4688 98.6094 36.4688C97.0781 36.4688 95.75 36.1484 94.625 35.5078C93.5156 34.8516 92.5781 33.9453 91.8125 32.7891C91.0625 31.6172 90.4531 30.2812 89.9844 28.7812C89.5312 27.2656 89.1797 25.6484 88.9297 23.9297V22.9688C89.1797 21.1406 89.5391 19.4453 90.0078 17.8828C90.4766 16.3203 91.0859 14.9688 91.8359 13.8281C92.5859 12.6719 93.5156 11.7734 94.625 11.1328C95.7344 10.4922 97.0547 10.1719 98.5859 10.1719C100.18 10.1719 101.594 10.4766 102.828 11.0859C104.062 11.6953 105.094 12.5703 105.922 13.7109C106.766 14.8359 107.398 16.1875 107.82 17.7656C108.242 19.3438 108.453 21.1016 108.453 23.0391ZM101.117 23.5312V23.0391C101.117 22.0078 101.039 21.0625 100.883 20.2031C100.727 19.3281 100.477 18.5703 100.133 17.9297C99.7891 17.2734 99.3359 16.7656 98.7734 16.4062C98.2109 16.0469 97.5234 15.8672 96.7109 15.8672C95.8359 15.8672 95.0938 16.0078 94.4844 16.2891C93.875 16.5703 93.3828 16.9844 93.0078 17.5312C92.6328 18.0625 92.3594 18.7188 92.1875 19.5C92.0312 20.2812 91.9453 21.1719 91.9297 22.1719V24.75C91.9453 25.9219 92.1094 26.9688 92.4219 27.8906C92.75 28.7969 93.2578 29.5078 93.9453 30.0234C94.6484 30.5234 95.5859 30.7734 96.7578 30.7734C97.5859 30.7734 98.2734 30.5938 98.8203 30.2344C99.3828 29.8594 99.8281 29.3359 100.156 28.6641C100.5 27.9922 100.742 27.2188 100.883 26.3438C101.039 25.4688 101.117 24.5312 101.117 23.5312ZM119.68 15.5156V45.75H112.367V10.6406H119.188L119.68 15.5156ZM135.5 23.0391V23.5312C135.5 25.375 135.289 27.0859 134.867 28.6641C134.445 30.2266 133.812 31.5938 132.969 32.7656C132.141 33.9375 131.117 34.8516 129.898 35.5078C128.68 36.1484 127.266 36.4688 125.656 36.4688C124.125 36.4688 122.797 36.1484 121.672 35.5078C120.562 34.8516 119.625 33.9453 118.859 32.7891C118.109 31.6172 117.5 30.2812 117.031 28.7812C116.578 27.2656 116.227 25.6484 115.977 23.9297V22.9688C116.227 21.1406 116.586 19.4453 117.055 17.8828C117.523 16.3203 118.133 14.9688 118.883 13.8281C119.633 12.6719 120.562 11.7734 121.672 11.1328C122.781 10.4922 124.102 10.1719 125.633 10.1719C127.227 10.1719 128.641 10.4766 129.875 11.0859C131.109 11.6953 132.141 12.5703 132.969 13.7109C133.812 14.8359 134.445 16.1875 134.867 17.7656C135.289 19.3438 135.5 21.1016 135.5 23.0391ZM128.164 23.5312V23.0391C128.164 22.0078 128.086 21.0625 127.93 20.2031C127.773 19.3281 127.523 18.5703 127.18 17.9297C126.836 17.2734 126.383 16.7656 125.82 16.4062C125.258 16.0469 124.57 15.8672 123.758 15.8672C122.883 15.8672 122.141 16.0078 121.531 16.2891C120.922 16.5703 120.43 16.9844 120.055 17.5312C119.68 18.0625 119.406 18.7188 119.234 19.5C119.078 20.2812 118.992 21.1719 118.977 22.1719V24.75C118.992 25.9219 119.156 26.9688 119.469 27.8906C119.797 28.7969 120.305 29.5078 120.992 30.0234C121.695 30.5234 122.633 30.7734 123.805 30.7734C124.633 30.7734 125.32 30.5938 125.867 30.2344C126.43 29.8594 126.875 29.3359 127.203 28.6641C127.547 27.9922 127.789 27.2188 127.93 26.3438C128.086 25.4688 128.164 24.5312 128.164 23.5312Z" fill="#5E2A96"/>
</svg>
