<svg width="188" height="160" viewBox="0 0 188 160" fill="none" xmlns="http://www.w3.org/2000/svg">
<circle cx="10" cy="10" r="10" fill="#A567C6"/>
<circle cx="10" cy="80" r="10" fill="#A567C6"/>
<line x1="10" y1="20" x2="10" y2="70" stroke="#A567C6" stroke-width="2"/>
<circle cx="10" cy="150" r="10" fill="#D9D9D9"/>
<line x1="10" y1="90" x2="10" y2="140" stroke="#D9D9D9" stroke-width="2"/>
<path d="M35.3828 13.125C35.3828 12.8594 35.3411 12.625 35.2578 12.4219C35.1797 12.2135 35.0391 12.026 34.8359 11.8594C34.638 11.6927 34.362 11.5339 34.0078 11.3828C33.6589 11.2318 33.2161 11.0781 32.6797 10.9219C32.1172 10.7552 31.6094 10.5703 31.1562 10.3672C30.7031 10.1589 30.3151 9.92188 29.9922 9.65625C29.6693 9.39062 29.4219 9.08594 29.25 8.74219C29.0781 8.39844 28.9922 8.00521 28.9922 7.5625C28.9922 7.11979 29.0833 6.71094 29.2656 6.33594C29.4479 5.96094 29.7083 5.63542 30.0469 5.35938C30.3906 5.07812 30.7995 4.85938 31.2734 4.70312C31.7474 4.54688 32.276 4.46875 32.8594 4.46875C33.7135 4.46875 34.4375 4.63281 35.0312 4.96094C35.6302 5.28385 36.0859 5.70833 36.3984 6.23438C36.7109 6.75521 36.8672 7.3125 36.8672 7.90625H35.3672C35.3672 7.47917 35.276 7.10156 35.0938 6.77344C34.9115 6.4401 34.6354 6.17969 34.2656 5.99219C33.8958 5.79948 33.4271 5.70312 32.8594 5.70312C32.3229 5.70312 31.8802 5.78385 31.5312 5.94531C31.1823 6.10677 30.9219 6.32552 30.75 6.60156C30.5833 6.8776 30.5 7.19271 30.5 7.54688C30.5 7.78646 30.5495 8.00521 30.6484 8.20312C30.7526 8.39583 30.9115 8.57552 31.125 8.74219C31.3438 8.90885 31.6198 9.0625 31.9531 9.20312C32.2917 9.34375 32.6953 9.47917 33.1641 9.60938C33.8099 9.79167 34.3672 9.99479 34.8359 10.2188C35.3047 10.4427 35.6901 10.6953 35.9922 10.9766C36.2995 11.2526 36.526 11.5677 36.6719 11.9219C36.8229 12.2708 36.8984 12.6667 36.8984 13.1094C36.8984 13.5729 36.8047 13.9922 36.6172 14.3672C36.4297 14.7422 36.1615 15.0625 35.8125 15.3281C35.4635 15.5938 35.0443 15.7995 34.5547 15.9453C34.0703 16.0859 33.5286 16.1562 32.9297 16.1562C32.4036 16.1562 31.8854 16.0833 31.375 15.9375C30.8698 15.7917 30.4089 15.5729 29.9922 15.2812C29.5807 14.9896 29.25 14.6302 29 14.2031C28.7552 13.7708 28.6328 13.2708 28.6328 12.7031H30.1328C30.1328 13.0938 30.2083 13.4297 30.3594 13.7109C30.5104 13.987 30.7161 14.2161 30.9766 14.3984C31.2422 14.5807 31.5417 14.7161 31.875 14.8047C32.2135 14.888 32.5651 14.9297 32.9297 14.9297C33.4557 14.9297 33.901 14.8568 34.2656 14.7109C34.6302 14.5651 34.9062 14.3568 35.0938 14.0859C35.2865 13.8151 35.3828 13.4948 35.3828 13.125ZM40.0469 4V16H38.6016V4H40.0469ZM39.7031 11.4531L39.1016 11.4297C39.1068 10.8516 39.1927 10.3177 39.3594 9.82812C39.526 9.33333 39.7604 8.90365 40.0625 8.53906C40.3646 8.17448 40.724 7.89323 41.1406 7.69531C41.5625 7.49219 42.0286 7.39062 42.5391 7.39062C42.9557 7.39062 43.3307 7.44792 43.6641 7.5625C43.9974 7.67188 44.2812 7.84896 44.5156 8.09375C44.7552 8.33854 44.9375 8.65625 45.0625 9.04688C45.1875 9.43229 45.25 9.90365 45.25 10.4609V16H43.7969V10.4453C43.7969 10.0026 43.7318 9.64844 43.6016 9.38281C43.4714 9.11198 43.2812 8.91667 43.0312 8.79688C42.7812 8.67188 42.474 8.60938 42.1094 8.60938C41.75 8.60938 41.4219 8.6849 41.125 8.83594C40.8333 8.98698 40.5807 9.19531 40.3672 9.46094C40.1589 9.72656 39.9948 10.0312 39.875 10.375C39.7604 10.7135 39.7031 11.0729 39.7031 11.4531ZM47.0312 11.8672V11.6875C47.0312 11.0781 47.1198 10.513 47.2969 9.99219C47.474 9.46615 47.7292 9.01042 48.0625 8.625C48.3958 8.23438 48.7995 7.93229 49.2734 7.71875C49.7474 7.5 50.2786 7.39062 50.8672 7.39062C51.4609 7.39062 51.9948 7.5 52.4688 7.71875C52.9479 7.93229 53.3542 8.23438 53.6875 8.625C54.026 9.01042 54.2839 9.46615 54.4609 9.99219C54.638 10.513 54.7266 11.0781 54.7266 11.6875V11.8672C54.7266 12.4766 54.638 13.0417 54.4609 13.5625C54.2839 14.0833 54.026 14.5391 53.6875 14.9297C53.3542 15.3151 52.9505 15.6172 52.4766 15.8359C52.0078 16.0495 51.4766 16.1562 50.8828 16.1562C50.2891 16.1562 49.7552 16.0495 49.2812 15.8359C48.8073 15.6172 48.401 15.3151 48.0625 14.9297C47.7292 14.5391 47.474 14.0833 47.2969 13.5625C47.1198 13.0417 47.0312 12.4766 47.0312 11.8672ZM48.4766 11.6875V11.8672C48.4766 12.2891 48.526 12.6875 48.625 13.0625C48.724 13.4323 48.8724 13.7604 49.0703 14.0469C49.2734 14.3333 49.526 14.5599 49.8281 14.7266C50.1302 14.888 50.4818 14.9688 50.8828 14.9688C51.2786 14.9688 51.625 14.888 51.9219 14.7266C52.224 14.5599 52.474 14.3333 52.6719 14.0469C52.8698 13.7604 53.0182 13.4323 53.1172 13.0625C53.2214 12.6875 53.2734 12.2891 53.2734 11.8672V11.6875C53.2734 11.2708 53.2214 10.8776 53.1172 10.5078C53.0182 10.1328 52.8672 9.80208 52.6641 9.51562C52.4661 9.22396 52.2161 8.99479 51.9141 8.82812C51.6172 8.66146 51.2682 8.57812 50.8672 8.57812C50.4714 8.57812 50.1224 8.66146 49.8203 8.82812C49.5234 8.99479 49.2734 9.22396 49.0703 9.51562C48.8724 9.80208 48.724 10.1328 48.625 10.5078C48.526 10.8776 48.4766 11.2708 48.4766 11.6875ZM57.9844 9.17188V19.25H56.5312V7.54688H57.8594L57.9844 9.17188ZM63.6797 11.7031V11.8672C63.6797 12.4818 63.6068 13.0521 63.4609 13.5781C63.3151 14.099 63.1016 14.5521 62.8203 14.9375C62.5443 15.3229 62.2031 15.6224 61.7969 15.8359C61.3906 16.0495 60.9245 16.1562 60.3984 16.1562C59.862 16.1562 59.388 16.0677 58.9766 15.8906C58.5651 15.7135 58.2161 15.4557 57.9297 15.1172C57.6432 14.7786 57.4141 14.3724 57.2422 13.8984C57.0755 13.4245 56.9609 12.8906 56.8984 12.2969V11.4219C56.9609 10.7969 57.0781 10.237 57.25 9.74219C57.4219 9.2474 57.6484 8.82552 57.9297 8.47656C58.2161 8.1224 58.5625 7.85417 58.9688 7.67188C59.375 7.48438 59.8438 7.39062 60.375 7.39062C60.9062 7.39062 61.3776 7.49479 61.7891 7.70312C62.2005 7.90625 62.5469 8.19792 62.8281 8.57812C63.1094 8.95833 63.3203 9.41406 63.4609 9.94531C63.6068 10.4714 63.6797 11.0573 63.6797 11.7031ZM62.2266 11.8672V11.7031C62.2266 11.2812 62.1823 10.8854 62.0938 10.5156C62.0052 10.1406 61.8672 9.8125 61.6797 9.53125C61.4974 9.24479 61.263 9.02083 60.9766 8.85938C60.6901 8.69271 60.349 8.60938 59.9531 8.60938C59.5885 8.60938 59.2708 8.67188 59 8.79688C58.7344 8.92188 58.5078 9.09115 58.3203 9.30469C58.1328 9.51302 57.9792 9.7526 57.8594 10.0234C57.7448 10.2891 57.6589 10.5651 57.6016 10.8516V12.875C57.7057 13.2396 57.8516 13.5833 58.0391 13.9062C58.2266 14.224 58.4766 14.4818 58.7891 14.6797C59.1016 14.8724 59.4948 14.9688 59.9688 14.9688C60.3594 14.9688 60.6953 14.888 60.9766 14.7266C61.263 14.5599 61.4974 14.3333 61.6797 14.0469C61.8672 13.7604 62.0052 13.4323 62.0938 13.0625C62.1823 12.6875 62.2266 12.2891 62.2266 11.8672ZM66.75 4V5C66.75 5.3125 66.6953 5.64323 66.5859 5.99219C66.4818 6.33594 66.3281 6.66927 66.125 6.99219C65.9219 7.3099 65.6771 7.58854 65.3906 7.82812L64.5625 7.25781C64.8073 6.91406 64.9922 6.5625 65.1172 6.20312C65.2474 5.83854 65.3125 5.44531 65.3125 5.02344V4H66.75ZM72.5391 13.7578C72.5391 13.5495 72.4922 13.3568 72.3984 13.1797C72.3099 12.9974 72.125 12.8333 71.8438 12.6875C71.5677 12.5365 71.151 12.4062 70.5938 12.2969C70.125 12.1979 69.7005 12.0807 69.3203 11.9453C68.9453 11.8099 68.625 11.6458 68.3594 11.4531C68.099 11.2604 67.8984 11.0339 67.7578 10.7734C67.6172 10.513 67.5469 10.2083 67.5469 9.85938C67.5469 9.52604 67.6198 9.21094 67.7656 8.91406C67.9167 8.61719 68.1276 8.35417 68.3984 8.125C68.6745 7.89583 69.0052 7.71615 69.3906 7.58594C69.776 7.45573 70.2057 7.39062 70.6797 7.39062C71.3568 7.39062 71.9349 7.51042 72.4141 7.75C72.8932 7.98958 73.2604 8.3099 73.5156 8.71094C73.7708 9.10677 73.8984 9.54688 73.8984 10.0312H72.4531C72.4531 9.79688 72.3828 9.57031 72.2422 9.35156C72.1068 9.1276 71.9062 8.94271 71.6406 8.79688C71.3802 8.65104 71.0599 8.57812 70.6797 8.57812C70.2786 8.57812 69.9531 8.64062 69.7031 8.76562C69.4583 8.88542 69.2786 9.03906 69.1641 9.22656C69.0547 9.41406 69 9.61198 69 9.82031C69 9.97656 69.026 10.1172 69.0781 10.2422C69.1354 10.362 69.2344 10.474 69.375 10.5781C69.5156 10.6771 69.7135 10.7708 69.9688 10.8594C70.224 10.9479 70.5495 11.0365 70.9453 11.125C71.638 11.2812 72.2083 11.4688 72.6562 11.6875C73.1042 11.9062 73.4375 12.1745 73.6562 12.4922C73.875 12.8099 73.9844 13.1953 73.9844 13.6484C73.9844 14.0182 73.9062 14.3568 73.75 14.6641C73.599 14.9714 73.3776 15.237 73.0859 15.4609C72.7995 15.6797 72.4557 15.8516 72.0547 15.9766C71.6589 16.0964 71.2135 16.1562 70.7188 16.1562C69.974 16.1562 69.3438 16.0234 68.8281 15.7578C68.3125 15.4922 67.9219 15.1484 67.6562 14.7266C67.3906 14.3047 67.2578 13.8594 67.2578 13.3906H68.7109C68.7318 13.7865 68.8464 14.1016 69.0547 14.3359C69.263 14.5651 69.5182 14.7292 69.8203 14.8281C70.1224 14.9219 70.4219 14.9688 70.7188 14.9688C71.1146 14.9688 71.4453 14.9167 71.7109 14.8125C71.9818 14.7083 72.1875 14.5651 72.3281 14.3828C72.4688 14.2005 72.5391 13.9922 72.5391 13.7578ZM81.4219 7.54688V16H79.9688V7.54688H81.4219ZM79.8594 5.30469C79.8594 5.07031 79.9297 4.8724 80.0703 4.71094C80.2161 4.54948 80.4297 4.46875 80.7109 4.46875C80.987 4.46875 81.1979 4.54948 81.3438 4.71094C81.4948 4.8724 81.5703 5.07031 81.5703 5.30469C81.5703 5.52865 81.4948 5.72135 81.3438 5.88281C81.1979 6.03906 80.987 6.11719 80.7109 6.11719C80.4297 6.11719 80.2161 6.03906 80.0703 5.88281C79.9297 5.72135 79.8594 5.52865 79.8594 5.30469ZM85.1875 9.35156V16H83.7422V7.54688H85.1094L85.1875 9.35156ZM84.8438 11.4531L84.2422 11.4297C84.2474 10.8516 84.3333 10.3177 84.5 9.82812C84.6667 9.33333 84.901 8.90365 85.2031 8.53906C85.5052 8.17448 85.8646 7.89323 86.2812 7.69531C86.7031 7.49219 87.1693 7.39062 87.6797 7.39062C88.0964 7.39062 88.4714 7.44792 88.8047 7.5625C89.138 7.67188 89.4219 7.84896 89.6562 8.09375C89.8958 8.33854 90.0781 8.65625 90.2031 9.04688C90.3281 9.43229 90.3906 9.90365 90.3906 10.4609V16H88.9375V10.4453C88.9375 10.0026 88.8724 9.64844 88.7422 9.38281C88.612 9.11198 88.4219 8.91667 88.1719 8.79688C87.9219 8.67188 87.6146 8.60938 87.25 8.60938C86.8906 8.60938 86.5625 8.6849 86.2656 8.83594C85.974 8.98698 85.7214 9.19531 85.5078 9.46094C85.2995 9.72656 85.1354 10.0312 85.0156 10.375C84.901 10.7135 84.8438 11.0729 84.8438 11.4531ZM94.7422 16H93.2969V6.65625C93.2969 6.04688 93.4062 5.53385 93.625 5.11719C93.849 4.69531 94.1693 4.3776 94.5859 4.16406C95.0026 3.94531 95.4974 3.83594 96.0703 3.83594C96.237 3.83594 96.4036 3.84635 96.5703 3.86719C96.7422 3.88802 96.9089 3.91927 97.0703 3.96094L96.9922 5.14062C96.8828 5.11458 96.7578 5.09635 96.6172 5.08594C96.4818 5.07552 96.3464 5.07031 96.2109 5.07031C95.9036 5.07031 95.638 5.13281 95.4141 5.25781C95.1953 5.3776 95.0286 5.55469 94.9141 5.78906C94.7995 6.02344 94.7422 6.3125 94.7422 6.65625V16ZM96.5391 7.54688V8.65625H91.9609V7.54688H96.5391ZM97.7656 11.8672V11.6875C97.7656 11.0781 97.8542 10.513 98.0312 9.99219C98.2083 9.46615 98.4635 9.01042 98.7969 8.625C99.1302 8.23438 99.5339 7.93229 100.008 7.71875C100.482 7.5 101.013 7.39062 101.602 7.39062C102.195 7.39062 102.729 7.5 103.203 7.71875C103.682 7.93229 104.089 8.23438 104.422 8.625C104.76 9.01042 105.018 9.46615 105.195 9.99219C105.372 10.513 105.461 11.0781 105.461 11.6875V11.8672C105.461 12.4766 105.372 13.0417 105.195 13.5625C105.018 14.0833 104.76 14.5391 104.422 14.9297C104.089 15.3151 103.685 15.6172 103.211 15.8359C102.742 16.0495 102.211 16.1562 101.617 16.1562C101.023 16.1562 100.49 16.0495 100.016 15.8359C99.5417 15.6172 99.1354 15.3151 98.7969 14.9297C98.4635 14.5391 98.2083 14.0833 98.0312 13.5625C97.8542 13.0417 97.7656 12.4766 97.7656 11.8672ZM99.2109 11.6875V11.8672C99.2109 12.2891 99.2604 12.6875 99.3594 13.0625C99.4583 13.4323 99.6068 13.7604 99.8047 14.0469C100.008 14.3333 100.26 14.5599 100.562 14.7266C100.865 14.888 101.216 14.9688 101.617 14.9688C102.013 14.9688 102.359 14.888 102.656 14.7266C102.958 14.5599 103.208 14.3333 103.406 14.0469C103.604 13.7604 103.753 13.4323 103.852 13.0625C103.956 12.6875 104.008 12.2891 104.008 11.8672V11.6875C104.008 11.2708 103.956 10.8776 103.852 10.5078C103.753 10.1328 103.602 9.80208 103.398 9.51562C103.201 9.22396 102.951 8.99479 102.648 8.82812C102.352 8.66146 102.003 8.57812 101.602 8.57812C101.206 8.57812 100.857 8.66146 100.555 8.82812C100.258 8.99479 100.008 9.22396 99.8047 9.51562C99.6068 9.80208 99.4583 10.1328 99.3594 10.5078C99.2604 10.8776 99.2109 11.2708 99.2109 11.6875ZM108.719 8.875V16H107.273V7.54688H108.68L108.719 8.875ZM111.359 7.5L111.352 8.84375C111.232 8.81771 111.117 8.80208 111.008 8.79688C110.904 8.78646 110.784 8.78125 110.648 8.78125C110.315 8.78125 110.021 8.83333 109.766 8.9375C109.51 9.04167 109.294 9.1875 109.117 9.375C108.94 9.5625 108.799 9.78646 108.695 10.0469C108.596 10.3021 108.531 10.5833 108.5 10.8906L108.094 11.125C108.094 10.6146 108.143 10.1354 108.242 9.6875C108.346 9.23958 108.505 8.84375 108.719 8.5C108.932 8.15104 109.203 7.88021 109.531 7.6875C109.865 7.48958 110.26 7.39062 110.719 7.39062C110.823 7.39062 110.943 7.40365 111.078 7.42969C111.214 7.45052 111.307 7.47396 111.359 7.5ZM114.133 9.22656V16H112.68V7.54688H114.055L114.133 9.22656ZM113.836 11.4531L113.164 11.4297C113.169 10.8516 113.245 10.3177 113.391 9.82812C113.536 9.33333 113.753 8.90365 114.039 8.53906C114.326 8.17448 114.682 7.89323 115.109 7.69531C115.536 7.49219 116.031 7.39062 116.594 7.39062C116.99 7.39062 117.354 7.44792 117.688 7.5625C118.021 7.67188 118.31 7.84635 118.555 8.08594C118.799 8.32552 118.99 8.63281 119.125 9.00781C119.26 9.38281 119.328 9.83594 119.328 10.3672V16H117.883V10.4375C117.883 9.99479 117.807 9.64062 117.656 9.375C117.51 9.10938 117.302 8.91667 117.031 8.79688C116.76 8.67188 116.443 8.60938 116.078 8.60938C115.651 8.60938 115.294 8.6849 115.008 8.83594C114.721 8.98698 114.492 9.19531 114.32 9.46094C114.148 9.72656 114.023 10.0312 113.945 10.375C113.872 10.7135 113.836 11.0729 113.836 11.4531ZM119.312 10.6562L118.344 10.9531C118.349 10.4896 118.424 10.0443 118.57 9.61719C118.721 9.1901 118.938 8.8099 119.219 8.47656C119.505 8.14323 119.857 7.88021 120.273 7.6875C120.69 7.48958 121.167 7.39062 121.703 7.39062C122.156 7.39062 122.557 7.45052 122.906 7.57031C123.26 7.6901 123.557 7.875 123.797 8.125C124.042 8.36979 124.227 8.6849 124.352 9.07031C124.477 9.45573 124.539 9.91406 124.539 10.4453V16H123.086V10.4297C123.086 9.95573 123.01 9.58854 122.859 9.32812C122.714 9.0625 122.505 8.8776 122.234 8.77344C121.969 8.66406 121.651 8.60938 121.281 8.60938C120.964 8.60938 120.682 8.66406 120.438 8.77344C120.193 8.88281 119.987 9.03385 119.82 9.22656C119.654 9.41406 119.526 9.63021 119.438 9.875C119.354 10.1198 119.312 10.3802 119.312 10.6562ZM131.711 14.5547V10.2031C131.711 9.86979 131.643 9.58073 131.508 9.33594C131.378 9.08594 131.18 8.89323 130.914 8.75781C130.648 8.6224 130.32 8.55469 129.93 8.55469C129.565 8.55469 129.245 8.61719 128.969 8.74219C128.698 8.86719 128.484 9.03125 128.328 9.23438C128.177 9.4375 128.102 9.65625 128.102 9.89062H126.656C126.656 9.58854 126.734 9.28906 126.891 8.99219C127.047 8.69531 127.271 8.42708 127.562 8.1875C127.859 7.94271 128.214 7.75 128.625 7.60938C129.042 7.46354 129.505 7.39062 130.016 7.39062C130.63 7.39062 131.172 7.49479 131.641 7.70312C132.115 7.91146 132.484 8.22656 132.75 8.64844C133.021 9.0651 133.156 9.58854 133.156 10.2188V14.1562C133.156 14.4375 133.18 14.737 133.227 15.0547C133.279 15.3724 133.354 15.6458 133.453 15.875V16H131.945C131.872 15.8333 131.815 15.612 131.773 15.3359C131.732 15.0547 131.711 14.7943 131.711 14.5547ZM131.961 10.875L131.977 11.8906H130.516C130.104 11.8906 129.737 11.9245 129.414 11.9922C129.091 12.0547 128.82 12.151 128.602 12.2812C128.383 12.4115 128.216 12.5755 128.102 12.7734C127.987 12.9661 127.93 13.1927 127.93 13.4531C127.93 13.7188 127.99 13.9609 128.109 14.1797C128.229 14.3984 128.409 14.5729 128.648 14.7031C128.893 14.8281 129.193 14.8906 129.547 14.8906C129.99 14.8906 130.38 14.7969 130.719 14.6094C131.057 14.4219 131.326 14.1927 131.523 13.9219C131.727 13.651 131.836 13.388 131.852 13.1328L132.469 13.8281C132.432 14.0469 132.333 14.2891 132.172 14.5547C132.01 14.8203 131.794 15.0755 131.523 15.3203C131.258 15.5599 130.94 15.7604 130.57 15.9219C130.206 16.0781 129.794 16.1562 129.336 16.1562C128.763 16.1562 128.26 16.0443 127.828 15.8203C127.401 15.5964 127.068 15.2969 126.828 14.9219C126.594 14.5417 126.477 14.1172 126.477 13.6484C126.477 13.1953 126.565 12.7969 126.742 12.4531C126.919 12.1042 127.174 11.8151 127.508 11.5859C127.841 11.3516 128.242 11.1745 128.711 11.0547C129.18 10.9349 129.703 10.875 130.281 10.875H131.961ZM138.969 7.54688V8.65625H134.398V7.54688H138.969ZM135.945 5.49219H137.391V13.9062C137.391 14.1927 137.435 14.4089 137.523 14.5547C137.612 14.7005 137.727 14.7969 137.867 14.8438C138.008 14.8906 138.159 14.9141 138.32 14.9141C138.44 14.9141 138.565 14.9036 138.695 14.8828C138.831 14.8568 138.932 14.8359 139 14.8203L139.008 16C138.893 16.0365 138.742 16.0703 138.555 16.1016C138.372 16.138 138.151 16.1562 137.891 16.1562C137.536 16.1562 137.211 16.0859 136.914 15.9453C136.617 15.8047 136.38 15.5703 136.203 15.2422C136.031 14.9089 135.945 14.4609 135.945 13.8984V5.49219ZM142.234 7.54688V16H140.781V7.54688H142.234ZM140.672 5.30469C140.672 5.07031 140.742 4.8724 140.883 4.71094C141.029 4.54948 141.242 4.46875 141.523 4.46875C141.799 4.46875 142.01 4.54948 142.156 4.71094C142.307 4.8724 142.383 5.07031 142.383 5.30469C142.383 5.52865 142.307 5.72135 142.156 5.88281C142.01 6.03906 141.799 6.11719 141.523 6.11719C141.242 6.11719 141.029 6.03906 140.883 5.88281C140.742 5.72135 140.672 5.52865 140.672 5.30469ZM144.172 11.8672V11.6875C144.172 11.0781 144.26 10.513 144.438 9.99219C144.615 9.46615 144.87 9.01042 145.203 8.625C145.536 8.23438 145.94 7.93229 146.414 7.71875C146.888 7.5 147.419 7.39062 148.008 7.39062C148.602 7.39062 149.135 7.5 149.609 7.71875C150.089 7.93229 150.495 8.23438 150.828 8.625C151.167 9.01042 151.424 9.46615 151.602 9.99219C151.779 10.513 151.867 11.0781 151.867 11.6875V11.8672C151.867 12.4766 151.779 13.0417 151.602 13.5625C151.424 14.0833 151.167 14.5391 150.828 14.9297C150.495 15.3151 150.091 15.6172 149.617 15.8359C149.148 16.0495 148.617 16.1562 148.023 16.1562C147.43 16.1562 146.896 16.0495 146.422 15.8359C145.948 15.6172 145.542 15.3151 145.203 14.9297C144.87 14.5391 144.615 14.0833 144.438 13.5625C144.26 13.0417 144.172 12.4766 144.172 11.8672ZM145.617 11.6875V11.8672C145.617 12.2891 145.667 12.6875 145.766 13.0625C145.865 13.4323 146.013 13.7604 146.211 14.0469C146.414 14.3333 146.667 14.5599 146.969 14.7266C147.271 14.888 147.622 14.9688 148.023 14.9688C148.419 14.9688 148.766 14.888 149.062 14.7266C149.365 14.5599 149.615 14.3333 149.812 14.0469C150.01 13.7604 150.159 13.4323 150.258 13.0625C150.362 12.6875 150.414 12.2891 150.414 11.8672V11.6875C150.414 11.2708 150.362 10.8776 150.258 10.5078C150.159 10.1328 150.008 9.80208 149.805 9.51562C149.607 9.22396 149.357 8.99479 149.055 8.82812C148.758 8.66146 148.409 8.57812 148.008 8.57812C147.612 8.57812 147.263 8.66146 146.961 8.82812C146.664 8.99479 146.414 9.22396 146.211 9.51562C146.013 9.80208 145.865 10.1328 145.766 10.5078C145.667 10.8776 145.617 11.2708 145.617 11.6875ZM155.125 9.35156V16H153.68V7.54688H155.047L155.125 9.35156ZM154.781 11.4531L154.18 11.4297C154.185 10.8516 154.271 10.3177 154.438 9.82812C154.604 9.33333 154.839 8.90365 155.141 8.53906C155.443 8.17448 155.802 7.89323 156.219 7.69531C156.641 7.49219 157.107 7.39062 157.617 7.39062C158.034 7.39062 158.409 7.44792 158.742 7.5625C159.076 7.67188 159.359 7.84896 159.594 8.09375C159.833 8.33854 160.016 8.65625 160.141 9.04688C160.266 9.43229 160.328 9.90365 160.328 10.4609V16H158.875V10.4453C158.875 10.0026 158.81 9.64844 158.68 9.38281C158.549 9.11198 158.359 8.91667 158.109 8.79688C157.859 8.67188 157.552 8.60938 157.188 8.60938C156.828 8.60938 156.5 8.6849 156.203 8.83594C155.911 8.98698 155.659 9.19531 155.445 9.46094C155.237 9.72656 155.073 10.0312 154.953 10.375C154.839 10.7135 154.781 11.0729 154.781 11.4531Z" fill="black"/>
<path d="M36.6719 83.2793C36.6719 83.0254 36.6328 82.7975 36.5547 82.5957C36.4831 82.3874 36.3464 82.1986 36.1445 82.0293C35.9427 81.8535 35.6595 81.681 35.2949 81.5117C34.9303 81.3424 34.4583 81.1667 33.8789 80.9844C33.2344 80.776 32.6224 80.5417 32.043 80.2812C31.4701 80.0208 30.9622 79.7181 30.5195 79.373C30.0833 79.0215 29.7383 78.6146 29.4844 78.1523C29.237 77.6901 29.1133 77.153 29.1133 76.541C29.1133 75.9486 29.2435 75.4115 29.5039 74.9297C29.7643 74.4414 30.1289 74.0247 30.5977 73.6797C31.0664 73.3281 31.6198 73.0579 32.2578 72.8691C32.9023 72.6803 33.6087 72.5859 34.377 72.5859C35.4251 72.5859 36.3398 72.7747 37.1211 73.1523C37.9023 73.5299 38.5078 74.0475 38.9375 74.7051C39.3737 75.3626 39.5918 76.1146 39.5918 76.9609H36.6816C36.6816 76.5443 36.5938 76.1797 36.418 75.8672C36.2487 75.5482 35.9883 75.2975 35.6367 75.1152C35.2917 74.9329 34.8555 74.8418 34.3281 74.8418C33.8203 74.8418 33.3971 74.9199 33.0586 75.0762C32.7201 75.2259 32.4661 75.431 32.2969 75.6914C32.1276 75.9453 32.043 76.2318 32.043 76.5508C32.043 76.7917 32.1016 77.0098 32.2188 77.2051C32.3424 77.4004 32.5247 77.5827 32.7656 77.752C33.0065 77.9212 33.3027 78.0807 33.6543 78.2305C34.0059 78.3802 34.4128 78.5267 34.875 78.6699C35.6497 78.9043 36.3301 79.168 36.916 79.4609C37.5085 79.7539 38.0033 80.0827 38.4004 80.4473C38.7975 80.8118 39.097 81.2253 39.2988 81.6875C39.5007 82.1497 39.6016 82.6738 39.6016 83.2598C39.6016 83.8783 39.4811 84.4316 39.2402 84.9199C38.9993 85.4082 38.651 85.8216 38.1953 86.1602C37.7396 86.4987 37.196 86.7559 36.5645 86.9316C35.9329 87.1074 35.2266 87.1953 34.4453 87.1953C33.7422 87.1953 33.0488 87.1042 32.3652 86.9219C31.6816 86.7331 31.0599 86.4499 30.5 86.0723C29.9466 85.6947 29.5039 85.2129 29.1719 84.627C28.8398 84.041 28.6738 83.3477 28.6738 82.5469H31.6133C31.6133 82.9896 31.6816 83.3639 31.8184 83.6699C31.9551 83.9759 32.1471 84.2233 32.3945 84.4121C32.6484 84.6009 32.9479 84.7376 33.293 84.8223C33.6445 84.9069 34.0286 84.9492 34.4453 84.9492C34.9531 84.9492 35.3698 84.8776 35.6953 84.7344C36.0273 84.5911 36.2715 84.3926 36.4277 84.1387C36.5905 83.8848 36.6719 83.5983 36.6719 83.2793ZM44.1621 72V87H41.3496V72H44.1621ZM43.7617 81.3457H42.9902C42.9967 80.61 43.0944 79.9329 43.2832 79.3145C43.472 78.6895 43.7422 78.1491 44.0938 77.6934C44.4453 77.2311 44.8652 76.873 45.3535 76.6191C45.8483 76.3652 46.3952 76.2383 46.9941 76.2383C47.515 76.2383 47.987 76.3132 48.4102 76.4629C48.8398 76.6061 49.2077 76.8405 49.5137 77.166C49.8262 77.485 50.0671 77.9049 50.2363 78.4258C50.4056 78.9466 50.4902 79.5781 50.4902 80.3203V87H47.6582V80.3008C47.6582 79.832 47.5898 79.4642 47.4531 79.1973C47.3229 78.9238 47.1309 78.7318 46.877 78.6211C46.6296 78.5039 46.3236 78.4453 45.959 78.4453C45.5553 78.4453 45.2103 78.5202 44.9238 78.6699C44.6439 78.8197 44.4193 79.028 44.25 79.2949C44.0807 79.5553 43.957 79.8613 43.8789 80.2129C43.8008 80.5645 43.7617 80.9421 43.7617 81.3457ZM55.5977 76.4336V87H52.7754V76.4336H55.5977ZM52.5996 73.6797C52.5996 73.2695 52.7428 72.931 53.0293 72.6641C53.3158 72.3971 53.6999 72.2637 54.1816 72.2637C54.6569 72.2637 55.0378 72.3971 55.3242 72.6641C55.6172 72.931 55.7637 73.2695 55.7637 73.6797C55.7637 74.0898 55.6172 74.4284 55.3242 74.6953C55.0378 74.9622 54.6569 75.0957 54.1816 75.0957C53.6999 75.0957 53.3158 74.9622 53.0293 74.6953C52.7428 74.4284 52.5996 74.0898 52.5996 73.6797ZM60.7344 78.4648V91.0625H57.9219V76.4336H60.5293L60.7344 78.4648ZM67.4238 81.5996V81.8047C67.4238 82.5729 67.3327 83.2858 67.1504 83.9434C66.9746 84.6009 66.7142 85.1738 66.3691 85.6621C66.0241 86.1439 65.5944 86.5215 65.0801 86.7949C64.5723 87.0618 63.9863 87.1953 63.3223 87.1953C62.6777 87.1953 62.1178 87.0651 61.6426 86.8047C61.1673 86.5443 60.7669 86.1797 60.4414 85.7109C60.1224 85.2357 59.8652 84.6855 59.6699 84.0605C59.4746 83.4355 59.3249 82.765 59.2207 82.0488V81.5117C59.3249 80.7435 59.4746 80.0404 59.6699 79.4023C59.8652 78.7578 60.1224 78.2012 60.4414 77.7324C60.7669 77.2572 61.1641 76.8893 61.6328 76.6289C62.1081 76.3685 62.6647 76.2383 63.3027 76.2383C63.9733 76.2383 64.5625 76.3652 65.0703 76.6191C65.5846 76.873 66.0143 77.2376 66.3594 77.7129C66.7109 78.1882 66.9746 78.7546 67.1504 79.4121C67.3327 80.0697 67.4238 80.7988 67.4238 81.5996ZM64.6016 81.8047V81.5996C64.6016 81.1504 64.5625 80.737 64.4844 80.3594C64.4128 79.9753 64.2956 79.64 64.1328 79.3535C63.9766 79.0671 63.7682 78.8457 63.5078 78.6895C63.2539 78.5267 62.9447 78.4453 62.5801 78.4453C62.196 78.4453 61.8672 78.5072 61.5938 78.6309C61.3268 78.7546 61.1087 78.9336 60.9395 79.168C60.7702 79.4023 60.6432 79.6823 60.5586 80.0078C60.474 80.3333 60.4219 80.7012 60.4023 81.1113V82.4688C60.4349 82.9505 60.526 83.3835 60.6758 83.7676C60.8255 84.1452 61.0566 84.4447 61.3691 84.666C61.6816 84.8874 62.0918 84.998 62.5996 84.998C62.9707 84.998 63.2832 84.9167 63.5371 84.7539C63.791 84.5846 63.9961 84.3535 64.1523 84.0605C64.3151 83.7676 64.429 83.429 64.4941 83.0449C64.5658 82.6608 64.6016 82.2474 64.6016 81.8047ZM71.9844 78.4648V91.0625H69.1719V76.4336H71.7793L71.9844 78.4648ZM78.6738 81.5996V81.8047C78.6738 82.5729 78.5827 83.2858 78.4004 83.9434C78.2246 84.6009 77.9642 85.1738 77.6191 85.6621C77.2741 86.1439 76.8444 86.5215 76.3301 86.7949C75.8223 87.0618 75.2363 87.1953 74.5723 87.1953C73.9277 87.1953 73.3678 87.0651 72.8926 86.8047C72.4173 86.5443 72.0169 86.1797 71.6914 85.7109C71.3724 85.2357 71.1152 84.6855 70.9199 84.0605C70.7246 83.4355 70.5749 82.765 70.4707 82.0488V81.5117C70.5749 80.7435 70.7246 80.0404 70.9199 79.4023C71.1152 78.7578 71.3724 78.2012 71.6914 77.7324C72.0169 77.2572 72.4141 76.8893 72.8828 76.6289C73.3581 76.3685 73.9147 76.2383 74.5527 76.2383C75.2233 76.2383 75.8125 76.3652 76.3203 76.6191C76.8346 76.873 77.2643 77.2376 77.6094 77.7129C77.9609 78.1882 78.2246 78.7546 78.4004 79.4121C78.5827 80.0697 78.6738 80.7988 78.6738 81.5996ZM75.8516 81.8047V81.5996C75.8516 81.1504 75.8125 80.737 75.7344 80.3594C75.6628 79.9753 75.5456 79.64 75.3828 79.3535C75.2266 79.0671 75.0182 78.8457 74.7578 78.6895C74.5039 78.5267 74.1947 78.4453 73.8301 78.4453C73.446 78.4453 73.1172 78.5072 72.8438 78.6309C72.5768 78.7546 72.3587 78.9336 72.1895 79.168C72.0202 79.4023 71.8932 79.6823 71.8086 80.0078C71.724 80.3333 71.6719 80.7012 71.6523 81.1113V82.4688C71.6849 82.9505 71.776 83.3835 71.9258 83.7676C72.0755 84.1452 72.3066 84.4447 72.6191 84.666C72.9316 84.8874 73.3418 84.998 73.8496 84.998C74.2207 84.998 74.5332 84.9167 74.7871 84.7539C75.041 84.5846 75.2461 84.3535 75.4023 84.0605C75.5651 83.7676 75.679 83.429 75.7441 83.0449C75.8158 82.6608 75.8516 82.2474 75.8516 81.8047ZM83.3906 76.4336V87H80.5684V76.4336H83.3906ZM80.3926 73.6797C80.3926 73.2695 80.5358 72.931 80.8223 72.6641C81.1087 72.3971 81.4928 72.2637 81.9746 72.2637C82.4499 72.2637 82.8307 72.3971 83.1172 72.6641C83.4102 72.931 83.5566 73.2695 83.5566 73.6797C83.5566 74.0898 83.4102 74.4284 83.1172 74.6953C82.8307 74.9622 82.4499 75.0957 81.9746 75.0957C81.4928 75.0957 81.1087 74.9622 80.8223 74.6953C80.5358 74.4284 80.3926 74.0898 80.3926 73.6797ZM88.4688 78.6895V87H85.6562V76.4336H88.293L88.4688 78.6895ZM88.0586 81.3457H87.2969C87.2969 80.5645 87.3978 79.8613 87.5996 79.2363C87.8014 78.6048 88.0846 78.0677 88.4492 77.625C88.8138 77.1758 89.2467 76.834 89.748 76.5996C90.2559 76.3587 90.8223 76.2383 91.4473 76.2383C91.9421 76.2383 92.3945 76.3099 92.8047 76.4531C93.2148 76.5964 93.5664 76.8242 93.8594 77.1367C94.1589 77.4492 94.3867 77.8626 94.543 78.377C94.7057 78.8913 94.7871 79.5195 94.7871 80.2617V87H91.9551V80.252C91.9551 79.7832 91.89 79.4186 91.7598 79.1582C91.6296 78.8978 91.4375 78.7155 91.1836 78.6113C90.9362 78.5007 90.6302 78.4453 90.2656 78.4453C89.888 78.4453 89.5592 78.5202 89.2793 78.6699C89.0059 78.8197 88.778 79.028 88.5957 79.2949C88.4199 79.5553 88.2865 79.8613 88.1953 80.2129C88.1042 80.5645 88.0586 80.9421 88.0586 81.3457ZM103.615 76.4336H106.164V86.6484C106.164 87.612 105.949 88.429 105.52 89.0996C105.096 89.7767 104.504 90.2878 103.742 90.6328C102.98 90.9844 102.095 91.1602 101.086 91.1602C100.643 91.1602 100.174 91.1016 99.6797 90.9844C99.1914 90.8672 98.7227 90.6849 98.2734 90.4375C97.8307 90.1901 97.4596 89.8776 97.1602 89.5L98.4004 87.8398C98.7259 88.2174 99.1035 88.5104 99.5332 88.7188C99.9629 88.9336 100.438 89.041 100.959 89.041C101.467 89.041 101.896 88.9466 102.248 88.7578C102.6 88.5755 102.87 88.3053 103.059 87.9473C103.247 87.5957 103.342 87.1693 103.342 86.668V78.875L103.615 76.4336ZM96.5059 81.8438V81.6387C96.5059 80.8314 96.6035 80.099 96.7988 79.4414C97.0007 78.7773 97.2839 78.2077 97.6484 77.7324C98.0195 77.2572 98.4688 76.8893 98.9961 76.6289C99.5234 76.3685 100.119 76.2383 100.783 76.2383C101.486 76.2383 102.076 76.3685 102.551 76.6289C103.026 76.8893 103.417 77.2604 103.723 77.7422C104.029 78.2174 104.266 78.7806 104.436 79.4316C104.611 80.0762 104.748 80.7826 104.846 81.5508V82C104.748 82.7357 104.602 83.4193 104.406 84.0508C104.211 84.6823 103.954 85.2357 103.635 85.7109C103.316 86.1797 102.919 86.5443 102.443 86.8047C101.975 87.0651 101.415 87.1953 100.764 87.1953C100.113 87.1953 99.5234 87.0618 98.9961 86.7949C98.4753 86.528 98.0293 86.1536 97.6582 85.6719C97.2871 85.1901 97.0007 84.6237 96.7988 83.9727C96.6035 83.3216 96.5059 82.612 96.5059 81.8438ZM99.3184 81.6387V81.8438C99.3184 82.2799 99.3607 82.6868 99.4453 83.0645C99.5299 83.4421 99.6602 83.7773 99.8359 84.0703C100.018 84.3568 100.243 84.5814 100.51 84.7441C100.783 84.9004 101.105 84.9785 101.477 84.9785C101.991 84.9785 102.411 84.8711 102.736 84.6562C103.062 84.4349 103.306 84.1322 103.469 83.748C103.632 83.3639 103.726 82.9212 103.752 82.4199V81.1406C103.739 80.7305 103.684 80.3626 103.586 80.0371C103.488 79.7051 103.352 79.4219 103.176 79.1875C103 78.9531 102.772 78.7708 102.492 78.6406C102.212 78.5104 101.88 78.4453 101.496 78.4453C101.125 78.4453 100.803 78.5299 100.529 78.6992C100.262 78.862 100.038 79.0866 99.8555 79.373C99.6797 79.6595 99.5462 79.998 99.4551 80.3887C99.3639 80.7728 99.3184 81.1895 99.3184 81.6387ZM120.91 83.2793C120.91 83.0254 120.871 82.7975 120.793 82.5957C120.721 82.3874 120.585 82.1986 120.383 82.0293C120.181 81.8535 119.898 81.681 119.533 81.5117C119.169 81.3424 118.697 81.1667 118.117 80.9844C117.473 80.776 116.861 80.5417 116.281 80.2812C115.708 80.0208 115.201 79.7181 114.758 79.373C114.322 79.0215 113.977 78.6146 113.723 78.1523C113.475 77.6901 113.352 77.153 113.352 76.541C113.352 75.9486 113.482 75.4115 113.742 74.9297C114.003 74.4414 114.367 74.0247 114.836 73.6797C115.305 73.3281 115.858 73.0579 116.496 72.8691C117.141 72.6803 117.847 72.5859 118.615 72.5859C119.663 72.5859 120.578 72.7747 121.359 73.1523C122.141 73.5299 122.746 74.0475 123.176 74.7051C123.612 75.3626 123.83 76.1146 123.83 76.9609H120.92C120.92 76.5443 120.832 76.1797 120.656 75.8672C120.487 75.5482 120.227 75.2975 119.875 75.1152C119.53 74.9329 119.094 74.8418 118.566 74.8418C118.059 74.8418 117.635 74.9199 117.297 75.0762C116.958 75.2259 116.704 75.431 116.535 75.6914C116.366 75.9453 116.281 76.2318 116.281 76.5508C116.281 76.7917 116.34 77.0098 116.457 77.2051C116.581 77.4004 116.763 77.5827 117.004 77.752C117.245 77.9212 117.541 78.0807 117.893 78.2305C118.244 78.3802 118.651 78.5267 119.113 78.6699C119.888 78.9043 120.568 79.168 121.154 79.4609C121.747 79.7539 122.242 80.0827 122.639 80.4473C123.036 80.8118 123.335 81.2253 123.537 81.6875C123.739 82.1497 123.84 82.6738 123.84 83.2598C123.84 83.8783 123.719 84.4316 123.479 84.9199C123.238 85.4082 122.889 85.8216 122.434 86.1602C121.978 86.4987 121.434 86.7559 120.803 86.9316C120.171 87.1074 119.465 87.1953 118.684 87.1953C117.98 87.1953 117.287 87.1042 116.604 86.9219C115.92 86.7331 115.298 86.4499 114.738 86.0723C114.185 85.6947 113.742 85.2129 113.41 84.627C113.078 84.041 112.912 83.3477 112.912 82.5469H115.852C115.852 82.9896 115.92 83.3639 116.057 83.6699C116.193 83.9759 116.385 84.2233 116.633 84.4121C116.887 84.6009 117.186 84.7376 117.531 84.8223C117.883 84.9069 118.267 84.9492 118.684 84.9492C119.191 84.9492 119.608 84.8776 119.934 84.7344C120.266 84.5911 120.51 84.3926 120.666 84.1387C120.829 83.8848 120.91 83.5983 120.91 83.2793ZM130.52 87.1953C129.699 87.1953 128.964 87.0651 128.312 86.8047C127.661 86.5378 127.108 86.1699 126.652 85.7012C126.203 85.2324 125.858 84.6888 125.617 84.0703C125.376 83.4453 125.256 82.7812 125.256 82.0781V81.6875C125.256 80.8867 125.37 80.1543 125.598 79.4902C125.826 78.8262 126.151 78.25 126.574 77.7617C127.004 77.2734 127.525 76.8991 128.137 76.6387C128.749 76.3717 129.439 76.2383 130.207 76.2383C130.956 76.2383 131.62 76.362 132.199 76.6094C132.779 76.8568 133.264 77.2083 133.654 77.6641C134.051 78.1198 134.351 78.6667 134.553 79.3047C134.755 79.9362 134.855 80.6393 134.855 81.4141V82.5859H126.457V80.7109H132.092V80.4961C132.092 80.1055 132.02 79.7572 131.877 79.4512C131.74 79.1387 131.532 78.8913 131.252 78.709C130.972 78.5267 130.614 78.4355 130.178 78.4355C129.807 78.4355 129.488 78.5169 129.221 78.6797C128.954 78.8424 128.736 79.0703 128.566 79.3633C128.404 79.6562 128.28 80.0013 128.195 80.3984C128.117 80.7891 128.078 81.2188 128.078 81.6875V82.0781C128.078 82.5013 128.137 82.8919 128.254 83.25C128.378 83.6081 128.55 83.9173 128.771 84.1777C128.999 84.4382 129.273 84.64 129.592 84.7832C129.917 84.9264 130.285 84.998 130.695 84.998C131.203 84.998 131.675 84.9004 132.111 84.7051C132.554 84.5033 132.935 84.2005 133.254 83.7969L134.621 85.2812C134.4 85.6003 134.097 85.9062 133.713 86.1992C133.335 86.4922 132.88 86.7331 132.346 86.9219C131.812 87.1042 131.203 87.1953 130.52 87.1953ZM141.633 76.4336V78.4258H135.48V76.4336H141.633ZM137.004 73.8262H139.816V83.8164C139.816 84.1224 139.855 84.3568 139.934 84.5195C140.018 84.6823 140.142 84.7962 140.305 84.8613C140.467 84.9199 140.673 84.9492 140.92 84.9492C141.096 84.9492 141.252 84.9427 141.389 84.9297C141.532 84.9102 141.652 84.8906 141.75 84.8711L141.76 86.9414C141.519 87.0195 141.258 87.0814 140.979 87.127C140.699 87.1725 140.389 87.1953 140.051 87.1953C139.432 87.1953 138.892 87.0944 138.43 86.8926C137.974 86.6842 137.622 86.3522 137.375 85.8965C137.128 85.4408 137.004 84.8418 137.004 84.0996V73.8262ZM148.41 76.4336V78.4258H142.258V76.4336H148.41ZM143.781 73.8262H146.594V83.8164C146.594 84.1224 146.633 84.3568 146.711 84.5195C146.796 84.6823 146.919 84.7962 147.082 84.8613C147.245 84.9199 147.45 84.9492 147.697 84.9492C147.873 84.9492 148.029 84.9427 148.166 84.9297C148.309 84.9102 148.43 84.8906 148.527 84.8711L148.537 86.9414C148.296 87.0195 148.036 87.0814 147.756 87.127C147.476 87.1725 147.167 87.1953 146.828 87.1953C146.21 87.1953 145.669 87.0944 145.207 86.8926C144.751 86.6842 144.4 86.3522 144.152 85.8965C143.905 85.4408 143.781 84.8418 143.781 84.0996V73.8262ZM152.98 76.4336V87H150.158V76.4336H152.98ZM149.982 73.6797C149.982 73.2695 150.126 72.931 150.412 72.6641C150.699 72.3971 151.083 72.2637 151.564 72.2637C152.04 72.2637 152.421 72.3971 152.707 72.6641C153 72.931 153.146 73.2695 153.146 73.6797C153.146 74.0898 153 74.4284 152.707 74.6953C152.421 74.9622 152.04 75.0957 151.564 75.0957C151.083 75.0957 150.699 74.9622 150.412 74.6953C150.126 74.4284 149.982 74.0898 149.982 73.6797ZM158.059 78.6895V87H155.246V76.4336H157.883L158.059 78.6895ZM157.648 81.3457H156.887C156.887 80.5645 156.988 79.8613 157.189 79.2363C157.391 78.6048 157.674 78.0677 158.039 77.625C158.404 77.1758 158.837 76.834 159.338 76.5996C159.846 76.3587 160.412 76.2383 161.037 76.2383C161.532 76.2383 161.984 76.3099 162.395 76.4531C162.805 76.5964 163.156 76.8242 163.449 77.1367C163.749 77.4492 163.977 77.8626 164.133 78.377C164.296 78.8913 164.377 79.5195 164.377 80.2617V87H161.545V80.252C161.545 79.7832 161.48 79.4186 161.35 79.1582C161.219 78.8978 161.027 78.7155 160.773 78.6113C160.526 78.5007 160.22 78.4453 159.855 78.4453C159.478 78.4453 159.149 78.5202 158.869 78.6699C158.596 78.8197 158.368 79.028 158.186 79.2949C158.01 79.5553 157.876 79.8613 157.785 80.2129C157.694 80.5645 157.648 80.9421 157.648 81.3457ZM173.205 76.4336H175.754V86.6484C175.754 87.612 175.539 88.429 175.109 89.0996C174.686 89.7767 174.094 90.2878 173.332 90.6328C172.57 90.9844 171.685 91.1602 170.676 91.1602C170.233 91.1602 169.764 91.1016 169.27 90.9844C168.781 90.8672 168.312 90.6849 167.863 90.4375C167.421 90.1901 167.049 89.8776 166.75 89.5L167.99 87.8398C168.316 88.2174 168.693 88.5104 169.123 88.7188C169.553 88.9336 170.028 89.041 170.549 89.041C171.057 89.041 171.486 88.9466 171.838 88.7578C172.189 88.5755 172.46 88.3053 172.648 87.9473C172.837 87.5957 172.932 87.1693 172.932 86.668V78.875L173.205 76.4336ZM166.096 81.8438V81.6387C166.096 80.8314 166.193 80.099 166.389 79.4414C166.59 78.7773 166.874 78.2077 167.238 77.7324C167.609 77.2572 168.059 76.8893 168.586 76.6289C169.113 76.3685 169.709 76.2383 170.373 76.2383C171.076 76.2383 171.665 76.3685 172.141 76.6289C172.616 76.8893 173.007 77.2604 173.312 77.7422C173.618 78.2174 173.856 78.7806 174.025 79.4316C174.201 80.0762 174.338 80.7826 174.436 81.5508V82C174.338 82.7357 174.191 83.4193 173.996 84.0508C173.801 84.6823 173.544 85.2357 173.225 85.7109C172.906 86.1797 172.508 86.5443 172.033 86.8047C171.564 87.0651 171.005 87.1953 170.354 87.1953C169.702 87.1953 169.113 87.0618 168.586 86.7949C168.065 86.528 167.619 86.1536 167.248 85.6719C166.877 85.1901 166.59 84.6237 166.389 83.9727C166.193 83.3216 166.096 82.612 166.096 81.8438ZM168.908 81.6387V81.8438C168.908 82.2799 168.951 82.6868 169.035 83.0645C169.12 83.4421 169.25 83.7773 169.426 84.0703C169.608 84.3568 169.833 84.5814 170.1 84.7441C170.373 84.9004 170.695 84.9785 171.066 84.9785C171.581 84.9785 172.001 84.8711 172.326 84.6562C172.652 84.4349 172.896 84.1322 173.059 83.748C173.221 83.3639 173.316 82.9212 173.342 82.4199V81.1406C173.329 80.7305 173.273 80.3626 173.176 80.0371C173.078 79.7051 172.941 79.4219 172.766 79.1875C172.59 78.9531 172.362 78.7708 172.082 78.6406C171.802 78.5104 171.47 78.4453 171.086 78.4453C170.715 78.4453 170.393 78.5299 170.119 78.6992C169.852 78.862 169.628 79.0866 169.445 79.373C169.27 79.6595 169.136 79.998 169.045 80.3887C168.954 80.7728 168.908 81.1895 168.908 81.6387ZM183.654 84.0801C183.654 83.8783 183.596 83.696 183.479 83.5332C183.361 83.3704 183.143 83.2207 182.824 83.084C182.512 82.9408 182.059 82.8105 181.467 82.6934C180.933 82.5762 180.435 82.4297 179.973 82.2539C179.517 82.0716 179.12 81.8535 178.781 81.5996C178.449 81.3457 178.189 81.0462 178 80.7012C177.811 80.3496 177.717 79.9492 177.717 79.5C177.717 79.0573 177.811 78.6406 178 78.25C178.195 77.8594 178.472 77.5143 178.83 77.2148C179.195 76.9089 179.637 76.6712 180.158 76.502C180.686 76.3262 181.278 76.2383 181.936 76.2383C182.854 76.2383 183.641 76.3848 184.299 76.6777C184.963 76.9707 185.471 77.3743 185.822 77.8887C186.18 78.3965 186.359 78.9759 186.359 79.627H183.547C183.547 79.3535 183.488 79.1094 183.371 78.8945C183.26 78.6732 183.085 78.5007 182.844 78.377C182.609 78.2467 182.303 78.1816 181.926 78.1816C181.613 78.1816 181.343 78.237 181.115 78.3477C180.887 78.4518 180.712 78.5951 180.588 78.7773C180.471 78.9531 180.412 79.1484 180.412 79.3633C180.412 79.526 180.445 79.6725 180.51 79.8027C180.581 79.9264 180.695 80.0404 180.852 80.1445C181.008 80.2487 181.21 80.3464 181.457 80.4375C181.711 80.5221 182.023 80.6003 182.395 80.6719C183.156 80.8281 183.837 81.0332 184.436 81.2871C185.035 81.5345 185.51 81.873 185.861 82.3027C186.213 82.7259 186.389 83.2826 186.389 83.9727C186.389 84.4414 186.285 84.8711 186.076 85.2617C185.868 85.6523 185.568 85.9941 185.178 86.2871C184.787 86.5736 184.318 86.7982 183.771 86.9609C183.231 87.1172 182.622 87.1953 181.945 87.1953C180.962 87.1953 180.129 87.0195 179.445 86.668C178.768 86.3164 178.254 85.8704 177.902 85.3301C177.557 84.7832 177.385 84.2233 177.385 83.6504H180.051C180.064 84.0345 180.161 84.3438 180.344 84.5781C180.533 84.8125 180.77 84.9818 181.057 85.0859C181.35 85.1901 181.665 85.2422 182.004 85.2422C182.368 85.2422 182.671 85.1934 182.912 85.0957C183.153 84.9915 183.335 84.8548 183.459 84.6855C183.589 84.5098 183.654 84.3079 183.654 84.0801Z" fill="#5E2A96"/>
<path d="M36.1875 152.383H37.6875C37.6094 153.102 37.4036 153.745 37.0703 154.312C36.737 154.88 36.2656 155.331 35.6562 155.664C35.0469 155.992 34.2865 156.156 33.375 156.156C32.7083 156.156 32.1016 156.031 31.5547 155.781C31.013 155.531 30.5469 155.177 30.1562 154.719C29.7656 154.255 29.4635 153.701 29.25 153.055C29.0417 152.404 28.9375 151.68 28.9375 150.883V149.75C28.9375 148.953 29.0417 148.232 29.25 147.586C29.4635 146.935 29.7682 146.378 30.1641 145.914C30.5651 145.451 31.0469 145.094 31.6094 144.844C32.1719 144.594 32.8047 144.469 33.5078 144.469C34.3672 144.469 35.0938 144.63 35.6875 144.953C36.2812 145.276 36.7422 145.724 37.0703 146.297C37.4036 146.865 37.6094 147.523 37.6875 148.273H36.1875C36.1146 147.742 35.9792 147.286 35.7812 146.906C35.5833 146.521 35.3021 146.224 34.9375 146.016C34.5729 145.807 34.0964 145.703 33.5078 145.703C33.0026 145.703 32.5573 145.799 32.1719 145.992C31.7917 146.185 31.4714 146.458 31.2109 146.812C30.9557 147.167 30.763 147.591 30.6328 148.086C30.5026 148.581 30.4375 149.13 30.4375 149.734V150.883C30.4375 151.44 30.4948 151.964 30.6094 152.453C30.7292 152.943 30.9089 153.372 31.1484 153.742C31.388 154.112 31.6927 154.404 32.0625 154.617C32.4323 154.826 32.8698 154.93 33.375 154.93C34.0156 154.93 34.526 154.828 34.9062 154.625C35.2865 154.422 35.5729 154.13 35.7656 153.75C35.9635 153.37 36.1042 152.914 36.1875 152.383ZM39.1406 151.867V151.688C39.1406 151.078 39.2292 150.513 39.4062 149.992C39.5833 149.466 39.8385 149.01 40.1719 148.625C40.5052 148.234 40.9089 147.932 41.3828 147.719C41.8568 147.5 42.388 147.391 42.9766 147.391C43.5703 147.391 44.1042 147.5 44.5781 147.719C45.0573 147.932 45.4635 148.234 45.7969 148.625C46.1354 149.01 46.3932 149.466 46.5703 149.992C46.7474 150.513 46.8359 151.078 46.8359 151.688V151.867C46.8359 152.477 46.7474 153.042 46.5703 153.562C46.3932 154.083 46.1354 154.539 45.7969 154.93C45.4635 155.315 45.0599 155.617 44.5859 155.836C44.1172 156.049 43.5859 156.156 42.9922 156.156C42.3984 156.156 41.8646 156.049 41.3906 155.836C40.9167 155.617 40.5104 155.315 40.1719 154.93C39.8385 154.539 39.5833 154.083 39.4062 153.562C39.2292 153.042 39.1406 152.477 39.1406 151.867ZM40.5859 151.688V151.867C40.5859 152.289 40.6354 152.688 40.7344 153.062C40.8333 153.432 40.9818 153.76 41.1797 154.047C41.3828 154.333 41.6354 154.56 41.9375 154.727C42.2396 154.888 42.5911 154.969 42.9922 154.969C43.388 154.969 43.7344 154.888 44.0312 154.727C44.3333 154.56 44.5833 154.333 44.7812 154.047C44.9792 153.76 45.1276 153.432 45.2266 153.062C45.3307 152.688 45.3828 152.289 45.3828 151.867V151.688C45.3828 151.271 45.3307 150.878 45.2266 150.508C45.1276 150.133 44.9766 149.802 44.7734 149.516C44.5755 149.224 44.3255 148.995 44.0234 148.828C43.7266 148.661 43.3776 148.578 42.9766 148.578C42.5807 148.578 42.2318 148.661 41.9297 148.828C41.6328 148.995 41.3828 149.224 41.1797 149.516C40.9818 149.802 40.8333 150.133 40.7344 150.508C40.6354 150.878 40.5859 151.271 40.5859 151.688ZM50.0859 149.227V156H48.6328V147.547H50.0078L50.0859 149.227ZM49.7891 151.453L49.1172 151.43C49.1224 150.852 49.1979 150.318 49.3438 149.828C49.4896 149.333 49.7057 148.904 49.9922 148.539C50.2786 148.174 50.6354 147.893 51.0625 147.695C51.4896 147.492 51.9844 147.391 52.5469 147.391C52.9427 147.391 53.3073 147.448 53.6406 147.562C53.974 147.672 54.263 147.846 54.5078 148.086C54.7526 148.326 54.9427 148.633 55.0781 149.008C55.2135 149.383 55.2812 149.836 55.2812 150.367V156H53.8359V150.438C53.8359 149.995 53.7604 149.641 53.6094 149.375C53.4635 149.109 53.2552 148.917 52.9844 148.797C52.7135 148.672 52.3958 148.609 52.0312 148.609C51.6042 148.609 51.2474 148.685 50.9609 148.836C50.6745 148.987 50.4453 149.195 50.2734 149.461C50.1016 149.727 49.9766 150.031 49.8984 150.375C49.8255 150.714 49.7891 151.073 49.7891 151.453ZM55.2656 150.656L54.2969 150.953C54.3021 150.49 54.3776 150.044 54.5234 149.617C54.6745 149.19 54.8906 148.81 55.1719 148.477C55.4583 148.143 55.8099 147.88 56.2266 147.688C56.6432 147.49 57.1198 147.391 57.6562 147.391C58.1094 147.391 58.5104 147.451 58.8594 147.57C59.2135 147.69 59.5104 147.875 59.75 148.125C59.9948 148.37 60.1797 148.685 60.3047 149.07C60.4297 149.456 60.4922 149.914 60.4922 150.445V156H59.0391V150.43C59.0391 149.956 58.9635 149.589 58.8125 149.328C58.6667 149.062 58.4583 148.878 58.1875 148.773C57.9219 148.664 57.6042 148.609 57.2344 148.609C56.9167 148.609 56.6354 148.664 56.3906 148.773C56.1458 148.883 55.9401 149.034 55.7734 149.227C55.6068 149.414 55.4792 149.63 55.3906 149.875C55.3073 150.12 55.2656 150.38 55.2656 150.656ZM64.125 149.172V159.25H62.6719V147.547H64L64.125 149.172ZM69.8203 151.703V151.867C69.8203 152.482 69.7474 153.052 69.6016 153.578C69.4557 154.099 69.2422 154.552 68.9609 154.938C68.6849 155.323 68.3438 155.622 67.9375 155.836C67.5312 156.049 67.0651 156.156 66.5391 156.156C66.0026 156.156 65.5286 156.068 65.1172 155.891C64.7057 155.714 64.3568 155.456 64.0703 155.117C63.7839 154.779 63.5547 154.372 63.3828 153.898C63.2161 153.424 63.1016 152.891 63.0391 152.297V151.422C63.1016 150.797 63.2188 150.237 63.3906 149.742C63.5625 149.247 63.7891 148.826 64.0703 148.477C64.3568 148.122 64.7031 147.854 65.1094 147.672C65.5156 147.484 65.9844 147.391 66.5156 147.391C67.0469 147.391 67.5182 147.495 67.9297 147.703C68.3411 147.906 68.6875 148.198 68.9688 148.578C69.25 148.958 69.4609 149.414 69.6016 149.945C69.7474 150.471 69.8203 151.057 69.8203 151.703ZM68.3672 151.867V151.703C68.3672 151.281 68.3229 150.885 68.2344 150.516C68.1458 150.141 68.0078 149.812 67.8203 149.531C67.638 149.245 67.4036 149.021 67.1172 148.859C66.8307 148.693 66.4896 148.609 66.0938 148.609C65.7292 148.609 65.4115 148.672 65.1406 148.797C64.875 148.922 64.6484 149.091 64.4609 149.305C64.2734 149.513 64.1198 149.753 64 150.023C63.8854 150.289 63.7995 150.565 63.7422 150.852V152.875C63.8464 153.24 63.9922 153.583 64.1797 153.906C64.3672 154.224 64.6172 154.482 64.9297 154.68C65.2422 154.872 65.6354 154.969 66.1094 154.969C66.5 154.969 66.8359 154.888 67.1172 154.727C67.4036 154.56 67.638 154.333 67.8203 154.047C68.0078 153.76 68.1458 153.432 68.2344 153.062C68.3229 152.688 68.3672 152.289 68.3672 151.867ZM73.2344 144V156H71.7812V144H73.2344ZM79.0625 156.156C78.474 156.156 77.9401 156.057 77.4609 155.859C76.987 155.656 76.5781 155.372 76.2344 155.008C75.8958 154.643 75.6354 154.211 75.4531 153.711C75.2708 153.211 75.1797 152.664 75.1797 152.07V151.742C75.1797 151.055 75.2812 150.443 75.4844 149.906C75.6875 149.365 75.9635 148.906 76.3125 148.531C76.6615 148.156 77.0573 147.872 77.5 147.68C77.9427 147.487 78.401 147.391 78.875 147.391C79.4792 147.391 80 147.495 80.4375 147.703C80.8802 147.911 81.2422 148.203 81.5234 148.578C81.8047 148.948 82.013 149.385 82.1484 149.891C82.2839 150.391 82.3516 150.938 82.3516 151.531V152.18H76.0391V151H80.9062V150.891C80.8854 150.516 80.8073 150.151 80.6719 149.797C80.5417 149.443 80.3333 149.151 80.0469 148.922C79.7604 148.693 79.3698 148.578 78.875 148.578C78.5469 148.578 78.2448 148.648 77.9688 148.789C77.6927 148.924 77.4557 149.128 77.2578 149.398C77.0599 149.669 76.9062 150 76.7969 150.391C76.6875 150.781 76.6328 151.232 76.6328 151.742V152.07C76.6328 152.471 76.6875 152.849 76.7969 153.203C76.9115 153.552 77.0755 153.859 77.2891 154.125C77.5078 154.391 77.7708 154.599 78.0781 154.75C78.3906 154.901 78.7448 154.977 79.1406 154.977C79.651 154.977 80.0833 154.872 80.4375 154.664C80.7917 154.456 81.1016 154.177 81.3672 153.828L82.2422 154.523C82.0599 154.799 81.8281 155.062 81.5469 155.312C81.2656 155.562 80.9193 155.766 80.5078 155.922C80.1016 156.078 79.6198 156.156 79.0625 156.156ZM87.5781 147.547V148.656H83.0078V147.547H87.5781ZM84.5547 145.492H86V153.906C86 154.193 86.0443 154.409 86.1328 154.555C86.2214 154.701 86.3359 154.797 86.4766 154.844C86.6172 154.891 86.7682 154.914 86.9297 154.914C87.0495 154.914 87.1745 154.904 87.3047 154.883C87.4401 154.857 87.5417 154.836 87.6094 154.82L87.6172 156C87.5026 156.036 87.3516 156.07 87.1641 156.102C86.9818 156.138 86.7604 156.156 86.5 156.156C86.1458 156.156 85.8203 156.086 85.5234 155.945C85.2266 155.805 84.9896 155.57 84.8125 155.242C84.6406 154.909 84.5547 154.461 84.5547 153.898V145.492ZM92.7812 156.156C92.1927 156.156 91.6589 156.057 91.1797 155.859C90.7057 155.656 90.2969 155.372 89.9531 155.008C89.6146 154.643 89.3542 154.211 89.1719 153.711C88.9896 153.211 88.8984 152.664 88.8984 152.07V151.742C88.8984 151.055 89 150.443 89.2031 149.906C89.4062 149.365 89.6823 148.906 90.0312 148.531C90.3802 148.156 90.776 147.872 91.2188 147.68C91.6615 147.487 92.1198 147.391 92.5938 147.391C93.1979 147.391 93.7188 147.495 94.1562 147.703C94.599 147.911 94.9609 148.203 95.2422 148.578C95.5234 148.948 95.7318 149.385 95.8672 149.891C96.0026 150.391 96.0703 150.938 96.0703 151.531V152.18H89.7578V151H94.625V150.891C94.6042 150.516 94.526 150.151 94.3906 149.797C94.2604 149.443 94.0521 149.151 93.7656 148.922C93.4792 148.693 93.0885 148.578 92.5938 148.578C92.2656 148.578 91.9635 148.648 91.6875 148.789C91.4115 148.924 91.1745 149.128 90.9766 149.398C90.7786 149.669 90.625 150 90.5156 150.391C90.4062 150.781 90.3516 151.232 90.3516 151.742V152.07C90.3516 152.471 90.4062 152.849 90.5156 153.203C90.6302 153.552 90.7943 153.859 91.0078 154.125C91.2266 154.391 91.4896 154.599 91.7969 154.75C92.1094 154.901 92.4635 154.977 92.8594 154.977C93.3698 154.977 93.8021 154.872 94.1562 154.664C94.5104 154.456 94.8203 154.177 95.0859 153.828L95.9609 154.523C95.7786 154.799 95.5469 155.062 95.2656 155.312C94.9844 155.562 94.638 155.766 94.2266 155.922C93.8203 156.078 93.3385 156.156 92.7812 156.156Z" fill="black"/>
</svg>
