<svg width="197" height="160" viewBox="0 0 197 160" fill="none" xmlns="http://www.w3.org/2000/svg">
<circle cx="10" cy="10" r="10" fill="#A567C6"/>
<circle cx="10" cy="80" r="10" fill="#D9D9D9"/>
<line x1="10" y1="20" x2="10" y2="70" stroke="#D9D9D9" stroke-width="2"/>
<circle cx="10" cy="150" r="10" fill="#D9D9D9"/>
<line x1="10" y1="90" x2="10" y2="140" stroke="#D9D9D9" stroke-width="2"/>
<path d="M36.6719 14.2793C36.6719 14.0254 36.6328 13.7975 36.5547 13.5957C36.4831 13.3874 36.3464 13.1986 36.1445 13.0293C35.9427 12.8535 35.6595 12.681 35.2949 12.5117C34.9303 12.3424 34.4583 12.1667 33.8789 11.9844C33.2344 11.776 32.6224 11.5417 32.043 11.2812C31.4701 11.0208 30.9622 10.7181 30.5195 10.373C30.0833 10.0215 29.7383 9.61458 29.4844 9.15234C29.237 8.6901 29.1133 8.15299 29.1133 7.54102C29.1133 6.94857 29.2435 6.41146 29.5039 5.92969C29.7643 5.44141 30.1289 5.02474 30.5977 4.67969C31.0664 4.32812 31.6198 4.05794 32.2578 3.86914C32.9023 3.68034 33.6087 3.58594 34.377 3.58594C35.4251 3.58594 36.3398 3.77474 37.1211 4.15234C37.9023 4.52995 38.5078 5.04753 38.9375 5.70508C39.3737 6.36263 39.5918 7.11458 39.5918 7.96094H36.6816C36.6816 7.54427 36.5938 7.17969 36.418 6.86719C36.2487 6.54818 35.9883 6.29753 35.6367 6.11523C35.2917 5.93294 34.8555 5.8418 34.3281 5.8418C33.8203 5.8418 33.3971 5.91992 33.0586 6.07617C32.7201 6.22591 32.4661 6.43099 32.2969 6.69141C32.1276 6.94531 32.043 7.23177 32.043 7.55078C32.043 7.79167 32.1016 8.00977 32.2188 8.20508C32.3424 8.40039 32.5247 8.58268 32.7656 8.75195C33.0065 8.92122 33.3027 9.08073 33.6543 9.23047C34.0059 9.38021 34.4128 9.52669 34.875 9.66992C35.6497 9.9043 36.3301 10.168 36.916 10.4609C37.5085 10.7539 38.0033 11.0827 38.4004 11.4473C38.7975 11.8118 39.097 12.2253 39.2988 12.6875C39.5007 13.1497 39.6016 13.6738 39.6016 14.2598C39.6016 14.8783 39.4811 15.4316 39.2402 15.9199C38.9993 16.4082 38.651 16.8216 38.1953 17.1602C37.7396 17.4987 37.196 17.7559 36.5645 17.9316C35.9329 18.1074 35.2266 18.1953 34.4453 18.1953C33.7422 18.1953 33.0488 18.1042 32.3652 17.9219C31.6816 17.7331 31.0599 17.4499 30.5 17.0723C29.9466 16.6947 29.5039 16.2129 29.1719 15.627C28.8398 15.041 28.6738 14.3477 28.6738 13.5469H31.6133C31.6133 13.9896 31.6816 14.3639 31.8184 14.6699C31.9551 14.9759 32.1471 15.2233 32.3945 15.4121C32.6484 15.6009 32.9479 15.7376 33.293 15.8223C33.6445 15.9069 34.0286 15.9492 34.4453 15.9492C34.9531 15.9492 35.3698 15.8776 35.6953 15.7344C36.0273 15.5911 36.2715 15.3926 36.4277 15.1387C36.5905 14.8848 36.6719 14.5983 36.6719 14.2793ZM44.1621 3V18H41.3496V3H44.1621ZM43.7617 12.3457H42.9902C42.9967 11.61 43.0944 10.9329 43.2832 10.3145C43.472 9.68945 43.7422 9.14909 44.0938 8.69336C44.4453 8.23112 44.8652 7.87305 45.3535 7.61914C45.8483 7.36523 46.3952 7.23828 46.9941 7.23828C47.515 7.23828 47.987 7.31315 48.4102 7.46289C48.8398 7.60612 49.2077 7.84049 49.5137 8.16602C49.8262 8.48503 50.0671 8.90495 50.2363 9.42578C50.4056 9.94661 50.4902 10.5781 50.4902 11.3203V18H47.6582V11.3008C47.6582 10.832 47.5898 10.4642 47.4531 10.1973C47.3229 9.92383 47.1309 9.73177 46.877 9.62109C46.6296 9.50391 46.3236 9.44531 45.959 9.44531C45.5553 9.44531 45.2103 9.52018 44.9238 9.66992C44.6439 9.81966 44.4193 10.028 44.25 10.2949C44.0807 10.5553 43.957 10.8613 43.8789 11.2129C43.8008 11.5645 43.7617 11.9421 43.7617 12.3457ZM52.1797 12.8242V12.6191C52.1797 11.8444 52.2904 11.1315 52.5117 10.4805C52.7331 9.82292 53.0553 9.25326 53.4785 8.77148C53.9017 8.28971 54.4225 7.91536 55.041 7.64844C55.6595 7.375 56.3691 7.23828 57.1699 7.23828C57.9707 7.23828 58.6836 7.375 59.3086 7.64844C59.9336 7.91536 60.4577 8.28971 60.8809 8.77148C61.3105 9.25326 61.6361 9.82292 61.8574 10.4805C62.0788 11.1315 62.1895 11.8444 62.1895 12.6191V12.8242C62.1895 13.5924 62.0788 14.3053 61.8574 14.9629C61.6361 15.6139 61.3105 16.1836 60.8809 16.6719C60.4577 17.1536 59.9368 17.528 59.3184 17.7949C58.6999 18.0618 57.9902 18.1953 57.1895 18.1953C56.3887 18.1953 55.6758 18.0618 55.0508 17.7949C54.4323 17.528 53.9082 17.1536 53.4785 16.6719C53.0553 16.1836 52.7331 15.6139 52.5117 14.9629C52.2904 14.3053 52.1797 13.5924 52.1797 12.8242ZM54.9922 12.6191V12.8242C54.9922 13.2669 55.0312 13.6803 55.1094 14.0645C55.1875 14.4486 55.3112 14.7871 55.4805 15.0801C55.6562 15.3665 55.8841 15.5911 56.1641 15.7539C56.444 15.9167 56.7858 15.998 57.1895 15.998C57.5801 15.998 57.9154 15.9167 58.1953 15.7539C58.4753 15.5911 58.6999 15.3665 58.8691 15.0801C59.0384 14.7871 59.1621 14.4486 59.2402 14.0645C59.3249 13.6803 59.3672 13.2669 59.3672 12.8242V12.6191C59.3672 12.1895 59.3249 11.7858 59.2402 11.4082C59.1621 11.0241 59.0352 10.6855 58.8594 10.3926C58.6901 10.0931 58.4655 9.85872 58.1855 9.68945C57.9056 9.52018 57.5671 9.43555 57.1699 9.43555C56.7728 9.43555 56.4342 9.52018 56.1543 9.68945C55.8809 9.85872 55.6562 10.0931 55.4805 10.3926C55.3112 10.6855 55.1875 11.0241 55.1094 11.4082C55.0312 11.7858 54.9922 12.1895 54.9922 12.6191ZM66.7305 9.46484V22.0625H63.918V7.43359H66.5254L66.7305 9.46484ZM73.4199 12.5996V12.8047C73.4199 13.5729 73.3288 14.2858 73.1465 14.9434C72.9707 15.6009 72.7103 16.1738 72.3652 16.6621C72.0202 17.1439 71.5905 17.5215 71.0762 17.7949C70.5684 18.0618 69.9824 18.1953 69.3184 18.1953C68.6738 18.1953 68.1139 18.0651 67.6387 17.8047C67.1634 17.5443 66.763 17.1797 66.4375 16.7109C66.1185 16.2357 65.8613 15.6855 65.666 15.0605C65.4707 14.4355 65.321 13.765 65.2168 13.0488V12.5117C65.321 11.7435 65.4707 11.0404 65.666 10.4023C65.8613 9.75781 66.1185 9.20117 66.4375 8.73242C66.763 8.25716 67.1602 7.88932 67.6289 7.62891C68.1042 7.36849 68.6608 7.23828 69.2988 7.23828C69.9694 7.23828 70.5586 7.36523 71.0664 7.61914C71.5807 7.87305 72.0104 8.23763 72.3555 8.71289C72.707 9.18815 72.9707 9.75456 73.1465 10.4121C73.3288 11.0697 73.4199 11.7988 73.4199 12.5996ZM70.5977 12.8047V12.5996C70.5977 12.1504 70.5586 11.737 70.4805 11.3594C70.4089 10.9753 70.2917 10.64 70.1289 10.3535C69.9727 10.0671 69.7643 9.8457 69.5039 9.68945C69.25 9.52669 68.9408 9.44531 68.5762 9.44531C68.1921 9.44531 67.8633 9.50716 67.5898 9.63086C67.3229 9.75456 67.1048 9.93359 66.9355 10.168C66.7663 10.4023 66.6393 10.6823 66.5547 11.0078C66.4701 11.3333 66.418 11.7012 66.3984 12.1113V13.4688C66.431 13.9505 66.5221 14.3835 66.6719 14.7676C66.8216 15.1452 67.0527 15.4447 67.3652 15.666C67.6777 15.8874 68.0879 15.998 68.5957 15.998C68.9668 15.998 69.2793 15.9167 69.5332 15.7539C69.7871 15.5846 69.9922 15.3535 70.1484 15.0605C70.3112 14.7676 70.4251 14.429 70.4902 14.0449C70.5618 13.6608 70.5977 13.2474 70.5977 12.8047ZM77.4434 3V4.48438C77.4434 4.90755 77.362 5.34375 77.1992 5.79297C77.043 6.24219 76.8314 6.66862 76.5645 7.07227C76.2975 7.4694 76.0046 7.80794 75.6855 8.08789L74.3672 7.32617C74.6081 6.94206 74.8132 6.52539 74.9824 6.07617C75.1517 5.62044 75.2363 5.0931 75.2363 4.49414V3H77.4434ZM83.2832 15.0801C83.2832 14.8783 83.2246 14.696 83.1074 14.5332C82.9902 14.3704 82.7721 14.2207 82.4531 14.084C82.1406 13.9408 81.6882 13.8105 81.0957 13.6934C80.5618 13.5762 80.0638 13.4297 79.6016 13.2539C79.1458 13.0716 78.7487 12.8535 78.4102 12.5996C78.0781 12.3457 77.8177 12.0462 77.6289 11.7012C77.4401 11.3496 77.3457 10.9492 77.3457 10.5C77.3457 10.0573 77.4401 9.64062 77.6289 9.25C77.8242 8.85938 78.1009 8.51432 78.459 8.21484C78.8236 7.90885 79.2663 7.67122 79.7871 7.50195C80.3145 7.32617 80.9069 7.23828 81.5645 7.23828C82.4824 7.23828 83.2702 7.38477 83.9277 7.67773C84.5918 7.9707 85.0996 8.37435 85.4512 8.88867C85.8092 9.39648 85.9883 9.97591 85.9883 10.627H83.1758C83.1758 10.3535 83.1172 10.1094 83 9.89453C82.8893 9.67318 82.7135 9.50065 82.4727 9.37695C82.2383 9.24674 81.9323 9.18164 81.5547 9.18164C81.2422 9.18164 80.972 9.23698 80.7441 9.34766C80.5163 9.45182 80.3405 9.59505 80.2168 9.77734C80.0996 9.95312 80.041 10.1484 80.041 10.3633C80.041 10.526 80.0736 10.6725 80.1387 10.8027C80.2103 10.9264 80.3242 11.0404 80.4805 11.1445C80.6367 11.2487 80.8385 11.3464 81.0859 11.4375C81.3398 11.5221 81.6523 11.6003 82.0234 11.6719C82.7852 11.8281 83.4655 12.0332 84.0645 12.2871C84.6634 12.5345 85.1387 12.873 85.4902 13.3027C85.8418 13.7259 86.0176 14.2826 86.0176 14.9727C86.0176 15.4414 85.9134 15.8711 85.7051 16.2617C85.4967 16.6523 85.1973 16.9941 84.8066 17.2871C84.416 17.5736 83.9473 17.7982 83.4004 17.9609C82.86 18.1172 82.2513 18.1953 81.5742 18.1953C80.5911 18.1953 79.7578 18.0195 79.0742 17.668C78.3971 17.3164 77.8828 16.8704 77.5312 16.3301C77.1862 15.7832 77.0137 15.2233 77.0137 14.6504H79.6797C79.6927 15.0345 79.7904 15.3438 79.9727 15.5781C80.1615 15.8125 80.3991 15.9818 80.6855 16.0859C80.9785 16.1901 81.2943 16.2422 81.6328 16.2422C81.9974 16.2422 82.3001 16.1934 82.541 16.0957C82.7819 15.9915 82.9642 15.8548 83.0879 15.6855C83.2181 15.5098 83.2832 15.3079 83.2832 15.0801ZM95.793 7.43359V18H92.9707V7.43359H95.793ZM92.7949 4.67969C92.7949 4.26953 92.9382 3.93099 93.2246 3.66406C93.5111 3.39714 93.8952 3.26367 94.377 3.26367C94.8522 3.26367 95.2331 3.39714 95.5195 3.66406C95.8125 3.93099 95.959 4.26953 95.959 4.67969C95.959 5.08984 95.8125 5.42839 95.5195 5.69531C95.2331 5.96224 94.8522 6.0957 94.377 6.0957C93.8952 6.0957 93.5111 5.96224 93.2246 5.69531C92.9382 5.42839 92.7949 5.08984 92.7949 4.67969ZM100.871 9.68945V18H98.0586V7.43359H100.695L100.871 9.68945ZM100.461 12.3457H99.6992C99.6992 11.5645 99.8001 10.8613 100.002 10.2363C100.204 9.60482 100.487 9.06771 100.852 8.625C101.216 8.17578 101.649 7.83398 102.15 7.59961C102.658 7.35872 103.225 7.23828 103.85 7.23828C104.344 7.23828 104.797 7.3099 105.207 7.45312C105.617 7.59635 105.969 7.82422 106.262 8.13672C106.561 8.44922 106.789 8.86263 106.945 9.37695C107.108 9.89128 107.189 10.5195 107.189 11.2617V18H104.357V11.252C104.357 10.7832 104.292 10.4186 104.162 10.1582C104.032 9.89779 103.84 9.71549 103.586 9.61133C103.339 9.50065 103.033 9.44531 102.668 9.44531C102.29 9.44531 101.962 9.52018 101.682 9.66992C101.408 9.81966 101.18 10.028 100.998 10.2949C100.822 10.5553 100.689 10.8613 100.598 11.2129C100.507 11.5645 100.461 11.9421 100.461 12.3457ZM112.912 18H110.08V6.49609C110.08 5.69531 110.236 5.02148 110.549 4.47461C110.868 3.92122 111.314 3.50456 111.887 3.22461C112.466 2.93815 113.153 2.79492 113.947 2.79492C114.208 2.79492 114.458 2.81445 114.699 2.85352C114.94 2.88607 115.174 2.92839 115.402 2.98047L115.373 5.09961C115.249 5.06706 115.119 5.04427 114.982 5.03125C114.846 5.01823 114.686 5.01172 114.504 5.01172C114.165 5.01172 113.876 5.07031 113.635 5.1875C113.4 5.29818 113.221 5.46419 113.098 5.68555C112.974 5.9069 112.912 6.17708 112.912 6.49609V18ZM115.021 7.43359V9.42578H108.508V7.43359H115.021ZM116.047 12.8242V12.6191C116.047 11.8444 116.158 11.1315 116.379 10.4805C116.6 9.82292 116.923 9.25326 117.346 8.77148C117.769 8.28971 118.29 7.91536 118.908 7.64844C119.527 7.375 120.236 7.23828 121.037 7.23828C121.838 7.23828 122.551 7.375 123.176 7.64844C123.801 7.91536 124.325 8.28971 124.748 8.77148C125.178 9.25326 125.503 9.82292 125.725 10.4805C125.946 11.1315 126.057 11.8444 126.057 12.6191V12.8242C126.057 13.5924 125.946 14.3053 125.725 14.9629C125.503 15.6139 125.178 16.1836 124.748 16.6719C124.325 17.1536 123.804 17.528 123.186 17.7949C122.567 18.0618 121.857 18.1953 121.057 18.1953C120.256 18.1953 119.543 18.0618 118.918 17.7949C118.299 17.528 117.775 17.1536 117.346 16.6719C116.923 16.1836 116.6 15.6139 116.379 14.9629C116.158 14.3053 116.047 13.5924 116.047 12.8242ZM118.859 12.6191V12.8242C118.859 13.2669 118.898 13.6803 118.977 14.0645C119.055 14.4486 119.178 14.7871 119.348 15.0801C119.523 15.3665 119.751 15.5911 120.031 15.7539C120.311 15.9167 120.653 15.998 121.057 15.998C121.447 15.998 121.783 15.9167 122.062 15.7539C122.342 15.5911 122.567 15.3665 122.736 15.0801C122.906 14.7871 123.029 14.4486 123.107 14.0645C123.192 13.6803 123.234 13.2669 123.234 12.8242V12.6191C123.234 12.1895 123.192 11.7858 123.107 11.4082C123.029 11.0241 122.902 10.6855 122.727 10.3926C122.557 10.0931 122.333 9.85872 122.053 9.68945C121.773 9.52018 121.434 9.43555 121.037 9.43555C120.64 9.43555 120.301 9.52018 120.021 9.68945C119.748 9.85872 119.523 10.0931 119.348 10.3926C119.178 10.6855 119.055 11.0241 118.977 11.4082C118.898 11.7858 118.859 12.1895 118.859 12.6191ZM130.598 9.73828V18H127.785V7.43359H130.432L130.598 9.73828ZM133.781 7.36523L133.732 9.97266C133.596 9.95312 133.43 9.93685 133.234 9.92383C133.046 9.9043 132.873 9.89453 132.717 9.89453C132.32 9.89453 131.975 9.94661 131.682 10.0508C131.395 10.1484 131.154 10.2949 130.959 10.4902C130.77 10.6855 130.627 10.9232 130.529 11.2031C130.438 11.4831 130.386 11.8021 130.373 12.1602L129.807 11.9844C129.807 11.3008 129.875 10.6725 130.012 10.0996C130.148 9.52018 130.347 9.01562 130.607 8.58594C130.874 8.15625 131.2 7.82422 131.584 7.58984C131.968 7.35547 132.408 7.23828 132.902 7.23828C133.059 7.23828 133.218 7.2513 133.381 7.27734C133.544 7.29688 133.677 7.32617 133.781 7.36523ZM137.922 9.62109V18H135.1V7.43359H137.746L137.922 9.62109ZM137.531 12.3457H136.75C136.75 11.61 136.838 10.9329 137.014 10.3145C137.196 9.68945 137.46 9.14909 137.805 8.69336C138.156 8.23112 138.589 7.87305 139.104 7.61914C139.618 7.36523 140.214 7.23828 140.891 7.23828C141.359 7.23828 141.789 7.3099 142.18 7.45312C142.57 7.58984 142.906 7.80794 143.186 8.10742C143.472 8.40039 143.693 8.78451 143.85 9.25977C144.006 9.72852 144.084 10.2917 144.084 10.9492V18H141.271V11.2617C141.271 10.7799 141.206 10.4089 141.076 10.1484C140.946 9.88802 140.76 9.70573 140.52 9.60156C140.285 9.4974 140.002 9.44531 139.67 9.44531C139.305 9.44531 138.986 9.52018 138.713 9.66992C138.446 9.81966 138.225 10.028 138.049 10.2949C137.873 10.5553 137.743 10.8613 137.658 11.2129C137.574 11.5645 137.531 11.9421 137.531 12.3457ZM143.82 12.0234L142.814 12.1504C142.814 11.4603 142.899 10.819 143.068 10.2266C143.244 9.63411 143.501 9.11328 143.84 8.66406C144.185 8.21484 144.611 7.86654 145.119 7.61914C145.627 7.36523 146.213 7.23828 146.877 7.23828C147.385 7.23828 147.847 7.31315 148.264 7.46289C148.68 7.60612 149.035 7.83724 149.328 8.15625C149.628 8.46875 149.855 8.87891 150.012 9.38672C150.174 9.89453 150.256 10.5163 150.256 11.252V18H147.434V11.252C147.434 10.7637 147.368 10.3926 147.238 10.1387C147.115 9.87826 146.932 9.69922 146.691 9.60156C146.457 9.4974 146.177 9.44531 145.852 9.44531C145.513 9.44531 145.217 9.51367 144.963 9.65039C144.709 9.7806 144.497 9.96289 144.328 10.1973C144.159 10.4316 144.032 10.7051 143.947 11.0176C143.863 11.3236 143.82 11.6589 143.82 12.0234ZM158.137 15.6172V10.9102C158.137 10.5716 158.081 10.2819 157.971 10.041C157.86 9.79362 157.688 9.60156 157.453 9.46484C157.225 9.32812 156.929 9.25977 156.564 9.25977C156.252 9.25977 155.982 9.3151 155.754 9.42578C155.526 9.52995 155.35 9.68294 155.227 9.88477C155.103 10.0801 155.041 10.3112 155.041 10.5781H152.229C152.229 10.1289 152.333 9.70247 152.541 9.29883C152.749 8.89518 153.052 8.54036 153.449 8.23438C153.846 7.92188 154.318 7.67773 154.865 7.50195C155.419 7.32617 156.037 7.23828 156.721 7.23828C157.541 7.23828 158.27 7.375 158.908 7.64844C159.546 7.92188 160.048 8.33203 160.412 8.87891C160.783 9.42578 160.969 10.1094 160.969 10.9297V15.4512C160.969 16.0306 161.005 16.5059 161.076 16.877C161.148 17.2415 161.252 17.5605 161.389 17.834V18H158.547C158.41 17.7135 158.306 17.3555 158.234 16.9258C158.169 16.4896 158.137 16.0534 158.137 15.6172ZM158.508 11.5645L158.527 13.1562H156.955C156.584 13.1562 156.262 13.1986 155.988 13.2832C155.715 13.3678 155.49 13.4883 155.314 13.6445C155.139 13.7943 155.008 13.9701 154.924 14.1719C154.846 14.3737 154.807 14.5951 154.807 14.8359C154.807 15.0768 154.862 15.2949 154.973 15.4902C155.083 15.679 155.243 15.8288 155.451 15.9395C155.66 16.0436 155.904 16.0957 156.184 16.0957C156.607 16.0957 156.975 16.0111 157.287 15.8418C157.6 15.6725 157.84 15.4642 158.01 15.2168C158.186 14.9694 158.277 14.735 158.283 14.5137L159.025 15.7051C158.921 15.972 158.778 16.2487 158.596 16.5352C158.42 16.8216 158.195 17.0918 157.922 17.3457C157.648 17.5931 157.32 17.7982 156.936 17.9609C156.551 18.1172 156.096 18.1953 155.568 18.1953C154.898 18.1953 154.289 18.0618 153.742 17.7949C153.202 17.5215 152.772 17.1471 152.453 16.6719C152.141 16.1901 151.984 15.6432 151.984 15.0312C151.984 14.4779 152.089 13.9863 152.297 13.5566C152.505 13.127 152.811 12.7656 153.215 12.4727C153.625 12.1732 154.136 11.9486 154.748 11.7988C155.36 11.6426 156.07 11.5645 156.877 11.5645H158.508ZM168.312 7.43359V9.42578H162.16V7.43359H168.312ZM163.684 4.82617H166.496V14.8164C166.496 15.1224 166.535 15.3568 166.613 15.5195C166.698 15.6823 166.822 15.7962 166.984 15.8613C167.147 15.9199 167.352 15.9492 167.6 15.9492C167.775 15.9492 167.932 15.9427 168.068 15.9297C168.212 15.9102 168.332 15.8906 168.43 15.8711L168.439 17.9414C168.199 18.0195 167.938 18.0814 167.658 18.127C167.378 18.1725 167.069 18.1953 166.73 18.1953C166.112 18.1953 165.572 18.0944 165.109 17.8926C164.654 17.6842 164.302 17.3522 164.055 16.8965C163.807 16.4408 163.684 15.8418 163.684 15.0996V4.82617ZM172.883 7.43359V18H170.061V7.43359H172.883ZM169.885 4.67969C169.885 4.26953 170.028 3.93099 170.314 3.66406C170.601 3.39714 170.985 3.26367 171.467 3.26367C171.942 3.26367 172.323 3.39714 172.609 3.66406C172.902 3.93099 173.049 4.26953 173.049 4.67969C173.049 5.08984 172.902 5.42839 172.609 5.69531C172.323 5.96224 171.942 6.0957 171.467 6.0957C170.985 6.0957 170.601 5.96224 170.314 5.69531C170.028 5.42839 169.885 5.08984 169.885 4.67969ZM174.758 12.8242V12.6191C174.758 11.8444 174.868 11.1315 175.09 10.4805C175.311 9.82292 175.633 9.25326 176.057 8.77148C176.48 8.28971 177.001 7.91536 177.619 7.64844C178.238 7.375 178.947 7.23828 179.748 7.23828C180.549 7.23828 181.262 7.375 181.887 7.64844C182.512 7.91536 183.036 8.28971 183.459 8.77148C183.889 9.25326 184.214 9.82292 184.436 10.4805C184.657 11.1315 184.768 11.8444 184.768 12.6191V12.8242C184.768 13.5924 184.657 14.3053 184.436 14.9629C184.214 15.6139 183.889 16.1836 183.459 16.6719C183.036 17.1536 182.515 17.528 181.896 17.7949C181.278 18.0618 180.568 18.1953 179.768 18.1953C178.967 18.1953 178.254 18.0618 177.629 17.7949C177.01 17.528 176.486 17.1536 176.057 16.6719C175.633 16.1836 175.311 15.6139 175.09 14.9629C174.868 14.3053 174.758 13.5924 174.758 12.8242ZM177.57 12.6191V12.8242C177.57 13.2669 177.609 13.6803 177.688 14.0645C177.766 14.4486 177.889 14.7871 178.059 15.0801C178.234 15.3665 178.462 15.5911 178.742 15.7539C179.022 15.9167 179.364 15.998 179.768 15.998C180.158 15.998 180.493 15.9167 180.773 15.7539C181.053 15.5911 181.278 15.3665 181.447 15.0801C181.617 14.7871 181.74 14.4486 181.818 14.0645C181.903 13.6803 181.945 13.2669 181.945 12.8242V12.6191C181.945 12.1895 181.903 11.7858 181.818 11.4082C181.74 11.0241 181.613 10.6855 181.438 10.3926C181.268 10.0931 181.044 9.85872 180.764 9.68945C180.484 9.52018 180.145 9.43555 179.748 9.43555C179.351 9.43555 179.012 9.52018 178.732 9.68945C178.459 9.85872 178.234 10.0931 178.059 10.3926C177.889 10.6855 177.766 11.0241 177.688 11.4082C177.609 11.7858 177.57 12.1895 177.57 12.6191ZM189.25 9.68945V18H186.438V7.43359H189.074L189.25 9.68945ZM188.84 12.3457H188.078C188.078 11.5645 188.179 10.8613 188.381 10.2363C188.583 9.60482 188.866 9.06771 189.23 8.625C189.595 8.17578 190.028 7.83398 190.529 7.59961C191.037 7.35872 191.604 7.23828 192.229 7.23828C192.723 7.23828 193.176 7.3099 193.586 7.45312C193.996 7.59635 194.348 7.82422 194.641 8.13672C194.94 8.44922 195.168 8.86263 195.324 9.37695C195.487 9.89128 195.568 10.5195 195.568 11.2617V18H192.736V11.252C192.736 10.7832 192.671 10.4186 192.541 10.1582C192.411 9.89779 192.219 9.71549 191.965 9.61133C191.717 9.50065 191.411 9.44531 191.047 9.44531C190.669 9.44531 190.34 9.52018 190.061 9.66992C189.787 9.81966 189.559 10.028 189.377 10.2949C189.201 10.5553 189.068 10.8613 188.977 11.2129C188.885 11.5645 188.84 11.9421 188.84 12.3457Z" fill="#5E2A96"/>
<path d="M35.3828 83.125C35.3828 82.8594 35.3411 82.625 35.2578 82.4219C35.1797 82.2135 35.0391 82.026 34.8359 81.8594C34.638 81.6927 34.362 81.5339 34.0078 81.3828C33.6589 81.2318 33.2161 81.0781 32.6797 80.9219C32.1172 80.7552 31.6094 80.5703 31.1562 80.3672C30.7031 80.1589 30.3151 79.9219 29.9922 79.6562C29.6693 79.3906 29.4219 79.0859 29.25 78.7422C29.0781 78.3984 28.9922 78.0052 28.9922 77.5625C28.9922 77.1198 29.0833 76.7109 29.2656 76.3359C29.4479 75.9609 29.7083 75.6354 30.0469 75.3594C30.3906 75.0781 30.7995 74.8594 31.2734 74.7031C31.7474 74.5469 32.276 74.4688 32.8594 74.4688C33.7135 74.4688 34.4375 74.6328 35.0312 74.9609C35.6302 75.2839 36.0859 75.7083 36.3984 76.2344C36.7109 76.7552 36.8672 77.3125 36.8672 77.9062H35.3672C35.3672 77.4792 35.276 77.1016 35.0938 76.7734C34.9115 76.4401 34.6354 76.1797 34.2656 75.9922C33.8958 75.7995 33.4271 75.7031 32.8594 75.7031C32.3229 75.7031 31.8802 75.7839 31.5312 75.9453C31.1823 76.1068 30.9219 76.3255 30.75 76.6016C30.5833 76.8776 30.5 77.1927 30.5 77.5469C30.5 77.7865 30.5495 78.0052 30.6484 78.2031C30.7526 78.3958 30.9115 78.5755 31.125 78.7422C31.3438 78.9089 31.6198 79.0625 31.9531 79.2031C32.2917 79.3438 32.6953 79.4792 33.1641 79.6094C33.8099 79.7917 34.3672 79.9948 34.8359 80.2188C35.3047 80.4427 35.6901 80.6953 35.9922 80.9766C36.2995 81.2526 36.526 81.5677 36.6719 81.9219C36.8229 82.2708 36.8984 82.6667 36.8984 83.1094C36.8984 83.5729 36.8047 83.9922 36.6172 84.3672C36.4297 84.7422 36.1615 85.0625 35.8125 85.3281C35.4635 85.5938 35.0443 85.7995 34.5547 85.9453C34.0703 86.0859 33.5286 86.1562 32.9297 86.1562C32.4036 86.1562 31.8854 86.0833 31.375 85.9375C30.8698 85.7917 30.4089 85.5729 29.9922 85.2812C29.5807 84.9896 29.25 84.6302 29 84.2031C28.7552 83.7708 28.6328 83.2708 28.6328 82.7031H30.1328C30.1328 83.0938 30.2083 83.4297 30.3594 83.7109C30.5104 83.987 30.7161 84.2161 30.9766 84.3984C31.2422 84.5807 31.5417 84.7161 31.875 84.8047C32.2135 84.888 32.5651 84.9297 32.9297 84.9297C33.4557 84.9297 33.901 84.8568 34.2656 84.7109C34.6302 84.5651 34.9062 84.3568 35.0938 84.0859C35.2865 83.8151 35.3828 83.4948 35.3828 83.125ZM40.0469 74V86H38.6016V74H40.0469ZM39.7031 81.4531L39.1016 81.4297C39.1068 80.8516 39.1927 80.3177 39.3594 79.8281C39.526 79.3333 39.7604 78.9036 40.0625 78.5391C40.3646 78.1745 40.724 77.8932 41.1406 77.6953C41.5625 77.4922 42.0286 77.3906 42.5391 77.3906C42.9557 77.3906 43.3307 77.4479 43.6641 77.5625C43.9974 77.6719 44.2812 77.849 44.5156 78.0938C44.7552 78.3385 44.9375 78.6562 45.0625 79.0469C45.1875 79.4323 45.25 79.9036 45.25 80.4609V86H43.7969V80.4453C43.7969 80.0026 43.7318 79.6484 43.6016 79.3828C43.4714 79.112 43.2812 78.9167 43.0312 78.7969C42.7812 78.6719 42.474 78.6094 42.1094 78.6094C41.75 78.6094 41.4219 78.6849 41.125 78.8359C40.8333 78.987 40.5807 79.1953 40.3672 79.4609C40.1589 79.7266 39.9948 80.0312 39.875 80.375C39.7604 80.7135 39.7031 81.0729 39.7031 81.4531ZM48.9844 77.5469V86H47.5312V77.5469H48.9844ZM47.4219 75.3047C47.4219 75.0703 47.4922 74.8724 47.6328 74.7109C47.7786 74.5495 47.9922 74.4688 48.2734 74.4688C48.5495 74.4688 48.7604 74.5495 48.9062 74.7109C49.0573 74.8724 49.1328 75.0703 49.1328 75.3047C49.1328 75.5286 49.0573 75.7214 48.9062 75.8828C48.7604 76.0391 48.5495 76.1172 48.2734 76.1172C47.9922 76.1172 47.7786 76.0391 47.6328 75.8828C47.4922 75.7214 47.4219 75.5286 47.4219 75.3047ZM52.75 79.1719V89.25H51.2969V77.5469H52.625L52.75 79.1719ZM58.4453 81.7031V81.8672C58.4453 82.4818 58.3724 83.0521 58.2266 83.5781C58.0807 84.099 57.8672 84.5521 57.5859 84.9375C57.3099 85.3229 56.9688 85.6224 56.5625 85.8359C56.1562 86.0495 55.6901 86.1562 55.1641 86.1562C54.6276 86.1562 54.1536 86.0677 53.7422 85.8906C53.3307 85.7135 52.9818 85.4557 52.6953 85.1172C52.4089 84.7786 52.1797 84.3724 52.0078 83.8984C51.8411 83.4245 51.7266 82.8906 51.6641 82.2969V81.4219C51.7266 80.7969 51.8438 80.237 52.0156 79.7422C52.1875 79.2474 52.4141 78.8255 52.6953 78.4766C52.9818 78.1224 53.3281 77.8542 53.7344 77.6719C54.1406 77.4844 54.6094 77.3906 55.1406 77.3906C55.6719 77.3906 56.1432 77.4948 56.5547 77.7031C56.9661 77.9062 57.3125 78.1979 57.5938 78.5781C57.875 78.9583 58.0859 79.4141 58.2266 79.9453C58.3724 80.4714 58.4453 81.0573 58.4453 81.7031ZM56.9922 81.8672V81.7031C56.9922 81.2812 56.9479 80.8854 56.8594 80.5156C56.7708 80.1406 56.6328 79.8125 56.4453 79.5312C56.263 79.2448 56.0286 79.0208 55.7422 78.8594C55.4557 78.6927 55.1146 78.6094 54.7188 78.6094C54.3542 78.6094 54.0365 78.6719 53.7656 78.7969C53.5 78.9219 53.2734 79.0911 53.0859 79.3047C52.8984 79.513 52.7448 79.7526 52.625 80.0234C52.5104 80.2891 52.4245 80.5651 52.3672 80.8516V82.875C52.4714 83.2396 52.6172 83.5833 52.8047 83.9062C52.9922 84.224 53.2422 84.4818 53.5547 84.6797C53.8672 84.8724 54.2604 84.9688 54.7344 84.9688C55.125 84.9688 55.4609 84.888 55.7422 84.7266C56.0286 84.5599 56.263 84.3333 56.4453 84.0469C56.6328 83.7604 56.7708 83.4323 56.8594 83.0625C56.9479 82.6875 56.9922 82.2891 56.9922 81.8672ZM61.7344 79.1719V89.25H60.2812V77.5469H61.6094L61.7344 79.1719ZM67.4297 81.7031V81.8672C67.4297 82.4818 67.3568 83.0521 67.2109 83.5781C67.0651 84.099 66.8516 84.5521 66.5703 84.9375C66.2943 85.3229 65.9531 85.6224 65.5469 85.8359C65.1406 86.0495 64.6745 86.1562 64.1484 86.1562C63.612 86.1562 63.138 86.0677 62.7266 85.8906C62.3151 85.7135 61.9661 85.4557 61.6797 85.1172C61.3932 84.7786 61.1641 84.3724 60.9922 83.8984C60.8255 83.4245 60.7109 82.8906 60.6484 82.2969V81.4219C60.7109 80.7969 60.8281 80.237 61 79.7422C61.1719 79.2474 61.3984 78.8255 61.6797 78.4766C61.9661 78.1224 62.3125 77.8542 62.7188 77.6719C63.125 77.4844 63.5938 77.3906 64.125 77.3906C64.6562 77.3906 65.1276 77.4948 65.5391 77.7031C65.9505 77.9062 66.2969 78.1979 66.5781 78.5781C66.8594 78.9583 67.0703 79.4141 67.2109 79.9453C67.3568 80.4714 67.4297 81.0573 67.4297 81.7031ZM65.9766 81.8672V81.7031C65.9766 81.2812 65.9323 80.8854 65.8438 80.5156C65.7552 80.1406 65.6172 79.8125 65.4297 79.5312C65.2474 79.2448 65.013 79.0208 64.7266 78.8594C64.4401 78.6927 64.099 78.6094 63.7031 78.6094C63.3385 78.6094 63.0208 78.6719 62.75 78.7969C62.4844 78.9219 62.2578 79.0911 62.0703 79.3047C61.8828 79.513 61.7292 79.7526 61.6094 80.0234C61.4948 80.2891 61.4089 80.5651 61.3516 80.8516V82.875C61.4557 83.2396 61.6016 83.5833 61.7891 83.9062C61.9766 84.224 62.2266 84.4818 62.5391 84.6797C62.8516 84.8724 63.2448 84.9688 63.7188 84.9688C64.1094 84.9688 64.4453 84.888 64.7266 84.7266C65.013 84.5599 65.2474 84.3333 65.4297 84.0469C65.6172 83.7604 65.7552 83.4323 65.8438 83.0625C65.9323 82.6875 65.9766 82.2891 65.9766 81.8672ZM70.8438 77.5469V86H69.3906V77.5469H70.8438ZM69.2812 75.3047C69.2812 75.0703 69.3516 74.8724 69.4922 74.7109C69.638 74.5495 69.8516 74.4688 70.1328 74.4688C70.4089 74.4688 70.6198 74.5495 70.7656 74.7109C70.9167 74.8724 70.9922 75.0703 70.9922 75.3047C70.9922 75.5286 70.9167 75.7214 70.7656 75.8828C70.6198 76.0391 70.4089 76.1172 70.1328 76.1172C69.8516 76.1172 69.638 76.0391 69.4922 75.8828C69.3516 75.7214 69.2812 75.5286 69.2812 75.3047ZM74.6094 79.3516V86H73.1641V77.5469H74.5312L74.6094 79.3516ZM74.2656 81.4531L73.6641 81.4297C73.6693 80.8516 73.7552 80.3177 73.9219 79.8281C74.0885 79.3333 74.3229 78.9036 74.625 78.5391C74.9271 78.1745 75.2865 77.8932 75.7031 77.6953C76.125 77.4922 76.5911 77.3906 77.1016 77.3906C77.5182 77.3906 77.8932 77.4479 78.2266 77.5625C78.5599 77.6719 78.8438 77.849 79.0781 78.0938C79.3177 78.3385 79.5 78.6562 79.625 79.0469C79.75 79.4323 79.8125 79.9036 79.8125 80.4609V86H78.3594V80.4453C78.3594 80.0026 78.2943 79.6484 78.1641 79.3828C78.0339 79.112 77.8438 78.9167 77.5938 78.7969C77.3438 78.6719 77.0365 78.6094 76.6719 78.6094C76.3125 78.6094 75.9844 78.6849 75.6875 78.8359C75.3958 78.987 75.1432 79.1953 74.9297 79.4609C74.7214 79.7266 74.5573 80.0312 74.4375 80.375C74.3229 80.7135 74.2656 81.0729 74.2656 81.4531ZM87.4844 77.5469H88.7969V85.8203C88.7969 86.5651 88.6458 87.2005 88.3438 87.7266C88.0417 88.2526 87.6198 88.651 87.0781 88.9219C86.5417 89.1979 85.9219 89.3359 85.2188 89.3359C84.9271 89.3359 84.5833 89.2891 84.1875 89.1953C83.7969 89.1068 83.4115 88.9531 83.0312 88.7344C82.6562 88.5208 82.3411 88.2318 82.0859 87.8672L82.8438 87.0078C83.1979 87.4349 83.5677 87.7318 83.9531 87.8984C84.3438 88.0651 84.7292 88.1484 85.1094 88.1484C85.5677 88.1484 85.9635 88.0625 86.2969 87.8906C86.6302 87.7188 86.888 87.4635 87.0703 87.125C87.2578 86.7917 87.3516 86.3802 87.3516 85.8906V79.4062L87.4844 77.5469ZM81.6641 81.8672V81.7031C81.6641 81.0573 81.7396 80.4714 81.8906 79.9453C82.0469 79.4141 82.2682 78.9583 82.5547 78.5781C82.8464 78.1979 83.1979 77.9062 83.6094 77.7031C84.0208 77.4948 84.4844 77.3906 85 77.3906C85.5312 77.3906 85.9948 77.4844 86.3906 77.6719C86.7917 77.8542 87.1302 78.1224 87.4062 78.4766C87.6875 78.8255 87.9089 79.2474 88.0703 79.7422C88.2318 80.237 88.3438 80.7969 88.4062 81.4219V82.1406C88.349 82.7604 88.237 83.3177 88.0703 83.8125C87.9089 84.3073 87.6875 84.7292 87.4062 85.0781C87.1302 85.4271 86.7917 85.6953 86.3906 85.8828C85.9896 86.0651 85.5208 86.1562 84.9844 86.1562C84.4792 86.1562 84.0208 86.0495 83.6094 85.8359C83.2031 85.6224 82.8542 85.3229 82.5625 84.9375C82.2708 84.5521 82.0469 84.099 81.8906 83.5781C81.7396 83.0521 81.6641 82.4818 81.6641 81.8672ZM83.1094 81.7031V81.8672C83.1094 82.2891 83.151 82.6849 83.2344 83.0547C83.3229 83.4245 83.4557 83.75 83.6328 84.0312C83.8151 84.3125 84.0469 84.5339 84.3281 84.6953C84.6094 84.8516 84.9453 84.9297 85.3359 84.9297C85.8151 84.9297 86.2109 84.8281 86.5234 84.625C86.8359 84.4219 87.0833 84.1536 87.2656 83.8203C87.4531 83.487 87.599 83.125 87.7031 82.7344V80.8516C87.6458 80.5651 87.5573 80.2891 87.4375 80.0234C87.3229 79.7526 87.1719 79.513 86.9844 79.3047C86.8021 79.0911 86.5755 78.9219 86.3047 78.7969C86.0339 78.6719 85.7161 78.6094 85.3516 78.6094C84.9557 78.6094 84.6146 78.6927 84.3281 78.8594C84.0469 79.0208 83.8151 79.2448 83.6328 79.5312C83.4557 79.8125 83.3229 80.1406 83.2344 80.5156C83.151 80.8854 83.1094 81.2812 83.1094 81.7031ZM101.242 83.125C101.242 82.8594 101.201 82.625 101.117 82.4219C101.039 82.2135 100.898 82.026 100.695 81.8594C100.497 81.6927 100.221 81.5339 99.8672 81.3828C99.5182 81.2318 99.0755 81.0781 98.5391 80.9219C97.9766 80.7552 97.4688 80.5703 97.0156 80.3672C96.5625 80.1589 96.1745 79.9219 95.8516 79.6562C95.5286 79.3906 95.2812 79.0859 95.1094 78.7422C94.9375 78.3984 94.8516 78.0052 94.8516 77.5625C94.8516 77.1198 94.9427 76.7109 95.125 76.3359C95.3073 75.9609 95.5677 75.6354 95.9062 75.3594C96.25 75.0781 96.6589 74.8594 97.1328 74.7031C97.6068 74.5469 98.1354 74.4688 98.7188 74.4688C99.5729 74.4688 100.297 74.6328 100.891 74.9609C101.49 75.2839 101.945 75.7083 102.258 76.2344C102.57 76.7552 102.727 77.3125 102.727 77.9062H101.227C101.227 77.4792 101.135 77.1016 100.953 76.7734C100.771 76.4401 100.495 76.1797 100.125 75.9922C99.7552 75.7995 99.2865 75.7031 98.7188 75.7031C98.1823 75.7031 97.7396 75.7839 97.3906 75.9453C97.0417 76.1068 96.7812 76.3255 96.6094 76.6016C96.4427 76.8776 96.3594 77.1927 96.3594 77.5469C96.3594 77.7865 96.4089 78.0052 96.5078 78.2031C96.612 78.3958 96.7708 78.5755 96.9844 78.7422C97.2031 78.9089 97.4792 79.0625 97.8125 79.2031C98.151 79.3438 98.5547 79.4792 99.0234 79.6094C99.6693 79.7917 100.227 79.9948 100.695 80.2188C101.164 80.4427 101.549 80.6953 101.852 80.9766C102.159 81.2526 102.385 81.5677 102.531 81.9219C102.682 82.2708 102.758 82.6667 102.758 83.1094C102.758 83.5729 102.664 83.9922 102.477 84.3672C102.289 84.7422 102.021 85.0625 101.672 85.3281C101.323 85.5938 100.904 85.7995 100.414 85.9453C99.9297 86.0859 99.388 86.1562 98.7891 86.1562C98.263 86.1562 97.7448 86.0833 97.2344 85.9375C96.7292 85.7917 96.2682 85.5729 95.8516 85.2812C95.4401 84.9896 95.1094 84.6302 94.8594 84.2031C94.6146 83.7708 94.4922 83.2708 94.4922 82.7031H95.9922C95.9922 83.0938 96.0677 83.4297 96.2188 83.7109C96.3698 83.987 96.5755 84.2161 96.8359 84.3984C97.1016 84.5807 97.401 84.7161 97.7344 84.8047C98.0729 84.888 98.4245 84.9297 98.7891 84.9297C99.3151 84.9297 99.7604 84.8568 100.125 84.7109C100.49 84.5651 100.766 84.3568 100.953 84.0859C101.146 83.8151 101.242 83.4948 101.242 83.125ZM107.969 86.1562C107.38 86.1562 106.846 86.0573 106.367 85.8594C105.893 85.6562 105.484 85.3724 105.141 85.0078C104.802 84.6432 104.542 84.2109 104.359 83.7109C104.177 83.2109 104.086 82.6641 104.086 82.0703V81.7422C104.086 81.0547 104.188 80.4427 104.391 79.9062C104.594 79.3646 104.87 78.9062 105.219 78.5312C105.568 78.1562 105.964 77.8724 106.406 77.6797C106.849 77.487 107.307 77.3906 107.781 77.3906C108.385 77.3906 108.906 77.4948 109.344 77.7031C109.786 77.9115 110.148 78.2031 110.43 78.5781C110.711 78.9479 110.919 79.3854 111.055 79.8906C111.19 80.3906 111.258 80.9375 111.258 81.5312V82.1797H104.945V81H109.812V80.8906C109.792 80.5156 109.714 80.151 109.578 79.7969C109.448 79.4427 109.24 79.151 108.953 78.9219C108.667 78.6927 108.276 78.5781 107.781 78.5781C107.453 78.5781 107.151 78.6484 106.875 78.7891C106.599 78.9245 106.362 79.1276 106.164 79.3984C105.966 79.6693 105.812 80 105.703 80.3906C105.594 80.7812 105.539 81.2318 105.539 81.7422V82.0703C105.539 82.4714 105.594 82.849 105.703 83.2031C105.818 83.5521 105.982 83.8594 106.195 84.125C106.414 84.3906 106.677 84.599 106.984 84.75C107.297 84.901 107.651 84.9766 108.047 84.9766C108.557 84.9766 108.99 84.8724 109.344 84.6641C109.698 84.4557 110.008 84.1771 110.273 83.8281L111.148 84.5234C110.966 84.7995 110.734 85.0625 110.453 85.3125C110.172 85.5625 109.826 85.7656 109.414 85.9219C109.008 86.0781 108.526 86.1562 107.969 86.1562ZM116.484 77.5469V78.6562H111.914V77.5469H116.484ZM113.461 75.4922H114.906V83.9062C114.906 84.1927 114.951 84.4089 115.039 84.5547C115.128 84.7005 115.242 84.7969 115.383 84.8438C115.523 84.8906 115.674 84.9141 115.836 84.9141C115.956 84.9141 116.081 84.9036 116.211 84.8828C116.346 84.8568 116.448 84.8359 116.516 84.8203L116.523 86C116.409 86.0365 116.258 86.0703 116.07 86.1016C115.888 86.138 115.667 86.1562 115.406 86.1562C115.052 86.1562 114.727 86.0859 114.43 85.9453C114.133 85.8047 113.896 85.5703 113.719 85.2422C113.547 84.9089 113.461 84.4609 113.461 83.8984V75.4922ZM121.719 77.5469V78.6562H117.148V77.5469H121.719ZM118.695 75.4922H120.141V83.9062C120.141 84.1927 120.185 84.4089 120.273 84.5547C120.362 84.7005 120.477 84.7969 120.617 84.8438C120.758 84.8906 120.909 84.9141 121.07 84.9141C121.19 84.9141 121.315 84.9036 121.445 84.8828C121.581 84.8568 121.682 84.8359 121.75 84.8203L121.758 86C121.643 86.0365 121.492 86.0703 121.305 86.1016C121.122 86.138 120.901 86.1562 120.641 86.1562C120.286 86.1562 119.961 86.0859 119.664 85.9453C119.367 85.8047 119.13 85.5703 118.953 85.2422C118.781 84.9089 118.695 84.4609 118.695 83.8984V75.4922ZM124.984 77.5469V86H123.531V77.5469H124.984ZM123.422 75.3047C123.422 75.0703 123.492 74.8724 123.633 74.7109C123.779 74.5495 123.992 74.4688 124.273 74.4688C124.549 74.4688 124.76 74.5495 124.906 74.7109C125.057 74.8724 125.133 75.0703 125.133 75.3047C125.133 75.5286 125.057 75.7214 124.906 75.8828C124.76 76.0391 124.549 76.1172 124.273 76.1172C123.992 76.1172 123.779 76.0391 123.633 75.8828C123.492 75.7214 123.422 75.5286 123.422 75.3047ZM128.75 79.3516V86H127.305V77.5469H128.672L128.75 79.3516ZM128.406 81.4531L127.805 81.4297C127.81 80.8516 127.896 80.3177 128.062 79.8281C128.229 79.3333 128.464 78.9036 128.766 78.5391C129.068 78.1745 129.427 77.8932 129.844 77.6953C130.266 77.4922 130.732 77.3906 131.242 77.3906C131.659 77.3906 132.034 77.4479 132.367 77.5625C132.701 77.6719 132.984 77.849 133.219 78.0938C133.458 78.3385 133.641 78.6562 133.766 79.0469C133.891 79.4323 133.953 79.9036 133.953 80.4609V86H132.5V80.4453C132.5 80.0026 132.435 79.6484 132.305 79.3828C132.174 79.112 131.984 78.9167 131.734 78.7969C131.484 78.6719 131.177 78.6094 130.812 78.6094C130.453 78.6094 130.125 78.6849 129.828 78.8359C129.536 78.987 129.284 79.1953 129.07 79.4609C128.862 79.7266 128.698 80.0312 128.578 80.375C128.464 80.7135 128.406 81.0729 128.406 81.4531ZM141.625 77.5469H142.938V85.8203C142.938 86.5651 142.786 87.2005 142.484 87.7266C142.182 88.2526 141.76 88.651 141.219 88.9219C140.682 89.1979 140.062 89.3359 139.359 89.3359C139.068 89.3359 138.724 89.2891 138.328 89.1953C137.938 89.1068 137.552 88.9531 137.172 88.7344C136.797 88.5208 136.482 88.2318 136.227 87.8672L136.984 87.0078C137.339 87.4349 137.708 87.7318 138.094 87.8984C138.484 88.0651 138.87 88.1484 139.25 88.1484C139.708 88.1484 140.104 88.0625 140.438 87.8906C140.771 87.7188 141.029 87.4635 141.211 87.125C141.398 86.7917 141.492 86.3802 141.492 85.8906V79.4062L141.625 77.5469ZM135.805 81.8672V81.7031C135.805 81.0573 135.88 80.4714 136.031 79.9453C136.188 79.4141 136.409 78.9583 136.695 78.5781C136.987 78.1979 137.339 77.9062 137.75 77.7031C138.161 77.4948 138.625 77.3906 139.141 77.3906C139.672 77.3906 140.135 77.4844 140.531 77.6719C140.932 77.8542 141.271 78.1224 141.547 78.4766C141.828 78.8255 142.049 79.2474 142.211 79.7422C142.372 80.237 142.484 80.7969 142.547 81.4219V82.1406C142.49 82.7604 142.378 83.3177 142.211 83.8125C142.049 84.3073 141.828 84.7292 141.547 85.0781C141.271 85.4271 140.932 85.6953 140.531 85.8828C140.13 86.0651 139.661 86.1562 139.125 86.1562C138.62 86.1562 138.161 86.0495 137.75 85.8359C137.344 85.6224 136.995 85.3229 136.703 84.9375C136.411 84.5521 136.188 84.099 136.031 83.5781C135.88 83.0521 135.805 82.4818 135.805 81.8672ZM137.25 81.7031V81.8672C137.25 82.2891 137.292 82.6849 137.375 83.0547C137.464 83.4245 137.596 83.75 137.773 84.0312C137.956 84.3125 138.188 84.5339 138.469 84.6953C138.75 84.8516 139.086 84.9297 139.477 84.9297C139.956 84.9297 140.352 84.8281 140.664 84.625C140.977 84.4219 141.224 84.1536 141.406 83.8203C141.594 83.487 141.74 83.125 141.844 82.7344V80.8516C141.786 80.5651 141.698 80.2891 141.578 80.0234C141.464 79.7526 141.312 79.513 141.125 79.3047C140.943 79.0911 140.716 78.9219 140.445 78.7969C140.174 78.6719 139.857 78.6094 139.492 78.6094C139.096 78.6094 138.755 78.6927 138.469 78.8594C138.188 79.0208 137.956 79.2448 137.773 79.5312C137.596 79.8125 137.464 80.1406 137.375 80.5156C137.292 80.8854 137.25 81.2812 137.25 81.7031ZM150.055 83.7578C150.055 83.5495 150.008 83.3568 149.914 83.1797C149.826 82.9974 149.641 82.8333 149.359 82.6875C149.083 82.5365 148.667 82.4062 148.109 82.2969C147.641 82.1979 147.216 82.0807 146.836 81.9453C146.461 81.8099 146.141 81.6458 145.875 81.4531C145.615 81.2604 145.414 81.0339 145.273 80.7734C145.133 80.513 145.062 80.2083 145.062 79.8594C145.062 79.526 145.135 79.2109 145.281 78.9141C145.432 78.6172 145.643 78.3542 145.914 78.125C146.19 77.8958 146.521 77.7161 146.906 77.5859C147.292 77.4557 147.721 77.3906 148.195 77.3906C148.872 77.3906 149.451 77.5104 149.93 77.75C150.409 77.9896 150.776 78.3099 151.031 78.7109C151.286 79.1068 151.414 79.5469 151.414 80.0312H149.969C149.969 79.7969 149.898 79.5703 149.758 79.3516C149.622 79.1276 149.422 78.9427 149.156 78.7969C148.896 78.651 148.576 78.5781 148.195 78.5781C147.794 78.5781 147.469 78.6406 147.219 78.7656C146.974 78.8854 146.794 79.0391 146.68 79.2266C146.57 79.4141 146.516 79.612 146.516 79.8203C146.516 79.9766 146.542 80.1172 146.594 80.2422C146.651 80.362 146.75 80.474 146.891 80.5781C147.031 80.6771 147.229 80.7708 147.484 80.8594C147.74 80.9479 148.065 81.0365 148.461 81.125C149.154 81.2812 149.724 81.4688 150.172 81.6875C150.62 81.9062 150.953 82.1745 151.172 82.4922C151.391 82.8099 151.5 83.1953 151.5 83.6484C151.5 84.0182 151.422 84.3568 151.266 84.6641C151.115 84.9714 150.893 85.237 150.602 85.4609C150.315 85.6797 149.971 85.8516 149.57 85.9766C149.174 86.0964 148.729 86.1562 148.234 86.1562C147.49 86.1562 146.859 86.0234 146.344 85.7578C145.828 85.4922 145.438 85.1484 145.172 84.7266C144.906 84.3047 144.773 83.8594 144.773 83.3906H146.227C146.247 83.7865 146.362 84.1016 146.57 84.3359C146.779 84.5651 147.034 84.7292 147.336 84.8281C147.638 84.9219 147.938 84.9688 148.234 84.9688C148.63 84.9688 148.961 84.9167 149.227 84.8125C149.497 84.7083 149.703 84.5651 149.844 84.3828C149.984 84.2005 150.055 83.9922 150.055 83.7578Z" fill="black"/>
<path d="M36.1875 152.383H37.6875C37.6094 153.102 37.4036 153.745 37.0703 154.312C36.737 154.88 36.2656 155.331 35.6562 155.664C35.0469 155.992 34.2865 156.156 33.375 156.156C32.7083 156.156 32.1016 156.031 31.5547 155.781C31.013 155.531 30.5469 155.177 30.1562 154.719C29.7656 154.255 29.4635 153.701 29.25 153.055C29.0417 152.404 28.9375 151.68 28.9375 150.883V149.75C28.9375 148.953 29.0417 148.232 29.25 147.586C29.4635 146.935 29.7682 146.378 30.1641 145.914C30.5651 145.451 31.0469 145.094 31.6094 144.844C32.1719 144.594 32.8047 144.469 33.5078 144.469C34.3672 144.469 35.0938 144.63 35.6875 144.953C36.2812 145.276 36.7422 145.724 37.0703 146.297C37.4036 146.865 37.6094 147.523 37.6875 148.273H36.1875C36.1146 147.742 35.9792 147.286 35.7812 146.906C35.5833 146.521 35.3021 146.224 34.9375 146.016C34.5729 145.807 34.0964 145.703 33.5078 145.703C33.0026 145.703 32.5573 145.799 32.1719 145.992C31.7917 146.185 31.4714 146.458 31.2109 146.812C30.9557 147.167 30.763 147.591 30.6328 148.086C30.5026 148.581 30.4375 149.13 30.4375 149.734V150.883C30.4375 151.44 30.4948 151.964 30.6094 152.453C30.7292 152.943 30.9089 153.372 31.1484 153.742C31.388 154.112 31.6927 154.404 32.0625 154.617C32.4323 154.826 32.8698 154.93 33.375 154.93C34.0156 154.93 34.526 154.828 34.9062 154.625C35.2865 154.422 35.5729 154.13 35.7656 153.75C35.9635 153.37 36.1042 152.914 36.1875 152.383ZM39.1406 151.867V151.688C39.1406 151.078 39.2292 150.513 39.4062 149.992C39.5833 149.466 39.8385 149.01 40.1719 148.625C40.5052 148.234 40.9089 147.932 41.3828 147.719C41.8568 147.5 42.388 147.391 42.9766 147.391C43.5703 147.391 44.1042 147.5 44.5781 147.719C45.0573 147.932 45.4635 148.234 45.7969 148.625C46.1354 149.01 46.3932 149.466 46.5703 149.992C46.7474 150.513 46.8359 151.078 46.8359 151.688V151.867C46.8359 152.477 46.7474 153.042 46.5703 153.562C46.3932 154.083 46.1354 154.539 45.7969 154.93C45.4635 155.315 45.0599 155.617 44.5859 155.836C44.1172 156.049 43.5859 156.156 42.9922 156.156C42.3984 156.156 41.8646 156.049 41.3906 155.836C40.9167 155.617 40.5104 155.315 40.1719 154.93C39.8385 154.539 39.5833 154.083 39.4062 153.562C39.2292 153.042 39.1406 152.477 39.1406 151.867ZM40.5859 151.688V151.867C40.5859 152.289 40.6354 152.688 40.7344 153.062C40.8333 153.432 40.9818 153.76 41.1797 154.047C41.3828 154.333 41.6354 154.56 41.9375 154.727C42.2396 154.888 42.5911 154.969 42.9922 154.969C43.388 154.969 43.7344 154.888 44.0312 154.727C44.3333 154.56 44.5833 154.333 44.7812 154.047C44.9792 153.76 45.1276 153.432 45.2266 153.062C45.3307 152.688 45.3828 152.289 45.3828 151.867V151.688C45.3828 151.271 45.3307 150.878 45.2266 150.508C45.1276 150.133 44.9766 149.802 44.7734 149.516C44.5755 149.224 44.3255 148.995 44.0234 148.828C43.7266 148.661 43.3776 148.578 42.9766 148.578C42.5807 148.578 42.2318 148.661 41.9297 148.828C41.6328 148.995 41.3828 149.224 41.1797 149.516C40.9818 149.802 40.8333 150.133 40.7344 150.508C40.6354 150.878 40.5859 151.271 40.5859 151.688ZM50.0859 149.227V156H48.6328V147.547H50.0078L50.0859 149.227ZM49.7891 151.453L49.1172 151.43C49.1224 150.852 49.1979 150.318 49.3438 149.828C49.4896 149.333 49.7057 148.904 49.9922 148.539C50.2786 148.174 50.6354 147.893 51.0625 147.695C51.4896 147.492 51.9844 147.391 52.5469 147.391C52.9427 147.391 53.3073 147.448 53.6406 147.562C53.974 147.672 54.263 147.846 54.5078 148.086C54.7526 148.326 54.9427 148.633 55.0781 149.008C55.2135 149.383 55.2812 149.836 55.2812 150.367V156H53.8359V150.438C53.8359 149.995 53.7604 149.641 53.6094 149.375C53.4635 149.109 53.2552 148.917 52.9844 148.797C52.7135 148.672 52.3958 148.609 52.0312 148.609C51.6042 148.609 51.2474 148.685 50.9609 148.836C50.6745 148.987 50.4453 149.195 50.2734 149.461C50.1016 149.727 49.9766 150.031 49.8984 150.375C49.8255 150.714 49.7891 151.073 49.7891 151.453ZM55.2656 150.656L54.2969 150.953C54.3021 150.49 54.3776 150.044 54.5234 149.617C54.6745 149.19 54.8906 148.81 55.1719 148.477C55.4583 148.143 55.8099 147.88 56.2266 147.688C56.6432 147.49 57.1198 147.391 57.6562 147.391C58.1094 147.391 58.5104 147.451 58.8594 147.57C59.2135 147.69 59.5104 147.875 59.75 148.125C59.9948 148.37 60.1797 148.685 60.3047 149.07C60.4297 149.456 60.4922 149.914 60.4922 150.445V156H59.0391V150.43C59.0391 149.956 58.9635 149.589 58.8125 149.328C58.6667 149.062 58.4583 148.878 58.1875 148.773C57.9219 148.664 57.6042 148.609 57.2344 148.609C56.9167 148.609 56.6354 148.664 56.3906 148.773C56.1458 148.883 55.9401 149.034 55.7734 149.227C55.6068 149.414 55.4792 149.63 55.3906 149.875C55.3073 150.12 55.2656 150.38 55.2656 150.656ZM64.125 149.172V159.25H62.6719V147.547H64L64.125 149.172ZM69.8203 151.703V151.867C69.8203 152.482 69.7474 153.052 69.6016 153.578C69.4557 154.099 69.2422 154.552 68.9609 154.938C68.6849 155.323 68.3438 155.622 67.9375 155.836C67.5312 156.049 67.0651 156.156 66.5391 156.156C66.0026 156.156 65.5286 156.068 65.1172 155.891C64.7057 155.714 64.3568 155.456 64.0703 155.117C63.7839 154.779 63.5547 154.372 63.3828 153.898C63.2161 153.424 63.1016 152.891 63.0391 152.297V151.422C63.1016 150.797 63.2188 150.237 63.3906 149.742C63.5625 149.247 63.7891 148.826 64.0703 148.477C64.3568 148.122 64.7031 147.854 65.1094 147.672C65.5156 147.484 65.9844 147.391 66.5156 147.391C67.0469 147.391 67.5182 147.495 67.9297 147.703C68.3411 147.906 68.6875 148.198 68.9688 148.578C69.25 148.958 69.4609 149.414 69.6016 149.945C69.7474 150.471 69.8203 151.057 69.8203 151.703ZM68.3672 151.867V151.703C68.3672 151.281 68.3229 150.885 68.2344 150.516C68.1458 150.141 68.0078 149.812 67.8203 149.531C67.638 149.245 67.4036 149.021 67.1172 148.859C66.8307 148.693 66.4896 148.609 66.0938 148.609C65.7292 148.609 65.4115 148.672 65.1406 148.797C64.875 148.922 64.6484 149.091 64.4609 149.305C64.2734 149.513 64.1198 149.753 64 150.023C63.8854 150.289 63.7995 150.565 63.7422 150.852V152.875C63.8464 153.24 63.9922 153.583 64.1797 153.906C64.3672 154.224 64.6172 154.482 64.9297 154.68C65.2422 154.872 65.6354 154.969 66.1094 154.969C66.5 154.969 66.8359 154.888 67.1172 154.727C67.4036 154.56 67.638 154.333 67.8203 154.047C68.0078 153.76 68.1458 153.432 68.2344 153.062C68.3229 152.688 68.3672 152.289 68.3672 151.867ZM73.2344 144V156H71.7812V144H73.2344ZM79.0625 156.156C78.474 156.156 77.9401 156.057 77.4609 155.859C76.987 155.656 76.5781 155.372 76.2344 155.008C75.8958 154.643 75.6354 154.211 75.4531 153.711C75.2708 153.211 75.1797 152.664 75.1797 152.07V151.742C75.1797 151.055 75.2812 150.443 75.4844 149.906C75.6875 149.365 75.9635 148.906 76.3125 148.531C76.6615 148.156 77.0573 147.872 77.5 147.68C77.9427 147.487 78.401 147.391 78.875 147.391C79.4792 147.391 80 147.495 80.4375 147.703C80.8802 147.911 81.2422 148.203 81.5234 148.578C81.8047 148.948 82.013 149.385 82.1484 149.891C82.2839 150.391 82.3516 150.938 82.3516 151.531V152.18H76.0391V151H80.9062V150.891C80.8854 150.516 80.8073 150.151 80.6719 149.797C80.5417 149.443 80.3333 149.151 80.0469 148.922C79.7604 148.693 79.3698 148.578 78.875 148.578C78.5469 148.578 78.2448 148.648 77.9688 148.789C77.6927 148.924 77.4557 149.128 77.2578 149.398C77.0599 149.669 76.9062 150 76.7969 150.391C76.6875 150.781 76.6328 151.232 76.6328 151.742V152.07C76.6328 152.471 76.6875 152.849 76.7969 153.203C76.9115 153.552 77.0755 153.859 77.2891 154.125C77.5078 154.391 77.7708 154.599 78.0781 154.75C78.3906 154.901 78.7448 154.977 79.1406 154.977C79.651 154.977 80.0833 154.872 80.4375 154.664C80.7917 154.456 81.1016 154.177 81.3672 153.828L82.2422 154.523C82.0599 154.799 81.8281 155.062 81.5469 155.312C81.2656 155.562 80.9193 155.766 80.5078 155.922C80.1016 156.078 79.6198 156.156 79.0625 156.156ZM87.5781 147.547V148.656H83.0078V147.547H87.5781ZM84.5547 145.492H86V153.906C86 154.193 86.0443 154.409 86.1328 154.555C86.2214 154.701 86.3359 154.797 86.4766 154.844C86.6172 154.891 86.7682 154.914 86.9297 154.914C87.0495 154.914 87.1745 154.904 87.3047 154.883C87.4401 154.857 87.5417 154.836 87.6094 154.82L87.6172 156C87.5026 156.036 87.3516 156.07 87.1641 156.102C86.9818 156.138 86.7604 156.156 86.5 156.156C86.1458 156.156 85.8203 156.086 85.5234 155.945C85.2266 155.805 84.9896 155.57 84.8125 155.242C84.6406 154.909 84.5547 154.461 84.5547 153.898V145.492ZM92.7812 156.156C92.1927 156.156 91.6589 156.057 91.1797 155.859C90.7057 155.656 90.2969 155.372 89.9531 155.008C89.6146 154.643 89.3542 154.211 89.1719 153.711C88.9896 153.211 88.8984 152.664 88.8984 152.07V151.742C88.8984 151.055 89 150.443 89.2031 149.906C89.4062 149.365 89.6823 148.906 90.0312 148.531C90.3802 148.156 90.776 147.872 91.2188 147.68C91.6615 147.487 92.1198 147.391 92.5938 147.391C93.1979 147.391 93.7188 147.495 94.1562 147.703C94.599 147.911 94.9609 148.203 95.2422 148.578C95.5234 148.948 95.7318 149.385 95.8672 149.891C96.0026 150.391 96.0703 150.938 96.0703 151.531V152.18H89.7578V151H94.625V150.891C94.6042 150.516 94.526 150.151 94.3906 149.797C94.2604 149.443 94.0521 149.151 93.7656 148.922C93.4792 148.693 93.0885 148.578 92.5938 148.578C92.2656 148.578 91.9635 148.648 91.6875 148.789C91.4115 148.924 91.1745 149.128 90.9766 149.398C90.7786 149.669 90.625 150 90.5156 150.391C90.4062 150.781 90.3516 151.232 90.3516 151.742V152.07C90.3516 152.471 90.4062 152.849 90.5156 153.203C90.6302 153.552 90.7943 153.859 91.0078 154.125C91.2266 154.391 91.4896 154.599 91.7969 154.75C92.1094 154.901 92.4635 154.977 92.8594 154.977C93.3698 154.977 93.8021 154.872 94.1562 154.664C94.5104 154.456 94.8203 154.177 95.0859 153.828L95.9609 154.523C95.7786 154.799 95.5469 155.062 95.2656 155.312C94.9844 155.562 94.638 155.766 94.2266 155.922C93.8203 156.078 93.3385 156.156 92.7812 156.156Z" fill="black"/>
</svg>
