<svg width="100" height="100" viewBox="0 0 100 100" fill="none" xmlns="http://www.w3.org/2000/svg">
<path d="M79.1016 95.8301H20.8984C13.9746 95.8301 8.33008 90.1953 8.33008 83.2617V56.25C8.33008 53.9453 10.1953 52.0801 12.5 52.0801C14.8047 52.0801 16.6699 53.9453 16.6699 56.25V83.2715C16.6699 85.6055 18.5645 87.5 20.8984 87.5H79.1016C81.4355 87.5 83.3301 85.6055 83.3301 83.2715V56.25C83.3301 53.9453 85.1953 52.0801 87.5 52.0801C89.8047 52.0801 91.6699 53.9453 91.6699 56.25V83.2715C91.6699 90.1953 86.0254 95.8301 79.1016 95.8301Z" fill="#5F6379"/>
<path d="M75 50C70.459 50 66.084 48.5059 62.5 45.8105C58.916 48.5059 54.541 50 50 50C45.459 50 41.084 48.5059 37.5 45.8105C33.916 48.5059 29.541 50 25 50C13.5156 50 4.16992 40.6543 4.16992 29.1699C4.16992 17.6855 13.5156 8.33008 25 8.33008H75C86.4844 8.33008 95.8301 17.6758 95.8301 29.1602C95.8301 40.6445 86.4844 50 75 50ZM62.5 33.8574L65.625 37.4121C68.0078 40.1172 71.4258 41.6699 75 41.6699C81.8945 41.6699 87.5 36.0645 87.5 29.1699C87.5 22.2754 81.8945 16.6699 75 16.6699H25C18.1055 16.6699 12.5 22.2754 12.5 29.1699C12.5 36.0645 18.1055 41.6699 25 41.6699C28.5742 41.6699 31.9922 40.1172 34.375 37.4121L37.5 33.8574L40.625 37.4121C43.0078 40.1172 46.4258 41.6699 50 41.6699C53.5742 41.6699 56.9922 40.1172 59.375 37.4121L62.5 33.8574Z" fill="#3688FF"/>
<path d="M37.5 41.5332C35.1953 41.5332 33.3301 39.668 33.3301 37.3633V33.3301C33.3301 31.0254 35.1953 29.1602 37.5 29.1602C39.8047 29.1602 41.6699 31.0254 41.6699 33.3301V37.3633C41.6699 39.668 39.8047 41.5332 37.5 41.5332ZM62.5 41.5332C60.1953 41.5332 58.3301 39.668 58.3301 37.3633V33.3301C58.3301 31.0254 60.1953 29.1602 62.5 29.1602C64.8047 29.1602 66.6699 31.0254 66.6699 33.3301V37.3633C66.6699 39.668 64.8047 41.5332 62.5 41.5332Z" fill="#3688FF"/>
<path d="M70.8301 77.0801C68.5254 77.0801 66.6602 75.2148 66.6602 72.9102V66.6602C66.6602 64.3555 68.5254 62.4902 70.8301 62.4902C73.1348 62.4902 75 64.3555 75 66.6602V72.9102C75 75.2148 73.1348 77.0801 70.8301 77.0801Z" fill="#5F6379"/>
</svg>
