<svg width="30" height="30" viewBox="0 0 30 30" fill="none" xmlns="http://www.w3.org/2000/svg">
<path d="M3.33333 30C2.41667 30 1.625 29.6806 0.958334 29.0417C0.319445 28.375 0 27.5833 0 26.6667V3.33333C0 2.41667 0.319445 1.63889 0.958334 1C1.625 0.333334 2.41667 0 3.33333 0H26.6667C27.5833 0 28.3611 0.333334 29 1C29.6667 1.63889 30 2.41667 30 3.33333V26.6667C30 27.5833 29.6667 28.375 29 29.0417C28.3611 29.6806 27.5833 30 26.6667 30H3.33333ZM3.33333 26.6667H26.6667V3.33333H3.33333V26.6667ZM5 23.3333H25L18.75 15L13.75 21.6667L10 16.6667L5 23.3333Z" fill="#A6AFD8"/>
</svg>
