<svg width="80" height="40" viewBox="0 0 80 40" fill="none" xmlns="http://www.w3.org/2000/svg">
<path d="M0 4C0 1.79086 1.79086 0 4 0H76C78.2091 0 80 1.79086 80 4V36C80 38.2091 78.2091 40 76 40H4C1.79086 40 0 38.2091 0 36V4Z" fill="white"/>
<path d="M4 0.5H76C77.933 0.5 79.5 2.067 79.5 4V36C79.5 37.933 77.933 39.5 76 39.5H4C2.067 39.5 0.5 37.933 0.5 36V4C0.500001 2.067 2.067 0.5 4 0.5Z" stroke="black" stroke-opacity="0.3"/>
<path d="M41.5384 11.34H39.5859C39.1803 11.34 38.8516 11.0113 38.8516 10.6057C38.8516 10.2001 39.1803 9.87134 39.5859 9.87134H41.5384C41.944 9.87134 42.2727 10.2001 42.2727 10.6057C42.2727 11.0113 41.944 11.34 41.5384 11.34ZM44.9577 13.2906C44.9577 12.885 44.6289 12.5563 44.2233 12.5563H42.2708C41.8652 12.5563 41.5364 12.885 41.5364 13.2906C41.5364 13.6962 41.8652 14.025 42.2708 14.025H44.2233C44.6289 14.025 44.9577 13.6962 44.9577 13.2906ZM42.979 29.6436C42.979 29.238 42.6503 28.9092 42.2447 28.9092H40.2922C39.8866 28.9092 39.5579 29.238 39.5579 29.6436C39.5579 30.0492 39.8866 30.3779 40.2922 30.3779H42.2447C42.6502 30.3779 42.979 30.0492 42.979 29.6436ZM45.664 26.9587C45.664 26.5531 45.3352 26.2243 44.9296 26.2243H42.9771C42.5715 26.2243 42.2427 26.5531 42.2427 26.9587C42.2427 27.3643 42.5715 27.693 42.9771 27.693H44.9296C45.3352 27.693 45.664 27.3643 45.664 26.9587Z" fill="#707D7F"/>
<path d="M27.7924 16.1789L29.6048 19.8993C29.7442 20.1856 29.7381 20.5088 29.6184 20.7788L28.0611 24.2442C27.8314 24.7552 27.2311 24.9832 26.7201 24.7536C26.3031 24.5662 26.0746 24.132 26.1293 23.7009L26.1688 23.3938L26.6728 19.455L26.7016 21.3136L25.9274 17.0873L25.8762 16.8079C25.7749 16.255 26.1411 15.7247 26.694 15.6234C27.1532 15.5393 27.5972 15.7788 27.7924 16.1789ZM47.5001 17.5433L37.3064 7.34962C37.2656 7.30882 37.2172 7.27646 37.1639 7.25439C37.1106 7.23231 37.0534 7.22095 36.9957 7.22095H34.9404C34.4726 7.22095 34.3288 7.85481 34.7508 8.05667L36.1715 8.73612C36.2381 8.76797 36.2956 8.81607 36.3387 8.87599L42.2557 17.9073M42.9619 22.3421L37.0449 31.3734C37.0018 31.4333 36.9443 31.4814 36.8777 31.5132L35.4571 32.1927C35.035 32.3945 35.1788 33.0284 35.6466 33.0284H37.702C37.8185 33.0284 37.9302 32.9821 38.0126 32.8997L48.2063 22.706" fill="#8DC5D8"/>
<path d="M54.7535 20.3388L54.675 20.4611C54.6491 20.503 54.617 20.5473 54.5788 20.6026L54.517 20.6914L54.4463 20.786C54.3461 20.9244 54.2226 21.0748 54.0773 21.2507C53.9186 21.4372 53.7521 21.6169 53.5781 21.7892C53.3912 21.9759 53.1842 22.1624 52.9588 22.3519C52.7335 22.5418 52.4897 22.7549 52.2293 22.9099C52.0991 22.9873 51.9646 23.0513 51.8263 23.0969C51.688 23.1431 51.5456 23.1727 51.3996 23.1923C51.1074 23.2332 50.8002 23.2778 50.4797 23.3184C49.8386 23.4016 49.1442 23.4809 48.4096 23.5413C47.6751 23.6019 46.9004 23.6433 46.0991 23.6623C45.6984 23.6724 45.2911 23.6791 44.8787 23.681C44.4663 23.6842 44.049 23.6872 43.6283 23.6866C42.7869 23.6859 41.9321 23.69 41.0774 23.7128L39.797 23.7448C39.3713 23.7545 38.9472 23.7688 38.5265 23.7725C37.6851 23.7834 36.8571 23.7717 36.0557 23.7134C35.2814 23.6582 34.5103 23.5648 33.7452 23.4336C33.3872 23.3731 33.0304 23.3055 32.6751 23.2308C32.3295 23.1618 31.9957 23.0802 31.6751 22.9822C31.3546 22.8831 31.0474 22.7735 30.7552 22.6524C30.4728 22.535 30.1959 22.4046 29.9255 22.2615C29.4047 21.9867 28.9506 21.6891 28.5767 21.4061C28.2027 21.1213 27.9089 20.86 27.7085 20.6629L27.576 20.5296L27.4798 20.4274L27.4013 20.3387C27.3664 20.2993 27.3472 20.2484 27.3472 20.1957C27.3472 20.143 27.3664 20.0922 27.4013 20.0527L27.4798 19.9641L27.576 19.8618L27.7085 19.7285C27.9089 19.5315 28.2027 19.2701 28.5767 18.9854C28.9506 18.7024 29.4047 18.4048 29.9255 18.1299C30.196 17.9869 30.4728 17.8565 30.7552 17.739C31.0474 17.618 31.3546 17.5083 31.6751 17.4092C31.9956 17.3112 32.3295 17.2296 32.6751 17.1606C33.0207 17.0879 33.3779 17.02 33.7452 16.9579C34.5103 16.8266 35.2814 16.7333 36.0557 16.678C36.8571 16.6197 37.6851 16.608 38.5265 16.6189C38.9472 16.6226 39.3713 16.6369 39.797 16.6466L41.0774 16.6786C41.9322 16.7014 42.7869 16.7055 43.6283 16.7048C44.049 16.7043 44.4663 16.7072 44.8787 16.7104C45.291 16.7123 45.6983 16.719 46.0991 16.7292C46.9004 16.7481 47.675 16.7895 48.4096 16.8502C49.1441 16.9105 49.8386 16.9898 50.4797 17.073C50.8002 17.1137 51.1074 17.1582 51.3996 17.1991C51.5456 17.2187 51.688 17.2484 51.8263 17.2945C51.9646 17.3401 52.0991 17.4041 52.2293 17.4815C52.4897 17.6365 52.7335 17.8497 52.9588 18.0395C53.1842 18.2291 53.3912 18.4155 53.5781 18.6023C53.7521 18.7746 53.9186 18.9543 54.0773 19.1408C54.2226 19.3166 54.3461 19.4671 54.4463 19.6055L54.517 19.7L54.5788 19.7889C54.617 19.8442 54.6491 19.8885 54.675 19.9304L54.7535 20.0527C54.7808 20.0954 54.7954 20.145 54.7954 20.1957C54.7954 20.2465 54.7808 20.2961 54.7535 20.3388Z" fill="#C9D6D6"/>
<path d="M33.0777 20.196L33.0545 20.2383C33.0343 20.2726 33.0118 20.3055 32.987 20.3367C32.9722 20.3576 32.9557 20.3744 32.9375 20.3936L32.9089 20.4238L32.878 20.451C32.8351 20.4858 32.7858 20.5181 32.7306 20.5388C32.6754 20.5602 32.6142 20.5654 32.5476 20.5778L32.3322 20.6143L31.8155 20.7012L31.2041 20.7978L30.5218 20.8968C30.2789 20.9303 30.0357 20.9615 29.7921 20.9904C29.5437 21.0193 29.2912 21.0483 29.0388 21.0724C28.7864 21.0968 28.534 21.123 28.2855 21.1435L27.5558 21.2052L27.2072 21.2331C27.0933 21.241 26.9819 21.2547 26.8735 21.2531C26.765 21.2518 26.6595 21.2348 26.5574 21.1982C26.4554 21.1624 26.3567 21.1126 26.2621 21.0644C26.0855 20.973 25.9131 20.8736 25.7454 20.7666C25.6685 20.7176 25.5965 20.6664 25.53 20.6219C25.4634 20.5768 25.4023 20.5285 25.3471 20.4886C25.2592 20.4219 25.1737 20.3522 25.0907 20.2796L25 20.196L25.0907 20.1124C25.1738 20.0399 25.2593 19.9702 25.3471 19.9034C25.4022 19.8634 25.4634 19.8152 25.53 19.77C25.5965 19.7256 25.6685 19.6744 25.7454 19.6254C25.9131 19.5184 26.0855 19.419 26.2621 19.3275C26.3568 19.2794 26.4554 19.2296 26.5574 19.1938C26.6595 19.1572 26.765 19.1402 26.8735 19.1389C26.9819 19.1372 27.0934 19.1509 27.2072 19.1589L27.5558 19.1868L28.2855 19.2485C28.534 19.269 28.7864 19.2952 29.0388 19.3196C29.2912 19.3437 29.5437 19.3727 29.7921 19.4016C30.0406 19.4313 30.2852 19.4624 30.5218 19.4952L31.2041 19.5942L31.8155 19.6908L32.3322 19.7777L32.5476 19.8142C32.6142 19.8266 32.6753 19.8317 32.7306 19.8532C32.7858 19.8739 32.8351 19.9062 32.878 19.941L32.9089 19.9682L32.9375 19.9984C32.9556 20.0175 32.9721 20.0344 32.987 20.0553C33.0118 20.0865 33.0343 20.1194 33.0545 20.1537L33.0777 20.196ZM49.4969 18.8831C49.5947 18.9743 49.7315 19.0991 49.8772 19.2438C50.0222 19.388 50.1764 19.5558 50.2862 19.7272C50.341 19.8129 50.3836 19.8982 50.4129 19.9801C50.442 20.0625 50.4562 20.1421 50.4612 20.2272C50.4614 20.2379 50.4623 20.2486 50.4631 20.2593L50.4638 20.2673L50.4639 20.2683C50.4636 20.2863 50.4645 20.2448 50.4644 20.2498L50.4643 20.2532L50.464 20.2599L50.4632 20.287L50.4619 20.3409L50.4616 20.3535L50.4607 20.3589L50.4594 20.3695C50.4587 20.3767 50.4583 20.384 50.4584 20.3912L50.4542 20.4217C50.4528 20.443 50.4476 20.4631 50.4438 20.4837C50.4266 20.5695 50.3972 20.6525 50.3565 20.73C50.2718 20.8963 50.1307 21.0641 49.9889 21.2055C49.922 21.2726 49.8532 21.3379 49.7826 21.4012C49.7175 21.4604 49.6577 21.5119 49.6075 21.5559L49.4441 21.698C49.4441 21.698 49.5231 21.7253 49.6636 21.7383C49.804 21.7514 50.0063 21.7517 50.2471 21.6916C50.3667 21.6605 50.4972 21.616 50.6297 21.5449C50.7756 21.4676 50.9081 21.3673 51.0222 21.248C51.1555 21.109 51.2582 20.9437 51.3238 20.7627C51.3416 20.7156 51.3563 20.6674 51.3678 20.6184C51.3738 20.5935 51.3804 20.5701 51.3854 20.5438L51.3979 20.4588L51.4033 20.416L51.4059 20.3946L51.407 20.3803L51.4101 20.3264L51.4115 20.2994L51.4118 20.2927L51.4124 20.265L51.4118 20.2461L51.409 20.1702C51.3973 19.9677 51.3401 19.7627 51.2474 19.5886C51.1552 19.4137 51.033 19.2698 50.9049 19.157C50.6464 18.9308 50.3702 18.8205 50.1357 18.7607C49.8997 18.7017 49.6993 18.6958 49.5593 18.7037C49.4192 18.7115 49.339 18.7345 49.339 18.7345C49.339 18.7345 49.3986 18.7925 49.4969 18.8831Z" fill="#707D7F"/>
</svg>
