<svg width="80" height="40" viewBox="0 0 80 40" fill="none" xmlns="http://www.w3.org/2000/svg">
<path d="M0 4C0 1.79086 1.79086 0 4 0H76C78.2091 0 80 1.79086 80 4V36C80 38.2091 78.2091 40 76 40H4C1.79086 40 0 38.2091 0 36V4Z" fill="white"/>
<path d="M4 0.5H76C77.933 0.5 79.5 2.067 79.5 4V36C79.5 37.933 77.933 39.5 76 39.5H4C2.067 39.5 0.5 37.933 0.5 36V4C0.500001 2.067 2.067 0.5 4 0.5Z" stroke="black" stroke-opacity="0.3"/>
<path d="M11.6484 11.1406L8.09375 20H5.21875L10.5938 8.625H12.4062L11.6484 11.1406ZM11.7422 20L11.2422 10.875L11.3047 8.625H13.0312L14.4688 20H11.7422ZM12.5469 15.7578L12.1719 17.875H7.375L7.75 15.7578H12.5469ZM18.5469 13.4766L17.4062 20H14.9141L16.3828 11.5469H18.7031L18.5469 13.4766ZM17.9219 15.4922L17.4297 15.5156C17.4609 15.0729 17.5339 14.6094 17.6484 14.125C17.7682 13.6354 17.9427 13.1797 18.1719 12.7578C18.4062 12.3359 18.7135 11.9974 19.0938 11.7422C19.474 11.4818 19.9401 11.362 20.4922 11.3828C20.888 11.3932 21.2031 11.4948 21.4375 11.6875C21.6719 11.8802 21.8438 12.125 21.9531 12.4219C22.0625 12.7135 22.1276 13.0312 22.1484 13.375C22.1693 13.7188 22.1615 14.0469 22.125 14.3594L21.1953 20H18.6875L19.5625 14.6875C19.5781 14.5365 19.599 14.362 19.625 14.1641C19.6562 13.9661 19.6458 13.7917 19.5938 13.6406C19.5469 13.4896 19.4062 13.4115 19.1719 13.4062C18.9271 13.3906 18.7292 13.4583 18.5781 13.6094C18.4323 13.7604 18.3125 13.9505 18.2188 14.1797C18.1302 14.4089 18.0625 14.6432 18.0156 14.8828C17.974 15.1172 17.9427 15.3203 17.9219 15.4922ZM21.6719 15.4844L21.0703 15.5C21.1068 15.0521 21.1823 14.5859 21.2969 14.1016C21.4115 13.6172 21.5781 13.1667 21.7969 12.75C22.0208 12.3333 22.3203 12 22.6953 11.75C23.0703 11.4948 23.5365 11.3724 24.0938 11.3828C24.5417 11.3984 24.8932 11.5104 25.1484 11.7188C25.4036 11.9271 25.5833 12.1953 25.6875 12.5234C25.7969 12.8516 25.8594 13.2057 25.875 13.5859C25.8958 13.9609 25.888 14.3255 25.8516 14.6797L24.9609 20H22.4609L23.3359 14.6719C23.3516 14.526 23.3724 14.3542 23.3984 14.1562C23.4245 13.9583 23.4115 13.7839 23.3594 13.6328C23.3125 13.4818 23.1745 13.4036 22.9453 13.3984C22.6849 13.3984 22.4766 13.4714 22.3203 13.6172C22.1693 13.7578 22.0495 13.9401 21.9609 14.1641C21.8776 14.3828 21.8177 14.612 21.7812 14.8516C21.7448 15.0911 21.7083 15.3021 21.6719 15.4844ZM29.9688 20.1562C29.4167 20.1458 28.9297 20.0443 28.5078 19.8516C28.0911 19.6589 27.7474 19.3932 27.4766 19.0547C27.2109 18.7109 27.0234 18.3125 26.9141 17.8594C26.8047 17.401 26.7734 16.9036 26.8203 16.3672L26.9375 15.4453C27.0104 14.8724 27.1406 14.3385 27.3281 13.8438C27.5156 13.349 27.7682 12.9141 28.0859 12.5391C28.4089 12.1641 28.8021 11.875 29.2656 11.6719C29.7292 11.4635 30.276 11.3698 30.9062 11.3906C31.474 11.4062 31.9427 11.526 32.3125 11.75C32.6875 11.974 32.9766 12.2734 33.1797 12.6484C33.388 13.0234 33.5234 13.4453 33.5859 13.9141C33.6484 14.3828 33.651 14.8698 33.5938 15.375L33.4141 16.6016H27.6953L27.9844 14.9531L31.1797 14.9609L31.2344 14.6484C31.2604 14.4609 31.2786 14.276 31.2891 14.0938C31.2995 13.9062 31.263 13.75 31.1797 13.625C31.1016 13.4948 30.9427 13.4193 30.7031 13.3984C30.4115 13.388 30.1875 13.4479 30.0312 13.5781C29.875 13.7031 29.7578 13.8724 29.6797 14.0859C29.6068 14.2943 29.5547 14.5208 29.5234 14.7656C29.4922 15.0052 29.4661 15.2318 29.4453 15.4453L29.3281 16.375C29.3073 16.5833 29.2943 16.7891 29.2891 16.9922C29.2839 17.1901 29.3073 17.375 29.3594 17.5469C29.4167 17.7135 29.5104 17.849 29.6406 17.9531C29.776 18.0521 29.9766 18.1068 30.2422 18.1172C30.5651 18.1276 30.8698 18.0755 31.1562 17.9609C31.4427 17.8411 31.7005 17.6667 31.9297 17.4375L32.8516 19.0547C32.638 19.3359 32.3672 19.5573 32.0391 19.7188C31.7161 19.875 31.3724 19.987 31.0078 20.0547C30.6484 20.1276 30.3021 20.1615 29.9688 20.1562ZM37.4453 13.7734L36.3672 20H33.8594L35.3281 11.5469H37.6484L37.4453 13.7734ZM39.7266 11.4922L39.375 13.9297C39.25 13.9089 39.125 13.8906 39 13.875C38.875 13.8594 38.7474 13.849 38.6172 13.8438C38.362 13.8385 38.1406 13.8802 37.9531 13.9688C37.7656 14.0573 37.6094 14.1823 37.4844 14.3438C37.3646 14.5 37.2656 14.6797 37.1875 14.8828C37.1146 15.0859 37.0599 15.3047 37.0234 15.5391L36.6406 15.2266C36.6823 14.8984 36.7448 14.5156 36.8281 14.0781C36.9167 13.6406 37.0443 13.2135 37.2109 12.7969C37.3828 12.375 37.612 12.0312 37.8984 11.7656C38.1901 11.4948 38.5625 11.362 39.0156 11.3672C39.1406 11.3724 39.2604 11.388 39.375 11.4141C39.4896 11.4349 39.6068 11.4609 39.7266 11.4922ZM43.2969 11.5469L41.8359 20H39.3281L40.7969 11.5469H43.2969ZM41.0547 9.40625C41.0547 9.01562 41.1875 8.69792 41.4531 8.45312C41.7188 8.20833 42.0391 8.08333 42.4141 8.07812C42.7839 8.07292 43.099 8.1875 43.3594 8.42188C43.625 8.65104 43.7578 8.95573 43.7578 9.33594C43.7578 9.72135 43.625 10.0365 43.3594 10.2812C43.0938 10.526 42.7734 10.651 42.3984 10.6562C42.0286 10.6615 41.7135 10.5495 41.4531 10.3203C41.1927 10.0859 41.0599 9.78125 41.0547 9.40625ZM46.6016 18.1484C46.8411 18.1589 47.0182 18.1094 47.1328 18C47.2526 17.8854 47.3333 17.7396 47.375 17.5625C47.4219 17.3802 47.4505 17.1875 47.4609 16.9844L49.7969 16.9766C49.7708 17.6068 49.6172 18.1641 49.3359 18.6484C49.0599 19.1328 48.6797 19.5104 48.1953 19.7812C47.7161 20.0521 47.1562 20.1797 46.5156 20.1641C45.9323 20.1536 45.4453 20.0391 45.0547 19.8203C44.6693 19.5964 44.3672 19.2995 44.1484 18.9297C43.9349 18.5599 43.7917 18.1406 43.7188 17.6719C43.651 17.1979 43.6458 16.6979 43.7031 16.1719L43.8203 15.3672C43.888 14.8255 44.0104 14.3099 44.1875 13.8203C44.3698 13.3307 44.6146 12.901 44.9219 12.5312C45.2292 12.1615 45.6068 11.875 46.0547 11.6719C46.5026 11.4635 47.0312 11.3698 47.6406 11.3906C48.3125 11.4062 48.8464 11.5703 49.2422 11.8828C49.6432 12.1901 49.9245 12.599 50.0859 13.1094C50.2474 13.6146 50.3099 14.1745 50.2734 14.7891L47.9219 14.7812C47.9479 14.599 47.9688 14.4036 47.9844 14.1953C48.0052 13.987 47.9792 13.8073 47.9062 13.6562C47.8333 13.5052 47.6693 13.4245 47.4141 13.4141C47.1432 13.3984 46.9375 13.4557 46.7969 13.5859C46.6562 13.7161 46.5573 13.8854 46.5 14.0938C46.4427 14.2969 46.4062 14.5156 46.3906 14.75C46.375 14.9792 46.3568 15.1875 46.3359 15.375L46.2422 16.1875C46.2214 16.3229 46.1849 16.5 46.1328 16.7188C46.0859 16.9323 46.0521 17.1484 46.0312 17.3672C46.0156 17.5807 46.0469 17.763 46.125 17.9141C46.2031 18.0599 46.362 18.138 46.6016 18.1484ZM54.2109 17.875L54.7969 14.125C54.8073 13.9896 54.8203 13.8568 54.8359 13.7266C54.8568 13.5911 54.8411 13.4766 54.7891 13.3828C54.7422 13.2839 54.625 13.237 54.4375 13.2422C54.2552 13.237 54.125 13.2812 54.0469 13.375C53.974 13.4635 53.9271 13.5781 53.9062 13.7188C53.8906 13.8594 53.8698 14 53.8438 14.1406L51.3359 14.1562C51.3568 13.7083 51.4609 13.3099 51.6484 12.9609C51.8411 12.612 52.0938 12.3203 52.4062 12.0859C52.7188 11.8516 53.0703 11.6745 53.4609 11.5547C53.8568 11.4349 54.2682 11.3802 54.6953 11.3906C55.2526 11.3958 55.7396 11.5104 56.1562 11.7344C56.5729 11.9531 56.8854 12.2708 57.0938 12.6875C57.3021 13.1042 57.3776 13.599 57.3203 14.1719L56.7266 17.875C56.6797 18.1979 56.6458 18.5286 56.625 18.8672C56.6094 19.2057 56.6432 19.5339 56.7266 19.8516L56.7188 20L54.2891 20.0078C54.1797 19.6693 54.125 19.3177 54.125 18.9531C54.1302 18.5885 54.1589 18.2292 54.2109 17.875ZM55.0234 14.8359L54.7891 16.2422L54.2578 16.2344C54.0651 16.2396 53.8984 16.2839 53.7578 16.3672C53.6172 16.4453 53.5 16.5495 53.4062 16.6797C53.3177 16.8047 53.2474 16.9479 53.1953 17.1094C53.1432 17.2708 53.1068 17.4401 53.0859 17.6172C53.0651 17.7318 53.0495 17.8438 53.0391 17.9531C53.0339 18.0573 53.0521 18.1458 53.0938 18.2188C53.1354 18.2865 53.2318 18.3203 53.3828 18.3203C53.5391 18.3203 53.6823 18.2839 53.8125 18.2109C53.9427 18.138 54.0521 18.0443 54.1406 17.9297C54.2292 17.8151 54.2839 17.6849 54.3047 17.5391L54.4531 18.6016C54.3542 18.7995 54.2552 18.9922 54.1562 19.1797C54.0573 19.3672 53.9453 19.5365 53.8203 19.6875C53.6953 19.8385 53.5417 19.9557 53.3594 20.0391C53.1823 20.1276 52.9583 20.1719 52.6875 20.1719C52.224 20.1719 51.8255 20.0599 51.4922 19.8359C51.1641 19.612 50.9167 19.3177 50.75 18.9531C50.5885 18.5885 50.5156 18.1797 50.5312 17.7266C50.5469 17.2109 50.6615 16.7682 50.875 16.3984C51.0938 16.0286 51.3802 15.7292 51.7344 15.5C52.0885 15.2708 52.4818 15.1016 52.9141 14.9922C53.3464 14.8828 53.7969 14.8281 54.2656 14.8281L55.0234 14.8359ZM61.2109 13.4922L60.0781 20H57.5703L59.0391 11.5469H61.375L61.2109 13.4922ZM60.6016 15.5156L60.1562 15.5391C60.1875 15.0964 60.2578 14.6302 60.3672 14.1406C60.4766 13.6458 60.6432 13.1875 60.8672 12.7656C61.0911 12.3438 61.388 12.0052 61.7578 11.75C62.1328 11.4896 62.599 11.3646 63.1562 11.375C63.599 11.3958 63.9479 11.513 64.2031 11.7266C64.4635 11.9349 64.6484 12.2031 64.7578 12.5312C64.8724 12.8594 64.9349 13.2135 64.9453 13.5938C64.9609 13.9688 64.9531 14.3307 64.9219 14.6797L64.0312 20H61.5156L62.4062 14.6562C62.4219 14.4792 62.4297 14.2943 62.4297 14.1016C62.4349 13.9089 62.3984 13.7448 62.3203 13.6094C62.2422 13.474 62.0833 13.4036 61.8438 13.3984C61.5781 13.3932 61.3672 13.4635 61.2109 13.6094C61.0547 13.7552 60.9375 13.9427 60.8594 14.1719C60.7812 14.3958 60.724 14.6302 60.6875 14.875C60.6562 15.1146 60.6276 15.3281 60.6016 15.5156Z" fill="black"/>
<path d="M57.4453 29.1113L55.6816 29.1055L55.957 27.5176L57.5215 27.5293C57.7559 27.5254 57.9492 27.4668 58.1016 27.3535C58.2539 27.2402 58.3711 27.0938 58.4531 26.9141C58.5391 26.7305 58.5977 26.5352 58.6289 26.3281C58.6523 26.1797 58.666 26.0098 58.6699 25.8184C58.6777 25.627 58.6445 25.457 58.5703 25.3086C58.5 25.1602 58.3594 25.0781 58.1484 25.0625L57.1113 25.0566L55.8984 32H53.9531L55.4238 23.4688L58.207 23.4746C58.7461 23.4902 59.2012 23.627 59.5723 23.8848C59.9434 24.1426 60.2188 24.4824 60.3984 24.9043C60.5781 25.3262 60.6465 25.7969 60.6035 26.3164C60.5566 26.8906 60.3887 27.3867 60.0996 27.8047C59.8145 28.2227 59.4434 28.5469 58.9863 28.7773C58.5293 29.0039 58.0156 29.1152 57.4453 29.1113ZM60.832 29.1289L60.9023 28.543C60.957 28.1328 61.0566 27.7461 61.2012 27.3828C61.3457 27.0195 61.5391 26.6973 61.7812 26.416C62.0273 26.1348 62.3203 25.916 62.6602 25.7598C63.0039 25.5996 63.4023 25.5273 63.8555 25.543C64.2812 25.5547 64.6387 25.6445 64.9277 25.8125C65.2207 25.9766 65.4531 26.1992 65.625 26.4805C65.7969 26.7617 65.9121 27.0801 65.9707 27.4355C66.0332 27.7871 66.0469 28.1543 66.0117 28.5371L65.9355 29.1348C65.8848 29.5371 65.7852 29.9219 65.6367 30.2891C65.4922 30.6523 65.2969 30.9746 65.0508 31.2559C64.8086 31.5332 64.5156 31.75 64.1719 31.9062C63.832 32.0625 63.4375 32.1328 62.9883 32.1172C62.5625 32.1094 62.2031 32.0215 61.9102 31.8535C61.6211 31.6855 61.3887 31.4629 61.2129 31.1855C61.041 30.9043 60.9238 30.5879 60.8613 30.2363C60.8027 29.8809 60.793 29.5117 60.832 29.1289ZM62.7891 28.5371L62.7129 29.1348C62.709 29.2441 62.6953 29.3789 62.6719 29.5391C62.6484 29.6992 62.6387 29.8613 62.6426 30.0254C62.6504 30.1855 62.6895 30.3203 62.7598 30.4297C62.8301 30.5391 62.9531 30.5996 63.1289 30.6113C63.3359 30.627 63.498 30.5879 63.6152 30.4941C63.7324 30.3965 63.8203 30.2715 63.8789 30.1191C63.9375 29.9629 63.9785 29.7988 64.002 29.627C64.0254 29.4512 64.0449 29.2852 64.0605 29.1289L64.1367 28.5312C64.1406 28.4258 64.1543 28.293 64.1777 28.1328C64.2012 27.9727 64.209 27.8125 64.2012 27.6523C64.1973 27.4922 64.1582 27.3555 64.084 27.2422C64.0137 27.1289 63.8887 27.0664 63.709 27.0547C63.5215 27.0469 63.3691 27.0918 63.252 27.1895C63.1387 27.2871 63.0508 27.416 62.9883 27.5762C62.9258 27.7324 62.8809 27.8965 62.8535 28.0684C62.8262 28.2402 62.8047 28.3965 62.7891 28.5371ZM69.1758 30.2305C69.1992 30.1133 69.1602 30.0117 69.0586 29.9258C68.9609 29.8398 68.8457 29.7637 68.7129 29.6973C68.584 29.6309 68.4863 29.5703 68.4199 29.5156C68.2129 29.4102 68.0156 29.2969 67.8281 29.1758C67.6445 29.0508 67.4824 28.9102 67.3418 28.7539C67.2012 28.5977 67.0918 28.4199 67.0137 28.2207C66.9355 28.0215 66.9043 27.7949 66.9199 27.541C66.9316 27.2207 67.0059 26.9355 67.1426 26.6855C67.2793 26.4355 67.459 26.2246 67.6816 26.0527C67.9082 25.8809 68.1602 25.75 68.4375 25.6602C68.7188 25.5703 69.0117 25.5312 69.3164 25.543C69.7266 25.5469 70.0938 25.6289 70.418 25.7891C70.7461 25.9453 71.0039 26.1738 71.1914 26.4746C71.3789 26.7715 71.4727 27.1309 71.4727 27.5527L69.6035 27.5469C69.6074 27.4375 69.6094 27.3301 69.6094 27.2246C69.6094 27.1152 69.584 27.0273 69.5332 26.9609C69.4824 26.8906 69.3828 26.8555 69.2344 26.8555C69.1289 26.8594 69.0371 26.8906 68.959 26.9492C68.8809 27.0039 68.8184 27.0762 68.7715 27.166C68.7246 27.252 68.6914 27.3418 68.6719 27.4355C68.6523 27.5176 68.6543 27.5938 68.6777 27.6641C68.7051 27.7305 68.7422 27.793 68.7891 27.8516C68.8398 27.9062 68.8965 27.957 68.959 28.0039C69.0254 28.0469 69.0918 28.0859 69.1582 28.1211C69.4746 28.2539 69.7715 28.4043 70.0488 28.5723C70.3301 28.7363 70.5586 28.9453 70.7344 29.1992C70.9102 29.4492 70.9922 29.7734 70.9805 30.1719C70.9648 30.5039 70.8809 30.793 70.7285 31.0391C70.5801 31.2852 70.3828 31.4883 70.1367 31.6484C69.8945 31.8086 69.627 31.9277 69.334 32.0059C69.041 32.0879 68.7441 32.125 68.4434 32.1172C68.0332 32.1094 67.666 32.0176 67.3418 31.8418C67.0176 31.666 66.7617 31.4219 66.5742 31.1094C66.3867 30.7969 66.2891 30.4316 66.2812 30.0137L68.0215 30.0195C68.0176 30.1641 68.0254 30.2949 68.0449 30.4121C68.0645 30.5293 68.1113 30.623 68.1855 30.6934C68.2637 30.7637 68.3867 30.7988 68.5547 30.7988C68.6758 30.7949 68.7773 30.7695 68.8594 30.7227C68.9414 30.6758 69.0078 30.6113 69.0586 30.5293C69.1133 30.4434 69.1523 30.3438 69.1758 30.2305ZM75.5273 25.6602L75.2871 27.0312H72.0234L72.2695 25.6602H75.5273ZM73.125 24.084H75.0117L74.0039 29.9434C73.9883 30.0449 73.9805 30.1426 73.9805 30.2363C73.9805 30.3262 74.002 30.4004 74.0449 30.459C74.0879 30.5176 74.1719 30.5508 74.2969 30.5586C74.3633 30.5625 74.4297 30.5605 74.4961 30.5527C74.5664 30.5449 74.6328 30.5371 74.6953 30.5293L74.5488 31.959C74.4004 32.0176 74.248 32.0586 74.0918 32.082C73.9395 32.1055 73.7812 32.1172 73.6172 32.1172C73.2383 32.1094 72.9316 32.0195 72.6973 31.8477C72.4629 31.6758 72.2969 31.4434 72.1992 31.1504C72.1055 30.8574 72.0742 30.5332 72.1055 30.1777L73.125 24.084Z" fill="#FF0000"/>
</svg>
