<svg width="28" height="28" viewBox="0 0 28 28" fill="none" xmlns="http://www.w3.org/2000/svg">
<g clip-path="url(#clip0_248_1137)">
<path d="M27.9997 13.125C27.9997 19.4086 21.7325 24.5 13.9997 24.5C11.9708 24.5 10.0458 24.15 8.3067 23.5211C7.65592 23.9969 6.59498 24.6477 5.33717 25.1945C4.02467 25.7633 2.4442 26.25 0.874669 26.25C0.5192 26.25 0.202012 26.0367 0.0652936 25.7086C-0.0714251 25.3805 0.00513738 25.0086 0.251231 24.757L0.267637 24.7406C0.284044 24.7242 0.305919 24.7023 0.338731 24.6641C0.398887 24.5984 0.491856 24.4945 0.6067 24.3523C0.830919 24.0789 1.1317 23.6742 1.43795 23.1711C1.98482 22.2633 2.50436 21.0711 2.60826 19.7312C0.967637 17.8719 -0.000331362 15.5914 -0.000331362 13.125C-0.000331362 6.84141 6.26686 1.75 13.9997 1.75C21.7325 1.75 27.9997 6.84141 27.9997 13.125Z" fill="white"/>
</g>
<defs>
<clipPath id="clip0_248_1137">
<rect width="28" height="28" fill="white"/>
</clipPath>
</defs>
</svg>
