<svg width="80" height="40" viewBox="0 0 80 40" fill="none" xmlns="http://www.w3.org/2000/svg">
<path d="M0 4C0 1.79086 1.79086 0 4 0H76C78.2091 0 80 1.79086 80 4V36C80 38.2091 78.2091 40 76 40H4C1.79086 40 0 38.2091 0 36V4Z" fill="white"/>
<path d="M4 0.5H76C77.933 0.5 79.5 2.067 79.5 4V36C79.5 37.933 77.933 39.5 76 39.5H4C2.067 39.5 0.5 37.933 0.5 36V4C0.500001 2.067 2.067 0.5 4 0.5Z" stroke="black" stroke-opacity="0.3"/>
<mask id="mask0_142_279" style="mask-type:luminance" maskUnits="userSpaceOnUse" x="24" y="4" width="32" height="24">
<path d="M53.7143 4.57153H26.2857C25.0233 4.57153 24 5.59488 24 6.85725V25.143C24 26.4053 25.0233 27.4287 26.2857 27.4287H53.7143C54.9767 27.4287 56 26.4053 56 25.143V6.85725C56 5.59488 54.9767 4.57153 53.7143 4.57153Z" fill="white"/>
</mask>
<g mask="url(#mask0_142_279)">
<path d="M53.7143 4.57153H26.2857C25.0233 4.57153 24 5.59488 24 6.85725V25.143C24 26.4053 25.0233 27.4287 26.2857 27.4287H53.7143C54.9767 27.4287 56 26.4053 56 25.143V6.85725C56 5.59488 54.9767 4.57153 53.7143 4.57153Z" fill="white"/>
<mask id="mask1_142_279" style="mask-type:alpha" maskUnits="userSpaceOnUse" x="24" y="4" width="32" height="24">
<path d="M53.7143 4.57153H26.2857C25.0233 4.57153 24 5.59488 24 6.85725V25.143C24 26.4053 25.0233 27.4287 26.2857 27.4287H53.7143C54.9767 27.4287 56 26.4053 56 25.143V6.85725C56 5.59488 54.9767 4.57153 53.7143 4.57153Z" fill="white"/>
</mask>
<g mask="url(#mask1_142_279)">
<path d="M56 4.57153H24V27.4287H56V4.57153Z" fill="#043CAE"/>
<path fill-rule="evenodd" clip-rule="evenodd" d="M38.9223 9.45846L39.9998 9.14287L41.0773 9.45846L40.7616 8.38096L41.0773 7.30347L39.9998 7.61907L38.9223 7.30347L39.2379 8.38096L38.9223 9.45846ZM38.9223 24.6966L39.9998 24.3809L41.0773 24.6966L40.7616 23.6191L41.0773 22.5416L39.9998 22.8571L38.9223 22.5416L39.2379 23.6191L38.9223 24.6966ZM47.6188 16.7619L46.5413 17.0775L46.8569 16L46.5413 14.9225L47.6188 15.2381L48.6964 14.9225L48.3807 16L48.6964 17.0775L47.6188 16.7619ZM31.3032 17.0775L32.3807 16.7619L33.4582 17.0775L33.1426 16L33.4582 14.9225L32.3807 15.2381L31.3032 14.9225L31.6188 16L31.3032 17.0775ZM46.5981 12.9524L45.5206 13.268L45.8361 12.1905L45.5206 11.113L46.5981 11.4286L47.6756 11.113L47.3599 12.1905L47.6756 13.268L46.5981 12.9524ZM32.324 20.8871L33.4015 20.5714L34.479 20.8871L34.1634 19.8095L34.479 18.732L33.4015 19.0477L32.324 18.732L32.6396 19.8095L32.324 20.8871ZM43.8093 10.1636L42.7318 10.4792L43.0473 9.40173L42.7318 8.32423L43.8093 8.63982L44.8868 8.32423L44.5712 9.40173L44.8868 10.4792L43.8093 10.1636ZM35.1128 23.6758L36.1902 23.3602L37.2678 23.6758L36.9521 22.5983L37.2678 21.5208L36.1902 21.8363L35.1128 21.5208L35.4283 22.5983L35.1128 23.6758ZM46.5981 20.5714L45.5206 20.8871L45.8361 19.8095L45.5206 18.732L46.5981 19.0477L47.6756 18.732L47.3599 19.8095L47.6756 20.8871L46.5981 20.5714ZM32.324 13.268L33.4015 12.9524L34.479 13.268L34.1634 12.1905L34.479 11.113L33.4015 11.4286L32.324 11.113L32.6396 12.1905L32.324 13.268ZM43.8093 23.3602L42.7318 23.6758L43.0473 22.5983L42.7318 21.5208L43.8093 21.8363L44.8868 21.5208L44.5712 22.5983L44.8868 23.6758L43.8093 23.3602ZM35.1128 10.4792L36.1902 10.1636L37.2678 10.4792L36.9521 9.40173L37.2678 8.32423L36.1902 8.63982L35.1128 8.32423L35.4283 9.40173L35.1128 10.4792Z" fill="#FFD429"/>
</g>
</g>
<path d="M10.4053 34.8574V36H6.62109V34.8574H10.4053ZM7.09961 28.8906V36H5.63477V28.8906H7.09961ZM9.91211 31.7861V32.8994H6.62109V31.7861H9.91211ZM10.4004 28.8906V30.0381H6.62109V28.8906H10.4004ZM14.209 34.7354V30.7168H15.6152V36H14.292L14.209 34.7354ZM14.3652 33.6514L14.7803 33.6416C14.7803 33.9932 14.7396 34.3203 14.6582 34.623C14.5768 34.9225 14.4548 35.1829 14.292 35.4043C14.1292 35.6224 13.9242 35.7933 13.6768 35.917C13.4294 36.0374 13.138 36.0977 12.8027 36.0977C12.5456 36.0977 12.3079 36.0618 12.0898 35.9902C11.875 35.9154 11.6895 35.7998 11.5332 35.6436C11.3802 35.484 11.2598 35.2806 11.1719 35.0332C11.0872 34.7826 11.0449 34.4814 11.0449 34.1299V30.7168H12.4512V34.1396C12.4512 34.2959 12.4691 34.4277 12.5049 34.5352C12.5439 34.6426 12.5977 34.7305 12.666 34.7988C12.7344 34.8672 12.8141 34.916 12.9053 34.9453C12.9997 34.9746 13.1038 34.9893 13.2178 34.9893C13.5075 34.9893 13.7354 34.9307 13.9014 34.8135C14.0706 34.6963 14.1895 34.5368 14.2578 34.335C14.3294 34.1299 14.3652 33.902 14.3652 33.6514ZM18.0957 31.8691V36H16.6895V30.7168H18.0127L18.0957 31.8691ZM19.6875 30.6826L19.6631 31.9863C19.5947 31.9766 19.5117 31.9684 19.4141 31.9619C19.3197 31.9521 19.2334 31.9473 19.1553 31.9473C18.9567 31.9473 18.7842 31.9733 18.6377 32.0254C18.4945 32.0742 18.374 32.1475 18.2764 32.2451C18.182 32.3428 18.1104 32.4616 18.0615 32.6016C18.016 32.7415 17.9899 32.901 17.9834 33.0801L17.7002 32.9922C17.7002 32.6504 17.7344 32.3363 17.8027 32.0498C17.8711 31.7601 17.9704 31.5078 18.1006 31.293C18.234 31.0781 18.3968 30.9121 18.5889 30.7949C18.7809 30.6777 19.0007 30.6191 19.248 30.6191C19.3262 30.6191 19.4059 30.6257 19.4873 30.6387C19.5687 30.6484 19.6354 30.6631 19.6875 30.6826ZM19.9805 33.4121V33.3096C19.9805 32.9222 20.0358 32.5658 20.1465 32.2402C20.2572 31.9115 20.4183 31.6266 20.6299 31.3857C20.8415 31.1449 21.1019 30.9577 21.4111 30.8242C21.7204 30.6875 22.0752 30.6191 22.4756 30.6191C22.876 30.6191 23.2324 30.6875 23.5449 30.8242C23.8574 30.9577 24.1195 31.1449 24.3311 31.3857C24.5459 31.6266 24.7087 31.9115 24.8193 32.2402C24.93 32.5658 24.9854 32.9222 24.9854 33.3096V33.4121C24.9854 33.7962 24.93 34.1527 24.8193 34.4814C24.7087 34.807 24.5459 35.0918 24.3311 35.3359C24.1195 35.5768 23.859 35.764 23.5498 35.8975C23.2406 36.0309 22.8857 36.0977 22.4854 36.0977C22.085 36.0977 21.7285 36.0309 21.416 35.8975C21.1068 35.764 20.8447 35.5768 20.6299 35.3359C20.4183 35.0918 20.2572 34.807 20.1465 34.4814C20.0358 34.1527 19.9805 33.7962 19.9805 33.4121ZM21.3867 33.3096V33.4121C21.3867 33.6335 21.4062 33.8402 21.4453 34.0322C21.4844 34.2243 21.5462 34.3936 21.6309 34.54C21.7188 34.6833 21.8327 34.7956 21.9727 34.877C22.1126 34.9583 22.2835 34.999 22.4854 34.999C22.6807 34.999 22.8483 34.9583 22.9883 34.877C23.1283 34.7956 23.2406 34.6833 23.3252 34.54C23.4098 34.3936 23.4717 34.2243 23.5107 34.0322C23.5531 33.8402 23.5742 33.6335 23.5742 33.4121V33.3096C23.5742 33.0947 23.5531 32.8929 23.5107 32.7041C23.4717 32.512 23.4082 32.3428 23.3203 32.1963C23.2357 32.0465 23.1234 31.9294 22.9834 31.8447C22.8434 31.7601 22.6742 31.7178 22.4756 31.7178C22.277 31.7178 22.1077 31.7601 21.9678 31.8447C21.8311 31.9294 21.7188 32.0465 21.6309 32.1963C21.5462 32.3428 21.4844 32.512 21.4453 32.7041C21.4062 32.8929 21.3867 33.0947 21.3867 33.3096ZM27.2559 31.7324V38.0312H25.8496V30.7168H27.1533L27.2559 31.7324ZM30.6006 33.2998V33.4023C30.6006 33.7865 30.555 34.1429 30.4639 34.4717C30.376 34.8005 30.2458 35.0869 30.0732 35.3311C29.9007 35.5719 29.6859 35.7607 29.4287 35.8975C29.1748 36.0309 28.8818 36.0977 28.5498 36.0977C28.2275 36.0977 27.9476 36.0326 27.71 35.9023C27.4723 35.7721 27.2721 35.5898 27.1094 35.3555C26.9499 35.1178 26.8213 34.8428 26.7236 34.5303C26.626 34.2178 26.5511 33.8825 26.499 33.5244V33.2559C26.5511 32.8717 26.626 32.5202 26.7236 32.2012C26.8213 31.8789 26.9499 31.6006 27.1094 31.3662C27.2721 31.1286 27.4707 30.9447 27.7051 30.8145C27.9427 30.6842 28.221 30.6191 28.54 30.6191C28.8753 30.6191 29.1699 30.6826 29.4238 30.8096C29.681 30.9365 29.8958 31.1188 30.0684 31.3564C30.2441 31.5941 30.376 31.8773 30.4639 32.2061C30.555 32.5348 30.6006 32.8994 30.6006 33.2998ZM29.1895 33.4023V33.2998C29.1895 33.0752 29.1699 32.8685 29.1309 32.6797C29.0951 32.4876 29.0365 32.32 28.9551 32.1768C28.877 32.0335 28.7728 31.9229 28.6426 31.8447C28.5156 31.7633 28.361 31.7227 28.1787 31.7227C27.9867 31.7227 27.8223 31.7536 27.6855 31.8154C27.5521 31.8773 27.443 31.9668 27.3584 32.084C27.2738 32.2012 27.2103 32.3411 27.168 32.5039C27.1257 32.6667 27.0996 32.8506 27.0898 33.0557V33.7344C27.1061 33.9753 27.1517 34.1917 27.2266 34.3838C27.3014 34.5726 27.417 34.7223 27.5732 34.833C27.7295 34.9437 27.9346 34.999 28.1885 34.999C28.374 34.999 28.5303 34.9583 28.6572 34.877C28.7842 34.7923 28.8867 34.6768 28.9648 34.5303C29.0462 34.3838 29.1032 34.2145 29.1357 34.0225C29.1715 33.8304 29.1895 33.6237 29.1895 33.4023ZM33.9062 36.0977C33.4961 36.0977 33.1283 36.0326 32.8027 35.9023C32.4772 35.7689 32.2005 35.585 31.9727 35.3506C31.748 35.1162 31.5755 34.8444 31.4551 34.5352C31.3346 34.2227 31.2744 33.8906 31.2744 33.5391V33.3438C31.2744 32.9434 31.3314 32.5771 31.4453 32.2451C31.5592 31.9131 31.722 31.625 31.9336 31.3809C32.1484 31.1367 32.4089 30.9495 32.7148 30.8193C33.0208 30.6859 33.3659 30.6191 33.75 30.6191C34.1243 30.6191 34.4564 30.681 34.7461 30.8047C35.0358 30.9284 35.2783 31.1042 35.4736 31.332C35.6722 31.5599 35.8219 31.8333 35.9229 32.1523C36.0238 32.4681 36.0742 32.8197 36.0742 33.207V33.793H31.875V32.8555H34.6924V32.748C34.6924 32.5527 34.6566 32.3786 34.585 32.2256C34.5166 32.0693 34.4124 31.9456 34.2725 31.8545C34.1325 31.7633 33.9535 31.7178 33.7354 31.7178C33.5498 31.7178 33.3903 31.7585 33.2568 31.8398C33.1234 31.9212 33.0143 32.0352 32.9297 32.1816C32.8483 32.3281 32.7865 32.5007 32.7441 32.6992C32.7051 32.8945 32.6855 33.1094 32.6855 33.3438V33.5391C32.6855 33.7507 32.7148 33.946 32.7734 34.125C32.8353 34.304 32.9215 34.4587 33.0322 34.5889C33.1462 34.7191 33.2829 34.82 33.4424 34.8916C33.6051 34.9632 33.7891 34.999 33.9941 34.999C34.248 34.999 34.484 34.9502 34.7021 34.8525C34.9235 34.7516 35.1139 34.6003 35.2734 34.3984L35.957 35.1406C35.8464 35.3001 35.695 35.4531 35.5029 35.5996C35.3141 35.7461 35.0863 35.8665 34.8193 35.9609C34.5524 36.0521 34.248 36.0977 33.9062 36.0977ZM44.2236 34.8574V36H40.4395V34.8574H44.2236ZM40.918 28.8906V36H39.4531V28.8906H40.918ZM43.7305 31.7861V32.8994H40.4395V31.7861H43.7305ZM44.2188 28.8906V30.0381H40.4395V28.8906H44.2188ZM46.123 30.7168L46.9971 32.3232L47.8955 30.7168H49.3945L47.9004 33.2998L49.4629 36H47.959L47.0068 34.3008L46.0547 36H44.5508L46.1133 33.2998L44.6191 30.7168H46.123ZM51.4844 31.7324V38.0312H50.0781V30.7168H51.3818L51.4844 31.7324ZM54.8291 33.2998V33.4023C54.8291 33.7865 54.7835 34.1429 54.6924 34.4717C54.6045 34.8005 54.4743 35.0869 54.3018 35.3311C54.1292 35.5719 53.9144 35.7607 53.6572 35.8975C53.4033 36.0309 53.1104 36.0977 52.7783 36.0977C52.4561 36.0977 52.1761 36.0326 51.9385 35.9023C51.7008 35.7721 51.5007 35.5898 51.3379 35.3555C51.1784 35.1178 51.0498 34.8428 50.9521 34.5303C50.8545 34.2178 50.7796 33.8825 50.7275 33.5244V33.2559C50.7796 32.8717 50.8545 32.5202 50.9521 32.2012C51.0498 31.8789 51.1784 31.6006 51.3379 31.3662C51.5007 31.1286 51.6992 30.9447 51.9336 30.8145C52.1712 30.6842 52.4495 30.6191 52.7686 30.6191C53.1038 30.6191 53.3984 30.6826 53.6523 30.8096C53.9095 30.9365 54.1243 31.1188 54.2969 31.3564C54.4727 31.5941 54.6045 31.8773 54.6924 32.2061C54.7835 32.5348 54.8291 32.8994 54.8291 33.2998ZM53.418 33.4023V33.2998C53.418 33.0752 53.3984 32.8685 53.3594 32.6797C53.3236 32.4876 53.265 32.32 53.1836 32.1768C53.1055 32.0335 53.0013 31.9229 52.8711 31.8447C52.7441 31.7633 52.5895 31.7227 52.4072 31.7227C52.2152 31.7227 52.0508 31.7536 51.9141 31.8154C51.7806 31.8773 51.6715 31.9668 51.5869 32.084C51.5023 32.2012 51.4388 32.3411 51.3965 32.5039C51.3542 32.6667 51.3281 32.8506 51.3184 33.0557V33.7344C51.3346 33.9753 51.3802 34.1917 51.4551 34.3838C51.5299 34.5726 51.6455 34.7223 51.8018 34.833C51.958 34.9437 52.1631 34.999 52.417 34.999C52.6025 34.999 52.7588 34.9583 52.8857 34.877C53.0127 34.7923 53.1152 34.6768 53.1934 34.5303C53.2747 34.3838 53.3317 34.2145 53.3643 34.0225C53.4001 33.8304 53.418 33.6237 53.418 33.4023ZM57.1094 31.8691V36H55.7031V30.7168H57.0264L57.1094 31.8691ZM58.7012 30.6826L58.6768 31.9863C58.6084 31.9766 58.5254 31.9684 58.4277 31.9619C58.3333 31.9521 58.2471 31.9473 58.1689 31.9473C57.9704 31.9473 57.7979 31.9733 57.6514 32.0254C57.5081 32.0742 57.3877 32.1475 57.29 32.2451C57.1956 32.3428 57.124 32.4616 57.0752 32.6016C57.0296 32.7415 57.0036 32.901 56.9971 33.0801L56.7139 32.9922C56.7139 32.6504 56.748 32.3363 56.8164 32.0498C56.8848 31.7601 56.984 31.5078 57.1143 31.293C57.2477 31.0781 57.4105 30.9121 57.6025 30.7949C57.7946 30.6777 58.0143 30.6191 58.2617 30.6191C58.3398 30.6191 58.4196 30.6257 58.501 30.6387C58.5824 30.6484 58.6491 30.6631 58.7012 30.6826ZM61.6992 36.0977C61.2891 36.0977 60.9212 36.0326 60.5957 35.9023C60.2702 35.7689 59.9935 35.585 59.7656 35.3506C59.541 35.1162 59.3685 34.8444 59.248 34.5352C59.1276 34.2227 59.0674 33.8906 59.0674 33.5391V33.3438C59.0674 32.9434 59.1243 32.5771 59.2383 32.2451C59.3522 31.9131 59.515 31.625 59.7266 31.3809C59.9414 31.1367 60.2018 30.9495 60.5078 30.8193C60.8138 30.6859 61.1589 30.6191 61.543 30.6191C61.9173 30.6191 62.2493 30.681 62.5391 30.8047C62.8288 30.9284 63.0713 31.1042 63.2666 31.332C63.4652 31.5599 63.6149 31.8333 63.7158 32.1523C63.8167 32.4681 63.8672 32.8197 63.8672 33.207V33.793H59.668V32.8555H62.4854V32.748C62.4854 32.5527 62.4495 32.3786 62.3779 32.2256C62.3096 32.0693 62.2054 31.9456 62.0654 31.8545C61.9255 31.7633 61.7464 31.7178 61.5283 31.7178C61.3428 31.7178 61.1833 31.7585 61.0498 31.8398C60.9163 31.9212 60.8073 32.0352 60.7227 32.1816C60.6413 32.3281 60.5794 32.5007 60.5371 32.6992C60.498 32.8945 60.4785 33.1094 60.4785 33.3438V33.5391C60.4785 33.7507 60.5078 33.946 60.5664 34.125C60.6283 34.304 60.7145 34.4587 60.8252 34.5889C60.9391 34.7191 61.0758 34.82 61.2354 34.8916C61.3981 34.9632 61.582 34.999 61.7871 34.999C62.041 34.999 62.277 34.9502 62.4951 34.8525C62.7165 34.7516 62.9069 34.6003 63.0664 34.3984L63.75 35.1406C63.6393 35.3001 63.488 35.4531 63.2959 35.5996C63.1071 35.7461 62.8792 35.8665 62.6123 35.9609C62.3454 36.0521 62.041 36.0977 61.6992 36.0977ZM67.5244 34.54C67.5244 34.4391 67.4951 34.348 67.4365 34.2666C67.3779 34.1852 67.2689 34.1104 67.1094 34.042C66.9531 33.9704 66.7269 33.9053 66.4307 33.8467C66.1637 33.7881 65.9147 33.7148 65.6836 33.627C65.4557 33.5358 65.2572 33.4268 65.0879 33.2998C64.9219 33.1729 64.7917 33.0231 64.6973 32.8506C64.6029 32.6748 64.5557 32.4746 64.5557 32.25C64.5557 32.0286 64.6029 31.8203 64.6973 31.625C64.7949 31.4297 64.9333 31.2572 65.1123 31.1074C65.2946 30.9544 65.516 30.8356 65.7764 30.751C66.04 30.6631 66.3363 30.6191 66.665 30.6191C67.124 30.6191 67.5179 30.6924 67.8467 30.8389C68.1787 30.9854 68.4326 31.1872 68.6084 31.4443C68.7874 31.6982 68.877 31.988 68.877 32.3135H67.4707C67.4707 32.1768 67.4414 32.0547 67.3828 31.9473C67.3275 31.8366 67.2396 31.7503 67.1191 31.6885C67.002 31.6234 66.849 31.5908 66.6602 31.5908C66.5039 31.5908 66.3688 31.6185 66.2549 31.6738C66.141 31.7259 66.0531 31.7975 65.9912 31.8887C65.9326 31.9766 65.9033 32.0742 65.9033 32.1816C65.9033 32.263 65.9196 32.3363 65.9521 32.4014C65.988 32.4632 66.0449 32.5202 66.123 32.5723C66.2012 32.6243 66.3021 32.6732 66.4258 32.7188C66.5527 32.7611 66.709 32.8001 66.8945 32.8359C67.2754 32.9141 67.6156 33.0166 67.915 33.1436C68.2145 33.2673 68.4521 33.4365 68.6279 33.6514C68.8037 33.863 68.8916 34.1413 68.8916 34.4863C68.8916 34.7207 68.8395 34.9355 68.7354 35.1309C68.6312 35.3262 68.4814 35.4971 68.2861 35.6436C68.0908 35.7868 67.8564 35.8991 67.583 35.9805C67.3128 36.0586 67.0085 36.0977 66.6699 36.0977C66.1784 36.0977 65.7617 36.0098 65.4199 35.834C65.0814 35.6582 64.8242 35.4352 64.6484 35.165C64.4759 34.8916 64.3896 34.6117 64.3896 34.3252H65.7227C65.7292 34.5173 65.778 34.6719 65.8691 34.7891C65.9635 34.9062 66.0824 34.9909 66.2256 35.043C66.3721 35.0951 66.5299 35.1211 66.6992 35.1211C66.8815 35.1211 67.0329 35.0967 67.1533 35.0479C67.2738 34.9958 67.3649 34.9274 67.4268 34.8428C67.4919 34.7549 67.5244 34.654 67.5244 34.54ZM72.6611 34.54C72.6611 34.4391 72.6318 34.348 72.5732 34.2666C72.5146 34.1852 72.4056 34.1104 72.2461 34.042C72.0898 33.9704 71.8636 33.9053 71.5674 33.8467C71.3005 33.7881 71.0514 33.7148 70.8203 33.627C70.5924 33.5358 70.3939 33.4268 70.2246 33.2998C70.0586 33.1729 69.9284 33.0231 69.834 32.8506C69.7396 32.6748 69.6924 32.4746 69.6924 32.25C69.6924 32.0286 69.7396 31.8203 69.834 31.625C69.9316 31.4297 70.07 31.2572 70.249 31.1074C70.4313 30.9544 70.6527 30.8356 70.9131 30.751C71.1768 30.6631 71.473 30.6191 71.8018 30.6191C72.2607 30.6191 72.6546 30.6924 72.9834 30.8389C73.3154 30.9854 73.5693 31.1872 73.7451 31.4443C73.9242 31.6982 74.0137 31.988 74.0137 32.3135H72.6074C72.6074 32.1768 72.5781 32.0547 72.5195 31.9473C72.4642 31.8366 72.3763 31.7503 72.2559 31.6885C72.1387 31.6234 71.9857 31.5908 71.7969 31.5908C71.6406 31.5908 71.5055 31.6185 71.3916 31.6738C71.2777 31.7259 71.1898 31.7975 71.1279 31.8887C71.0693 31.9766 71.04 32.0742 71.04 32.1816C71.04 32.263 71.0563 32.3363 71.0889 32.4014C71.1247 32.4632 71.1816 32.5202 71.2598 32.5723C71.3379 32.6243 71.4388 32.6732 71.5625 32.7188C71.6895 32.7611 71.8457 32.8001 72.0312 32.8359C72.4121 32.9141 72.7523 33.0166 73.0518 33.1436C73.3512 33.2673 73.5889 33.4365 73.7646 33.6514C73.9404 33.863 74.0283 34.1413 74.0283 34.4863C74.0283 34.7207 73.9762 34.9355 73.8721 35.1309C73.7679 35.3262 73.6182 35.4971 73.4229 35.6436C73.2275 35.7868 72.9932 35.8991 72.7197 35.9805C72.4495 36.0586 72.1452 36.0977 71.8066 36.0977C71.3151 36.0977 70.8984 36.0098 70.5566 35.834C70.2181 35.6582 69.9609 35.4352 69.7852 35.165C69.6126 34.8916 69.5264 34.6117 69.5264 34.3252H70.8594C70.8659 34.5173 70.9147 34.6719 71.0059 34.7891C71.1003 34.9062 71.2191 34.9909 71.3623 35.043C71.5088 35.0951 71.6667 35.1211 71.8359 35.1211C72.0182 35.1211 72.1696 35.0967 72.29 35.0479C72.4105 34.9958 72.5016 34.9274 72.5635 34.8428C72.6286 34.7549 72.6611 34.654 72.6611 34.54Z" fill="#FFD429"/>
</svg>
