<svg width="80" height="40" viewBox="0 0 80 40" fill="none" xmlns="http://www.w3.org/2000/svg">
<path d="M0 4C0 1.79086 1.79086 0 4 0H76C78.2091 0 80 1.79086 80 4V36C80 38.2091 78.2091 40 76 40H4C1.79086 40 0 38.2091 0 36V4Z" fill="white"/>
<path d="M4 0.5H76C77.933 0.5 79.5 2.067 79.5 4V36C79.5 37.933 77.933 39.5 76 39.5H4C2.067 39.5 0.5 37.933 0.5 36V4C0.500001 2.067 2.067 0.5 4 0.5Z" stroke="black" stroke-opacity="0.3"/>
<g clip-path="url(#clip0_142_264)">
<path d="M56.8613 18.6953C56.8789 18.5781 56.8867 18.457 56.8867 18.3359C56.8867 16.9629 55.7695 15.8457 54.3965 15.8457C53.0234 15.8457 51.9062 16.9629 51.9062 18.3359V18.4395H49.3223C49.2031 18.4395 49.1074 18.5352 49.1074 18.6543C49.1074 18.7734 49.2031 18.8691 49.3223 18.8691H52.0645C52.0762 18.8691 52.0879 18.8672 52.0977 18.8672C52.1055 18.8672 52.1133 18.8691 52.1211 18.8691C52.2402 18.8691 52.3359 18.7734 52.3359 18.6543V18.3379C52.3359 17.2012 53.2598 16.2773 54.3965 16.2773C55.5332 16.2773 56.457 17.2012 56.457 18.3379C56.457 18.9766 56.168 19.5684 55.6641 19.9629C55.5703 20.0352 55.5527 20.1719 55.627 20.2656C55.6699 20.3203 55.7324 20.3477 55.7969 20.3477C55.8438 20.3477 55.8906 20.332 55.9297 20.3027C56.3281 19.9922 56.6152 19.5781 56.7676 19.1133C56.793 19.123 56.8184 19.1289 56.8457 19.1289C57.7969 19.1289 58.5703 19.9023 58.5703 20.8535C58.5703 21.8047 57.7969 22.5781 56.8457 22.5781C55.8945 22.5781 55.1211 21.8047 55.1211 20.8535C55.1211 20.7344 55.0254 20.6387 54.9062 20.6387C54.7871 20.6387 54.6914 20.7344 54.6914 20.8535C54.6914 21.625 55.0996 22.3027 55.7109 22.6836C55.6895 22.7012 55.6699 22.7227 55.6562 22.748C55.3301 23.3398 54.7109 23.707 54.0371 23.707C53.0176 23.707 52.1895 22.8789 52.1895 21.8594V21.2773C52.1895 21.1582 52.0938 21.0625 51.9746 21.0625H49.2148C49.0957 21.0625 49 21.1582 49 21.2773C49 21.3965 49.0957 21.4922 49.2148 21.4922H51.7559V21.8594C51.7559 23.1152 52.7773 24.1367 54.0332 24.1367C54.8633 24.1367 55.6289 23.6836 56.0293 22.9551C56.0469 22.9238 56.0547 22.8906 56.0566 22.8594C56.3008 22.9551 56.5664 23.0078 56.8438 23.0078C58.0312 23.0078 58.998 22.041 58.998 20.8535C58.998 19.668 58.041 18.7051 56.8613 18.6953Z" fill="#59CAFC"/>
<path d="M51.957 21.0566H51.9727C52.0918 21.0566 52.1875 21.1523 52.1875 21.2715V21.8535C52.1875 22.873 53.0156 23.7012 54.0352 23.7012C54.709 23.7012 55.3301 23.334 55.6543 22.7422C55.668 22.7168 55.6875 22.6953 55.709 22.6777C55.0977 22.2969 54.6895 21.6191 54.6895 20.8477C54.6895 20.7285 54.7852 20.6328 54.9043 20.6328C55.0234 20.6328 55.1191 20.7285 55.1191 20.8477C55.1191 21.7988 55.8926 22.5723 56.8438 22.5723C57.7949 22.5723 58.5684 21.7988 58.5684 20.8477C58.5684 19.8965 57.7949 19.123 56.8438 19.123C56.8164 19.123 56.7891 19.1172 56.7656 19.1074C56.6152 19.5723 56.3262 19.9863 55.9277 20.2969C55.8887 20.3281 55.8418 20.3418 55.7949 20.3418C55.7305 20.3418 55.668 20.3125 55.625 20.2598C55.5527 20.166 55.5684 20.0312 55.6621 19.957C55.9941 19.6992 56.2324 19.3555 56.3574 18.9688C56.3555 18.9688 56.3535 18.9688 56.3516 18.9707C56.3867 18.8691 56.4121 18.7656 56.4316 18.6602C56.4492 18.5527 56.457 18.4434 56.457 18.334C56.457 17.1973 55.5332 16.2734 54.3965 16.2734C53.2598 16.2734 52.3359 17.1973 52.3359 18.334V18.6523C52.3359 18.7715 52.2402 18.8672 52.1211 18.8672C52.1133 18.8672 52.1055 18.8672 52.0977 18.8652C52.0859 18.8672 52.0762 18.8672 52.0645 18.8672H50.0059V21.0547H51.957V21.0566Z" fill="#76DFFF"/>
<path d="M51.957 20.2246H49.2148C49.0957 20.2246 49 20.1289 49 20.0098C49 19.8906 49.0957 19.7949 49.2148 19.7949H51.957C52.0762 19.7949 52.1719 19.8906 52.1719 20.0098C52.1719 20.1289 52.0762 20.2246 51.957 20.2246Z" fill="#59CAFC"/>
</g>
<path d="M25.5078 13.625L23.5312 25H20.9375L22.8984 13.625H25.5078ZM28.0781 18.3594L27.7109 20.4688H23.6094L23.9766 18.3594H28.0781ZM29.2109 13.625L28.8438 15.7422H24.4141L24.7891 13.625H29.2109ZM31.7734 22.875L32.3594 19.125C32.3698 18.9896 32.3828 18.8568 32.3984 18.7266C32.4193 18.5911 32.4036 18.4766 32.3516 18.3828C32.3047 18.2839 32.1875 18.237 32 18.2422C31.8177 18.237 31.6875 18.2812 31.6094 18.375C31.5365 18.4635 31.4896 18.5781 31.4688 18.7188C31.4531 18.8594 31.4323 19 31.4062 19.1406L28.8984 19.1562C28.9193 18.7083 29.0234 18.3099 29.2109 17.9609C29.4036 17.612 29.6562 17.3203 29.9688 17.0859C30.2812 16.8516 30.6328 16.6745 31.0234 16.5547C31.4193 16.4349 31.8307 16.3802 32.2578 16.3906C32.8151 16.3958 33.3021 16.5104 33.7188 16.7344C34.1354 16.9531 34.4479 17.2708 34.6562 17.6875C34.8646 18.1042 34.9401 18.599 34.8828 19.1719L34.2891 22.875C34.2422 23.1979 34.2083 23.5286 34.1875 23.8672C34.1719 24.2057 34.2057 24.5339 34.2891 24.8516L34.2812 25L31.8516 25.0078C31.7422 24.6693 31.6875 24.3177 31.6875 23.9531C31.6927 23.5885 31.7214 23.2292 31.7734 22.875ZM32.5859 19.8359L32.3516 21.2422L31.8203 21.2344C31.6276 21.2396 31.4609 21.2839 31.3203 21.3672C31.1797 21.4453 31.0625 21.5495 30.9688 21.6797C30.8802 21.8047 30.8099 21.9479 30.7578 22.1094C30.7057 22.2708 30.6693 22.4401 30.6484 22.6172C30.6276 22.7318 30.612 22.8438 30.6016 22.9531C30.5964 23.0573 30.6146 23.1458 30.6562 23.2188C30.6979 23.2865 30.7943 23.3203 30.9453 23.3203C31.1016 23.3203 31.2448 23.2839 31.375 23.2109C31.5052 23.138 31.6146 23.0443 31.7031 22.9297C31.7917 22.8151 31.8464 22.6849 31.8672 22.5391L32.0156 23.6016C31.9167 23.7995 31.8177 23.9922 31.7188 24.1797C31.6198 24.3672 31.5078 24.5365 31.3828 24.6875C31.2578 24.8385 31.1042 24.9557 30.9219 25.0391C30.7448 25.1276 30.5208 25.1719 30.25 25.1719C29.7865 25.1719 29.388 25.0599 29.0547 24.8359C28.7266 24.612 28.4792 24.3177 28.3125 23.9531C28.151 23.5885 28.0781 23.1797 28.0938 22.7266C28.1094 22.2109 28.224 21.7682 28.4375 21.3984C28.6562 21.0286 28.9427 20.7292 29.2969 20.5C29.651 20.2708 30.0443 20.1016 30.4766 19.9922C30.9089 19.8828 31.3594 19.8281 31.8281 19.8281L32.5859 19.8359ZM39.1094 22.6406C39.1406 22.4844 39.0885 22.349 38.9531 22.2344C38.8229 22.1198 38.6693 22.0182 38.4922 21.9297C38.3203 21.8411 38.1901 21.7604 38.1016 21.6875C37.8255 21.5469 37.5625 21.3958 37.3125 21.2344C37.0677 21.0677 36.8516 20.8802 36.6641 20.6719C36.4766 20.4635 36.3307 20.2266 36.2266 19.9609C36.1224 19.6953 36.0807 19.3932 36.1016 19.0547C36.1172 18.6276 36.2161 18.2474 36.3984 17.9141C36.5807 17.5807 36.8203 17.2995 37.1172 17.0703C37.4193 16.8411 37.7552 16.6667 38.125 16.5469C38.5 16.4271 38.8906 16.375 39.2969 16.3906C39.8438 16.3958 40.3333 16.5052 40.7656 16.7188C41.2031 16.9271 41.5469 17.2318 41.7969 17.6328C42.0469 18.0286 42.1719 18.5078 42.1719 19.0703L39.6797 19.0625C39.6849 18.9167 39.6875 18.7734 39.6875 18.6328C39.6875 18.487 39.6536 18.3698 39.5859 18.2812C39.5182 18.1875 39.3854 18.1406 39.1875 18.1406C39.0469 18.1458 38.9245 18.1875 38.8203 18.2656C38.7161 18.3385 38.6328 18.4349 38.5703 18.5547C38.5078 18.6693 38.4635 18.7891 38.4375 18.9141C38.4115 19.0234 38.4141 19.125 38.4453 19.2188C38.4818 19.3073 38.5312 19.3906 38.5938 19.4688C38.6615 19.5417 38.737 19.6094 38.8203 19.6719C38.9089 19.7292 38.9974 19.7812 39.0859 19.8281C39.5078 20.0052 39.9036 20.2057 40.2734 20.4297C40.6484 20.6484 40.9531 20.9271 41.1875 21.2656C41.4219 21.599 41.5312 22.0312 41.5156 22.5625C41.4948 23.0052 41.3828 23.3906 41.1797 23.7188C40.9818 24.0469 40.7188 24.3177 40.3906 24.5312C40.0677 24.7448 39.7109 24.9036 39.3203 25.0078C38.9297 25.1172 38.5339 25.1667 38.1328 25.1562C37.5859 25.1458 37.0964 25.0234 36.6641 24.7891C36.2318 24.5547 35.8906 24.2292 35.6406 23.8125C35.3906 23.3958 35.2604 22.9089 35.25 22.3516L37.5703 22.3594C37.5651 22.5521 37.5755 22.7266 37.6016 22.8828C37.6276 23.0391 37.6901 23.1641 37.7891 23.2578C37.8932 23.3516 38.0573 23.3984 38.2812 23.3984C38.4427 23.3932 38.5781 23.3594 38.6875 23.2969C38.7969 23.2344 38.8854 23.1484 38.9531 23.0391C39.026 22.9245 39.0781 22.7917 39.1094 22.6406ZM47.5781 16.5469L47.2578 18.375H42.9062L43.2344 16.5469H47.5781ZM44.375 14.4453H46.8906L45.5469 22.2578C45.526 22.3932 45.5156 22.5234 45.5156 22.6484C45.5156 22.7682 45.5443 22.8672 45.6016 22.9453C45.6589 23.0234 45.7708 23.0677 45.9375 23.0781C46.026 23.0833 46.1146 23.0807 46.2031 23.0703C46.2969 23.0599 46.3854 23.0495 46.4688 23.0391L46.2734 24.9453C46.0755 25.0234 45.8724 25.0781 45.6641 25.1094C45.4609 25.1406 45.25 25.1562 45.0312 25.1562C44.526 25.1458 44.1172 25.026 43.8047 24.7969C43.4922 24.5677 43.2708 24.2578 43.1406 23.8672C43.0156 23.4766 42.974 23.0443 43.0156 22.5703L44.375 14.4453Z" fill="#4B8BE1"/>
<defs>
<clipPath id="clip0_142_264">
<rect width="10" height="10" fill="white" transform="translate(49 15)"/>
</clipPath>
</defs>
</svg>
