<svg width="133" height="48" viewBox="0 0 133 48" fill="none" xmlns="http://www.w3.org/2000/svg">
<mask id="path-1-outside-1_142_229" maskUnits="userSpaceOnUse" x="0" y="0" width="133" height="48" fill="black">
<rect fill="white" width="133" height="48"/>
<path d="M15.9375 29.9453C15.9375 29.4766 15.7891 29.0625 15.4922 28.7031C15.2109 28.3438 14.6953 28.0156 13.9453 27.7188C13.2109 27.4219 12.1719 27.125 10.8281 26.8281C9.5625 26.5625 8.38281 26.2188 7.28906 25.7969C6.19531 25.3594 5.24219 24.8359 4.42969 24.2266C3.61719 23.6016 2.98438 22.8672 2.53125 22.0234C2.07812 21.1641 1.85156 20.1875 1.85156 19.0938C1.85156 18.0312 2.07812 17.0234 2.53125 16.0703C3 15.1172 3.67188 14.2734 4.54688 13.5391C5.4375 12.8047 6.51562 12.2266 7.78125 11.8047C9.0625 11.3828 10.5156 11.1719 12.1406 11.1719C14.375 11.1719 16.3047 11.5234 17.9297 12.2266C19.5547 12.9141 20.8047 13.8828 21.6797 15.1328C22.5547 16.3672 22.9922 17.7812 22.9922 19.375H15.6797C15.6797 18.7188 15.5547 18.1484 15.3047 17.6641C15.0547 17.1797 14.6719 16.8047 14.1562 16.5391C13.6406 16.2578 12.9609 16.1172 12.1172 16.1172C11.4609 16.1172 10.8828 16.2344 10.3828 16.4688C9.89844 16.6875 9.51562 16.9922 9.23438 17.3828C8.96875 17.7734 8.83594 18.2266 8.83594 18.7422C8.83594 19.1016 8.91406 19.4297 9.07031 19.7266C9.24219 20.0078 9.5 20.2734 9.84375 20.5234C10.2031 20.7578 10.6641 20.9688 11.2266 21.1562C11.8047 21.3438 12.5078 21.5234 13.3359 21.6953C15.1016 22.0234 16.7109 22.4844 18.1641 23.0781C19.6328 23.6719 20.8047 24.4922 21.6797 25.5391C22.5703 26.5859 23.0156 27.9688 23.0156 29.6875C23.0156 30.8125 22.7578 31.8438 22.2422 32.7812C21.7422 33.7188 21.0156 34.5391 20.0625 35.2422C19.1094 35.9453 17.9688 36.4922 16.6406 36.8828C15.3125 37.2734 13.8125 37.4688 12.1406 37.4688C9.75 37.4688 7.72656 37.0391 6.07031 36.1797C4.41406 35.3203 3.16406 34.2422 2.32031 32.9453C1.49219 31.6328 1.07812 30.2891 1.07812 28.9141H7.94531C7.97656 29.7578 8.1875 30.4453 8.57812 30.9766C8.98438 31.5078 9.50781 31.8984 10.1484 32.1484C10.7891 32.3828 11.5078 32.5 12.3047 32.5C13.1016 32.5 13.7656 32.3906 14.2969 32.1719C14.8281 31.9531 15.2344 31.6562 15.5156 31.2812C15.7969 30.8906 15.9375 30.4453 15.9375 29.9453ZM34.2422 1V37H26.9297V1H34.2422ZM33.2812 23.4297L31.4531 23.4766C31.4531 21.6953 31.6719 20.0625 32.1094 18.5781C32.5625 17.0781 33.2031 15.7734 34.0312 14.6641C34.8594 13.5547 35.8516 12.6953 37.0078 12.0859C38.1797 11.4766 39.4688 11.1719 40.875 11.1719C42.125 11.1719 43.2656 11.3516 44.2969 11.7109C45.3281 12.0703 46.2188 12.6406 46.9688 13.4219C47.7188 14.2031 48.2969 15.2266 48.7031 16.4922C49.1094 17.7578 49.3125 19.2969 49.3125 21.1094V37H41.9531V21.0625C41.9531 19.9844 41.7969 19.1406 41.4844 18.5312C41.1875 17.9219 40.75 17.4922 40.1719 17.2422C39.6094 16.9922 38.9219 16.8672 38.1094 16.8672C37.1562 16.8672 36.3672 17.0391 35.7422 17.3828C35.1172 17.7109 34.625 18.1719 34.2656 18.7656C33.9062 19.3594 33.6484 20.0547 33.4922 20.8516C33.3516 21.6484 33.2812 22.5078 33.2812 23.4297ZM53.0391 24.5781V24.0859C53.0391 22.2266 53.3047 20.5156 53.8359 18.9531C54.3672 17.375 55.1484 16.0078 56.1797 14.8516C57.2109 13.6953 58.4766 12.7969 59.9766 12.1562C61.4766 11.5 63.1953 11.1719 65.1328 11.1719C67.1016 11.1719 68.8359 11.5 70.3359 12.1562C71.8516 12.7969 73.125 13.6953 74.1562 14.8516C75.1875 16.0078 75.9688 17.375 76.5 18.9531C77.0312 20.5156 77.2969 22.2266 77.2969 24.0859V24.5781C77.2969 26.4219 77.0312 28.1328 76.5 29.7109C75.9688 31.2734 75.1875 32.6406 74.1562 33.8125C73.125 34.9688 71.8594 35.8672 70.3594 36.5078C68.8594 37.1484 67.1328 37.4688 65.1797 37.4688C63.2422 37.4688 61.5156 37.1484 60 36.5078C58.4844 35.8672 57.2109 34.9688 56.1797 33.8125C55.1484 32.6406 54.3672 31.2734 53.8359 29.7109C53.3047 28.1328 53.0391 26.4219 53.0391 24.5781ZM60.375 24.0859V24.5781C60.375 25.5781 60.4531 26.5156 60.6094 27.3906C60.7812 28.2656 61.0547 29.0312 61.4297 29.6875C61.8047 30.3438 62.2969 30.8594 62.9062 31.2344C63.5312 31.5938 64.2891 31.7734 65.1797 31.7734C66.0703 31.7734 66.8203 31.5938 67.4297 31.2344C68.0391 30.8594 68.5312 30.3438 68.9062 29.6875C69.2812 29.0312 69.5469 28.2656 69.7031 27.3906C69.875 26.5156 69.9609 25.5781 69.9609 24.5781V24.0859C69.9609 23.1016 69.875 22.1797 69.7031 21.3203C69.5469 20.4453 69.2812 19.6719 68.9062 19C68.5312 18.3281 68.0312 17.8047 67.4062 17.4297C66.7969 17.0547 66.0391 16.8672 65.1328 16.8672C64.2578 16.8672 63.5156 17.0547 62.9062 17.4297C62.2969 17.8047 61.8047 18.3281 61.4297 19C61.0547 19.6719 60.7812 20.4453 60.6094 21.3203C60.4531 22.1797 60.375 23.1016 60.375 24.0859Z"/>
<path d="M88.4766 16.5156V46.75H81.1641V11.6406H87.9844L88.4766 16.5156ZM104.297 24.0391V24.5312C104.297 26.375 104.086 28.0859 103.664 29.6641C103.242 31.2266 102.609 32.5938 101.766 33.7656C100.938 34.9375 99.9141 35.8516 98.6953 36.5078C97.4766 37.1484 96.0625 37.4688 94.4531 37.4688C92.9219 37.4688 91.5938 37.1484 90.4688 36.5078C89.3594 35.8516 88.4219 34.9453 87.6562 33.7891C86.9062 32.6172 86.2969 31.2812 85.8281 29.7812C85.375 28.2656 85.0234 26.6484 84.7734 24.9297V23.9688C85.0234 22.1406 85.3828 20.4453 85.8516 18.8828C86.3203 17.3203 86.9297 15.9688 87.6797 14.8281C88.4297 13.6719 89.3594 12.7734 90.4688 12.1328C91.5781 11.4922 92.8984 11.1719 94.4297 11.1719C96.0234 11.1719 97.4375 11.4766 98.6719 12.0859C99.9062 12.6953 100.938 13.5703 101.766 14.7109C102.609 15.8359 103.242 17.1875 103.664 18.7656C104.086 20.3438 104.297 22.1016 104.297 24.0391ZM96.9609 24.5312V24.0391C96.9609 23.0078 96.8828 22.0625 96.7266 21.2031C96.5703 20.3281 96.3203 19.5703 95.9766 18.9297C95.6328 18.2734 95.1797 17.7656 94.6172 17.4062C94.0547 17.0469 93.3672 16.8672 92.5547 16.8672C91.6797 16.8672 90.9375 17.0078 90.3281 17.2891C89.7188 17.5703 89.2266 17.9844 88.8516 18.5312C88.4766 19.0625 88.2031 19.7188 88.0312 20.5C87.875 21.2812 87.7891 22.1719 87.7734 23.1719V25.75C87.7891 26.9219 87.9531 27.9688 88.2656 28.8906C88.5938 29.7969 89.1016 30.5078 89.7891 31.0234C90.4922 31.5234 91.4297 31.7734 92.6016 31.7734C93.4297 31.7734 94.1172 31.5938 94.6641 31.2344C95.2266 30.8594 95.6719 30.3359 96 29.6641C96.3438 28.9922 96.5859 28.2188 96.7266 27.3438C96.8828 26.4688 96.9609 25.5312 96.9609 24.5312ZM115.523 16.5156V46.75H108.211V11.6406H115.031L115.523 16.5156ZM131.344 24.0391V24.5312C131.344 26.375 131.133 28.0859 130.711 29.6641C130.289 31.2266 129.656 32.5938 128.812 33.7656C127.984 34.9375 126.961 35.8516 125.742 36.5078C124.523 37.1484 123.109 37.4688 121.5 37.4688C119.969 37.4688 118.641 37.1484 117.516 36.5078C116.406 35.8516 115.469 34.9453 114.703 33.7891C113.953 32.6172 113.344 31.2812 112.875 29.7812C112.422 28.2656 112.07 26.6484 111.82 24.9297V23.9688C112.07 22.1406 112.43 20.4453 112.898 18.8828C113.367 17.3203 113.977 15.9688 114.727 14.8281C115.477 13.6719 116.406 12.7734 117.516 12.1328C118.625 11.4922 119.945 11.1719 121.477 11.1719C123.07 11.1719 124.484 11.4766 125.719 12.0859C126.953 12.6953 127.984 13.5703 128.812 14.7109C129.656 15.8359 130.289 17.1875 130.711 18.7656C131.133 20.3438 131.344 22.1016 131.344 24.0391ZM124.008 24.5312V24.0391C124.008 23.0078 123.93 22.0625 123.773 21.2031C123.617 20.3281 123.367 19.5703 123.023 18.9297C122.68 18.2734 122.227 17.7656 121.664 17.4062C121.102 17.0469 120.414 16.8672 119.602 16.8672C118.727 16.8672 117.984 17.0078 117.375 17.2891C116.766 17.5703 116.273 17.9844 115.898 18.5312C115.523 19.0625 115.25 19.7188 115.078 20.5C114.922 21.2812 114.836 22.1719 114.82 23.1719V25.75C114.836 26.9219 115 27.9688 115.312 28.8906C115.641 29.7969 116.148 30.5078 116.836 31.0234C117.539 31.5234 118.477 31.7734 119.648 31.7734C120.477 31.7734 121.164 31.5938 121.711 31.2344C122.273 30.8594 122.719 30.3359 123.047 29.6641C123.391 28.9922 123.633 28.2188 123.773 27.3438C123.93 26.4688 124.008 25.5312 124.008 24.5312Z"/>
</mask>
<path d="M15.9375 29.9453C15.9375 29.4766 15.7891 29.0625 15.4922 28.7031C15.2109 28.3438 14.6953 28.0156 13.9453 27.7188C13.2109 27.4219 12.1719 27.125 10.8281 26.8281C9.5625 26.5625 8.38281 26.2188 7.28906 25.7969C6.19531 25.3594 5.24219 24.8359 4.42969 24.2266C3.61719 23.6016 2.98438 22.8672 2.53125 22.0234C2.07812 21.1641 1.85156 20.1875 1.85156 19.0938C1.85156 18.0312 2.07812 17.0234 2.53125 16.0703C3 15.1172 3.67188 14.2734 4.54688 13.5391C5.4375 12.8047 6.51562 12.2266 7.78125 11.8047C9.0625 11.3828 10.5156 11.1719 12.1406 11.1719C14.375 11.1719 16.3047 11.5234 17.9297 12.2266C19.5547 12.9141 20.8047 13.8828 21.6797 15.1328C22.5547 16.3672 22.9922 17.7812 22.9922 19.375H15.6797C15.6797 18.7188 15.5547 18.1484 15.3047 17.6641C15.0547 17.1797 14.6719 16.8047 14.1562 16.5391C13.6406 16.2578 12.9609 16.1172 12.1172 16.1172C11.4609 16.1172 10.8828 16.2344 10.3828 16.4688C9.89844 16.6875 9.51562 16.9922 9.23438 17.3828C8.96875 17.7734 8.83594 18.2266 8.83594 18.7422C8.83594 19.1016 8.91406 19.4297 9.07031 19.7266C9.24219 20.0078 9.5 20.2734 9.84375 20.5234C10.2031 20.7578 10.6641 20.9688 11.2266 21.1562C11.8047 21.3438 12.5078 21.5234 13.3359 21.6953C15.1016 22.0234 16.7109 22.4844 18.1641 23.0781C19.6328 23.6719 20.8047 24.4922 21.6797 25.5391C22.5703 26.5859 23.0156 27.9688 23.0156 29.6875C23.0156 30.8125 22.7578 31.8438 22.2422 32.7812C21.7422 33.7188 21.0156 34.5391 20.0625 35.2422C19.1094 35.9453 17.9688 36.4922 16.6406 36.8828C15.3125 37.2734 13.8125 37.4688 12.1406 37.4688C9.75 37.4688 7.72656 37.0391 6.07031 36.1797C4.41406 35.3203 3.16406 34.2422 2.32031 32.9453C1.49219 31.6328 1.07812 30.2891 1.07812 28.9141H7.94531C7.97656 29.7578 8.1875 30.4453 8.57812 30.9766C8.98438 31.5078 9.50781 31.8984 10.1484 32.1484C10.7891 32.3828 11.5078 32.5 12.3047 32.5C13.1016 32.5 13.7656 32.3906 14.2969 32.1719C14.8281 31.9531 15.2344 31.6562 15.5156 31.2812C15.7969 30.8906 15.9375 30.4453 15.9375 29.9453ZM34.2422 1V37H26.9297V1H34.2422ZM33.2812 23.4297L31.4531 23.4766C31.4531 21.6953 31.6719 20.0625 32.1094 18.5781C32.5625 17.0781 33.2031 15.7734 34.0312 14.6641C34.8594 13.5547 35.8516 12.6953 37.0078 12.0859C38.1797 11.4766 39.4688 11.1719 40.875 11.1719C42.125 11.1719 43.2656 11.3516 44.2969 11.7109C45.3281 12.0703 46.2188 12.6406 46.9688 13.4219C47.7188 14.2031 48.2969 15.2266 48.7031 16.4922C49.1094 17.7578 49.3125 19.2969 49.3125 21.1094V37H41.9531V21.0625C41.9531 19.9844 41.7969 19.1406 41.4844 18.5312C41.1875 17.9219 40.75 17.4922 40.1719 17.2422C39.6094 16.9922 38.9219 16.8672 38.1094 16.8672C37.1562 16.8672 36.3672 17.0391 35.7422 17.3828C35.1172 17.7109 34.625 18.1719 34.2656 18.7656C33.9062 19.3594 33.6484 20.0547 33.4922 20.8516C33.3516 21.6484 33.2812 22.5078 33.2812 23.4297ZM53.0391 24.5781V24.0859C53.0391 22.2266 53.3047 20.5156 53.8359 18.9531C54.3672 17.375 55.1484 16.0078 56.1797 14.8516C57.2109 13.6953 58.4766 12.7969 59.9766 12.1562C61.4766 11.5 63.1953 11.1719 65.1328 11.1719C67.1016 11.1719 68.8359 11.5 70.3359 12.1562C71.8516 12.7969 73.125 13.6953 74.1562 14.8516C75.1875 16.0078 75.9688 17.375 76.5 18.9531C77.0312 20.5156 77.2969 22.2266 77.2969 24.0859V24.5781C77.2969 26.4219 77.0312 28.1328 76.5 29.7109C75.9688 31.2734 75.1875 32.6406 74.1562 33.8125C73.125 34.9688 71.8594 35.8672 70.3594 36.5078C68.8594 37.1484 67.1328 37.4688 65.1797 37.4688C63.2422 37.4688 61.5156 37.1484 60 36.5078C58.4844 35.8672 57.2109 34.9688 56.1797 33.8125C55.1484 32.6406 54.3672 31.2734 53.8359 29.7109C53.3047 28.1328 53.0391 26.4219 53.0391 24.5781ZM60.375 24.0859V24.5781C60.375 25.5781 60.4531 26.5156 60.6094 27.3906C60.7812 28.2656 61.0547 29.0312 61.4297 29.6875C61.8047 30.3438 62.2969 30.8594 62.9062 31.2344C63.5312 31.5938 64.2891 31.7734 65.1797 31.7734C66.0703 31.7734 66.8203 31.5938 67.4297 31.2344C68.0391 30.8594 68.5312 30.3438 68.9062 29.6875C69.2812 29.0312 69.5469 28.2656 69.7031 27.3906C69.875 26.5156 69.9609 25.5781 69.9609 24.5781V24.0859C69.9609 23.1016 69.875 22.1797 69.7031 21.3203C69.5469 20.4453 69.2812 19.6719 68.9062 19C68.5312 18.3281 68.0312 17.8047 67.4062 17.4297C66.7969 17.0547 66.0391 16.8672 65.1328 16.8672C64.2578 16.8672 63.5156 17.0547 62.9062 17.4297C62.2969 17.8047 61.8047 18.3281 61.4297 19C61.0547 19.6719 60.7812 20.4453 60.6094 21.3203C60.4531 22.1797 60.375 23.1016 60.375 24.0859Z" fill="#5E2A96"/>
<path d="M88.4766 16.5156V46.75H81.1641V11.6406H87.9844L88.4766 16.5156ZM104.297 24.0391V24.5312C104.297 26.375 104.086 28.0859 103.664 29.6641C103.242 31.2266 102.609 32.5938 101.766 33.7656C100.938 34.9375 99.9141 35.8516 98.6953 36.5078C97.4766 37.1484 96.0625 37.4688 94.4531 37.4688C92.9219 37.4688 91.5938 37.1484 90.4688 36.5078C89.3594 35.8516 88.4219 34.9453 87.6562 33.7891C86.9062 32.6172 86.2969 31.2812 85.8281 29.7812C85.375 28.2656 85.0234 26.6484 84.7734 24.9297V23.9688C85.0234 22.1406 85.3828 20.4453 85.8516 18.8828C86.3203 17.3203 86.9297 15.9688 87.6797 14.8281C88.4297 13.6719 89.3594 12.7734 90.4688 12.1328C91.5781 11.4922 92.8984 11.1719 94.4297 11.1719C96.0234 11.1719 97.4375 11.4766 98.6719 12.0859C99.9062 12.6953 100.938 13.5703 101.766 14.7109C102.609 15.8359 103.242 17.1875 103.664 18.7656C104.086 20.3438 104.297 22.1016 104.297 24.0391ZM96.9609 24.5312V24.0391C96.9609 23.0078 96.8828 22.0625 96.7266 21.2031C96.5703 20.3281 96.3203 19.5703 95.9766 18.9297C95.6328 18.2734 95.1797 17.7656 94.6172 17.4062C94.0547 17.0469 93.3672 16.8672 92.5547 16.8672C91.6797 16.8672 90.9375 17.0078 90.3281 17.2891C89.7188 17.5703 89.2266 17.9844 88.8516 18.5312C88.4766 19.0625 88.2031 19.7188 88.0312 20.5C87.875 21.2812 87.7891 22.1719 87.7734 23.1719V25.75C87.7891 26.9219 87.9531 27.9688 88.2656 28.8906C88.5938 29.7969 89.1016 30.5078 89.7891 31.0234C90.4922 31.5234 91.4297 31.7734 92.6016 31.7734C93.4297 31.7734 94.1172 31.5938 94.6641 31.2344C95.2266 30.8594 95.6719 30.3359 96 29.6641C96.3438 28.9922 96.5859 28.2188 96.7266 27.3438C96.8828 26.4688 96.9609 25.5312 96.9609 24.5312ZM115.523 16.5156V46.75H108.211V11.6406H115.031L115.523 16.5156ZM131.344 24.0391V24.5312C131.344 26.375 131.133 28.0859 130.711 29.6641C130.289 31.2266 129.656 32.5938 128.812 33.7656C127.984 34.9375 126.961 35.8516 125.742 36.5078C124.523 37.1484 123.109 37.4688 121.5 37.4688C119.969 37.4688 118.641 37.1484 117.516 36.5078C116.406 35.8516 115.469 34.9453 114.703 33.7891C113.953 32.6172 113.344 31.2812 112.875 29.7812C112.422 28.2656 112.07 26.6484 111.82 24.9297V23.9688C112.07 22.1406 112.43 20.4453 112.898 18.8828C113.367 17.3203 113.977 15.9688 114.727 14.8281C115.477 13.6719 116.406 12.7734 117.516 12.1328C118.625 11.4922 119.945 11.1719 121.477 11.1719C123.07 11.1719 124.484 11.4766 125.719 12.0859C126.953 12.6953 127.984 13.5703 128.812 14.7109C129.656 15.8359 130.289 17.1875 130.711 18.7656C131.133 20.3438 131.344 22.1016 131.344 24.0391ZM124.008 24.5312V24.0391C124.008 23.0078 123.93 22.0625 123.773 21.2031C123.617 20.3281 123.367 19.5703 123.023 18.9297C122.68 18.2734 122.227 17.7656 121.664 17.4062C121.102 17.0469 120.414 16.8672 119.602 16.8672C118.727 16.8672 117.984 17.0078 117.375 17.2891C116.766 17.5703 116.273 17.9844 115.898 18.5312C115.523 19.0625 115.25 19.7188 115.078 20.5C114.922 21.2812 114.836 22.1719 114.82 23.1719V25.75C114.836 26.9219 115 27.9688 115.312 28.8906C115.641 29.7969 116.148 30.5078 116.836 31.0234C117.539 31.5234 118.477 31.7734 119.648 31.7734C120.477 31.7734 121.164 31.5938 121.711 31.2344C122.273 30.8594 122.719 30.3359 123.047 29.6641C123.391 28.9922 123.633 28.2188 123.773 27.3438C123.93 26.4688 124.008 25.5312 124.008 24.5312Z" fill="white"/>
<path d="M15.4922 28.7031L14.7047 29.3194L14.7128 29.3298L14.7212 29.34L15.4922 28.7031ZM13.9453 27.7188L13.5705 28.6459L13.5773 28.6486L13.9453 27.7188ZM10.8281 26.8281L11.0439 25.8516L11.0335 25.8494L10.8281 26.8281ZM7.28906 25.7969L6.91764 26.7254L6.92919 26.7299L7.28906 25.7969ZM4.42969 24.2266L3.81993 25.0192L3.82969 25.0266L4.42969 24.2266ZM2.53125 22.0234L1.64666 22.4899L1.65026 22.4966L2.53125 22.0234ZM2.53125 16.0703L1.63382 15.629L1.62812 15.641L2.53125 16.0703ZM4.54688 13.5391L3.91067 12.7675L3.904 12.7731L4.54688 13.5391ZM7.78125 11.8047L7.4685 10.8548L7.46502 10.856L7.78125 11.8047ZM17.9297 12.2266L17.5326 13.1444L17.54 13.1475L17.9297 12.2266ZM21.6797 15.1328L20.8604 15.7063L20.8639 15.7111L21.6797 15.1328ZM22.9922 19.375V20.375H23.9922V19.375H22.9922ZM15.6797 19.375H14.6797V20.375H15.6797V19.375ZM14.1562 16.5391L13.6774 17.417L13.6878 17.4226L13.6983 17.428L14.1562 16.5391ZM10.3828 16.4688L10.7944 17.3802L10.8072 17.3742L10.3828 16.4688ZM9.23438 17.3828L8.42284 16.7985L8.415 16.8094L8.40745 16.8205L9.23438 17.3828ZM9.07031 19.7266L8.18539 20.1923L8.20032 20.2207L8.21703 20.248L9.07031 19.7266ZM9.84375 20.5234L9.25558 21.3322L9.27616 21.3471L9.29748 21.361L9.84375 20.5234ZM11.2266 21.1562L10.9103 22.105L10.9181 22.1075L11.2266 21.1562ZM13.3359 21.6953L13.1327 22.6744L13.143 22.6766L13.1532 22.6785L13.3359 21.6953ZM18.1641 23.0781L17.7858 24.0038L17.7893 24.0052L18.1641 23.0781ZM21.6797 25.5391L20.9124 26.1804L20.918 26.187L21.6797 25.5391ZM22.2422 32.7812L21.3659 32.2993L21.3598 32.3107L22.2422 32.7812ZM2.32031 32.9453L1.4745 33.479L1.4821 33.4907L2.32031 32.9453ZM1.07812 28.9141V27.9141H0.078125V28.9141H1.07812ZM7.94531 28.9141L8.94463 28.8771L8.90896 27.9141H7.94531V28.9141ZM8.57812 30.9766L7.77247 31.569L7.77805 31.5765L7.78377 31.584L8.57812 30.9766ZM10.1484 32.1484L9.78489 33.08L9.79484 33.0839L9.80486 33.0876L10.1484 32.1484ZM15.5156 31.2812L16.3156 31.8812L16.3215 31.8735L16.3272 31.8656L15.5156 31.2812ZM15.9375 29.9453H16.9375C16.9375 29.2455 16.709 28.6059 16.2631 28.0662L15.4922 28.7031L14.7212 29.34C14.8691 29.5191 14.9375 29.7076 14.9375 29.9453H15.9375ZM15.4922 28.7031L16.2797 28.0868C15.8339 27.5172 15.1188 27.1078 14.3134 26.7889L13.9453 27.7188L13.5773 28.6486C14.2718 28.9235 14.588 29.1703 14.7047 29.3194L15.4922 28.7031ZM13.9453 27.7188L14.3201 26.7916C13.51 26.4642 12.4085 26.1532 11.0439 25.8517L10.8281 26.8281L10.6124 27.8046C11.9352 28.0968 12.9119 28.3796 13.5705 28.6459L13.9453 27.7188ZM10.8281 26.8281L11.0335 25.8494C9.81522 25.5938 8.68768 25.2645 7.64893 24.8639L7.28906 25.7969L6.92919 26.7299C8.07794 27.173 9.30978 27.5312 10.6227 27.8068L10.8281 26.8281ZM7.28906 25.7969L7.66045 24.8684C6.63554 24.4584 5.76181 23.9757 5.02969 23.4266L4.42969 24.2266L3.82969 25.0266C4.72256 25.6962 5.75509 26.2603 6.91767 26.7254L7.28906 25.7969ZM4.42969 24.2266L5.0394 23.4339C4.33088 22.8889 3.79391 22.261 3.41224 21.5503L2.53125 22.0234L1.65026 22.4966C2.17484 23.4734 2.9035 24.3142 3.81998 25.0192L4.42969 24.2266ZM2.53125 22.0234L3.41582 21.557C3.04761 20.8587 2.85156 20.0457 2.85156 19.0938H1.85156H0.851562C0.851562 20.3293 1.10864 21.4694 1.64668 22.4898L2.53125 22.0234ZM1.85156 19.0938H2.85156C2.85156 18.1787 3.04548 17.3177 3.43438 16.4997L2.53125 16.0703L1.62812 15.641C1.11077 16.7292 0.851562 17.8838 0.851562 19.0938H1.85156ZM2.53125 16.0703L3.4286 16.5116C3.83148 15.6924 4.41307 14.9569 5.18975 14.305L4.54688 13.5391L3.904 12.7731C2.93068 13.59 2.16852 14.5419 1.6339 15.629L2.53125 16.0703ZM4.54688 13.5391L5.18306 14.3106C5.96528 13.6656 6.93058 13.1423 8.09748 12.7534L7.78125 11.8047L7.46502 10.856C6.10067 11.3108 4.90972 11.9438 3.91069 12.7675L4.54688 13.5391ZM7.78125 11.8047L8.094 12.7545C9.25612 12.3719 10.6008 12.1719 12.1406 12.1719V11.1719V10.1719C10.4304 10.1719 8.86888 10.3938 7.4685 10.8549L7.78125 11.8047ZM12.1406 11.1719V12.1719C14.2729 12.1719 16.0612 12.5077 17.5326 13.1443L17.9297 12.2266L18.3268 11.3088C16.5482 10.5392 14.4771 10.1719 12.1406 10.1719V11.1719ZM17.9297 12.2266L17.54 13.1475C19.0197 13.7735 20.1092 14.633 20.8605 15.7063L21.6797 15.1328L22.4989 14.5594C21.5002 13.1326 20.0897 12.0546 18.3193 11.3056L17.9297 12.2266ZM21.6797 15.1328L20.8639 15.7111C21.6124 16.7671 21.9922 17.9767 21.9922 19.375H22.9922H23.9922C23.9922 17.5858 23.4969 15.9672 22.4955 14.5545L21.6797 15.1328ZM22.9922 19.375V18.375H15.6797V19.375V20.375H22.9922V19.375ZM15.6797 19.375H16.6797C16.6797 18.5914 16.53 17.8577 16.1933 17.2054L15.3047 17.6641L14.4161 18.1227C14.5794 18.4392 14.6797 18.8461 14.6797 19.375H15.6797ZM15.3047 17.6641L16.1933 17.2054C15.8417 16.5242 15.3021 16.0044 14.6142 15.6501L14.1562 16.5391L13.6983 17.428C14.0417 17.6049 14.2677 17.8352 14.4161 18.1227L15.3047 17.6641ZM14.1562 16.5391L14.6351 15.6612C13.9224 15.2724 13.0598 15.1172 12.1172 15.1172V16.1172V17.1172C12.862 17.1172 13.3589 17.2432 13.6774 17.417L14.1562 16.5391ZM12.1172 16.1172V15.1172C11.3416 15.1172 10.6139 15.256 9.95838 15.5633L10.3828 16.4688L10.8072 17.3742C11.1517 17.2127 11.5803 17.1172 12.1172 17.1172V16.1172ZM10.3828 16.4688L9.97123 15.5574C9.34425 15.8405 8.81687 16.2513 8.42284 16.7985L9.23438 17.3828L10.0459 17.9671C10.2144 17.7331 10.4526 17.5345 10.7944 17.3801L10.3828 16.4688ZM9.23438 17.3828L8.40745 16.8205C8.01872 17.3922 7.83594 18.0452 7.83594 18.7422H8.83594H9.83594C9.83594 18.4079 9.91878 18.1547 10.0613 17.9451L9.23438 17.3828ZM8.83594 18.7422H7.83594C7.83594 19.252 7.94822 19.7417 8.18539 20.1923L9.07031 19.7266L9.95523 19.2608C9.87991 19.1177 9.83594 18.9511 9.83594 18.7422H8.83594ZM9.07031 19.7266L8.21703 20.248C8.47425 20.6689 8.83487 21.0262 9.25558 21.3322L9.84375 20.5234L10.4319 19.7147C10.1651 19.5207 10.0101 19.3467 9.92359 19.2051L9.07031 19.7266ZM9.84375 20.5234L9.29748 21.361C9.74986 21.6561 10.2952 21.8999 10.9103 22.1049L11.2266 21.1562L11.5428 20.2076C11.033 20.0376 10.6564 19.8595 10.39 19.6858L9.84375 20.5234ZM11.2266 21.1562L10.9181 22.1075C11.5412 22.3096 12.2817 22.4978 13.1327 22.6744L13.3359 21.6953L13.5392 20.7162C12.734 20.5491 12.0682 20.3779 11.5351 20.205L11.2266 21.1562ZM13.3359 21.6953L13.1532 22.6785C14.8613 22.9959 16.404 23.4392 17.7858 24.0038L18.1641 23.0781L18.5423 22.1524C17.0179 21.5295 15.3419 21.051 13.5187 20.7121L13.3359 21.6953ZM18.1641 23.0781L17.7893 24.0052C19.1304 24.5474 20.1586 25.2785 20.9124 26.1804L21.6797 25.5391L22.447 24.8978C21.4508 23.7059 20.1353 22.7964 18.5389 22.151L18.1641 23.0781ZM21.6797 25.5391L20.918 26.187C21.6192 27.0113 22.0156 28.1448 22.0156 29.6875H23.0156H24.0156C24.0156 27.7927 23.5214 26.1606 22.4413 24.8911L21.6797 25.5391ZM23.0156 29.6875H22.0156C22.0156 30.653 21.7962 31.5172 21.366 32.2993L22.2422 32.7812L23.1184 33.2632C23.7195 32.1703 24.0156 30.972 24.0156 29.6875H23.0156ZM22.2422 32.7812L21.3598 32.3107C20.9377 33.1022 20.3159 33.8126 19.4689 34.4375L20.0625 35.2422L20.6561 36.0469C21.7153 35.2656 22.5467 34.3353 23.1245 33.2518L22.2422 32.7812ZM20.0625 35.2422L19.4689 34.4375C18.6241 35.0606 17.5931 35.5603 16.3585 35.9234L16.6406 36.8828L16.9228 37.8422C18.3444 37.424 19.5946 36.83 20.6561 36.0469L20.0625 35.2422ZM16.6406 36.8828L16.3585 35.9234C15.1386 36.2822 13.7361 36.4688 12.1406 36.4688V37.4688V38.4688C13.8889 38.4688 15.4864 38.2647 16.9228 37.8422L16.6406 36.8828ZM12.1406 37.4688V36.4688C9.86651 36.4688 8.01046 36.0598 6.53087 35.2921L6.07031 36.1797L5.60975 37.0673C7.44266 38.0184 9.63349 38.4688 12.1406 38.4688V37.4688ZM6.07031 36.1797L6.53087 35.2921C4.99644 34.4959 3.89043 33.5249 3.15853 32.4L2.32031 32.9453L1.4821 33.4907C2.43769 34.9594 3.83168 36.1447 5.60975 37.0673L6.07031 36.1797ZM2.32031 32.9453L3.16604 32.4117C2.42537 31.2378 2.07812 30.0767 2.07812 28.9141H1.07812H0.078125C0.078125 30.5014 0.559007 32.0278 1.47458 33.4789L2.32031 32.9453ZM1.07812 28.9141V29.9141H7.94531V28.9141V27.9141H1.07812V28.9141ZM7.94531 28.9141L6.946 28.9511C6.9826 29.9392 7.23375 30.8363 7.77247 31.569L8.57812 30.9766L9.38378 30.3842C9.14125 30.0543 8.97053 29.5764 8.94463 28.8771L7.94531 28.9141ZM8.57812 30.9766L7.78377 31.584C8.3045 32.265 8.97876 32.7654 9.78489 33.08L10.1484 32.1484L10.512 31.2169C10.0369 31.0314 9.66425 30.7507 9.37248 30.3691L8.57812 30.9766ZM10.1484 32.1484L9.80486 33.0876C10.5724 33.3684 11.4099 33.5 12.3047 33.5V32.5V31.5C11.6057 31.5 11.0058 31.3973 10.492 31.2093L10.1484 32.1484ZM12.3047 32.5V33.5C13.1851 33.5 13.9886 33.3803 14.6776 33.0966L14.2969 32.1719L13.9161 31.2472C13.5427 31.401 13.018 31.5 12.3047 31.5V32.5ZM14.2969 32.1719L14.6776 33.0966C15.3379 32.8247 15.9044 32.4295 16.3156 31.8812L15.5156 31.2812L14.7156 30.6813C14.5643 30.883 14.3184 31.0816 13.9161 31.2472L14.2969 32.1719ZM15.5156 31.2812L16.3272 31.8656C16.7359 31.2978 16.9375 30.6464 16.9375 29.9453H15.9375H14.9375C14.9375 30.2443 14.8578 30.4834 14.7041 30.6969L15.5156 31.2812ZM34.2422 1H35.2422V0H34.2422V1ZM34.2422 37V38H35.2422V37H34.2422ZM26.9297 37H25.9297V38H26.9297V37ZM26.9297 1V0H25.9297V1H26.9297ZM33.2812 23.4297L33.3069 24.4294L34.2812 24.4044V23.4297H33.2812ZM31.4531 23.4766H30.4531V24.5025L31.4788 24.4762L31.4531 23.4766ZM32.1094 18.5781L31.1521 18.2889L31.1502 18.2954L32.1094 18.5781ZM37.0078 12.0859L36.5465 11.1987L36.5416 11.2013L37.0078 12.0859ZM49.3125 37V38H50.3125V37H49.3125ZM41.9531 37H40.9531V38H41.9531V37ZM41.4844 18.5312L40.5854 18.9692L40.5899 18.9784L40.5946 18.9876L41.4844 18.5312ZM40.1719 17.2422L39.7657 18.156L39.775 18.16L40.1719 17.2422ZM35.7422 17.3828L36.207 18.2682L36.2156 18.2637L36.2241 18.259L35.7422 17.3828ZM33.4922 20.8516L32.5109 20.6591L32.5091 20.6684L32.5074 20.6778L33.4922 20.8516ZM34.2422 1H33.2422V37H34.2422H35.2422V1H34.2422ZM34.2422 37V36H26.9297V37V38H34.2422V37ZM26.9297 37H27.9297V1H26.9297H25.9297V37H26.9297ZM26.9297 1V2H34.2422V1V0H26.9297V1ZM33.2812 23.4297L33.2556 22.43L31.4275 22.4769L31.4531 23.4766L31.4788 24.4762L33.3069 24.4294L33.2812 23.4297ZM31.4531 23.4766H32.4531C32.4531 21.7769 32.6619 20.2408 33.0686 18.8608L32.1094 18.5781L31.1502 18.2954C30.6819 19.8842 30.4531 21.6137 30.4531 23.4766H31.4531ZM32.1094 18.5781L33.0667 18.8673C33.4905 17.4641 34.0825 16.267 34.8326 15.2623L34.0312 14.6641L33.2299 14.0659C32.3237 15.2798 31.6345 16.6922 31.1521 18.2889L32.1094 18.5781ZM34.0312 14.6641L34.8326 15.2623C35.5771 14.2649 36.4572 13.5065 37.4741 12.9706L37.0078 12.0859L36.5416 11.2013C35.246 11.8841 34.1416 12.8445 33.2299 14.0659L34.0312 14.6641ZM37.0078 12.0859L37.4692 12.9732C38.4894 12.4426 39.6187 12.1719 40.875 12.1719V11.1719V10.1719C39.3188 10.1719 37.87 10.5105 36.5465 11.1987L37.0078 12.0859ZM40.875 11.1719V12.1719C42.0289 12.1719 43.0564 12.3376 43.9678 12.6552L44.2969 11.7109L44.6259 10.7666C43.4748 10.3655 42.2211 10.1719 40.875 10.1719V11.1719ZM44.2969 11.7109L43.9678 12.6552C44.8516 12.9632 45.6074 13.4478 46.2474 14.1144L46.9688 13.4219L47.6901 12.7293C46.8301 11.8334 45.8047 11.1774 44.6259 10.7666L44.2969 11.7109ZM46.9688 13.4219L46.2474 14.1144C46.8708 14.7638 47.3808 15.6447 47.751 16.7978L48.7031 16.4922L49.6553 16.1866C49.2129 14.8084 48.5667 13.6424 47.6901 12.7293L46.9688 13.4219ZM48.7031 16.4922L47.751 16.7978C48.1164 17.9361 48.3125 19.3656 48.3125 21.1094H49.3125H50.3125C50.3125 19.2281 50.1024 17.5795 49.6553 16.1866L48.7031 16.4922ZM49.3125 21.1094H48.3125V37H49.3125H50.3125V21.1094H49.3125ZM49.3125 37V36H41.9531V37V38H49.3125V37ZM41.9531 37H42.9531V21.0625H41.9531H40.9531V37H41.9531ZM41.9531 21.0625H42.9531C42.9531 19.9077 42.789 18.8839 42.3742 18.0749L41.4844 18.5312L40.5946 18.9876C40.8047 19.3974 40.9531 20.0611 40.9531 21.0625H41.9531ZM41.4844 18.5312L42.3834 18.0933C41.9905 17.2868 41.3836 16.6767 40.5688 16.3243L40.1719 17.2422L39.775 18.16C40.1164 18.3077 40.3845 18.557 40.5854 18.9692L41.4844 18.5312ZM40.1719 17.2422L40.578 16.3284C39.8537 16.0065 39.0192 15.8672 38.1094 15.8672V16.8672V17.8672C38.8246 17.8672 39.365 17.9779 39.7657 18.156L40.1719 17.2422ZM38.1094 16.8672V15.8672C37.0423 15.8672 36.0743 16.0589 35.2603 16.5066L35.7422 17.3828L36.2241 18.259C36.6601 18.0192 37.2702 17.8672 38.1094 17.8672V16.8672ZM35.7422 17.3828L35.2774 16.4974C34.494 16.9087 33.8655 17.4955 33.4101 18.2478L34.2656 18.7656L35.1211 19.2834C35.3845 18.8483 35.7404 18.5132 36.207 18.2682L35.7422 17.3828ZM34.2656 18.7656L33.4101 18.2478C32.9807 18.9573 32.6859 19.7664 32.5109 20.6591L33.4922 20.8516L34.4735 21.044C34.611 20.3429 34.8318 19.7615 35.1211 19.2834L34.2656 18.7656ZM33.4922 20.8516L32.5074 20.6778C32.3554 21.5393 32.2812 22.4574 32.2812 23.4297H33.2812H34.2812C34.2812 22.5582 34.3478 21.7576 34.477 21.0253L33.4922 20.8516ZM53.8359 18.9531L54.7827 19.275L54.7837 19.2722L53.8359 18.9531ZM59.9766 12.1562L60.3693 13.0759L60.3774 13.0724L59.9766 12.1562ZM70.3359 12.1562L69.9351 13.0725L69.9466 13.0773L70.3359 12.1562ZM76.5 18.9531L75.5523 19.2722L75.5532 19.275L76.5 18.9531ZM76.5 29.7109L77.4468 30.0328L77.4477 30.03L76.5 29.7109ZM74.1562 33.8125L74.9026 34.4781L74.907 34.4731L74.1562 33.8125ZM56.1797 33.8125L55.429 34.4731L55.4334 34.4781L56.1797 33.8125ZM53.8359 29.7109L52.8882 30.03L52.8892 30.0328L53.8359 29.7109ZM60.6094 27.3906L59.6249 27.5664L59.6265 27.5749L59.6281 27.5834L60.6094 27.3906ZM62.9062 31.2344L62.3822 32.086L62.3949 32.0938L62.4078 32.1013L62.9062 31.2344ZM67.4297 31.2344L67.9377 32.0957L67.9458 32.091L67.9538 32.086L67.4297 31.2344ZM69.7031 27.3906L68.7219 27.1979L68.7202 27.2063L68.7187 27.2148L69.7031 27.3906ZM69.7031 21.3203L68.7187 21.4961L68.7205 21.5063L68.7225 21.5164L69.7031 21.3203ZM67.4062 17.4297L66.8821 18.2814L66.8918 18.2872L67.4062 17.4297ZM60.6094 21.3203L59.628 21.1275L59.6255 21.1414L60.6094 21.3203ZM53.0391 24.5781H54.0391V24.0859H53.0391H52.0391V24.5781H53.0391ZM53.0391 24.0859H54.0391C54.0391 22.3223 54.2909 20.7216 54.7827 19.275L53.8359 18.9531L52.8892 18.6312C52.3185 20.3096 52.0391 22.1308 52.0391 24.0859H53.0391ZM53.8359 18.9531L54.7837 19.2722C55.2751 17.8123 55.9911 16.5653 56.926 15.5172L56.1797 14.8516L55.4334 14.1859C54.3057 15.4503 53.4593 16.9377 52.8882 18.6341L53.8359 18.9531ZM56.1797 14.8516L56.926 15.5172C57.8543 14.4763 58.9971 13.6619 60.3693 13.0759L59.9766 12.1562L59.5838 11.2366C57.956 11.9318 56.5675 12.9143 55.4334 14.1859L56.1797 14.8516ZM59.9766 12.1562L60.3774 13.0724C61.73 12.4806 63.3083 12.1719 65.1328 12.1719V11.1719V10.1719C63.0823 10.1719 61.2231 10.5194 59.5757 11.2401L59.9766 12.1562ZM65.1328 11.1719V12.1719C66.991 12.1719 68.5844 12.4815 69.9351 13.0724L70.3359 12.1562L70.7368 11.2401C69.0875 10.5185 67.2121 10.1719 65.1328 10.1719V11.1719ZM70.3359 12.1562L69.9466 13.0773C71.3344 13.664 72.4834 14.4783 73.41 15.5172L74.1562 14.8516L74.9025 14.1859C73.7666 12.9123 72.3687 11.9298 70.7253 11.2352L70.3359 12.1562ZM74.1562 14.8516L73.41 15.5172C74.3448 16.5653 75.0608 17.8123 75.5523 19.2722L76.5 18.9531L77.4477 18.6341C76.8767 16.9377 76.0302 15.4503 74.9025 14.1859L74.1562 14.8516ZM76.5 18.9531L75.5532 19.275C76.0451 20.7216 76.2969 22.3223 76.2969 24.0859H77.2969H78.2969C78.2969 22.1308 78.0174 20.3096 77.4468 18.6312L76.5 18.9531ZM77.2969 24.0859H76.2969V24.5781H77.2969H78.2969V24.0859H77.2969ZM77.2969 24.5781H76.2969C76.2969 26.3249 76.0454 27.927 75.5523 29.3919L76.5 29.7109L77.4477 30.03C78.0171 28.3386 78.2969 26.5188 78.2969 24.5781H77.2969ZM76.5 29.7109L75.5532 29.389C75.0619 30.8341 74.3448 32.0845 73.4055 33.1519L74.1562 33.8125L74.907 34.4731C76.0302 33.1968 76.8756 31.7128 77.4468 30.0328L76.5 29.7109ZM74.1562 33.8125L73.41 33.1469C72.4816 34.1878 71.3388 35.0021 69.9666 35.5882L70.3594 36.5078L70.7521 37.4275C72.3799 36.7323 73.7684 35.7497 74.9025 34.4781L74.1562 33.8125ZM70.3594 36.5078L69.9666 35.5882C68.6127 36.1664 67.0239 36.4688 65.1797 36.4688V37.4688V38.4688C67.2417 38.4688 69.106 38.1305 70.7521 37.4275L70.3594 36.5078ZM65.1797 37.4688V36.4688C63.3526 36.4688 61.7619 36.1669 60.3893 35.5867L60 36.5078L59.6107 37.4289C61.2693 38.13 63.1318 38.4688 65.1797 38.4688V37.4688ZM60 36.5078L60.3893 35.5867C59.0015 35.0001 57.8526 34.1858 56.926 33.1469L56.1797 33.8125L55.4334 34.4781C56.5693 35.7517 57.9673 36.7343 59.6107 37.4289L60 36.5078ZM56.1797 33.8125L56.9304 33.1519C55.9911 32.0845 55.274 30.8341 54.7827 29.389L53.8359 29.7109L52.8892 30.0328C53.4604 31.7128 54.3058 33.1968 55.429 34.4731L56.1797 33.8125ZM53.8359 29.7109L54.7837 29.3919C54.2905 27.927 54.0391 26.3249 54.0391 24.5781H53.0391H52.0391C52.0391 26.5188 52.3188 28.3386 52.8882 30.03L53.8359 29.7109ZM60.375 24.0859H59.375V24.5781H60.375H61.375V24.0859H60.375ZM60.375 24.5781H59.375C59.375 25.6299 59.4571 26.6267 59.6249 27.5664L60.6094 27.3906L61.5938 27.2148C61.4491 26.4045 61.375 25.5264 61.375 24.5781H60.375ZM60.6094 27.3906L59.6281 27.5834C59.8173 28.5463 60.1239 29.4179 60.5614 30.1836L61.4297 29.6875L62.2979 29.1914C61.9855 28.6446 61.7452 27.985 61.5906 27.1979L60.6094 27.3906ZM61.4297 29.6875L60.5614 30.1836C61.0147 30.9769 61.622 31.6182 62.3822 32.086L62.9062 31.2344L63.4303 30.3827C62.9717 30.1005 62.5947 29.7106 62.2979 29.1914L61.4297 29.6875ZM62.9062 31.2344L62.4078 32.1013C63.2163 32.5662 64.1549 32.7734 65.1797 32.7734V31.7734V30.7734C64.4232 30.7734 63.8462 30.6213 63.4047 30.3675L62.9062 31.2344ZM65.1797 31.7734V32.7734C66.2033 32.7734 67.1393 32.5666 67.9377 32.0957L67.4297 31.2344L66.9217 30.373C66.5013 30.6209 65.9373 30.7734 65.1797 30.7734V31.7734ZM67.4297 31.2344L67.9538 32.086C68.7139 31.6182 69.3212 30.9769 69.7745 30.1836L68.9062 29.6875L68.038 29.1914C67.7413 29.7106 67.3642 30.1005 66.9056 30.3827L67.4297 31.2344ZM68.9062 29.6875L69.7745 30.1836C70.2153 29.4123 70.5146 28.5347 70.6876 27.5664L69.7031 27.3906L68.7187 27.2148C68.5791 27.9966 68.3472 28.6502 68.038 29.1914L68.9062 29.6875ZM69.7031 27.3906L70.6844 27.5834C70.8701 26.6378 70.9609 25.6352 70.9609 24.5781H69.9609H68.9609C68.9609 25.5211 68.8799 26.3935 68.7219 27.1979L69.7031 27.3906ZM69.9609 24.5781H70.9609V24.0859H69.9609H68.9609V24.5781H69.9609ZM69.9609 24.0859H70.9609C70.9609 23.0436 70.87 22.0555 70.6837 21.1242L69.7031 21.3203L68.7225 21.5164C68.88 22.3039 68.9609 23.1595 68.9609 24.0859H69.9609ZM69.7031 21.3203L70.6876 21.1445C70.5148 20.1769 70.2162 19.2952 69.7794 18.5126L68.9062 19L68.0331 19.4874C68.3463 20.0485 68.579 20.7138 68.7187 21.4961L69.7031 21.3203ZM68.9062 19L69.7794 18.5126C69.3242 17.697 68.704 17.0422 67.9207 16.5722L67.4062 17.4297L66.8918 18.2872C67.3585 18.5672 67.7383 18.9593 68.0331 19.4874L68.9062 19ZM67.4062 17.4297L67.9303 16.578C67.1264 16.0833 66.1753 15.8672 65.1328 15.8672V16.8672V17.8672C65.9028 17.8672 66.4673 18.0261 66.8822 18.2813L67.4062 17.4297ZM65.1328 16.8672V15.8672C64.114 15.8672 63.1809 16.0865 62.3822 16.578L62.9062 17.4297L63.4303 18.2813C63.8503 18.0229 64.4016 17.8672 65.1328 17.8672V16.8672ZM62.9062 17.4297L62.3822 16.578C61.6163 17.0493 61.0083 17.7031 60.5565 18.5126L61.4297 19L62.3029 19.4874C62.601 18.9532 62.9775 18.56 63.4303 18.2813L62.9062 17.4297ZM61.4297 19L60.5565 18.5126C60.1228 19.2897 59.8171 20.1653 59.6281 21.1276L60.6094 21.3203L61.5906 21.5131C61.7454 20.7253 61.9866 20.0541 62.3029 19.4874L61.4297 19ZM60.6094 21.3203L59.6255 21.1414C59.4573 22.0667 59.375 23.049 59.375 24.0859H60.375H61.375C61.375 23.1541 61.449 22.2927 61.5932 21.4992L60.6094 21.3203ZM88.4766 16.5156H89.4766V16.4653L89.4715 16.4152L88.4766 16.5156ZM88.4766 46.75V47.75H89.4766V46.75H88.4766ZM81.1641 46.75H80.1641V47.75H81.1641V46.75ZM81.1641 11.6406V10.6406H80.1641V11.6406H81.1641ZM87.9844 11.6406L88.9793 11.5402L88.8885 10.6406H87.9844V11.6406ZM103.664 29.6641L104.629 29.9247L104.63 29.9223L103.664 29.6641ZM101.766 33.7656L100.954 33.1813L100.949 33.1885L101.766 33.7656ZM98.6953 36.5078L99.1606 37.393L99.1694 37.3883L98.6953 36.5078ZM90.4688 36.5078L89.9596 37.3685L89.9667 37.3727L89.9739 37.3768L90.4688 36.5078ZM87.6562 33.7891L86.814 34.3281L86.8182 34.3347L86.8225 34.3412L87.6562 33.7891ZM85.8281 29.7812L84.87 30.0677L84.8736 30.0795L85.8281 29.7812ZM84.7734 24.9297H83.7734V25.002L83.7839 25.0736L84.7734 24.9297ZM84.7734 23.9688L83.7827 23.8333L83.7734 23.9007V23.9688H84.7734ZM87.6797 14.8281L88.5153 15.3775L88.5186 15.3723L87.6797 14.8281ZM101.766 14.7109L100.956 15.2985L100.961 15.3047L100.966 15.3109L101.766 14.7109ZM96.7266 21.2031L95.7421 21.3789L95.7427 21.382L96.7266 21.2031ZM95.9766 18.9297L95.0907 19.3937L95.0954 19.4025L95.9766 18.9297ZM88.8516 18.5312L89.6686 19.108L89.6763 19.0968L88.8516 18.5312ZM88.0312 20.5L87.0546 20.2851L87.0526 20.2945L87.0507 20.3039L88.0312 20.5ZM87.7734 23.1719L86.7736 23.1563L86.7734 23.1641V23.1719H87.7734ZM87.7734 25.75H86.7733L86.7735 25.7633L87.7734 25.75ZM88.2656 28.8906L87.3186 29.2117L87.3219 29.2214L87.3254 29.2311L88.2656 28.8906ZM89.7891 31.0234L89.1891 31.8234L89.1992 31.831L89.2095 31.8384L89.7891 31.0234ZM94.6641 31.2344L95.2132 32.0701L95.2188 32.0664L94.6641 31.2344ZM96 29.6641L95.1097 29.2086L95.1055 29.2169L95.1014 29.2252L96 29.6641ZM96.7266 27.3438L95.7421 27.168L95.7406 27.1765L95.7392 27.1851L96.7266 27.3438ZM88.4766 16.5156H87.4766V46.75H88.4766H89.4766V16.5156H88.4766ZM88.4766 46.75V45.75H81.1641V46.75V47.75H88.4766V46.75ZM81.1641 46.75H82.1641V11.6406H81.1641H80.1641V46.75H81.1641ZM81.1641 11.6406V12.6406H87.9844V11.6406V10.6406H81.1641V11.6406ZM87.9844 11.6406L86.9894 11.7411L87.4816 16.6161L88.4766 16.5156L89.4715 16.4152L88.9793 11.5402L87.9844 11.6406ZM104.297 24.0391H103.297V24.5312H104.297H105.297V24.0391H104.297ZM104.297 24.5312H103.297C103.297 26.2988 103.095 27.9219 102.698 29.4058L103.664 29.6641L104.63 29.9223C105.077 28.25 105.297 26.4512 105.297 24.5312H104.297ZM103.664 29.6641L102.699 29.4034C102.304 30.8636 101.719 32.1183 100.954 33.1813L101.766 33.7656L102.577 34.3499C103.499 33.0692 104.18 31.5895 104.629 29.9247L103.664 29.6641ZM101.766 33.7656L100.949 33.1885C100.207 34.2389 99.2988 35.0471 98.2212 35.6273L98.6953 36.5078L99.1694 37.3883C100.529 36.656 101.668 35.6361 102.582 34.3427L101.766 33.7656ZM98.6953 36.5078L98.23 35.6226C97.1772 36.176 95.9278 36.4688 94.4531 36.4688V37.4688V38.4688C96.1972 38.4688 97.7759 38.1208 99.1606 37.393L98.6953 36.5078ZM94.4531 37.4688V36.4688C93.0635 36.4688 91.9123 36.1791 90.9636 35.6388L90.4688 36.5078L89.9739 37.3768C91.2752 38.1178 92.7802 38.4688 94.4531 38.4688V37.4688ZM90.4688 36.5078L90.9779 35.6471C90.0084 35.0736 89.1786 34.2769 88.49 33.237L87.6562 33.7891L86.8225 34.3412C87.6651 35.6137 88.7104 36.6295 89.9596 37.3685L90.4688 36.5078ZM87.6562 33.7891L88.4985 33.25C87.8022 32.162 87.2282 30.9089 86.7826 29.483L85.8281 29.7812L84.8736 30.0795C85.3656 31.6536 86.0103 33.0724 86.814 34.3281L87.6562 33.7891ZM85.8281 29.7812L86.7862 29.4948C86.3483 28.0301 86.0067 26.4609 85.763 24.7857L84.7734 24.9297L83.7839 25.0736C84.0402 26.836 84.4017 28.5011 84.87 30.0677L85.8281 29.7812ZM84.7734 24.9297H85.7734V23.9688H84.7734H83.7734V24.9297H84.7734ZM84.7734 23.9688L85.7642 24.1042C86.0081 22.321 86.3573 20.677 86.8094 19.1702L85.8516 18.8828L84.8937 18.5955C84.4083 20.2136 84.0388 21.9603 83.7827 23.8333L84.7734 23.9688ZM85.8516 18.8828L86.8094 19.1702C87.2555 17.683 87.8277 16.4232 88.5152 15.3775L87.6797 14.8281L86.8441 14.2787C86.0317 15.5143 85.3851 16.9576 84.8937 18.5955L85.8516 18.8828ZM87.6797 14.8281L88.5186 15.3723C89.1894 14.3383 90.0065 13.5545 90.9688 12.9988L90.4688 12.1328L89.9687 11.2668C88.7123 11.9924 87.67 13.0054 86.8407 14.2839L87.6797 14.8281ZM90.4688 12.1328L90.9688 12.9988C91.8989 12.4617 93.0396 12.1719 94.4297 12.1719V11.1719V10.1719C92.7572 10.1719 91.2573 10.5227 89.9687 11.2668L90.4688 12.1328ZM94.4297 11.1719V12.1719C95.8941 12.1719 97.1527 12.4512 98.2292 12.9826L98.6719 12.0859L99.1145 11.1893C97.7223 10.502 96.1528 10.1719 94.4297 10.1719V11.1719ZM98.6719 12.0859L98.2292 12.9826C99.3146 13.5184 100.221 14.2858 100.956 15.2985L101.766 14.7109L102.575 14.1234C101.654 12.8548 100.498 11.8722 99.1145 11.1893L98.6719 12.0859ZM101.766 14.7109L100.966 15.3109C101.721 16.3186 102.304 17.5495 102.698 19.0239L103.664 18.7656L104.63 18.5074C104.181 16.8255 103.497 15.3533 102.566 14.1109L101.766 14.7109ZM103.664 18.7656L102.698 19.0239C103.094 20.5039 103.297 22.1731 103.297 24.0391H104.297H105.297C105.297 22.03 105.078 20.1836 104.63 18.5074L103.664 18.7656ZM96.9609 24.5312H97.9609V24.0391H96.9609H95.9609V24.5312H96.9609ZM96.9609 24.0391H97.9609C97.9609 22.9582 97.8791 21.9521 97.7104 21.0242L96.7266 21.2031L95.7427 21.382C95.8865 22.1729 95.9609 23.0574 95.9609 24.0391H96.9609ZM96.7266 21.2031L97.711 21.0273C97.5402 20.0707 97.261 19.2085 96.8577 18.4569L95.9766 18.9297L95.0954 19.4025C95.3796 19.9322 95.6005 20.5855 95.7421 21.3789L96.7266 21.2031ZM95.9766 18.9297L96.8624 18.4657C96.4469 17.6724 95.8806 17.0268 95.1556 16.5636L94.6172 17.4062L94.0788 18.2489C94.4788 18.5045 94.8187 18.8744 95.0907 19.3937L95.9766 18.9297ZM94.6172 17.4062L95.1556 16.5636C94.4004 16.0811 93.5163 15.8672 92.5547 15.8672V16.8672V17.8672C93.2181 17.8672 93.7089 18.0126 94.0788 18.2489L94.6172 17.4062ZM92.5547 16.8672V15.8672C91.5771 15.8672 90.6833 16.0237 89.9091 16.3811L90.3281 17.2891L90.7472 18.197C91.1917 17.9919 91.7823 17.8672 92.5547 17.8672V16.8672ZM90.3281 17.2891L89.9091 16.3811C89.1382 16.7369 88.505 17.2683 88.0268 17.9657L88.8516 18.5312L89.6763 19.0968C89.9481 18.7004 90.2993 18.4037 90.7472 18.197L90.3281 17.2891ZM88.8516 18.5312L88.0346 17.9546C87.5673 18.6165 87.2487 19.4029 87.0546 20.2851L88.0312 20.5L89.0079 20.7149C89.1576 20.0346 89.3858 19.5085 89.6685 19.1079L88.8516 18.5312ZM88.0312 20.5L87.0507 20.3039C86.88 21.1574 86.7899 22.1102 86.7736 23.1563L87.7734 23.1719L88.7733 23.1875C88.7882 22.2335 88.87 21.4051 89.0118 20.6961L88.0312 20.5ZM87.7734 23.1719H86.7734V25.75H87.7734H88.7734V23.1719H87.7734ZM87.7734 25.75L86.7735 25.7633C86.7903 27.0193 86.9664 28.1728 87.3186 29.2117L88.2656 28.8906L89.2127 28.5696C88.9398 27.7647 88.7878 26.8245 88.7733 25.7367L87.7734 25.75ZM88.2656 28.8906L87.3254 29.2311C87.7114 30.2974 88.3273 31.1772 89.1891 31.8234L89.7891 31.0234L90.3891 30.2234C89.8758 29.8385 89.4761 29.2964 89.2059 28.5502L88.2656 28.8906ZM89.7891 31.0234L89.2095 31.8384C90.133 32.4951 91.2949 32.7734 92.6016 32.7734V31.7734V30.7734C91.5644 30.7734 90.8514 30.5518 90.3686 30.2085L89.7891 31.0234ZM92.6016 31.7734V32.7734C93.5732 32.7734 94.4649 32.5618 95.2132 32.0701L94.6641 31.2344L94.1149 30.3987C93.7695 30.6257 93.2861 30.7734 92.6016 30.7734V31.7734ZM94.6641 31.2344L95.2188 32.0664C95.944 31.583 96.5011 30.9167 96.8986 30.1029L96 29.6641L95.1014 29.2252C94.8426 29.7552 94.5092 30.1358 94.1094 30.4023L94.6641 31.2344ZM96 29.6641L96.8903 30.1195C97.2892 29.3398 97.5595 28.4633 97.7139 27.5024L96.7266 27.3438L95.7392 27.1851C95.6124 27.9742 95.3983 28.6446 95.1097 29.2086L96 29.6641ZM96.7266 27.3438L97.711 27.5195C97.8788 26.5798 97.9609 25.583 97.9609 24.5312H96.9609H95.9609C95.9609 25.4795 95.8868 26.3577 95.7421 27.168L96.7266 27.3438ZM115.523 16.5156H116.523V16.4653L116.518 16.4152L115.523 16.5156ZM115.523 46.75V47.75H116.523V46.75H115.523ZM108.211 46.75H107.211V47.75H108.211V46.75ZM108.211 11.6406V10.6406H107.211V11.6406H108.211ZM115.031 11.6406L116.026 11.5402L115.935 10.6406H115.031V11.6406ZM130.711 29.6641L131.676 29.9247L131.677 29.9223L130.711 29.6641ZM128.812 33.7656L128.001 33.1813L127.996 33.1885L128.812 33.7656ZM125.742 36.5078L126.207 37.393L126.216 37.3883L125.742 36.5078ZM117.516 36.5078L117.006 37.3685L117.014 37.3727L117.021 37.3768L117.516 36.5078ZM114.703 33.7891L113.861 34.3281L113.865 34.3347L113.869 34.3412L114.703 33.7891ZM112.875 29.7812L111.917 30.0677L111.921 30.0795L112.875 29.7812ZM111.82 24.9297H110.82V25.002L110.831 25.0736L111.82 24.9297ZM111.82 23.9688L110.83 23.8333L110.82 23.9007V23.9688H111.82ZM114.727 14.8281L115.562 15.3775L115.566 15.3723L114.727 14.8281ZM128.812 14.7109L128.003 15.2985L128.008 15.3047L128.012 15.3109L128.812 14.7109ZM123.773 21.2031L122.789 21.3789L122.79 21.382L123.773 21.2031ZM123.023 18.9297L122.138 19.3937L122.142 19.4025L123.023 18.9297ZM115.898 18.5312L116.715 19.108L116.723 19.0968L115.898 18.5312ZM115.078 20.5L114.101 20.2851L114.099 20.2945L114.098 20.3039L115.078 20.5ZM114.82 23.1719L113.82 23.1563L113.82 23.1641V23.1719H114.82ZM114.82 25.75H113.82L113.82 25.7633L114.82 25.75ZM115.312 28.8906L114.365 29.2117L114.369 29.2214L114.372 29.2311L115.312 28.8906ZM116.836 31.0234L116.236 31.8234L116.246 31.831L116.256 31.8384L116.836 31.0234ZM121.711 31.2344L122.26 32.0701L122.266 32.0664L121.711 31.2344ZM123.047 29.6641L122.157 29.2086L122.152 29.2169L122.148 29.2252L123.047 29.6641ZM123.773 27.3438L122.789 27.168L122.787 27.1765L122.786 27.1851L123.773 27.3438ZM115.523 16.5156H114.523V46.75H115.523H116.523V16.5156H115.523ZM115.523 46.75V45.75H108.211V46.75V47.75H115.523V46.75ZM108.211 46.75H109.211V11.6406H108.211H107.211V46.75H108.211ZM108.211 11.6406V12.6406H115.031V11.6406V10.6406H108.211V11.6406ZM115.031 11.6406L114.036 11.7411L114.528 16.6161L115.523 16.5156L116.518 16.4152L116.026 11.5402L115.031 11.6406ZM131.344 24.0391H130.344V24.5312H131.344H132.344V24.0391H131.344ZM131.344 24.5312H130.344C130.344 26.2988 130.142 27.9219 129.745 29.4058L130.711 29.6641L131.677 29.9223C132.124 28.25 132.344 26.4512 132.344 24.5312H131.344ZM130.711 29.6641L129.746 29.4034C129.351 30.8636 128.766 32.1183 128.001 33.1813L128.812 33.7656L129.624 34.3499C130.546 33.0692 131.227 31.5895 131.676 29.9247L130.711 29.6641ZM128.812 33.7656L127.996 33.1885C127.254 34.2389 126.346 35.0471 125.268 35.6273L125.742 36.5078L126.216 37.3883C127.576 36.656 128.715 35.6361 129.629 34.3427L128.812 33.7656ZM125.742 36.5078L125.277 35.6226C124.224 36.176 122.975 36.4688 121.5 36.4688V37.4688V38.4688C123.244 38.4688 124.823 38.1208 126.207 37.393L125.742 36.5078ZM121.5 37.4688V36.4688C120.11 36.4688 118.959 36.1791 118.01 35.6388L117.516 36.5078L117.021 37.3768C118.322 38.1178 119.827 38.4688 121.5 38.4688V37.4688ZM117.516 36.5078L118.025 35.6471C117.055 35.0736 116.226 34.2769 115.537 33.237L114.703 33.7891L113.869 34.3412C114.712 35.6137 115.757 36.6295 117.006 37.3685L117.516 36.5078ZM114.703 33.7891L115.545 33.25C114.849 32.162 114.275 30.9089 113.829 29.483L112.875 29.7812L111.921 30.0795C112.412 31.6536 113.057 33.0724 113.861 34.3281L114.703 33.7891ZM112.875 29.7812L113.833 29.4948C113.395 28.0301 113.054 26.4609 112.81 24.7857L111.82 24.9297L110.831 25.0736C111.087 26.836 111.449 28.5011 111.917 30.0677L112.875 29.7812ZM111.82 24.9297H112.82V23.9688H111.82H110.82V24.9297H111.82ZM111.82 23.9688L112.811 24.1042C113.055 22.321 113.404 20.677 113.856 19.1702L112.898 18.8828L111.941 18.5955C111.455 20.2136 111.086 21.9603 110.83 23.8333L111.82 23.9688ZM112.898 18.8828L113.856 19.1702C114.302 17.683 114.875 16.4232 115.562 15.3775L114.727 14.8281L113.891 14.2787C113.079 15.5143 112.432 16.9576 111.941 18.5955L112.898 18.8828ZM114.727 14.8281L115.566 15.3723C116.236 14.3383 117.053 13.5545 118.016 12.9988L117.516 12.1328L117.016 11.2668C115.759 11.9924 114.717 13.0054 113.888 14.2839L114.727 14.8281ZM117.516 12.1328L118.016 12.9988C118.946 12.4617 120.087 12.1719 121.477 12.1719V11.1719V10.1719C119.804 10.1719 118.304 10.5227 117.016 11.2668L117.516 12.1328ZM121.477 11.1719V12.1719C122.941 12.1719 124.2 12.4512 125.276 12.9826L125.719 12.0859L126.161 11.1893C124.769 10.502 123.2 10.1719 121.477 10.1719V11.1719ZM125.719 12.0859L125.276 12.9826C126.361 13.5184 127.268 14.2858 128.003 15.2985L128.812 14.7109L129.622 14.1234C128.701 12.8548 127.545 11.8722 126.161 11.1893L125.719 12.0859ZM128.812 14.7109L128.012 15.3109C128.768 16.3186 129.351 17.5495 129.745 19.0239L130.711 18.7656L131.677 18.5074C131.227 16.8255 130.544 15.3533 129.613 14.1109L128.812 14.7109ZM130.711 18.7656L129.745 19.0239C130.141 20.5039 130.344 22.1731 130.344 24.0391H131.344H132.344C132.344 22.03 132.125 20.1836 131.677 18.5074L130.711 18.7656ZM124.008 24.5312H125.008V24.0391H124.008H123.008V24.5312H124.008ZM124.008 24.0391H125.008C125.008 22.9582 124.926 21.9521 124.757 21.0242L123.773 21.2031L122.79 21.382C122.933 22.1729 123.008 23.0574 123.008 24.0391H124.008ZM123.773 21.2031L124.758 21.0273C124.587 20.0707 124.308 19.2085 123.905 18.4569L123.023 18.9297L122.142 19.4025C122.426 19.9322 122.647 20.5855 122.789 21.3789L123.773 21.2031ZM123.023 18.9297L123.909 18.4657C123.494 17.6724 122.927 17.0268 122.202 16.5636L121.664 17.4062L121.126 18.2489C121.526 18.5045 121.866 18.8744 122.138 19.3937L123.023 18.9297ZM121.664 17.4062L122.202 16.5636C121.447 16.0811 120.563 15.8672 119.602 15.8672V16.8672V17.8672C120.265 17.8672 120.756 18.0126 121.126 18.2489L121.664 17.4062ZM119.602 16.8672V15.8672C118.624 15.8672 117.73 16.0237 116.956 16.3811L117.375 17.2891L117.794 18.197C118.239 17.9919 118.829 17.8672 119.602 17.8672V16.8672ZM117.375 17.2891L116.956 16.3811C116.185 16.7369 115.552 17.2683 115.074 17.9657L115.898 18.5312L116.723 19.0968C116.995 18.7004 117.346 18.4037 117.794 18.197L117.375 17.2891ZM115.898 18.5312L115.081 17.9546C114.614 18.6165 114.296 19.4029 114.101 20.2851L115.078 20.5L116.055 20.7149C116.204 20.0346 116.433 19.5085 116.715 19.1079L115.898 18.5312ZM115.078 20.5L114.098 20.3039C113.927 21.1574 113.837 22.1102 113.82 23.1563L114.82 23.1719L115.82 23.1875C115.835 22.2335 115.917 21.4051 116.059 20.6961L115.078 20.5ZM114.82 23.1719H113.82V25.75H114.82H115.82V23.1719H114.82ZM114.82 25.75L113.82 25.7633C113.837 27.0193 114.013 28.1728 114.365 29.2117L115.312 28.8906L116.26 28.5696C115.987 27.7647 115.835 26.8245 115.82 25.7367L114.82 25.75ZM115.312 28.8906L114.372 29.2311C114.758 30.2974 115.374 31.1772 116.236 31.8234L116.836 31.0234L117.436 30.2234C116.923 29.8385 116.523 29.2964 116.253 28.5502L115.312 28.8906ZM116.836 31.0234L116.256 31.8384C117.18 32.4951 118.342 32.7734 119.648 32.7734V31.7734V30.7734C118.611 30.7734 117.898 30.5518 117.415 30.2085L116.836 31.0234ZM119.648 31.7734V32.7734C120.62 32.7734 121.512 32.5618 122.26 32.0701L121.711 31.2344L121.162 30.3987C120.816 30.6257 120.333 30.7734 119.648 30.7734V31.7734ZM121.711 31.2344L122.266 32.0664C122.991 31.583 123.548 30.9167 123.945 30.1029L123.047 29.6641L122.148 29.2252C121.889 29.7552 121.556 30.1358 121.156 30.4023L121.711 31.2344ZM123.047 29.6641L123.937 30.1195C124.336 29.3398 124.606 28.4633 124.761 27.5024L123.773 27.3438L122.786 27.1851C122.659 27.9742 122.445 28.6446 122.157 29.2086L123.047 29.6641ZM123.773 27.3438L124.758 27.5195C124.926 26.5798 125.008 25.583 125.008 24.5312H124.008H123.008C123.008 25.4795 122.934 26.3577 122.789 27.168L123.773 27.3438Z" fill="black" mask="url(#path-1-outside-1_142_229)"/>
</svg>
