<svg width="131" height="46" viewBox="0 0 131 46" fill="none" xmlns="http://www.w3.org/2000/svg">
<path d="M14.9375 28.9453C14.9375 28.4766 14.7891 28.0625 14.4922 27.7031C14.2109 27.3438 13.6953 27.0156 12.9453 26.7188C12.2109 26.4219 11.1719 26.125 9.82812 25.8281C8.5625 25.5625 7.38281 25.2188 6.28906 24.7969C5.19531 24.3594 4.24219 23.8359 3.42969 23.2266C2.61719 22.6016 1.98438 21.8672 1.53125 21.0234C1.07812 20.1641 0.851562 19.1875 0.851562 18.0938C0.851562 17.0312 1.07812 16.0234 1.53125 15.0703C2 14.1172 2.67188 13.2734 3.54688 12.5391C4.4375 11.8047 5.51562 11.2266 6.78125 10.8047C8.0625 10.3828 9.51562 10.1719 11.1406 10.1719C13.375 10.1719 15.3047 10.5234 16.9297 11.2266C18.5547 11.9141 19.8047 12.8828 20.6797 14.1328C21.5547 15.3672 21.9922 16.7812 21.9922 18.375H14.6797C14.6797 17.7188 14.5547 17.1484 14.3047 16.6641C14.0547 16.1797 13.6719 15.8047 13.1562 15.5391C12.6406 15.2578 11.9609 15.1172 11.1172 15.1172C10.4609 15.1172 9.88281 15.2344 9.38281 15.4688C8.89844 15.6875 8.51562 15.9922 8.23438 16.3828C7.96875 16.7734 7.83594 17.2266 7.83594 17.7422C7.83594 18.1016 7.91406 18.4297 8.07031 18.7266C8.24219 19.0078 8.5 19.2734 8.84375 19.5234C9.20312 19.7578 9.66406 19.9688 10.2266 20.1562C10.8047 20.3438 11.5078 20.5234 12.3359 20.6953C14.1016 21.0234 15.7109 21.4844 17.1641 22.0781C18.6328 22.6719 19.8047 23.4922 20.6797 24.5391C21.5703 25.5859 22.0156 26.9688 22.0156 28.6875C22.0156 29.8125 21.7578 30.8438 21.2422 31.7812C20.7422 32.7188 20.0156 33.5391 19.0625 34.2422C18.1094 34.9453 16.9688 35.4922 15.6406 35.8828C14.3125 36.2734 12.8125 36.4688 11.1406 36.4688C8.75 36.4688 6.72656 36.0391 5.07031 35.1797C3.41406 34.3203 2.16406 33.2422 1.32031 31.9453C0.492188 30.6328 0.078125 29.2891 0.078125 27.9141H6.94531C6.97656 28.7578 7.1875 29.4453 7.57812 29.9766C7.98438 30.5078 8.50781 30.8984 9.14844 31.1484C9.78906 31.3828 10.5078 31.5 11.3047 31.5C12.1016 31.5 12.7656 31.3906 13.2969 31.1719C13.8281 30.9531 14.2344 30.6562 14.5156 30.2812C14.7969 29.8906 14.9375 29.4453 14.9375 28.9453ZM33.2422 0V36H25.9297V0H33.2422ZM32.2812 22.4297L30.4531 22.4766C30.4531 20.6953 30.6719 19.0625 31.1094 17.5781C31.5625 16.0781 32.2031 14.7734 33.0312 13.6641C33.8594 12.5547 34.8516 11.6953 36.0078 11.0859C37.1797 10.4766 38.4688 10.1719 39.875 10.1719C41.125 10.1719 42.2656 10.3516 43.2969 10.7109C44.3281 11.0703 45.2188 11.6406 45.9688 12.4219C46.7188 13.2031 47.2969 14.2266 47.7031 15.4922C48.1094 16.7578 48.3125 18.2969 48.3125 20.1094V36H40.9531V20.0625C40.9531 18.9844 40.7969 18.1406 40.4844 17.5312C40.1875 16.9219 39.75 16.4922 39.1719 16.2422C38.6094 15.9922 37.9219 15.8672 37.1094 15.8672C36.1562 15.8672 35.3672 16.0391 34.7422 16.3828C34.1172 16.7109 33.625 17.1719 33.2656 17.7656C32.9062 18.3594 32.6484 19.0547 32.4922 19.8516C32.3516 20.6484 32.2812 21.5078 32.2812 22.4297ZM52.0391 23.5781V23.0859C52.0391 21.2266 52.3047 19.5156 52.8359 17.9531C53.3672 16.375 54.1484 15.0078 55.1797 13.8516C56.2109 12.6953 57.4766 11.7969 58.9766 11.1562C60.4766 10.5 62.1953 10.1719 64.1328 10.1719C66.1016 10.1719 67.8359 10.5 69.3359 11.1562C70.8516 11.7969 72.125 12.6953 73.1562 13.8516C74.1875 15.0078 74.9688 16.375 75.5 17.9531C76.0312 19.5156 76.2969 21.2266 76.2969 23.0859V23.5781C76.2969 25.4219 76.0312 27.1328 75.5 28.7109C74.9688 30.2734 74.1875 31.6406 73.1562 32.8125C72.125 33.9688 70.8594 34.8672 69.3594 35.5078C67.8594 36.1484 66.1328 36.4688 64.1797 36.4688C62.2422 36.4688 60.5156 36.1484 59 35.5078C57.4844 34.8672 56.2109 33.9688 55.1797 32.8125C54.1484 31.6406 53.3672 30.2734 52.8359 28.7109C52.3047 27.1328 52.0391 25.4219 52.0391 23.5781ZM59.375 23.0859V23.5781C59.375 24.5781 59.4531 25.5156 59.6094 26.3906C59.7812 27.2656 60.0547 28.0312 60.4297 28.6875C60.8047 29.3438 61.2969 29.8594 61.9062 30.2344C62.5312 30.5938 63.2891 30.7734 64.1797 30.7734C65.0703 30.7734 65.8203 30.5938 66.4297 30.2344C67.0391 29.8594 67.5312 29.3438 67.9062 28.6875C68.2812 28.0312 68.5469 27.2656 68.7031 26.3906C68.875 25.5156 68.9609 24.5781 68.9609 23.5781V23.0859C68.9609 22.1016 68.875 21.1797 68.7031 20.3203C68.5469 19.4453 68.2812 18.6719 67.9062 18C67.5312 17.3281 67.0312 16.8047 66.4062 16.4297C65.7969 16.0547 65.0391 15.8672 64.1328 15.8672C63.2578 15.8672 62.5156 16.0547 61.9062 16.4297C61.2969 16.8047 60.8047 17.3281 60.4297 18C60.0547 18.6719 59.7812 19.4453 59.6094 20.3203C59.4531 21.1797 59.375 22.1016 59.375 23.0859Z" fill="#5E2A96"/>
<path d="M87.4766 15.5156V45.75H80.1641V10.6406H86.9844L87.4766 15.5156ZM103.297 23.0391V23.5312C103.297 25.375 103.086 27.0859 102.664 28.6641C102.242 30.2266 101.609 31.5938 100.766 32.7656C99.9375 33.9375 98.9141 34.8516 97.6953 35.5078C96.4766 36.1484 95.0625 36.4688 93.4531 36.4688C91.9219 36.4688 90.5938 36.1484 89.4688 35.5078C88.3594 34.8516 87.4219 33.9453 86.6562 32.7891C85.9062 31.6172 85.2969 30.2812 84.8281 28.7812C84.375 27.2656 84.0234 25.6484 83.7734 23.9297V22.9688C84.0234 21.1406 84.3828 19.4453 84.8516 17.8828C85.3203 16.3203 85.9297 14.9688 86.6797 13.8281C87.4297 12.6719 88.3594 11.7734 89.4688 11.1328C90.5781 10.4922 91.8984 10.1719 93.4297 10.1719C95.0234 10.1719 96.4375 10.4766 97.6719 11.0859C98.9062 11.6953 99.9375 12.5703 100.766 13.7109C101.609 14.8359 102.242 16.1875 102.664 17.7656C103.086 19.3438 103.297 21.1016 103.297 23.0391ZM95.9609 23.5312V23.0391C95.9609 22.0078 95.8828 21.0625 95.7266 20.2031C95.5703 19.3281 95.3203 18.5703 94.9766 17.9297C94.6328 17.2734 94.1797 16.7656 93.6172 16.4062C93.0547 16.0469 92.3672 15.8672 91.5547 15.8672C90.6797 15.8672 89.9375 16.0078 89.3281 16.2891C88.7188 16.5703 88.2266 16.9844 87.8516 17.5312C87.4766 18.0625 87.2031 18.7188 87.0312 19.5C86.875 20.2812 86.7891 21.1719 86.7734 22.1719V24.75C86.7891 25.9219 86.9531 26.9688 87.2656 27.8906C87.5938 28.7969 88.1016 29.5078 88.7891 30.0234C89.4922 30.5234 90.4297 30.7734 91.6016 30.7734C92.4297 30.7734 93.1172 30.5938 93.6641 30.2344C94.2266 29.8594 94.6719 29.3359 95 28.6641C95.3438 27.9922 95.5859 27.2188 95.7266 26.3438C95.8828 25.4688 95.9609 24.5312 95.9609 23.5312ZM114.523 15.5156V45.75H107.211V10.6406H114.031L114.523 15.5156ZM130.344 23.0391V23.5312C130.344 25.375 130.133 27.0859 129.711 28.6641C129.289 30.2266 128.656 31.5938 127.812 32.7656C126.984 33.9375 125.961 34.8516 124.742 35.5078C123.523 36.1484 122.109 36.4688 120.5 36.4688C118.969 36.4688 117.641 36.1484 116.516 35.5078C115.406 34.8516 114.469 33.9453 113.703 32.7891C112.953 31.6172 112.344 30.2812 111.875 28.7812C111.422 27.2656 111.07 25.6484 110.82 23.9297V22.9688C111.07 21.1406 111.43 19.4453 111.898 17.8828C112.367 16.3203 112.977 14.9688 113.727 13.8281C114.477 12.6719 115.406 11.7734 116.516 11.1328C117.625 10.4922 118.945 10.1719 120.477 10.1719C122.07 10.1719 123.484 10.4766 124.719 11.0859C125.953 11.6953 126.984 12.5703 127.812 13.7109C128.656 14.8359 129.289 16.1875 129.711 17.7656C130.133 19.3438 130.344 21.1016 130.344 23.0391ZM123.008 23.5312V23.0391C123.008 22.0078 122.93 21.0625 122.773 20.2031C122.617 19.3281 122.367 18.5703 122.023 17.9297C121.68 17.2734 121.227 16.7656 120.664 16.4062C120.102 16.0469 119.414 15.8672 118.602 15.8672C117.727 15.8672 116.984 16.0078 116.375 16.2891C115.766 16.5703 115.273 16.9844 114.898 17.5312C114.523 18.0625 114.25 18.7188 114.078 19.5C113.922 20.2812 113.836 21.1719 113.82 22.1719V24.75C113.836 25.9219 114 26.9688 114.312 27.8906C114.641 28.7969 115.148 29.5078 115.836 30.0234C116.539 30.5234 117.477 30.7734 118.648 30.7734C119.477 30.7734 120.164 30.5938 120.711 30.2344C121.273 29.8594 121.719 29.3359 122.047 28.6641C122.391 27.9922 122.633 27.2188 122.773 26.3438C122.93 25.4688 123.008 24.5312 123.008 23.5312Z" fill="white"/>
</svg>
