<svg width="245" height="61" viewBox="0 0 245 61" fill="none" xmlns="http://www.w3.org/2000/svg">
<mask id="path-1-outside-1_158_208" maskUnits="userSpaceOnUse" x="0" y="0" width="245" height="61" fill="black">
<rect fill="white" width="245" height="61"/>
<path d="M0 0H245V60H0V0Z"/>
</mask>
<path d="M245 60V59.6H0V60V60.4H245V60Z" fill="url(#paint0_linear_158_208)" mask="url(#path-1-outside-1_158_208)"/>
<path d="M11.9531 27.709C11.9531 27.3574 11.8418 27.0469 11.6191 26.7773C11.4082 26.5078 11.0215 26.2617 10.459 26.0391C9.9082 25.8164 9.12891 25.5938 8.12109 25.3711C7.17188 25.1719 6.28711 24.9141 5.4668 24.5977C4.64648 24.2695 3.93164 23.877 3.32227 23.4199C2.71289 22.9512 2.23828 22.4004 1.89844 21.7676C1.55859 21.123 1.38867 20.3906 1.38867 19.5703C1.38867 18.7734 1.55859 18.0176 1.89844 17.3027C2.25 16.5879 2.75391 15.9551 3.41016 15.4043C4.07812 14.8535 4.88672 14.4199 5.83594 14.1035C6.79688 13.7871 7.88672 13.6289 9.10547 13.6289C10.7812 13.6289 12.2285 13.8926 13.4473 14.4199C14.666 14.9355 15.6035 15.6621 16.2598 16.5996C16.916 17.5254 17.2441 18.5859 17.2441 19.7812H11.7598C11.7598 19.2891 11.666 18.8613 11.4785 18.498C11.291 18.1348 11.0039 17.8535 10.6172 17.6543C10.2305 17.4434 9.7207 17.3379 9.08789 17.3379C8.5957 17.3379 8.16211 17.4258 7.78711 17.6016C7.42383 17.7656 7.13672 17.9941 6.92578 18.2871C6.72656 18.5801 6.62695 18.9199 6.62695 19.3066C6.62695 19.5762 6.68555 19.8223 6.80273 20.0449C6.93164 20.2559 7.125 20.4551 7.38281 20.6426C7.65234 20.8184 7.99805 20.9766 8.41992 21.1172C8.85352 21.2578 9.38086 21.3926 10.002 21.5215C11.3262 21.7676 12.5332 22.1133 13.623 22.5586C14.7246 23.0039 15.6035 23.6191 16.2598 24.4043C16.9277 25.1895 17.2617 26.2266 17.2617 27.5156C17.2617 28.3594 17.0684 29.1328 16.6816 29.8359C16.3066 30.5391 15.7617 31.1543 15.0469 31.6816C14.332 32.209 13.4766 32.6191 12.4805 32.9121C11.4844 33.2051 10.3594 33.3516 9.10547 33.3516C7.3125 33.3516 5.79492 33.0293 4.55273 32.3848C3.31055 31.7402 2.37305 30.9316 1.74023 29.959C1.11914 28.9746 0.808594 27.9668 0.808594 26.9355H5.95898C5.98242 27.5684 6.14062 28.084 6.43359 28.4824C6.73828 28.8809 7.13086 29.1738 7.61133 29.3613C8.0918 29.5371 8.63086 29.625 9.22852 29.625C9.82617 29.625 10.3242 29.543 10.7227 29.3789C11.1211 29.2148 11.4258 28.9922 11.6367 28.7109C11.8477 28.418 11.9531 28.084 11.9531 27.709ZM25.6816 6V33H20.1973V6H25.6816ZM24.9609 22.8223L23.5898 22.8574C23.5898 21.5215 23.7539 20.2969 24.082 19.1836C24.4219 18.0586 24.9023 17.0801 25.5234 16.248C26.1445 15.416 26.8887 14.7715 27.7559 14.3145C28.6348 13.8574 29.6016 13.6289 30.6562 13.6289C31.5938 13.6289 32.4492 13.7637 33.2227 14.0332C33.9961 14.3027 34.6641 14.7305 35.2266 15.3164C35.7891 15.9023 36.2227 16.6699 36.5273 17.6191C36.832 18.5684 36.9844 19.7227 36.9844 21.082V33H31.4648V21.0469C31.4648 20.2383 31.3477 19.6055 31.1133 19.1484C30.8906 18.6914 30.5625 18.3691 30.1289 18.1816C29.707 17.9941 29.1914 17.9004 28.582 17.9004C27.8672 17.9004 27.2754 18.0293 26.8066 18.2871C26.3379 18.5332 25.9688 18.8789 25.6992 19.3242C25.4297 19.7695 25.2363 20.291 25.1191 20.8887C25.0137 21.4863 24.9609 22.1309 24.9609 22.8223ZM39.7793 23.6836V23.3145C39.7793 21.9199 39.9785 20.6367 40.377 19.4648C40.7754 18.2812 41.3613 17.2559 42.1348 16.3887C42.9082 15.5215 43.8574 14.8477 44.9824 14.3672C46.1074 13.875 47.3965 13.6289 48.8496 13.6289C50.3262 13.6289 51.627 13.875 52.752 14.3672C53.8887 14.8477 54.8438 15.5215 55.6172 16.3887C56.3906 17.2559 56.9766 18.2812 57.375 19.4648C57.7734 20.6367 57.9727 21.9199 57.9727 23.3145V23.6836C57.9727 25.0664 57.7734 26.3496 57.375 27.5332C56.9766 28.7051 56.3906 29.7305 55.6172 30.6094C54.8438 31.4766 53.8945 32.1504 52.7695 32.6309C51.6445 33.1113 50.3496 33.3516 48.8848 33.3516C47.4316 33.3516 46.1367 33.1113 45 32.6309C43.8633 32.1504 42.9082 31.4766 42.1348 30.6094C41.3613 29.7305 40.7754 28.7051 40.377 27.5332C39.9785 26.3496 39.7793 25.0664 39.7793 23.6836ZM45.2812 23.3145V23.6836C45.2812 24.4336 45.3398 25.1367 45.457 25.793C45.5859 26.4492 45.791 27.0234 46.0723 27.5156C46.3535 28.0078 46.7227 28.3945 47.1797 28.6758C47.6484 28.9453 48.2168 29.0801 48.8848 29.0801C49.5527 29.0801 50.1152 28.9453 50.5723 28.6758C51.0293 28.3945 51.3984 28.0078 51.6797 27.5156C51.9609 27.0234 52.1602 26.4492 52.2773 25.793C52.4062 25.1367 52.4707 24.4336 52.4707 23.6836V23.3145C52.4707 22.5762 52.4062 21.8848 52.2773 21.2402C52.1602 20.584 51.9609 20.0039 51.6797 19.5C51.3984 18.9961 51.0234 18.6035 50.5547 18.3223C50.0977 18.041 49.5293 17.9004 48.8496 17.9004C48.1934 17.9004 47.6367 18.041 47.1797 18.3223C46.7227 18.6035 46.3535 18.9961 46.0723 19.5C45.791 20.0039 45.5859 20.584 45.457 21.2402C45.3398 21.8848 45.2812 22.5762 45.2812 23.3145ZM66.3574 17.6367V40.3125H60.873V13.9805H65.9883L66.3574 17.6367ZM78.2227 23.2793V23.6484C78.2227 25.0312 78.0645 26.3145 77.748 27.498C77.4316 28.6699 76.957 29.6953 76.3242 30.5742C75.7031 31.4531 74.9355 32.1387 74.0215 32.6309C73.1074 33.1113 72.0469 33.3516 70.8398 33.3516C69.6914 33.3516 68.6953 33.1113 67.8516 32.6309C67.0195 32.1387 66.3164 31.459 65.7422 30.5918C65.1797 29.7129 64.7227 28.7109 64.3711 27.5859C64.0312 26.4492 63.7676 25.2363 63.5801 23.9473V23.2266C63.7676 21.8555 64.0371 20.584 64.3887 19.4121C64.7402 18.2402 65.1973 17.2266 65.7598 16.3711C66.3223 15.5039 67.0195 14.8301 67.8516 14.3496C68.6836 13.8691 69.6738 13.6289 70.8223 13.6289C72.0176 13.6289 73.0781 13.8574 74.0039 14.3145C74.9297 14.7715 75.7031 15.4277 76.3242 16.2832C76.957 17.127 77.4316 18.1406 77.748 19.3242C78.0645 20.5078 78.2227 21.8262 78.2227 23.2793ZM72.7207 23.6484V23.2793C72.7207 22.5059 72.6621 21.7969 72.5449 21.1523C72.4277 20.4961 72.2402 19.9277 71.9824 19.4473C71.7246 18.9551 71.3848 18.5742 70.9629 18.3047C70.541 18.0352 70.0254 17.9004 69.416 17.9004C68.7598 17.9004 68.2031 18.0059 67.7461 18.2168C67.2891 18.4277 66.9199 18.7383 66.6387 19.1484C66.3574 19.5469 66.1523 20.0391 66.0234 20.625C65.9062 21.2109 65.8418 21.8789 65.8301 22.6289V24.5625C65.8418 25.4414 65.9648 26.2266 66.1992 26.918C66.4453 27.5977 66.8262 28.1309 67.3418 28.5176C67.8691 28.8926 68.5723 29.0801 69.4512 29.0801C70.0723 29.0801 70.5879 28.9453 70.998 28.6758C71.4199 28.3945 71.7539 28.002 72 27.498C72.2578 26.9941 72.4395 26.4141 72.5449 25.7578C72.6621 25.1016 72.7207 24.3984 72.7207 23.6484ZM86.6426 17.6367V40.3125H81.1582V13.9805H86.2734L86.6426 17.6367ZM98.5078 23.2793V23.6484C98.5078 25.0312 98.3496 26.3145 98.0332 27.498C97.7168 28.6699 97.2422 29.6953 96.6094 30.5742C95.9883 31.4531 95.2207 32.1387 94.3066 32.6309C93.3926 33.1113 92.332 33.3516 91.125 33.3516C89.9766 33.3516 88.9805 33.1113 88.1367 32.6309C87.3047 32.1387 86.6016 31.459 86.0273 30.5918C85.4648 29.7129 85.0078 28.7109 84.6562 27.5859C84.3164 26.4492 84.0527 25.2363 83.8652 23.9473V23.2266C84.0527 21.8555 84.3223 20.584 84.6738 19.4121C85.0254 18.2402 85.4824 17.2266 86.0449 16.3711C86.6074 15.5039 87.3047 14.8301 88.1367 14.3496C88.9688 13.8691 89.959 13.6289 91.1074 13.6289C92.3027 13.6289 93.3633 13.8574 94.2891 14.3145C95.2148 14.7715 95.9883 15.4277 96.6094 16.2832C97.2422 17.127 97.7168 18.1406 98.0332 19.3242C98.3496 20.5078 98.5078 21.8262 98.5078 23.2793ZM93.0059 23.6484V23.2793C93.0059 22.5059 92.9473 21.7969 92.8301 21.1523C92.7129 20.4961 92.5254 19.9277 92.2676 19.4473C92.0098 18.9551 91.6699 18.5742 91.248 18.3047C90.8262 18.0352 90.3105 17.9004 89.7012 17.9004C89.0449 17.9004 88.4883 18.0059 88.0312 18.2168C87.5742 18.4277 87.2051 18.7383 86.9238 19.1484C86.6426 19.5469 86.4375 20.0391 86.3086 20.625C86.1914 21.2109 86.127 21.8789 86.1152 22.6289V24.5625C86.127 25.4414 86.25 26.2266 86.4844 26.918C86.7305 27.5977 87.1113 28.1309 87.627 28.5176C88.1543 28.8926 88.8574 29.0801 89.7363 29.0801C90.3574 29.0801 90.873 28.9453 91.2832 28.6758C91.7051 28.3945 92.0391 28.002 92.2852 27.498C92.543 26.9941 92.7246 26.4141 92.8301 25.7578C92.9473 25.1016 93.0059 24.3984 93.0059 23.6484Z" fill="#5E2A96"/>
<path d="M120.516 27.709C120.516 27.3574 120.404 27.0469 120.182 26.7773C119.971 26.5078 119.584 26.2617 119.021 26.0391C118.471 25.8164 117.691 25.5938 116.684 25.3711C115.734 25.1719 114.85 24.9141 114.029 24.5977C113.209 24.2695 112.494 23.877 111.885 23.4199C111.275 22.9512 110.801 22.4004 110.461 21.7676C110.121 21.123 109.951 20.3906 109.951 19.5703C109.951 18.7734 110.121 18.0176 110.461 17.3027C110.812 16.5879 111.316 15.9551 111.973 15.4043C112.641 14.8535 113.449 14.4199 114.398 14.1035C115.359 13.7871 116.449 13.6289 117.668 13.6289C119.344 13.6289 120.791 13.8926 122.01 14.4199C123.229 14.9355 124.166 15.6621 124.822 16.5996C125.479 17.5254 125.807 18.5859 125.807 19.7812H120.322C120.322 19.2891 120.229 18.8613 120.041 18.498C119.854 18.1348 119.566 17.8535 119.18 17.6543C118.793 17.4434 118.283 17.3379 117.65 17.3379C117.158 17.3379 116.725 17.4258 116.35 17.6016C115.986 17.7656 115.699 17.9941 115.488 18.2871C115.289 18.5801 115.189 18.9199 115.189 19.3066C115.189 19.5762 115.248 19.8223 115.365 20.0449C115.494 20.2559 115.688 20.4551 115.945 20.6426C116.215 20.8184 116.561 20.9766 116.982 21.1172C117.416 21.2578 117.943 21.3926 118.564 21.5215C119.889 21.7676 121.096 22.1133 122.186 22.5586C123.287 23.0039 124.166 23.6191 124.822 24.4043C125.49 25.1895 125.824 26.2266 125.824 27.5156C125.824 28.3594 125.631 29.1328 125.244 29.8359C124.869 30.5391 124.324 31.1543 123.609 31.6816C122.895 32.209 122.039 32.6191 121.043 32.9121C120.047 33.2051 118.922 33.3516 117.668 33.3516C115.875 33.3516 114.357 33.0293 113.115 32.3848C111.873 31.7402 110.936 30.9316 110.303 29.959C109.682 28.9746 109.371 27.9668 109.371 26.9355H114.521C114.545 27.5684 114.703 28.084 114.996 28.4824C115.301 28.8809 115.693 29.1738 116.174 29.3613C116.654 29.5371 117.193 29.625 117.791 29.625C118.389 29.625 118.887 29.543 119.285 29.3789C119.684 29.2148 119.988 28.9922 120.199 28.7109C120.41 28.418 120.516 28.084 120.516 27.709ZM137.848 33.3516C136.336 33.3516 134.982 33.1113 133.787 32.6309C132.592 32.1504 131.578 31.4883 130.746 30.6445C129.926 29.7891 129.299 28.8047 128.865 27.6914C128.432 26.5781 128.215 25.3887 128.215 24.123V23.4551C128.215 22.0371 128.414 20.7305 128.812 19.5352C129.211 18.3398 129.791 17.3027 130.553 16.4238C131.326 15.5332 132.275 14.8477 133.4 14.3672C134.525 13.875 135.809 13.6289 137.25 13.6289C138.598 13.6289 139.799 13.8516 140.854 14.2969C141.908 14.7305 142.799 15.3574 143.525 16.1777C144.252 16.9863 144.803 17.9648 145.178 19.1133C145.564 20.25 145.758 21.5273 145.758 22.9453V25.1953H130.43V21.6621H140.379V21.2402C140.379 20.5723 140.256 19.9863 140.01 19.4824C139.775 18.9785 139.424 18.5918 138.955 18.3223C138.498 18.041 137.918 17.9004 137.215 17.9004C136.547 17.9004 135.99 18.041 135.545 18.3223C135.1 18.6035 134.742 19.002 134.473 19.5176C134.215 20.0215 134.027 20.6133 133.91 21.293C133.793 21.9609 133.734 22.6816 133.734 23.4551V24.123C133.734 24.8613 133.834 25.5352 134.033 26.1445C134.232 26.7539 134.525 27.2754 134.912 27.709C135.299 28.1426 135.768 28.4824 136.318 28.7285C136.869 28.9746 137.496 29.0977 138.199 29.0977C139.066 29.0977 139.893 28.9336 140.678 28.6055C141.463 28.2656 142.143 27.7383 142.717 27.0234L145.283 29.959C144.896 30.5215 144.352 31.0664 143.648 31.5938C142.957 32.1094 142.125 32.5312 141.152 32.8594C140.18 33.1875 139.078 33.3516 137.848 33.3516ZM154.213 6V33H148.711V6H154.213ZM163.951 6V33H158.449V6H163.951ZM176.871 33.3516C175.359 33.3516 174.006 33.1113 172.811 32.6309C171.615 32.1504 170.602 31.4883 169.77 30.6445C168.949 29.7891 168.322 28.8047 167.889 27.6914C167.455 26.5781 167.238 25.3887 167.238 24.123V23.4551C167.238 22.0371 167.438 20.7305 167.836 19.5352C168.234 18.3398 168.814 17.3027 169.576 16.4238C170.35 15.5332 171.299 14.8477 172.424 14.3672C173.549 13.875 174.832 13.6289 176.273 13.6289C177.621 13.6289 178.822 13.8516 179.877 14.2969C180.932 14.7305 181.822 15.3574 182.549 16.1777C183.275 16.9863 183.826 17.9648 184.201 19.1133C184.588 20.25 184.781 21.5273 184.781 22.9453V25.1953H169.453V21.6621H179.402V21.2402C179.402 20.5723 179.279 19.9863 179.033 19.4824C178.799 18.9785 178.447 18.5918 177.979 18.3223C177.521 18.041 176.941 17.9004 176.238 17.9004C175.57 17.9004 175.014 18.041 174.568 18.3223C174.123 18.6035 173.766 19.002 173.496 19.5176C173.238 20.0215 173.051 20.6133 172.934 21.293C172.816 21.9609 172.758 22.6816 172.758 23.4551V24.123C172.758 24.8613 172.857 25.5352 173.057 26.1445C173.256 26.7539 173.549 27.2754 173.936 27.709C174.322 28.1426 174.791 28.4824 175.342 28.7285C175.893 28.9746 176.52 29.0977 177.223 29.0977C178.09 29.0977 178.916 28.9336 179.701 28.6055C180.486 28.2656 181.166 27.7383 181.74 27.0234L184.307 29.959C183.92 30.5215 183.375 31.0664 182.672 31.5938C181.98 32.1094 181.148 32.5312 180.176 32.8594C179.203 33.1875 178.102 33.3516 176.871 33.3516ZM192.955 18.4102V33H187.471V13.9805H192.621L192.955 18.4102ZM198.633 13.8398L198.545 18.9551C198.311 18.9199 198.006 18.8906 197.631 18.8672C197.256 18.832 196.934 18.8145 196.664 18.8145C195.961 18.8145 195.352 18.9023 194.836 19.0781C194.332 19.2422 193.91 19.4883 193.57 19.8164C193.242 20.1445 192.996 20.5547 192.832 21.0469C192.668 21.5273 192.586 22.084 192.586 22.7168L191.549 22.207C191.549 20.9531 191.672 19.8047 191.918 18.7617C192.164 17.7188 192.521 16.8164 192.99 16.0547C193.459 15.2812 194.033 14.6836 194.713 14.2617C195.393 13.8398 196.166 13.6289 197.033 13.6289C197.314 13.6289 197.602 13.6465 197.895 13.6816C198.188 13.7168 198.434 13.7695 198.633 13.8398Z" fill="white"/>
<defs>
<linearGradient id="paint0_linear_158_208" x1="0" y1="30" x2="245" y2="30" gradientUnits="userSpaceOnUse">
<stop stop-color="white"/>
<stop offset="1" stop-color="#999999" stop-opacity="0.6"/>
</linearGradient>
</defs>
</svg>
