<svg width="199" height="35" viewBox="0 0 199 35" fill="none" xmlns="http://www.w3.org/2000/svg">
<path d="M11.9531 21.709C11.9531 21.3574 11.8418 21.0469 11.6191 20.7773C11.4082 20.5078 11.0215 20.2617 10.459 20.0391C9.9082 19.8164 9.12891 19.5938 8.12109 19.3711C7.17188 19.1719 6.28711 18.9141 5.4668 18.5977C4.64648 18.2695 3.93164 17.877 3.32227 17.4199C2.71289 16.9512 2.23828 16.4004 1.89844 15.7676C1.55859 15.123 1.38867 14.3906 1.38867 13.5703C1.38867 12.7734 1.55859 12.0176 1.89844 11.3027C2.25 10.5879 2.75391 9.95508 3.41016 9.4043C4.07812 8.85352 4.88672 8.41992 5.83594 8.10352C6.79688 7.78711 7.88672 7.62891 9.10547 7.62891C10.7812 7.62891 12.2285 7.89258 13.4473 8.41992C14.666 8.93555 15.6035 9.66211 16.2598 10.5996C16.916 11.5254 17.2441 12.5859 17.2441 13.7812H11.7598C11.7598 13.2891 11.666 12.8613 11.4785 12.498C11.291 12.1348 11.0039 11.8535 10.6172 11.6543C10.2305 11.4434 9.7207 11.3379 9.08789 11.3379C8.5957 11.3379 8.16211 11.4258 7.78711 11.6016C7.42383 11.7656 7.13672 11.9941 6.92578 12.2871C6.72656 12.5801 6.62695 12.9199 6.62695 13.3066C6.62695 13.5762 6.68555 13.8223 6.80273 14.0449C6.93164 14.2559 7.125 14.4551 7.38281 14.6426C7.65234 14.8184 7.99805 14.9766 8.41992 15.1172C8.85352 15.2578 9.38086 15.3926 10.002 15.5215C11.3262 15.7676 12.5332 16.1133 13.623 16.5586C14.7246 17.0039 15.6035 17.6191 16.2598 18.4043C16.9277 19.1895 17.2617 20.2266 17.2617 21.5156C17.2617 22.3594 17.0684 23.1328 16.6816 23.8359C16.3066 24.5391 15.7617 25.1543 15.0469 25.6816C14.332 26.209 13.4766 26.6191 12.4805 26.9121C11.4844 27.2051 10.3594 27.3516 9.10547 27.3516C7.3125 27.3516 5.79492 27.0293 4.55273 26.3848C3.31055 25.7402 2.37305 24.9316 1.74023 23.959C1.11914 22.9746 0.808594 21.9668 0.808594 20.9355H5.95898C5.98242 21.5684 6.14062 22.084 6.43359 22.4824C6.73828 22.8809 7.13086 23.1738 7.61133 23.3613C8.0918 23.5371 8.63086 23.625 9.22852 23.625C9.82617 23.625 10.3242 23.543 10.7227 23.3789C11.1211 23.2148 11.4258 22.9922 11.6367 22.7109C11.8477 22.418 11.9531 22.084 11.9531 21.709ZM25.6816 0V27H20.1973V0H25.6816ZM24.9609 16.8223L23.5898 16.8574C23.5898 15.5215 23.7539 14.2969 24.082 13.1836C24.4219 12.0586 24.9023 11.0801 25.5234 10.248C26.1445 9.41602 26.8887 8.77148 27.7559 8.31445C28.6348 7.85742 29.6016 7.62891 30.6562 7.62891C31.5938 7.62891 32.4492 7.76367 33.2227 8.0332C33.9961 8.30273 34.6641 8.73047 35.2266 9.31641C35.7891 9.90234 36.2227 10.6699 36.5273 11.6191C36.832 12.5684 36.9844 13.7227 36.9844 15.082V27H31.4648V15.0469C31.4648 14.2383 31.3477 13.6055 31.1133 13.1484C30.8906 12.6914 30.5625 12.3691 30.1289 12.1816C29.707 11.9941 29.1914 11.9004 28.582 11.9004C27.8672 11.9004 27.2754 12.0293 26.8066 12.2871C26.3379 12.5332 25.9688 12.8789 25.6992 13.3242C25.4297 13.7695 25.2363 14.291 25.1191 14.8887C25.0137 15.4863 24.9609 16.1309 24.9609 16.8223ZM39.7793 17.6836V17.3145C39.7793 15.9199 39.9785 14.6367 40.377 13.4648C40.7754 12.2812 41.3613 11.2559 42.1348 10.3887C42.9082 9.52148 43.8574 8.84766 44.9824 8.36719C46.1074 7.875 47.3965 7.62891 48.8496 7.62891C50.3262 7.62891 51.627 7.875 52.752 8.36719C53.8887 8.84766 54.8438 9.52148 55.6172 10.3887C56.3906 11.2559 56.9766 12.2812 57.375 13.4648C57.7734 14.6367 57.9727 15.9199 57.9727 17.3145V17.6836C57.9727 19.0664 57.7734 20.3496 57.375 21.5332C56.9766 22.7051 56.3906 23.7305 55.6172 24.6094C54.8438 25.4766 53.8945 26.1504 52.7695 26.6309C51.6445 27.1113 50.3496 27.3516 48.8848 27.3516C47.4316 27.3516 46.1367 27.1113 45 26.6309C43.8633 26.1504 42.9082 25.4766 42.1348 24.6094C41.3613 23.7305 40.7754 22.7051 40.377 21.5332C39.9785 20.3496 39.7793 19.0664 39.7793 17.6836ZM45.2812 17.3145V17.6836C45.2812 18.4336 45.3398 19.1367 45.457 19.793C45.5859 20.4492 45.791 21.0234 46.0723 21.5156C46.3535 22.0078 46.7227 22.3945 47.1797 22.6758C47.6484 22.9453 48.2168 23.0801 48.8848 23.0801C49.5527 23.0801 50.1152 22.9453 50.5723 22.6758C51.0293 22.3945 51.3984 22.0078 51.6797 21.5156C51.9609 21.0234 52.1602 20.4492 52.2773 19.793C52.4062 19.1367 52.4707 18.4336 52.4707 17.6836V17.3145C52.4707 16.5762 52.4062 15.8848 52.2773 15.2402C52.1602 14.584 51.9609 14.0039 51.6797 13.5C51.3984 12.9961 51.0234 12.6035 50.5547 12.3223C50.0977 12.041 49.5293 11.9004 48.8496 11.9004C48.1934 11.9004 47.6367 12.041 47.1797 12.3223C46.7227 12.6035 46.3535 12.9961 46.0723 13.5C45.791 14.0039 45.5859 14.584 45.457 15.2402C45.3398 15.8848 45.2812 16.5762 45.2812 17.3145ZM66.3574 11.6367V34.3125H60.873V7.98047H65.9883L66.3574 11.6367ZM78.2227 17.2793V17.6484C78.2227 19.0312 78.0645 20.3145 77.748 21.498C77.4316 22.6699 76.957 23.6953 76.3242 24.5742C75.7031 25.4531 74.9355 26.1387 74.0215 26.6309C73.1074 27.1113 72.0469 27.3516 70.8398 27.3516C69.6914 27.3516 68.6953 27.1113 67.8516 26.6309C67.0195 26.1387 66.3164 25.459 65.7422 24.5918C65.1797 23.7129 64.7227 22.7109 64.3711 21.5859C64.0312 20.4492 63.7676 19.2363 63.5801 17.9473V17.2266C63.7676 15.8555 64.0371 14.584 64.3887 13.4121C64.7402 12.2402 65.1973 11.2266 65.7598 10.3711C66.3223 9.50391 67.0195 8.83008 67.8516 8.34961C68.6836 7.86914 69.6738 7.62891 70.8223 7.62891C72.0176 7.62891 73.0781 7.85742 74.0039 8.31445C74.9297 8.77148 75.7031 9.42773 76.3242 10.2832C76.957 11.127 77.4316 12.1406 77.748 13.3242C78.0645 14.5078 78.2227 15.8262 78.2227 17.2793ZM72.7207 17.6484V17.2793C72.7207 16.5059 72.6621 15.7969 72.5449 15.1523C72.4277 14.4961 72.2402 13.9277 71.9824 13.4473C71.7246 12.9551 71.3848 12.5742 70.9629 12.3047C70.541 12.0352 70.0254 11.9004 69.416 11.9004C68.7598 11.9004 68.2031 12.0059 67.7461 12.2168C67.2891 12.4277 66.9199 12.7383 66.6387 13.1484C66.3574 13.5469 66.1523 14.0391 66.0234 14.625C65.9062 15.2109 65.8418 15.8789 65.8301 16.6289V18.5625C65.8418 19.4414 65.9648 20.2266 66.1992 20.918C66.4453 21.5977 66.8262 22.1309 67.3418 22.5176C67.8691 22.8926 68.5723 23.0801 69.4512 23.0801C70.0723 23.0801 70.5879 22.9453 70.998 22.6758C71.4199 22.3945 71.7539 22.002 72 21.498C72.2578 20.9941 72.4395 20.4141 72.5449 19.7578C72.6621 19.1016 72.7207 18.3984 72.7207 17.6484ZM86.6426 11.6367V34.3125H81.1582V7.98047H86.2734L86.6426 11.6367ZM98.5078 17.2793V17.6484C98.5078 19.0312 98.3496 20.3145 98.0332 21.498C97.7168 22.6699 97.2422 23.6953 96.6094 24.5742C95.9883 25.4531 95.2207 26.1387 94.3066 26.6309C93.3926 27.1113 92.332 27.3516 91.125 27.3516C89.9766 27.3516 88.9805 27.1113 88.1367 26.6309C87.3047 26.1387 86.6016 25.459 86.0273 24.5918C85.4648 23.7129 85.0078 22.7109 84.6562 21.5859C84.3164 20.4492 84.0527 19.2363 83.8652 17.9473V17.2266C84.0527 15.8555 84.3223 14.584 84.6738 13.4121C85.0254 12.2402 85.4824 11.2266 86.0449 10.3711C86.6074 9.50391 87.3047 8.83008 88.1367 8.34961C88.9688 7.86914 89.959 7.62891 91.1074 7.62891C92.3027 7.62891 93.3633 7.85742 94.2891 8.31445C95.2148 8.77148 95.9883 9.42773 96.6094 10.2832C97.2422 11.127 97.7168 12.1406 98.0332 13.3242C98.3496 14.5078 98.5078 15.8262 98.5078 17.2793ZM93.0059 17.6484V17.2793C93.0059 16.5059 92.9473 15.7969 92.8301 15.1523C92.7129 14.4961 92.5254 13.9277 92.2676 13.4473C92.0098 12.9551 91.6699 12.5742 91.248 12.3047C90.8262 12.0352 90.3105 11.9004 89.7012 11.9004C89.0449 11.9004 88.4883 12.0059 88.0312 12.2168C87.5742 12.4277 87.2051 12.7383 86.9238 13.1484C86.6426 13.5469 86.4375 14.0391 86.3086 14.625C86.1914 15.2109 86.127 15.8789 86.1152 16.6289V18.5625C86.127 19.4414 86.25 20.2266 86.4844 20.918C86.7305 21.5977 87.1113 22.1309 87.627 22.5176C88.1543 22.8926 88.8574 23.0801 89.7363 23.0801C90.3574 23.0801 90.873 22.9453 91.2832 22.6758C91.7051 22.3945 92.0391 22.002 92.2852 21.498C92.543 20.9941 92.7246 20.4141 92.8301 19.7578C92.9473 19.1016 93.0059 18.3984 93.0059 17.6484Z" fill="#5E2A96"/>
<path d="M120.516 21.709C120.516 21.3574 120.404 21.0469 120.182 20.7773C119.971 20.5078 119.584 20.2617 119.021 20.0391C118.471 19.8164 117.691 19.5938 116.684 19.3711C115.734 19.1719 114.85 18.9141 114.029 18.5977C113.209 18.2695 112.494 17.877 111.885 17.4199C111.275 16.9512 110.801 16.4004 110.461 15.7676C110.121 15.123 109.951 14.3906 109.951 13.5703C109.951 12.7734 110.121 12.0176 110.461 11.3027C110.812 10.5879 111.316 9.95508 111.973 9.4043C112.641 8.85352 113.449 8.41992 114.398 8.10352C115.359 7.78711 116.449 7.62891 117.668 7.62891C119.344 7.62891 120.791 7.89258 122.01 8.41992C123.229 8.93555 124.166 9.66211 124.822 10.5996C125.479 11.5254 125.807 12.5859 125.807 13.7812H120.322C120.322 13.2891 120.229 12.8613 120.041 12.498C119.854 12.1348 119.566 11.8535 119.18 11.6543C118.793 11.4434 118.283 11.3379 117.65 11.3379C117.158 11.3379 116.725 11.4258 116.35 11.6016C115.986 11.7656 115.699 11.9941 115.488 12.2871C115.289 12.5801 115.189 12.9199 115.189 13.3066C115.189 13.5762 115.248 13.8223 115.365 14.0449C115.494 14.2559 115.688 14.4551 115.945 14.6426C116.215 14.8184 116.561 14.9766 116.982 15.1172C117.416 15.2578 117.943 15.3926 118.564 15.5215C119.889 15.7676 121.096 16.1133 122.186 16.5586C123.287 17.0039 124.166 17.6191 124.822 18.4043C125.49 19.1895 125.824 20.2266 125.824 21.5156C125.824 22.3594 125.631 23.1328 125.244 23.8359C124.869 24.5391 124.324 25.1543 123.609 25.6816C122.895 26.209 122.039 26.6191 121.043 26.9121C120.047 27.2051 118.922 27.3516 117.668 27.3516C115.875 27.3516 114.357 27.0293 113.115 26.3848C111.873 25.7402 110.936 24.9316 110.303 23.959C109.682 22.9746 109.371 21.9668 109.371 20.9355H114.521C114.545 21.5684 114.703 22.084 114.996 22.4824C115.301 22.8809 115.693 23.1738 116.174 23.3613C116.654 23.5371 117.193 23.625 117.791 23.625C118.389 23.625 118.887 23.543 119.285 23.3789C119.684 23.2148 119.988 22.9922 120.199 22.7109C120.41 22.418 120.516 22.084 120.516 21.709ZM137.848 27.3516C136.336 27.3516 134.982 27.1113 133.787 26.6309C132.592 26.1504 131.578 25.4883 130.746 24.6445C129.926 23.7891 129.299 22.8047 128.865 21.6914C128.432 20.5781 128.215 19.3887 128.215 18.123V17.4551C128.215 16.0371 128.414 14.7305 128.812 13.5352C129.211 12.3398 129.791 11.3027 130.553 10.4238C131.326 9.5332 132.275 8.84766 133.4 8.36719C134.525 7.875 135.809 7.62891 137.25 7.62891C138.598 7.62891 139.799 7.85156 140.854 8.29688C141.908 8.73047 142.799 9.35742 143.525 10.1777C144.252 10.9863 144.803 11.9648 145.178 13.1133C145.564 14.25 145.758 15.5273 145.758 16.9453V19.1953H130.43V15.6621H140.379V15.2402C140.379 14.5723 140.256 13.9863 140.01 13.4824C139.775 12.9785 139.424 12.5918 138.955 12.3223C138.498 12.041 137.918 11.9004 137.215 11.9004C136.547 11.9004 135.99 12.041 135.545 12.3223C135.1 12.6035 134.742 13.002 134.473 13.5176C134.215 14.0215 134.027 14.6133 133.91 15.293C133.793 15.9609 133.734 16.6816 133.734 17.4551V18.123C133.734 18.8613 133.834 19.5352 134.033 20.1445C134.232 20.7539 134.525 21.2754 134.912 21.709C135.299 22.1426 135.768 22.4824 136.318 22.7285C136.869 22.9746 137.496 23.0977 138.199 23.0977C139.066 23.0977 139.893 22.9336 140.678 22.6055C141.463 22.2656 142.143 21.7383 142.717 21.0234L145.283 23.959C144.896 24.5215 144.352 25.0664 143.648 25.5938C142.957 26.1094 142.125 26.5312 141.152 26.8594C140.18 27.1875 139.078 27.3516 137.848 27.3516ZM154.213 0V27H148.711V0H154.213ZM163.951 0V27H158.449V0H163.951ZM176.871 27.3516C175.359 27.3516 174.006 27.1113 172.811 26.6309C171.615 26.1504 170.602 25.4883 169.77 24.6445C168.949 23.7891 168.322 22.8047 167.889 21.6914C167.455 20.5781 167.238 19.3887 167.238 18.123V17.4551C167.238 16.0371 167.438 14.7305 167.836 13.5352C168.234 12.3398 168.814 11.3027 169.576 10.4238C170.35 9.5332 171.299 8.84766 172.424 8.36719C173.549 7.875 174.832 7.62891 176.273 7.62891C177.621 7.62891 178.822 7.85156 179.877 8.29688C180.932 8.73047 181.822 9.35742 182.549 10.1777C183.275 10.9863 183.826 11.9648 184.201 13.1133C184.588 14.25 184.781 15.5273 184.781 16.9453V19.1953H169.453V15.6621H179.402V15.2402C179.402 14.5723 179.279 13.9863 179.033 13.4824C178.799 12.9785 178.447 12.5918 177.979 12.3223C177.521 12.041 176.941 11.9004 176.238 11.9004C175.57 11.9004 175.014 12.041 174.568 12.3223C174.123 12.6035 173.766 13.002 173.496 13.5176C173.238 14.0215 173.051 14.6133 172.934 15.293C172.816 15.9609 172.758 16.6816 172.758 17.4551V18.123C172.758 18.8613 172.857 19.5352 173.057 20.1445C173.256 20.7539 173.549 21.2754 173.936 21.709C174.322 22.1426 174.791 22.4824 175.342 22.7285C175.893 22.9746 176.52 23.0977 177.223 23.0977C178.09 23.0977 178.916 22.9336 179.701 22.6055C180.486 22.2656 181.166 21.7383 181.74 21.0234L184.307 23.959C183.92 24.5215 183.375 25.0664 182.672 25.5938C181.98 26.1094 181.148 26.5312 180.176 26.8594C179.203 27.1875 178.102 27.3516 176.871 27.3516ZM192.955 12.4102V27H187.471V7.98047H192.621L192.955 12.4102ZM198.633 7.83984L198.545 12.9551C198.311 12.9199 198.006 12.8906 197.631 12.8672C197.256 12.832 196.934 12.8145 196.664 12.8145C195.961 12.8145 195.352 12.9023 194.836 13.0781C194.332 13.2422 193.91 13.4883 193.57 13.8164C193.242 14.1445 192.996 14.5547 192.832 15.0469C192.668 15.5273 192.586 16.084 192.586 16.7168L191.549 16.207C191.549 14.9531 191.672 13.8047 191.918 12.7617C192.164 11.7188 192.521 10.8164 192.99 10.0547C193.459 9.28125 194.033 8.68359 194.713 8.26172C195.393 7.83984 196.166 7.62891 197.033 7.62891C197.314 7.62891 197.602 7.64648 197.895 7.68164C198.188 7.7168 198.434 7.76953 198.633 7.83984Z" fill="white"/>
</svg>
