<svg width="16" height="18" viewBox="0 0 16 18" fill="none" xmlns="http://www.w3.org/2000/svg">
<path d="M5.15833 10.2587L10.85 13.5753M10.8417 4.42533L5.15833 7.74199M15.5 3.16699C15.5 4.5477 14.3807 5.66699 13 5.66699C11.6193 5.66699 10.5 4.5477 10.5 3.16699C10.5 1.78628 11.6193 0.666992 13 0.666992C14.3807 0.666992 15.5 1.78628 15.5 3.16699ZM5.5 9.00033C5.5 10.381 4.38071 11.5003 3 11.5003C1.61929 11.5003 0.5 10.381 0.5 9.00033C0.5 7.61961 1.61929 6.50033 3 6.50033C4.38071 6.50033 5.5 7.61961 5.5 9.00033ZM15.5 14.8337C15.5 16.2144 14.3807 17.3337 13 17.3337C11.6193 17.3337 10.5 16.2144 10.5 14.8337C10.5 13.4529 11.6193 12.3337 13 12.3337C14.3807 12.3337 15.5 13.4529 15.5 14.8337Z" stroke="#1E1E1E" stroke-linecap="round" stroke-linejoin="round"/>
</svg>
