<svg width="96" height="41" viewBox="0 0 96 41" fill="none" xmlns="http://www.w3.org/2000/svg">
<path d="M6.74667 16.5908C6.74667 15.5508 7.6 15.1508 9.01333 15.1508C11.04 15.1508 13.6 15.7642 15.6267 16.8575V10.5908C13.4133 9.71083 11.2267 9.36417 9.01333 9.36417C3.6 9.36417 0 12.1908 0 16.9108C0 24.2708 10.1333 23.0975 10.1333 26.2708C10.1333 27.4975 9.06667 27.8975 7.57333 27.8975C5.36 27.8975 2.53333 26.9908 0.293333 25.7642V32.1108C2.77333 33.1775 5.28 33.6308 7.57333 33.6308C13.12 33.6308 16.9333 30.8842 16.9333 26.1108C16.9067 18.1642 6.74667 19.5775 6.74667 16.5908ZM24.7733 4.03083L18.2667 5.4175L18.24 26.7775C18.24 30.7242 21.2 33.6308 25.1467 33.6308C27.3333 33.6308 28.9333 33.2308 29.8133 32.7508V27.3375C28.96 27.6842 24.7467 28.9108 24.7467 24.9642V15.4975H29.8133V9.8175H24.7467L24.7733 4.03083ZM38.1067 11.7908L37.68 9.8175H31.92V33.1508H38.5867V17.3375C40.16 15.2842 42.8267 15.6575 43.6533 15.9508V9.8175C42.8 9.4975 39.68 8.91083 38.1067 11.7908ZM45.28 9.8175H51.9733V33.1508H45.28V9.8175ZM45.28 7.79083L51.9733 6.35083V0.9375L45.28 2.35083V7.79083ZM65.8933 9.36417C63.28 9.36417 61.6 10.5908 60.6667 11.4442L60.32 9.79083H54.4533V40.8842L61.12 39.4708L61.1467 31.9242C62.1067 32.6175 63.52 33.6042 65.8667 33.6042C70.64 33.6042 74.9867 29.7642 74.9867 21.3108C74.96 13.5775 70.56 9.36417 65.8933 9.36417ZM64.2933 27.7375C62.72 27.7375 61.7867 27.1775 61.1467 26.4842L61.12 16.5908C61.8133 15.8175 62.7733 15.2842 64.2933 15.2842C66.72 15.2842 68.4 18.0042 68.4 21.4975C68.4 25.0708 66.7467 27.7375 64.2933 27.7375ZM96 21.5775C96 14.7508 92.6933 9.36417 86.3733 9.36417C80.0267 9.36417 76.1867 14.7508 76.1867 21.5242C76.1867 29.5508 80.72 33.6042 87.2267 33.6042C90.4 33.6042 92.8 32.8842 94.6133 31.8708V26.5375C92.8 27.4442 90.72 28.0042 88.08 28.0042C85.4933 28.0042 83.2 27.0975 82.9067 23.9508H95.9467C95.9467 23.6042 96 22.2175 96 21.5775ZM82.8267 19.0442C82.8267 16.0308 84.6667 14.7775 86.3467 14.7775C87.9733 14.7775 89.7067 16.0308 89.7067 19.0442H82.8267Z" fill="#6772E5"/>
</svg>
